<svg width="960" height="296" viewBox="0 0 960 296" fill="none" xmlns="http://www.w3.org/2000/svg">
<g clip-path="url(#clip0)">
<g filter="url(#filter0_d)">
<rect width="223" height="296" fill="white"/>
<rect x="0.5" y="0.5" width="222" height="295" stroke="#EAECF5"/>
</g>
<rect x="72" y="43" width="79.2788" height="79.353" rx="4" fill="url(#paint0_linear)"/>
<path d="M120.108 54.5909L112.085 68.5924L104.061 54.5909H77.3446L112.085 115.22L146.825 54.5909H120.108Z" fill="#4DBA87"/>
<path d="M119.971 54.5909L112.085 68.6617L104.198 54.5909H91.597L112.085 91.1468L132.573 54.5909H119.971Z" fill="#435466"/>
<path d="M56.76 261.632L59.208 252.656H60.824L57.592 264H55.976L53.016 254.8L50.088 264H48.52L45.24 252.656H46.856L49.352 261.536L52.2 252.656H53.848L56.76 261.632ZM62.4941 259.36H66.7021C66.6808 258.784 66.4888 258.315 66.1261 257.952C65.7634 257.579 65.2514 257.392 64.5901 257.392C63.9928 257.392 63.5021 257.589 63.1181 257.984C62.7341 258.368 62.5261 258.827 62.4941 259.36ZM66.9261 261.36L68.2221 261.808C67.9981 262.523 67.5821 263.109 66.9741 263.568C66.3661 264.016 65.6301 264.24 64.7661 264.24C63.6888 264.24 62.7714 263.872 62.0141 263.136C61.2674 262.389 60.8941 261.387 60.8941 260.128C60.8941 258.955 61.2568 257.984 61.9821 257.216C62.7074 256.448 63.5714 256.064 64.5741 256.064C65.7368 256.064 66.6434 256.432 67.2941 257.168C67.9448 257.893 68.2701 258.869 68.2701 260.096C68.2701 260.288 68.2594 260.448 68.2381 260.576H62.4461C62.4568 261.259 62.6808 261.819 63.1181 262.256C63.5661 262.693 64.1154 262.912 64.7661 262.912C65.8648 262.912 66.5848 262.395 66.9261 261.36ZM71.4321 259.472V264H69.9281V252.416H71.4321V257.2C71.9441 256.453 72.7227 256.08 73.7681 256.08C74.6534 256.08 75.3307 256.363 75.8001 256.928C76.2801 257.493 76.5201 258.224 76.5201 259.12V264H75.0161V259.376C75.0161 258.085 74.4187 257.44 73.2241 257.44C72.6694 257.44 72.2374 257.632 71.9281 258.016C71.6187 258.389 71.4534 258.875 71.4321 259.472ZM78.1705 261.936C78.1705 261.275 78.3839 260.747 78.8105 260.352C79.2372 259.947 79.8025 259.696 80.5065 259.6L82.5865 259.296C82.9812 259.243 83.1785 259.051 83.1785 258.72C83.1785 258.315 83.0399 257.984 82.7625 257.728C82.4852 257.472 82.0692 257.344 81.5145 257.344C81.0025 257.344 80.5972 257.488 80.2985 257.776C79.9999 258.053 79.8239 258.427 79.7705 258.896L78.3305 258.56C78.4052 257.824 78.7412 257.227 79.3385 256.768C79.9359 256.299 80.6505 256.064 81.4825 256.064C82.5705 256.064 83.3759 256.331 83.8985 256.864C84.4212 257.387 84.6825 258.059 84.6825 258.88V262.736C84.6825 263.195 84.7145 263.616 84.7785 264H83.3065C83.2532 263.68 83.2265 263.333 83.2265 262.96C83.0132 263.301 82.6985 263.6 82.2825 263.856C81.8772 264.112 81.3652 264.24 80.7465 264.24C79.9892 264.24 79.3705 264.016 78.8905 263.568C78.4105 263.109 78.1705 262.565 78.1705 261.936ZM80.9545 262.976C81.6265 262.976 82.1652 262.795 82.5705 262.432C82.9759 262.069 83.1785 261.493 83.1785 260.704V260.352L80.8265 260.704C80.4852 260.757 80.2132 260.88 80.0105 261.072C79.8079 261.264 79.7065 261.525 79.7065 261.856C79.7065 262.155 79.8185 262.416 80.0425 262.64C80.2772 262.864 80.5812 262.976 80.9545 262.976ZM88.2676 259.552V264H86.7636V256.304H88.2356V257.408C88.7476 256.523 89.537 256.08 90.6036 256.08C91.489 256.08 92.1663 256.363 92.6356 256.928C93.1156 257.493 93.3556 258.224 93.3556 259.12V264H91.8516V259.376C91.8516 258.085 91.2543 257.44 90.0596 257.44C89.4943 257.44 89.0516 257.643 88.7316 258.048C88.4223 258.443 88.2676 258.944 88.2676 259.552ZM98.7181 257.456C98.0674 257.456 97.5128 257.691 97.0541 258.16C96.6061 258.629 96.3821 259.291 96.3821 260.144C96.3821 260.987 96.6061 261.648 97.0541 262.128C97.5128 262.608 98.0728 262.848 98.7341 262.848C99.3741 262.848 99.8594 262.688 100.19 262.368C100.531 262.048 100.761 261.68 100.878 261.264L102.206 261.84C101.993 262.48 101.587 263.04 100.99 263.52C100.403 264 99.6514 264.24 98.7341 264.24C97.6141 264.24 96.6861 263.851 95.9501 263.072C95.2141 262.293 94.8461 261.317 94.8461 260.144C94.8461 258.949 95.2141 257.973 95.9501 257.216C96.6861 256.448 97.6088 256.064 98.7181 256.064C99.6568 256.064 100.414 256.304 100.99 256.784C101.577 257.264 101.961 257.84 102.142 258.512L100.782 259.088C100.665 258.64 100.441 258.256 100.11 257.936C99.7794 257.616 99.3154 257.456 98.7181 257.456ZM104.606 259.36H108.814C108.793 258.784 108.601 258.315 108.238 257.952C107.876 257.579 107.364 257.392 106.702 257.392C106.105 257.392 105.614 257.589 105.23 257.984C104.846 258.368 104.638 258.827 104.606 259.36ZM109.038 261.36L110.334 261.808C110.11 262.523 109.694 263.109 109.086 263.568C108.478 264.016 107.742 264.24 106.878 264.24C105.801 264.24 104.884 263.872 104.126 263.136C103.38 262.389 103.006 261.387 103.006 260.128C103.006 258.955 103.369 257.984 104.094 257.216C104.82 256.448 105.684 256.064 106.686 256.064C107.849 256.064 108.756 256.432 109.406 257.168C110.057 257.893 110.382 258.869 110.382 260.096C110.382 260.288 110.372 260.448 110.35 260.576H104.558C104.569 261.259 104.793 261.819 105.23 262.256C105.678 262.693 106.228 262.912 106.878 262.912C107.977 262.912 108.697 262.395 109.038 261.36Z" fill="#B5BAC6"/>
<path d="M29.994 253C29.4425 253.009 29.0021 253.462 29.0096 254.014V262.6L25.7167 259.307C25.5284 259.113 25.2699 259.004 24.9999 259.004C24.5929 259.004 24.2267 259.251 24.0735 259.628C23.9204 260.005 24.011 260.437 24.3026 260.721L29.2147 265.633C29.4034 265.88 29.6965 266.026 30.0077 266.027C30.3189 266.028 30.6127 265.883 30.8026 265.637C30.8039 265.635 30.8052 265.633 30.8065 265.631L35.7167 260.721C35.9779 260.47 36.0831 260.098 35.9918 259.747C35.9004 259.397 35.6268 259.123 35.2763 259.032C34.9259 258.94 34.5534 259.046 34.3026 259.307L31.0096 262.6V254.014C31.0133 253.743 30.9075 253.483 30.7161 253.292C30.5248 253.101 30.2643 252.996 29.994 253Z" fill="#ABB1BD"/>
<path d="M88.612 160.996L84.542 149.402H81.22L86.984 165H90.108L95.894 149.402H92.682L88.612 160.996ZM103.095 165H105.889C105.845 164.626 105.779 163.878 105.779 163.042V154.176H102.853V160.468C102.853 161.722 102.105 162.602 100.807 162.602C99.4432 162.602 98.8272 161.634 98.8272 160.424V154.176H95.9012V161.018C95.9012 163.372 97.3972 165.286 100.015 165.286C101.159 165.286 102.413 164.846 103.007 163.834C103.007 164.274 103.051 164.78 103.095 165ZM110.305 158.356C110.371 157.366 111.207 156.222 112.725 156.222C114.397 156.222 115.101 157.278 115.145 158.356H110.305ZM115.431 161.172C115.079 162.14 114.331 162.822 112.967 162.822C111.515 162.822 110.305 161.788 110.239 160.358H117.983C117.983 160.314 118.027 159.874 118.027 159.456C118.027 155.98 116.025 153.846 112.681 153.846C109.909 153.846 107.357 156.09 107.357 159.544C107.357 163.196 109.975 165.33 112.945 165.33C115.607 165.33 117.323 163.768 117.873 161.898L115.431 161.172ZM118.522 160.248C118.522 163.306 120.546 165.33 123.626 165.33C126.662 165.33 128.708 162.998 128.708 160.182V149.402H125.672V160.182C125.672 161.546 124.88 162.448 123.604 162.448C122.372 162.448 121.47 161.722 121.448 160.116V158.686L118.522 159.214V160.248ZM141.917 153.12C141.565 151.36 140.113 149.072 136.329 149.072C133.381 149.072 130.895 151.184 130.895 153.956C130.895 156.31 132.501 157.916 134.987 158.422L137.165 158.862C138.375 159.104 139.057 159.808 139.057 160.71C139.057 161.81 138.155 162.624 136.527 162.624C134.327 162.624 133.249 161.238 133.117 159.698L130.301 160.446C130.543 162.668 132.369 165.33 136.505 165.33C140.135 165.33 142.137 162.91 142.137 160.512C142.137 158.312 140.619 156.464 137.781 155.914L135.603 155.496C134.459 155.276 133.909 154.594 133.909 153.736C133.909 152.702 134.877 151.756 136.351 151.756C138.331 151.756 139.035 153.098 139.189 153.956L141.917 153.12Z" fill="black"/>
<path d="M77.3312 183.232L75.9232 183.728C75.8486 183.237 75.6086 182.795 75.2032 182.4C74.7979 181.995 74.2379 181.792 73.5232 181.792C72.8939 181.792 72.3712 181.973 71.9552 182.336C71.5392 182.699 71.3312 183.147 71.3312 183.68C71.3312 184.096 71.4539 184.448 71.6992 184.736C71.9552 185.024 72.3179 185.221 72.7872 185.328L74.4832 185.696C75.4219 185.899 76.1472 186.283 76.6592 186.848C77.1712 187.403 77.4272 188.08 77.4272 188.88C77.4272 189.797 77.0646 190.587 76.3392 191.248C75.6139 191.909 74.6699 192.24 73.5072 192.24C72.2379 192.24 71.2406 191.909 70.5152 191.248C69.8006 190.576 69.3846 189.781 69.2672 188.864L70.7712 188.384C70.8352 189.067 71.1019 189.643 71.5712 190.112C72.0406 190.581 72.6806 190.816 73.4912 190.816C74.2379 190.816 74.8139 190.645 75.2192 190.304C75.6246 189.963 75.8272 189.531 75.8272 189.008C75.8272 188.581 75.6832 188.213 75.3952 187.904C75.1072 187.584 74.6859 187.365 74.1312 187.248L72.5152 186.896C71.6726 186.715 71.0006 186.357 70.4992 185.824C69.9979 185.291 69.7472 184.613 69.7472 183.792C69.7472 182.896 70.1099 182.112 70.8352 181.44C71.5712 180.757 72.4566 180.416 73.4912 180.416C74.6539 180.416 75.5446 180.699 76.1632 181.264C76.7819 181.829 77.1712 182.485 77.3312 183.232ZM79.9814 187.36H84.1894C84.1681 186.784 83.9761 186.315 83.6134 185.952C83.2508 185.579 82.7388 185.392 82.0774 185.392C81.4801 185.392 80.9894 185.589 80.6054 185.984C80.2214 186.368 80.0134 186.827 79.9814 187.36ZM84.4134 189.36L85.7094 189.808C85.4854 190.523 85.0694 191.109 84.4614 191.568C83.8534 192.016 83.1174 192.24 82.2534 192.24C81.1761 192.24 80.2588 191.872 79.5014 191.136C78.7548 190.389 78.3814 189.387 78.3814 188.128C78.3814 186.955 78.7441 185.984 79.4694 185.216C80.1948 184.448 81.0588 184.064 82.0614 184.064C83.2241 184.064 84.1308 184.432 84.7814 185.168C85.4321 185.893 85.7574 186.869 85.7574 188.096C85.7574 188.288 85.7468 188.448 85.7254 188.576H79.9334C79.9441 189.259 80.1681 189.819 80.6054 190.256C81.0534 190.693 81.6028 190.912 82.2534 190.912C83.3521 190.912 84.0721 190.395 84.4134 189.36ZM91.6874 184.224V185.824C91.4634 185.792 91.2447 185.776 91.0314 185.776C89.6234 185.776 88.9194 186.565 88.9194 188.144V192H87.4154V184.304H88.8874V185.648C89.3567 184.667 90.1247 184.176 91.1914 184.176C91.3621 184.176 91.5274 184.192 91.6874 184.224ZM99.8549 184.304L96.7829 192H95.2629L92.1429 184.304H93.8389L96.0309 190.24L98.2389 184.304H99.8549ZM102.52 192H101.032V184.304H102.52V192ZM101 182.16C100.798 181.947 100.696 181.691 100.696 181.392C100.696 181.093 100.798 180.837 101 180.624C101.214 180.411 101.47 180.304 101.768 180.304C102.067 180.304 102.323 180.411 102.536 180.624C102.75 180.827 102.856 181.083 102.856 181.392C102.856 181.691 102.75 181.947 102.536 182.16C102.323 182.363 102.067 182.464 101.768 182.464C101.47 182.464 101.214 182.363 101 182.16ZM108.049 185.456C107.399 185.456 106.844 185.691 106.385 186.16C105.937 186.629 105.713 187.291 105.713 188.144C105.713 188.987 105.937 189.648 106.385 190.128C106.844 190.608 107.404 190.848 108.065 190.848C108.705 190.848 109.191 190.688 109.521 190.368C109.863 190.048 110.092 189.68 110.209 189.264L111.537 189.84C111.324 190.48 110.919 191.04 110.321 191.52C109.735 192 108.983 192.24 108.065 192.24C106.945 192.24 106.017 191.851 105.281 191.072C104.545 190.293 104.177 189.317 104.177 188.144C104.177 186.949 104.545 185.973 105.281 185.216C106.017 184.448 106.94 184.064 108.049 184.064C108.988 184.064 109.745 184.304 110.321 184.784C110.908 185.264 111.292 185.84 111.473 186.512L110.113 187.088C109.996 186.64 109.772 186.256 109.441 185.936C109.111 185.616 108.647 185.456 108.049 185.456ZM113.938 187.36H118.146C118.124 186.784 117.932 186.315 117.57 185.952C117.207 185.579 116.695 185.392 116.034 185.392C115.436 185.392 114.946 185.589 114.562 185.984C114.178 186.368 113.97 186.827 113.938 187.36ZM118.37 189.36L119.666 189.808C119.442 190.523 119.026 191.109 118.418 191.568C117.81 192.016 117.074 192.24 116.21 192.24C115.132 192.24 114.215 191.872 113.458 191.136C112.711 190.389 112.338 189.387 112.338 188.128C112.338 186.955 112.7 185.984 113.426 185.216C114.151 184.448 115.015 184.064 116.018 184.064C117.18 184.064 118.087 184.432 118.738 185.168C119.388 185.893 119.714 186.869 119.714 188.096C119.714 188.288 119.703 188.448 119.682 188.576H113.89C113.9 189.259 114.124 189.819 114.562 190.256C115.01 190.693 115.559 190.912 116.21 190.912C117.308 190.912 118.028 190.395 118.37 189.36ZM127.126 181.872V184.304H128.79V185.664H127.126V189.664C127.126 190.027 127.206 190.293 127.366 190.464C127.536 190.635 127.814 190.72 128.198 190.72C128.422 190.72 128.619 190.699 128.79 190.656V191.936C128.534 192.032 128.192 192.08 127.766 192.08C127.104 192.08 126.582 191.888 126.198 191.504C125.814 191.12 125.622 190.581 125.622 189.888V185.664H124.15V184.304H124.566C124.96 184.304 125.254 184.197 125.446 183.984C125.648 183.76 125.75 183.472 125.75 183.12V181.872H127.126ZM132.533 195.216H130.885L132.805 191.152L129.493 184.304H131.221L133.621 189.616L135.925 184.304H137.541L132.533 195.216ZM140.214 195.04H138.726V184.304H140.182V185.504C140.406 185.099 140.742 184.768 141.19 184.512C141.638 184.256 142.161 184.128 142.758 184.128C143.868 184.128 144.732 184.507 145.35 185.264C145.98 186.021 146.294 186.981 146.294 188.144C146.294 189.317 145.969 190.288 145.318 191.056C144.678 191.824 143.809 192.208 142.71 192.208C142.145 192.208 141.644 192.091 141.206 191.856C140.769 191.621 140.438 191.323 140.214 190.96V195.04ZM144.758 188.144C144.758 187.365 144.55 186.725 144.134 186.224C143.729 185.712 143.18 185.456 142.486 185.456C141.804 185.456 141.249 185.712 140.822 186.224C140.406 186.725 140.198 187.365 140.198 188.144C140.198 188.944 140.406 189.6 140.822 190.112C141.249 190.613 141.804 190.864 142.486 190.864C143.169 190.864 143.718 190.613 144.134 190.112C144.55 189.6 144.758 188.944 144.758 188.144ZM148.925 187.36H153.133C153.112 186.784 152.92 186.315 152.557 185.952C152.194 185.579 151.682 185.392 151.021 185.392C150.424 185.392 149.933 185.589 149.549 185.984C149.165 186.368 148.957 186.827 148.925 187.36ZM153.357 189.36L154.653 189.808C154.429 190.523 154.013 191.109 153.405 191.568C152.797 192.016 152.061 192.24 151.197 192.24C150.12 192.24 149.202 191.872 148.445 191.136C147.698 190.389 147.325 189.387 147.325 188.128C147.325 186.955 147.688 185.984 148.413 185.216C149.138 184.448 150.002 184.064 151.005 184.064C152.168 184.064 153.074 184.432 153.725 185.168C154.376 185.893 154.701 186.869 154.701 188.096C154.701 188.288 154.69 188.448 154.669 188.576H148.877C148.888 189.259 149.112 189.819 149.549 190.256C149.997 190.693 150.546 190.912 151.197 190.912C152.296 190.912 153.016 190.395 153.357 189.36Z" fill="#B5BAC6"/>
<path d="M170.511 257.664H172.479L171.999 259.904H169.711V261.424H171.663L171.119 264H172.799L173.343 261.424H175.439L174.895 264H176.559L177.103 261.424H179.471V259.904H177.439L177.919 257.664H180.271V256.128H178.239L178.783 253.632H177.119L176.575 256.128H174.479L175.023 253.632H173.343L172.799 256.128H170.511V257.664ZM174.159 257.664H176.255L175.775 259.904H173.679L174.159 257.664ZM183.313 258.816C183.313 257.728 183.473 256.8 183.873 256.176C184.193 255.664 184.689 255.328 185.441 255.328C186.209 255.328 186.673 255.664 186.993 256.176C187.409 256.8 187.569 257.728 187.569 258.816C187.569 259.904 187.409 260.832 186.993 261.456C186.673 261.968 186.209 262.304 185.441 262.304C184.689 262.304 184.193 261.968 183.873 261.456C183.473 260.832 183.313 259.904 183.313 258.816ZM181.105 258.816C181.105 260.144 181.313 261.44 182.017 262.512C182.705 263.536 183.825 264.256 185.441 264.256C187.057 264.256 188.177 263.536 188.849 262.512C189.553 261.44 189.777 260.144 189.777 258.816C189.777 257.488 189.553 256.192 188.849 255.12C188.177 254.096 187.057 253.376 185.441 253.376C183.825 253.376 182.705 254.096 182.017 255.12C181.313 256.192 181.105 257.488 181.105 258.816ZM190.605 261.088C190.733 262.72 192.301 264.256 194.557 264.256C197.053 264.256 198.541 262.576 198.541 260.64C198.541 258.416 197.069 257.168 194.989 257.168C194.301 257.168 193.565 257.392 193.117 257.808L193.629 255.52H197.981V253.616H192.125L190.893 258.944C191.117 259.008 192.701 259.552 192.909 259.632C193.245 259.248 193.805 258.928 194.509 258.928C195.469 258.928 196.349 259.488 196.349 260.672C196.349 261.712 195.549 262.368 194.557 262.368C193.453 262.368 192.717 261.584 192.669 260.624L190.605 261.088Z" fill="black"/>
<rect y="224" width="223" height="1" fill="#EAECF5"/>
<g clip-path="url(#clip1)">
<g filter="url(#filter1_d)">
<rect x="245" width="223" height="296" fill="white"/>
<rect x="245.5" y="0.5" width="222" height="295" stroke="#EAECF5"/>
</g>
<path d="M415.058 257.664H417.026L416.546 259.904H414.258V261.424H416.21L415.666 264H417.346L417.89 261.424H419.986L419.442 264H421.106L421.65 261.424H424.018V259.904H421.986L422.466 257.664H424.818V256.128H422.786L423.33 253.632H421.666L421.122 256.128H419.026L419.57 253.632H417.89L417.346 256.128H415.058V257.664ZM418.706 257.664H420.802L420.322 259.904H418.226L418.706 257.664ZM427.86 258.816C427.86 257.728 428.02 256.8 428.42 256.176C428.74 255.664 429.236 255.328 429.988 255.328C430.756 255.328 431.22 255.664 431.54 256.176C431.956 256.8 432.116 257.728 432.116 258.816C432.116 259.904 431.956 260.832 431.54 261.456C431.22 261.968 430.756 262.304 429.988 262.304C429.236 262.304 428.74 261.968 428.42 261.456C428.02 260.832 427.86 259.904 427.86 258.816ZM425.652 258.816C425.652 260.144 425.86 261.44 426.564 262.512C427.252 263.536 428.372 264.256 429.988 264.256C431.604 264.256 432.724 263.536 433.396 262.512C434.1 261.44 434.324 260.144 434.324 258.816C434.324 257.488 434.1 256.192 433.396 255.12C432.724 254.096 431.604 253.376 429.988 253.376C428.372 253.376 427.252 254.096 426.564 255.12C425.86 256.192 425.652 257.488 425.652 258.816ZM443.296 253.856C442.864 253.6 442.08 253.376 441.12 253.376C437.696 253.376 435.36 255.744 435.36 259.472C435.36 262.608 437.296 264.24 439.568 264.24C441.856 264.24 443.584 262.72 443.584 260.592C443.584 258.448 442.128 257.104 440 257.104C438.784 257.104 437.92 257.68 437.536 258.256C437.776 256.304 439.216 255.28 440.976 255.28C441.632 255.28 442.24 255.456 442.688 255.648L443.296 253.856ZM437.728 260.64C437.728 259.568 438.56 258.912 439.552 258.912C440.56 258.912 441.392 259.568 441.392 260.64C441.392 261.712 440.56 262.384 439.552 262.384C438.592 262.384 437.728 261.696 437.728 260.64Z" fill="black"/>
<path d="M301.76 261.632L304.208 252.656H305.824L302.592 264H300.976L298.016 254.8L295.088 264H293.52L290.24 252.656H291.856L294.352 261.536L297.2 252.656H298.848L301.76 261.632ZM307.494 259.36H311.702C311.681 258.784 311.489 258.315 311.126 257.952C310.763 257.579 310.251 257.392 309.59 257.392C308.993 257.392 308.502 257.589 308.118 257.984C307.734 258.368 307.526 258.827 307.494 259.36ZM311.926 261.36L313.222 261.808C312.998 262.523 312.582 263.109 311.974 263.568C311.366 264.016 310.63 264.24 309.766 264.24C308.689 264.24 307.771 263.872 307.014 263.136C306.267 262.389 305.894 261.387 305.894 260.128C305.894 258.955 306.257 257.984 306.982 257.216C307.707 256.448 308.571 256.064 309.574 256.064C310.737 256.064 311.643 256.432 312.294 257.168C312.945 257.893 313.27 258.869 313.27 260.096C313.27 260.288 313.259 260.448 313.238 260.576H307.446C307.457 261.259 307.681 261.819 308.118 262.256C308.566 262.693 309.115 262.912 309.766 262.912C310.865 262.912 311.585 262.395 311.926 261.36ZM316.432 259.472V264H314.928V252.416H316.432V257.2C316.944 256.453 317.723 256.08 318.768 256.08C319.653 256.08 320.331 256.363 320.8 256.928C321.28 257.493 321.52 258.224 321.52 259.12V264H320.016V259.376C320.016 258.085 319.419 257.44 318.224 257.44C317.669 257.44 317.237 257.632 316.928 258.016C316.619 258.389 316.453 258.875 316.432 259.472ZM323.171 261.936C323.171 261.275 323.384 260.747 323.811 260.352C324.237 259.947 324.803 259.696 325.507 259.6L327.587 259.296C327.981 259.243 328.179 259.051 328.179 258.72C328.179 258.315 328.04 257.984 327.763 257.728C327.485 257.472 327.069 257.344 326.515 257.344C326.003 257.344 325.597 257.488 325.299 257.776C325 258.053 324.824 258.427 324.771 258.896L323.331 258.56C323.405 257.824 323.741 257.227 324.339 256.768C324.936 256.299 325.651 256.064 326.483 256.064C327.571 256.064 328.376 256.331 328.899 256.864C329.421 257.387 329.683 258.059 329.683 258.88V262.736C329.683 263.195 329.715 263.616 329.779 264H328.307C328.253 263.68 328.227 263.333 328.227 262.96C328.013 263.301 327.699 263.6 327.283 263.856C326.877 264.112 326.365 264.24 325.747 264.24C324.989 264.24 324.371 264.016 323.891 263.568C323.411 263.109 323.171 262.565 323.171 261.936ZM325.955 262.976C326.627 262.976 327.165 262.795 327.571 262.432C327.976 262.069 328.179 261.493 328.179 260.704V260.352L325.827 260.704C325.485 260.757 325.213 260.88 325.011 261.072C324.808 261.264 324.707 261.525 324.707 261.856C324.707 262.155 324.819 262.416 325.043 262.64C325.277 262.864 325.581 262.976 325.955 262.976ZM333.268 259.552V264H331.764V256.304H333.236V257.408C333.748 256.523 334.537 256.08 335.604 256.08C336.489 256.08 337.166 256.363 337.636 256.928C338.116 257.493 338.356 258.224 338.356 259.12V264H336.852V259.376C336.852 258.085 336.254 257.44 335.06 257.44C334.494 257.44 334.052 257.643 333.732 258.048C333.422 258.443 333.268 258.944 333.268 259.552ZM343.718 257.456C343.067 257.456 342.513 257.691 342.054 258.16C341.606 258.629 341.382 259.291 341.382 260.144C341.382 260.987 341.606 261.648 342.054 262.128C342.513 262.608 343.073 262.848 343.734 262.848C344.374 262.848 344.859 262.688 345.19 262.368C345.531 262.048 345.761 261.68 345.878 261.264L347.206 261.84C346.993 262.48 346.587 263.04 345.99 263.52C345.403 264 344.651 264.24 343.734 264.24C342.614 264.24 341.686 263.851 340.95 263.072C340.214 262.293 339.846 261.317 339.846 260.144C339.846 258.949 340.214 257.973 340.95 257.216C341.686 256.448 342.609 256.064 343.718 256.064C344.657 256.064 345.414 256.304 345.99 256.784C346.577 257.264 346.961 257.84 347.142 258.512L345.782 259.088C345.665 258.64 345.441 258.256 345.11 257.936C344.779 257.616 344.315 257.456 343.718 257.456ZM349.606 259.36H353.814C353.793 258.784 353.601 258.315 353.238 257.952C352.876 257.579 352.364 257.392 351.702 257.392C351.105 257.392 350.614 257.589 350.23 257.984C349.846 258.368 349.638 258.827 349.606 259.36ZM354.038 261.36L355.334 261.808C355.11 262.523 354.694 263.109 354.086 263.568C353.478 264.016 352.742 264.24 351.878 264.24C350.801 264.24 349.884 263.872 349.126 263.136C348.38 262.389 348.006 261.387 348.006 260.128C348.006 258.955 348.369 257.984 349.094 257.216C349.82 256.448 350.684 256.064 351.686 256.064C352.849 256.064 353.756 256.432 354.406 257.168C355.057 257.893 355.382 258.869 355.382 260.096C355.382 260.288 355.372 260.448 355.35 260.576H349.558C349.569 261.259 349.793 261.819 350.23 262.256C350.678 262.693 351.228 262.912 351.878 262.912C352.977 262.912 353.697 262.395 354.038 261.36Z" fill="#B5BAC6"/>
<path d="M274.994 253C274.442 253.009 274.002 253.462 274.01 254.014V262.6L270.717 259.307C270.528 259.113 270.27 259.004 270 259.004C269.593 259.004 269.227 259.251 269.074 259.628C268.92 260.005 269.011 260.437 269.303 260.721L274.215 265.633C274.403 265.88 274.696 266.026 275.008 266.027C275.319 266.028 275.613 265.883 275.803 265.637C275.804 265.635 275.805 265.633 275.807 265.631L280.717 260.721C280.978 260.47 281.083 260.098 280.992 259.747C280.9 259.397 280.627 259.123 280.276 259.032C279.926 258.94 279.553 259.046 279.303 259.307L276.01 262.6V254.014C276.013 253.743 275.907 253.483 275.716 253.292C275.525 253.101 275.264 252.996 274.994 253Z" fill="#ABB1BD"/>
<path d="M319.266 149.284V146.402H306.352V149.284H311.28V162H314.338V149.284H319.266ZM322.968 166.268L329.766 151.176H326.642L323.98 157.512L321.098 151.176H317.82L322.418 160.636L319.866 166.268H322.968ZM333.777 166.18V160.944C334.305 161.67 335.405 162.264 336.901 162.264C339.959 162.264 342.005 159.844 342.005 156.566C342.005 153.354 340.179 150.934 337.011 150.934C335.383 150.934 334.173 151.66 333.689 152.496V151.176H330.851V166.18H333.777ZM339.123 156.588C339.123 158.524 337.935 159.646 336.439 159.646C334.943 159.646 333.733 158.502 333.733 156.588C333.733 154.674 334.943 153.552 336.439 153.552C337.935 153.552 339.123 154.674 339.123 156.588ZM345.768 155.356C345.834 154.366 346.67 153.222 348.188 153.222C349.86 153.222 350.564 154.278 350.608 155.356H345.768ZM350.894 158.172C350.542 159.14 349.794 159.822 348.43 159.822C346.978 159.822 345.768 158.788 345.702 157.358H353.446C353.446 157.314 353.49 156.874 353.49 156.456C353.49 152.98 351.488 150.846 348.144 150.846C345.372 150.846 342.82 153.09 342.82 156.544C342.82 160.196 345.438 162.33 348.408 162.33C351.07 162.33 352.786 160.768 353.336 158.898L350.894 158.172ZM354.183 158.986C354.315 160.218 355.437 162.33 358.693 162.33C361.531 162.33 362.895 160.526 362.895 158.766C362.895 157.182 361.817 155.884 359.683 155.444L358.143 155.114C357.549 155.004 357.153 154.674 357.153 154.146C357.153 153.53 357.769 153.068 358.539 153.068C359.771 153.068 360.233 153.882 360.321 154.52L362.763 153.97C362.631 152.804 361.597 150.846 358.517 150.846C356.185 150.846 354.469 152.452 354.469 154.388C354.469 155.906 355.415 157.16 357.505 157.622L358.935 157.952C359.771 158.128 360.101 158.524 360.101 159.008C360.101 159.58 359.639 160.086 358.671 160.086C357.395 160.086 356.757 159.294 356.691 158.436L354.183 158.986ZM369.379 153.552C370.831 153.552 371.513 154.476 371.777 155.378L374.395 154.498C373.933 152.672 372.261 150.846 369.313 150.846C366.167 150.846 363.703 153.244 363.703 156.588C363.703 159.91 366.211 162.33 369.401 162.33C372.283 162.33 373.977 160.482 374.461 158.678L371.887 157.82C371.645 158.656 370.897 159.646 369.401 159.646C367.905 159.646 366.629 158.546 366.629 156.588C366.629 154.63 367.883 153.552 369.379 153.552ZM382.525 151.132C382.305 151.11 382.085 151.088 381.843 151.088C380.919 151.088 379.423 151.352 378.763 152.782V151.176H375.925V162H378.851V157.05C378.851 154.718 380.149 153.992 381.645 153.992C381.909 153.992 382.195 154.014 382.525 154.08V151.132ZM386.822 162V151.176H383.896V162H386.822ZM383.544 147.634C383.544 148.602 384.358 149.416 385.348 149.416C386.36 149.416 387.152 148.602 387.152 147.634C387.152 146.622 386.36 145.808 385.348 145.808C384.358 145.808 383.544 146.622 383.544 147.634ZM392.193 166.18V160.944C392.721 161.67 393.821 162.264 395.317 162.264C398.375 162.264 400.421 159.844 400.421 156.566C400.421 153.354 398.595 150.934 395.427 150.934C393.799 150.934 392.589 151.66 392.105 152.496V151.176H389.267V166.18H392.193ZM397.539 156.588C397.539 158.524 396.351 159.646 394.855 159.646C393.359 159.646 392.149 158.502 392.149 156.588C392.149 154.674 393.359 153.552 394.855 153.552C396.351 153.552 397.539 154.674 397.539 156.588ZM405.615 147.942H402.975V149.46C402.975 150.428 402.447 151.176 401.303 151.176H400.753V153.772H402.711V158.81C402.711 160.9 404.031 162.154 406.143 162.154C407.001 162.154 407.529 162 407.793 161.89V159.47C407.639 159.514 407.243 159.558 406.891 159.558C406.055 159.558 405.615 159.25 405.615 158.304V153.772H407.793V151.176H405.615V147.942Z" fill="black"/>
<path d="M322.331 183.232L320.923 183.728C320.849 183.237 320.609 182.795 320.203 182.4C319.798 181.995 319.238 181.792 318.523 181.792C317.894 181.792 317.371 181.973 316.955 182.336C316.539 182.699 316.331 183.147 316.331 183.68C316.331 184.096 316.454 184.448 316.699 184.736C316.955 185.024 317.318 185.221 317.787 185.328L319.483 185.696C320.422 185.899 321.147 186.283 321.659 186.848C322.171 187.403 322.427 188.08 322.427 188.88C322.427 189.797 322.065 190.587 321.339 191.248C320.614 191.909 319.67 192.24 318.507 192.24C317.238 192.24 316.241 191.909 315.515 191.248C314.801 190.576 314.385 189.781 314.267 188.864L315.771 188.384C315.835 189.067 316.102 189.643 316.571 190.112C317.041 190.581 317.681 190.816 318.491 190.816C319.238 190.816 319.814 190.645 320.219 190.304C320.625 189.963 320.827 189.531 320.827 189.008C320.827 188.581 320.683 188.213 320.395 187.904C320.107 187.584 319.686 187.365 319.131 187.248L317.515 186.896C316.673 186.715 316.001 186.357 315.499 185.824C314.998 185.291 314.747 184.613 314.747 183.792C314.747 182.896 315.11 182.112 315.835 181.44C316.571 180.757 317.457 180.416 318.491 180.416C319.654 180.416 320.545 180.699 321.163 181.264C321.782 181.829 322.171 182.485 322.331 183.232ZM324.981 187.36H329.189C329.168 186.784 328.976 186.315 328.613 185.952C328.251 185.579 327.739 185.392 327.077 185.392C326.48 185.392 325.989 185.589 325.605 185.984C325.221 186.368 325.013 186.827 324.981 187.36ZM329.413 189.36L330.709 189.808C330.485 190.523 330.069 191.109 329.461 191.568C328.853 192.016 328.117 192.24 327.253 192.24C326.176 192.24 325.259 191.872 324.501 191.136C323.755 190.389 323.381 189.387 323.381 188.128C323.381 186.955 323.744 185.984 324.469 185.216C325.195 184.448 326.059 184.064 327.061 184.064C328.224 184.064 329.131 184.432 329.781 185.168C330.432 185.893 330.757 186.869 330.757 188.096C330.757 188.288 330.747 188.448 330.725 188.576H324.933C324.944 189.259 325.168 189.819 325.605 190.256C326.053 190.693 326.603 190.912 327.253 190.912C328.352 190.912 329.072 190.395 329.413 189.36ZM336.687 184.224V185.824C336.463 185.792 336.245 185.776 336.031 185.776C334.623 185.776 333.919 186.565 333.919 188.144V192H332.415V184.304H333.887V185.648C334.357 184.667 335.125 184.176 336.191 184.176C336.362 184.176 336.527 184.192 336.687 184.224ZM344.855 184.304L341.783 192H340.263L337.143 184.304H338.839L341.031 190.24L343.239 184.304H344.855ZM347.52 192H346.032V184.304H347.52V192ZM346 182.16C345.798 181.947 345.696 181.691 345.696 181.392C345.696 181.093 345.798 180.837 346 180.624C346.214 180.411 346.47 180.304 346.768 180.304C347.067 180.304 347.323 180.411 347.536 180.624C347.75 180.827 347.856 181.083 347.856 181.392C347.856 181.691 347.75 181.947 347.536 182.16C347.323 182.363 347.067 182.464 346.768 182.464C346.47 182.464 346.214 182.363 346 182.16ZM353.049 185.456C352.399 185.456 351.844 185.691 351.385 186.16C350.937 186.629 350.713 187.291 350.713 188.144C350.713 188.987 350.937 189.648 351.385 190.128C351.844 190.608 352.404 190.848 353.065 190.848C353.705 190.848 354.191 190.688 354.521 190.368C354.863 190.048 355.092 189.68 355.209 189.264L356.537 189.84C356.324 190.48 355.919 191.04 355.321 191.52C354.735 192 353.983 192.24 353.065 192.24C351.945 192.24 351.017 191.851 350.281 191.072C349.545 190.293 349.177 189.317 349.177 188.144C349.177 186.949 349.545 185.973 350.281 185.216C351.017 184.448 351.94 184.064 353.049 184.064C353.988 184.064 354.745 184.304 355.321 184.784C355.908 185.264 356.292 185.84 356.473 186.512L355.113 187.088C354.996 186.64 354.772 186.256 354.441 185.936C354.111 185.616 353.647 185.456 353.049 185.456ZM358.938 187.36H363.146C363.124 186.784 362.932 186.315 362.57 185.952C362.207 185.579 361.695 185.392 361.034 185.392C360.436 185.392 359.946 185.589 359.562 185.984C359.178 186.368 358.97 186.827 358.938 187.36ZM363.37 189.36L364.666 189.808C364.442 190.523 364.026 191.109 363.418 191.568C362.81 192.016 362.074 192.24 361.21 192.24C360.132 192.24 359.215 191.872 358.458 191.136C357.711 190.389 357.338 189.387 357.338 188.128C357.338 186.955 357.7 185.984 358.426 185.216C359.151 184.448 360.015 184.064 361.018 184.064C362.18 184.064 363.087 184.432 363.738 185.168C364.388 185.893 364.714 186.869 364.714 188.096C364.714 188.288 364.703 188.448 364.682 188.576H358.89C358.9 189.259 359.124 189.819 359.562 190.256C360.01 190.693 360.559 190.912 361.21 190.912C362.308 190.912 363.028 190.395 363.37 189.36ZM372.126 181.872V184.304H373.79V185.664H372.126V189.664C372.126 190.027 372.206 190.293 372.366 190.464C372.536 190.635 372.814 190.72 373.198 190.72C373.422 190.72 373.619 190.699 373.79 190.656V191.936C373.534 192.032 373.192 192.08 372.766 192.08C372.104 192.08 371.582 191.888 371.198 191.504C370.814 191.12 370.622 190.581 370.622 189.888V185.664H369.15V184.304H369.566C369.96 184.304 370.254 184.197 370.446 183.984C370.648 183.76 370.75 183.472 370.75 183.12V181.872H372.126ZM377.533 195.216H375.885L377.805 191.152L374.493 184.304H376.221L378.621 189.616L380.925 184.304H382.541L377.533 195.216ZM385.214 195.04H383.726V184.304H385.182V185.504C385.406 185.099 385.742 184.768 386.19 184.512C386.638 184.256 387.161 184.128 387.758 184.128C388.868 184.128 389.732 184.507 390.35 185.264C390.98 186.021 391.294 186.981 391.294 188.144C391.294 189.317 390.969 190.288 390.318 191.056C389.678 191.824 388.809 192.208 387.71 192.208C387.145 192.208 386.644 192.091 386.206 191.856C385.769 191.621 385.438 191.323 385.214 190.96V195.04ZM389.758 188.144C389.758 187.365 389.55 186.725 389.134 186.224C388.729 185.712 388.18 185.456 387.486 185.456C386.804 185.456 386.249 185.712 385.822 186.224C385.406 186.725 385.198 187.365 385.198 188.144C385.198 188.944 385.406 189.6 385.822 190.112C386.249 190.613 386.804 190.864 387.486 190.864C388.169 190.864 388.718 190.613 389.134 190.112C389.55 189.6 389.758 188.944 389.758 188.144ZM393.925 187.36H398.133C398.112 186.784 397.92 186.315 397.557 185.952C397.194 185.579 396.682 185.392 396.021 185.392C395.424 185.392 394.933 185.589 394.549 185.984C394.165 186.368 393.957 186.827 393.925 187.36ZM398.357 189.36L399.653 189.808C399.429 190.523 399.013 191.109 398.405 191.568C397.797 192.016 397.061 192.24 396.197 192.24C395.12 192.24 394.202 191.872 393.445 191.136C392.698 190.389 392.325 189.387 392.325 188.128C392.325 186.955 392.688 185.984 393.413 185.216C394.138 184.448 395.002 184.064 396.005 184.064C397.168 184.064 398.074 184.432 398.725 185.168C399.376 185.893 399.701 186.869 399.701 188.096C399.701 188.288 399.69 188.448 399.669 188.576H393.877C393.888 189.259 394.112 189.819 394.549 190.256C394.997 190.693 395.546 190.912 396.197 190.912C397.296 190.912 398.016 190.395 398.357 189.36Z" fill="#B5BAC6"/>
<rect x="321" y="48" width="72" height="72" rx="18" fill="#E0E0E0"/>
</g>
<rect x="317" y="44" width="79.2788" height="79.353" rx="4" fill="#007ACC"/>
<path fill-rule="evenodd" clip-rule="evenodd" d="M385.856 81.9871C384.451 80.5452 382.885 79.6366 380.837 79.1625L380.877 79.123C379.492 78.7675 376.18 78.649 374.775 78.9255C370.439 79.7156 367.408 82.4809 366.545 86.4314C366.264 87.5573 366.364 90.3621 366.665 91.5078C367.067 92.8312 367.93 94.4311 368.873 95.4583C370.519 97.157 372.286 98.2631 376.441 100.001C380.054 101.582 381.339 102.293 381.981 103.162C382.443 103.853 382.584 104.268 382.584 105.176C382.584 106.164 382.263 106.875 381.52 107.547C379.793 109.087 376.301 109.265 373.691 107.942C372.828 107.468 371.342 106.085 370.68 105.058L370.158 104.367L367.89 105.67L364.879 107.389L364.116 107.863C364.035 108.001 365.461 110.115 366.203 110.905C368.09 112.939 371.162 114.519 374.374 115.112C375.879 115.369 379.091 115.408 380.496 115.171C384.972 114.44 388.104 112.208 389.389 108.91C390.533 105.888 390.152 101.858 388.445 99.2902C386.94 96.9989 384.451 95.399 378.709 92.9695C375.598 91.6263 374.594 90.9745 374.052 89.8881C373.811 89.3745 373.691 89.019 373.691 88.3869C373.691 86.3129 375.297 85.0685 377.706 85.2265C379.372 85.345 380.436 85.9771 381.48 87.4388C381.801 87.9523 382.122 88.2881 382.202 88.2289C384.31 86.945 387.783 84.6339 387.783 84.5154C387.703 84.1599 386.598 82.7772 385.856 81.9871ZM333.925 85.6808V82.4612L333.985 82.4809V79.2415L348.037 79.1823C355.765 79.1823 362.128 79.202 362.128 79.2613C362.209 79.3008 362.209 80.7427 362.209 82.5204V85.6808H351.77V114.914H344.363V85.6808H333.925Z" fill="white"/>
<rect x="245" y="224" width="223" height="1" fill="#EAECF5"/>
<g filter="url(#filter2_d)">
<rect x="490" width="223" height="296" fill="white"/>
<rect x="490.5" y="0.5" width="222" height="295" stroke="#EAECF5"/>
</g>
<path d="M546.76 261.632L549.208 252.656H550.824L547.592 264H545.976L543.016 254.8L540.088 264H538.52L535.24 252.656H536.856L539.352 261.536L542.2 252.656H543.848L546.76 261.632ZM552.494 259.36H556.702C556.681 258.784 556.489 258.315 556.126 257.952C555.763 257.579 555.251 257.392 554.59 257.392C553.993 257.392 553.502 257.589 553.118 257.984C552.734 258.368 552.526 258.827 552.494 259.36ZM556.926 261.36L558.222 261.808C557.998 262.523 557.582 263.109 556.974 263.568C556.366 264.016 555.63 264.24 554.766 264.24C553.689 264.24 552.771 263.872 552.014 263.136C551.267 262.389 550.894 261.387 550.894 260.128C550.894 258.955 551.257 257.984 551.982 257.216C552.707 256.448 553.571 256.064 554.574 256.064C555.737 256.064 556.643 256.432 557.294 257.168C557.945 257.893 558.27 258.869 558.27 260.096C558.27 260.288 558.259 260.448 558.238 260.576H552.446C552.457 261.259 552.681 261.819 553.118 262.256C553.566 262.693 554.115 262.912 554.766 262.912C555.865 262.912 556.585 262.395 556.926 261.36ZM561.432 259.472V264H559.928V252.416H561.432V257.2C561.944 256.453 562.723 256.08 563.768 256.08C564.653 256.08 565.331 256.363 565.8 256.928C566.28 257.493 566.52 258.224 566.52 259.12V264H565.016V259.376C565.016 258.085 564.419 257.44 563.224 257.44C562.669 257.44 562.237 257.632 561.928 258.016C561.619 258.389 561.453 258.875 561.432 259.472ZM568.171 261.936C568.171 261.275 568.384 260.747 568.811 260.352C569.237 259.947 569.803 259.696 570.507 259.6L572.587 259.296C572.981 259.243 573.179 259.051 573.179 258.72C573.179 258.315 573.04 257.984 572.763 257.728C572.485 257.472 572.069 257.344 571.515 257.344C571.003 257.344 570.597 257.488 570.299 257.776C570 258.053 569.824 258.427 569.771 258.896L568.331 258.56C568.405 257.824 568.741 257.227 569.339 256.768C569.936 256.299 570.651 256.064 571.483 256.064C572.571 256.064 573.376 256.331 573.899 256.864C574.421 257.387 574.683 258.059 574.683 258.88V262.736C574.683 263.195 574.715 263.616 574.779 264H573.307C573.253 263.68 573.227 263.333 573.227 262.96C573.013 263.301 572.699 263.6 572.283 263.856C571.877 264.112 571.365 264.24 570.747 264.24C569.989 264.24 569.371 264.016 568.891 263.568C568.411 263.109 568.171 262.565 568.171 261.936ZM570.955 262.976C571.627 262.976 572.165 262.795 572.571 262.432C572.976 262.069 573.179 261.493 573.179 260.704V260.352L570.827 260.704C570.485 260.757 570.213 260.88 570.011 261.072C569.808 261.264 569.707 261.525 569.707 261.856C569.707 262.155 569.819 262.416 570.043 262.64C570.277 262.864 570.581 262.976 570.955 262.976ZM578.268 259.552V264H576.764V256.304H578.236V257.408C578.748 256.523 579.537 256.08 580.604 256.08C581.489 256.08 582.166 256.363 582.636 256.928C583.116 257.493 583.356 258.224 583.356 259.12V264H581.852V259.376C581.852 258.085 581.254 257.44 580.06 257.44C579.494 257.44 579.052 257.643 578.732 258.048C578.422 258.443 578.268 258.944 578.268 259.552ZM588.718 257.456C588.067 257.456 587.513 257.691 587.054 258.16C586.606 258.629 586.382 259.291 586.382 260.144C586.382 260.987 586.606 261.648 587.054 262.128C587.513 262.608 588.073 262.848 588.734 262.848C589.374 262.848 589.859 262.688 590.19 262.368C590.531 262.048 590.761 261.68 590.878 261.264L592.206 261.84C591.993 262.48 591.587 263.04 590.99 263.52C590.403 264 589.651 264.24 588.734 264.24C587.614 264.24 586.686 263.851 585.95 263.072C585.214 262.293 584.846 261.317 584.846 260.144C584.846 258.949 585.214 257.973 585.95 257.216C586.686 256.448 587.609 256.064 588.718 256.064C589.657 256.064 590.414 256.304 590.99 256.784C591.577 257.264 591.961 257.84 592.142 258.512L590.782 259.088C590.665 258.64 590.441 258.256 590.11 257.936C589.779 257.616 589.315 257.456 588.718 257.456ZM594.606 259.36H598.814C598.793 258.784 598.601 258.315 598.238 257.952C597.876 257.579 597.364 257.392 596.702 257.392C596.105 257.392 595.614 257.589 595.23 257.984C594.846 258.368 594.638 258.827 594.606 259.36ZM599.038 261.36L600.334 261.808C600.11 262.523 599.694 263.109 599.086 263.568C598.478 264.016 597.742 264.24 596.878 264.24C595.801 264.24 594.884 263.872 594.126 263.136C593.38 262.389 593.006 261.387 593.006 260.128C593.006 258.955 593.369 257.984 594.094 257.216C594.82 256.448 595.684 256.064 596.686 256.064C597.849 256.064 598.756 256.432 599.406 257.168C600.057 257.893 600.382 258.869 600.382 260.096C600.382 260.288 600.372 260.448 600.35 260.576H594.558C594.569 261.259 594.793 261.819 595.23 262.256C595.678 262.693 596.228 262.912 596.878 262.912C597.977 262.912 598.697 262.395 599.038 261.36Z" fill="#B5BAC6"/>
<path d="M519.994 253C519.442 253.009 519.002 253.462 519.01 254.014V262.6L515.717 259.307C515.528 259.113 515.27 259.004 515 259.004C514.593 259.004 514.227 259.251 514.074 259.628C513.92 260.005 514.011 260.437 514.303 260.721L519.215 265.633C519.403 265.88 519.696 266.026 520.008 266.027C520.319 266.028 520.613 265.883 520.803 265.637C520.804 265.635 520.805 265.633 520.807 265.631L525.717 260.721C525.978 260.47 526.083 260.098 525.992 259.747C525.9 259.397 525.627 259.123 525.276 259.032C524.926 258.94 524.553 259.046 524.303 259.307L521.01 262.6V254.014C521.013 253.743 520.907 253.483 520.716 253.292C520.525 253.101 520.264 252.996 519.994 253Z" fill="#ABB1BD"/>
<path d="M573.092 165V149.402H570.056V159.72L563.566 149.402H559.782V165H562.818V153.934L569.902 165H573.092ZM580.537 162.668C579.107 162.668 577.787 161.612 577.787 159.588C577.787 157.542 579.107 156.508 580.537 156.508C581.967 156.508 583.287 157.542 583.287 159.588C583.287 161.634 581.967 162.668 580.537 162.668ZM580.537 153.846C577.303 153.846 574.861 156.244 574.861 159.588C574.861 162.91 577.303 165.33 580.537 165.33C583.771 165.33 586.213 162.91 586.213 159.588C586.213 156.244 583.771 153.846 580.537 153.846ZM598.153 149.072H595.271V155.254C594.963 154.682 594.083 153.912 592.213 153.912C589.155 153.912 587.021 156.398 587.021 159.566C587.021 162.844 589.221 165.264 592.301 165.264C593.753 165.264 594.853 164.604 595.337 163.746C595.337 164.252 595.403 164.78 595.447 165H598.241C598.197 164.56 598.153 163.768 598.153 163.042V149.072ZM589.969 159.566C589.969 157.63 591.157 156.53 592.653 156.53C594.149 156.53 595.315 157.608 595.315 159.544C595.315 161.502 594.149 162.646 592.653 162.646C591.113 162.646 589.969 161.502 589.969 159.566ZM602.774 158.356C602.84 157.366 603.676 156.222 605.194 156.222C606.866 156.222 607.57 157.278 607.614 158.356H602.774ZM607.9 161.172C607.548 162.14 606.8 162.822 605.436 162.822C603.984 162.822 602.774 161.788 602.708 160.358H610.452C610.452 160.314 610.496 159.874 610.496 159.456C610.496 155.98 608.494 153.846 605.15 153.846C602.378 153.846 599.826 156.09 599.826 159.544C599.826 163.196 602.444 165.33 605.414 165.33C608.076 165.33 609.792 163.768 610.342 161.898L607.9 161.172ZM610.991 160.248C610.991 163.306 613.015 165.33 616.095 165.33C619.131 165.33 621.177 162.998 621.177 160.182V149.402H618.141V160.182C618.141 161.546 617.349 162.448 616.073 162.448C614.841 162.448 613.939 161.722 613.917 160.116V158.686L610.991 159.214V160.248ZM634.385 153.12C634.033 151.36 632.581 149.072 628.797 149.072C625.849 149.072 623.363 151.184 623.363 153.956C623.363 156.31 624.969 157.916 627.455 158.422L629.633 158.862C630.843 159.104 631.525 159.808 631.525 160.71C631.525 161.81 630.623 162.624 628.995 162.624C626.795 162.624 625.717 161.238 625.585 159.698L622.769 160.446C623.011 162.668 624.837 165.33 628.973 165.33C632.603 165.33 634.605 162.91 634.605 160.512C634.605 158.312 633.087 156.464 630.249 155.914L628.071 155.496C626.927 155.276 626.377 154.594 626.377 153.736C626.377 152.702 627.345 151.756 628.819 151.756C630.799 151.756 631.503 153.098 631.657 153.956L634.385 153.12Z" fill="black"/>
<path d="M567.331 183.232L565.923 183.728C565.849 183.237 565.609 182.795 565.203 182.4C564.798 181.995 564.238 181.792 563.523 181.792C562.894 181.792 562.371 181.973 561.955 182.336C561.539 182.699 561.331 183.147 561.331 183.68C561.331 184.096 561.454 184.448 561.699 184.736C561.955 185.024 562.318 185.221 562.787 185.328L564.483 185.696C565.422 185.899 566.147 186.283 566.659 186.848C567.171 187.403 567.427 188.08 567.427 188.88C567.427 189.797 567.065 190.587 566.339 191.248C565.614 191.909 564.67 192.24 563.507 192.24C562.238 192.24 561.241 191.909 560.515 191.248C559.801 190.576 559.385 189.781 559.267 188.864L560.771 188.384C560.835 189.067 561.102 189.643 561.571 190.112C562.041 190.581 562.681 190.816 563.491 190.816C564.238 190.816 564.814 190.645 565.219 190.304C565.625 189.963 565.827 189.531 565.827 189.008C565.827 188.581 565.683 188.213 565.395 187.904C565.107 187.584 564.686 187.365 564.131 187.248L562.515 186.896C561.673 186.715 561.001 186.357 560.499 185.824C559.998 185.291 559.747 184.613 559.747 183.792C559.747 182.896 560.11 182.112 560.835 181.44C561.571 180.757 562.457 180.416 563.491 180.416C564.654 180.416 565.545 180.699 566.163 181.264C566.782 181.829 567.171 182.485 567.331 183.232ZM569.981 187.36H574.189C574.168 186.784 573.976 186.315 573.613 185.952C573.251 185.579 572.739 185.392 572.077 185.392C571.48 185.392 570.989 185.589 570.605 185.984C570.221 186.368 570.013 186.827 569.981 187.36ZM574.413 189.36L575.709 189.808C575.485 190.523 575.069 191.109 574.461 191.568C573.853 192.016 573.117 192.24 572.253 192.24C571.176 192.24 570.259 191.872 569.501 191.136C568.755 190.389 568.381 189.387 568.381 188.128C568.381 186.955 568.744 185.984 569.469 185.216C570.195 184.448 571.059 184.064 572.061 184.064C573.224 184.064 574.131 184.432 574.781 185.168C575.432 185.893 575.757 186.869 575.757 188.096C575.757 188.288 575.747 188.448 575.725 188.576H569.933C569.944 189.259 570.168 189.819 570.605 190.256C571.053 190.693 571.603 190.912 572.253 190.912C573.352 190.912 574.072 190.395 574.413 189.36ZM581.687 184.224V185.824C581.463 185.792 581.245 185.776 581.031 185.776C579.623 185.776 578.919 186.565 578.919 188.144V192H577.415V184.304H578.887V185.648C579.357 184.667 580.125 184.176 581.191 184.176C581.362 184.176 581.527 184.192 581.687 184.224ZM589.855 184.304L586.783 192H585.263L582.143 184.304H583.839L586.031 190.24L588.239 184.304H589.855ZM592.52 192H591.032V184.304H592.52V192ZM591 182.16C590.798 181.947 590.696 181.691 590.696 181.392C590.696 181.093 590.798 180.837 591 180.624C591.214 180.411 591.47 180.304 591.768 180.304C592.067 180.304 592.323 180.411 592.536 180.624C592.75 180.827 592.856 181.083 592.856 181.392C592.856 181.691 592.75 181.947 592.536 182.16C592.323 182.363 592.067 182.464 591.768 182.464C591.47 182.464 591.214 182.363 591 182.16ZM598.049 185.456C597.399 185.456 596.844 185.691 596.385 186.16C595.937 186.629 595.713 187.291 595.713 188.144C595.713 188.987 595.937 189.648 596.385 190.128C596.844 190.608 597.404 190.848 598.065 190.848C598.705 190.848 599.191 190.688 599.521 190.368C599.863 190.048 600.092 189.68 600.209 189.264L601.537 189.84C601.324 190.48 600.919 191.04 600.321 191.52C599.735 192 598.983 192.24 598.065 192.24C596.945 192.24 596.017 191.851 595.281 191.072C594.545 190.293 594.177 189.317 594.177 188.144C594.177 186.949 594.545 185.973 595.281 185.216C596.017 184.448 596.94 184.064 598.049 184.064C598.988 184.064 599.745 184.304 600.321 184.784C600.908 185.264 601.292 185.84 601.473 186.512L600.113 187.088C599.996 186.64 599.772 186.256 599.441 185.936C599.111 185.616 598.647 185.456 598.049 185.456ZM603.938 187.36H608.146C608.124 186.784 607.932 186.315 607.57 185.952C607.207 185.579 606.695 185.392 606.034 185.392C605.436 185.392 604.946 185.589 604.562 185.984C604.178 186.368 603.97 186.827 603.938 187.36ZM608.37 189.36L609.666 189.808C609.442 190.523 609.026 191.109 608.418 191.568C607.81 192.016 607.074 192.24 606.21 192.24C605.132 192.24 604.215 191.872 603.458 191.136C602.711 190.389 602.338 189.387 602.338 188.128C602.338 186.955 602.7 185.984 603.426 185.216C604.151 184.448 605.015 184.064 606.018 184.064C607.18 184.064 608.087 184.432 608.738 185.168C609.388 185.893 609.714 186.869 609.714 188.096C609.714 188.288 609.703 188.448 609.682 188.576H603.89C603.9 189.259 604.124 189.819 604.562 190.256C605.01 190.693 605.559 190.912 606.21 190.912C607.308 190.912 608.028 190.395 608.37 189.36ZM617.126 181.872V184.304H618.79V185.664H617.126V189.664C617.126 190.027 617.206 190.293 617.366 190.464C617.536 190.635 617.814 190.72 618.198 190.72C618.422 190.72 618.619 190.699 618.79 190.656V191.936C618.534 192.032 618.192 192.08 617.766 192.08C617.104 192.08 616.582 191.888 616.198 191.504C615.814 191.12 615.622 190.581 615.622 189.888V185.664H614.15V184.304H614.566C614.96 184.304 615.254 184.197 615.446 183.984C615.648 183.76 615.75 183.472 615.75 183.12V181.872H617.126ZM622.533 195.216H620.885L622.805 191.152L619.493 184.304H621.221L623.621 189.616L625.925 184.304H627.541L622.533 195.216ZM630.214 195.04H628.726V184.304H630.182V185.504C630.406 185.099 630.742 184.768 631.19 184.512C631.638 184.256 632.161 184.128 632.758 184.128C633.868 184.128 634.732 184.507 635.35 185.264C635.98 186.021 636.294 186.981 636.294 188.144C636.294 189.317 635.969 190.288 635.318 191.056C634.678 191.824 633.809 192.208 632.71 192.208C632.145 192.208 631.644 192.091 631.206 191.856C630.769 191.621 630.438 191.323 630.214 190.96V195.04ZM634.758 188.144C634.758 187.365 634.55 186.725 634.134 186.224C633.729 185.712 633.18 185.456 632.486 185.456C631.804 185.456 631.249 185.712 630.822 186.224C630.406 186.725 630.198 187.365 630.198 188.144C630.198 188.944 630.406 189.6 630.822 190.112C631.249 190.613 631.804 190.864 632.486 190.864C633.169 190.864 633.718 190.613 634.134 190.112C634.55 189.6 634.758 188.944 634.758 188.144ZM638.925 187.36H643.133C643.112 186.784 642.92 186.315 642.557 185.952C642.194 185.579 641.682 185.392 641.021 185.392C640.424 185.392 639.933 185.589 639.549 185.984C639.165 186.368 638.957 186.827 638.925 187.36ZM643.357 189.36L644.653 189.808C644.429 190.523 644.013 191.109 643.405 191.568C642.797 192.016 642.061 192.24 641.197 192.24C640.12 192.24 639.202 191.872 638.445 191.136C637.698 190.389 637.325 189.387 637.325 188.128C637.325 186.955 637.688 185.984 638.413 185.216C639.138 184.448 640.002 184.064 641.005 184.064C642.168 184.064 643.074 184.432 643.725 185.168C644.376 185.893 644.701 186.869 644.701 188.096C644.701 188.288 644.69 188.448 644.669 188.576H638.877C638.888 189.259 639.112 189.819 639.549 190.256C639.997 190.693 640.546 190.912 641.197 190.912C642.296 190.912 643.016 190.395 643.357 189.36Z" fill="#B5BAC6"/>
<path d="M661.292 257.664H663.26L662.78 259.904H660.492V261.424H662.444L661.9 264H663.58L664.124 261.424H666.22L665.676 264H667.34L667.884 261.424H670.252V259.904H668.22L668.7 257.664H671.052V256.128H669.02L669.564 253.632H667.9L667.356 256.128H665.26L665.804 253.632H664.124L663.58 256.128H661.292V257.664ZM664.94 257.664H667.036L666.556 259.904H664.46L664.94 257.664ZM674.095 258.816C674.095 257.728 674.255 256.8 674.655 256.176C674.975 255.664 675.471 255.328 676.223 255.328C676.991 255.328 677.455 255.664 677.775 256.176C678.191 256.8 678.351 257.728 678.351 258.816C678.351 259.904 678.191 260.832 677.775 261.456C677.455 261.968 676.991 262.304 676.223 262.304C675.471 262.304 674.975 261.968 674.655 261.456C674.255 260.832 674.095 259.904 674.095 258.816ZM671.887 258.816C671.887 260.144 672.095 261.44 672.799 262.512C673.487 263.536 674.607 264.256 676.223 264.256C677.839 264.256 678.959 263.536 679.631 262.512C680.335 261.44 680.559 260.144 680.559 258.816C680.559 257.488 680.335 256.192 679.631 255.12C678.959 254.096 677.839 253.376 676.223 253.376C674.607 253.376 673.487 254.096 672.799 255.12C672.095 256.192 671.887 257.488 671.887 258.816ZM688.921 253.616H681.033V255.52H686.377C686.377 255.52 682.905 258.416 682.473 264H684.761C685.225 258.768 688.137 256.128 688.921 255.456V253.616Z" fill="black"/>
<rect x="561.019" y="50" width="72" height="72" rx="18" fill="#EC6737"/>
<rect x="561.019" y="42" width="79.2788" height="79.353" rx="4" fill="#E23237"/>
<path d="M567.255 58.1326L600.215 46.458L634.063 57.9251L628.582 101.277L600.215 116.895L572.292 101.484L567.255 58.1326Z" fill="#E23237"/>
<path d="M634.063 57.9251L600.213 46.458V116.895L628.582 101.303L634.063 57.9251Z" fill="#B52E31"/>
<path fill-rule="evenodd" clip-rule="evenodd" d="M579.726 99.8249L600.165 54.4824L621.592 99.9543L614.294 99.8249L609.801 89.4667H591.465L587.361 99.6954L579.726 99.8249ZM607.126 83.4072L600.217 69.0097L594.14 83.4072H607.126Z" fill="white"/>
<rect x="561" y="42" width="79.2788" height="79.353" rx="4" fill="url(#paint1_linear)"/>
<path d="M601.088 102.629C600.846 102.629 600.606 102.567 600.393 102.446L598.182 101.155C597.852 100.972 598.013 100.908 598.122 100.871C598.562 100.719 598.652 100.684 599.122 100.421C599.171 100.393 599.236 100.403 599.286 100.432L600.985 101.427C601.046 101.46 601.133 101.46 601.19 101.427L607.814 97.6552C607.875 97.6208 607.915 97.5505 607.915 97.4785V89.9383C607.915 89.863 607.875 89.796 607.812 89.7584L601.192 85.9899C601.13 85.9539 601.049 85.9539 600.988 85.9899L594.368 89.7584C594.304 89.7944 594.263 89.8647 594.263 89.9367V97.4769C594.263 97.5488 594.303 97.6175 594.366 97.6519L596.18 98.6856C597.165 99.1714 597.766 98.5989 597.766 98.0232V90.5811C597.766 90.4748 597.851 90.393 597.959 90.393H598.798C598.902 90.393 598.988 90.4748 598.988 90.5811V98.0264C598.988 99.3219 598.272 100.066 597.027 100.066C596.644 100.066 596.342 100.066 595.5 99.6572L593.763 98.6692C593.333 98.4218 593.068 97.9679 593.068 97.4769V89.9367C593.068 89.446 593.333 88.988 593.763 88.7459L600.393 84.9725C600.812 84.7386 601.369 84.7386 601.785 84.9725L608.407 88.7476C608.837 88.9942 609.101 89.4477 609.102 89.9383V97.4785C609.102 97.9676 608.835 98.4239 608.407 98.6692L601.785 102.443C601.573 102.563 601.332 102.626 601.087 102.626" fill="white"/>
<path fill-rule="evenodd" clip-rule="evenodd" d="M610.554 91.0582C611.224 91.0582 611.774 90.4528 611.774 89.7109H611.773C611.773 88.9497 611.212 88.3635 610.554 88.3635C609.901 88.3635 609.334 88.948 609.334 89.7109C609.334 90.4598 609.888 91.0582 610.554 91.0582ZM609.532 89.7074C609.532 90.3338 609.99 90.8413 610.552 90.8413C611.12 90.8413 611.578 90.3233 611.578 89.7074C611.578 89.0792 611.113 88.5805 610.551 88.5805C609.996 88.5805 609.53 89.0722 609.53 89.7056L609.532 89.7074ZM610.568 88.955H610.098V90.4685H610.362V89.8631H610.601C610.698 89.8631 610.725 89.9051 610.744 89.9908C610.744 90.0088 610.776 90.2923 610.791 90.4182L610.796 90.4668H611.086C611.05 90.3994 611.029 90.2038 611.016 90.0816L611.015 90.0678L611.013 90.0523C610.989 89.8681 610.972 89.7385 610.788 89.7249L610.789 89.7246C610.886 89.6896 611.047 89.6314 611.047 89.3539C611.047 88.955 610.73 88.955 610.568 88.955ZM610.356 89.6164H610.568C610.742 89.6164 610.776 89.4817 610.776 89.4029C610.776 89.1964 610.647 89.1964 610.576 89.1964H610.357L610.356 89.6164ZM602.654 98.163C599.884 98.163 599.303 96.7589 599.303 95.5813C599.303 95.4693 599.385 95.3801 599.487 95.3801H600.304C600.395 95.3801 600.471 95.4527 600.485 95.5512C600.609 96.4713 600.976 96.9353 602.651 96.9353C603.985 96.9353 604.553 96.6025 604.553 95.8212C604.553 95.3715 604.391 95.0373 602.318 94.8133C600.585 94.6243 599.514 94.2026 599.514 92.6716C599.514 91.2612 600.591 90.4213 602.396 90.4213C604.423 90.4213 605.428 91.1982 605.554 92.8675C605.559 92.9243 605.541 92.9804 605.506 93.0223C605.471 93.0642 605.422 93.088 605.37 93.088H604.548C604.462 93.088 604.388 93.0215 604.371 92.9305C604.172 91.9629 603.694 91.6532 602.393 91.6532C600.937 91.6532 600.767 92.2131 600.767 92.6331C600.767 93.1422 600.967 93.291 602.932 93.578C604.878 93.8632 605.802 94.2656 605.802 95.7757C605.802 97.298 604.651 98.1712 602.645 98.1712L602.654 98.163Z" fill="white"/>
<path fill-rule="evenodd" clip-rule="evenodd" d="M581.256 74.0481C581.256 73.7592 581.103 73.4939 580.854 73.3502L574.201 69.5243C574.09 69.4594 573.964 69.4233 573.836 69.4191H573.767C573.639 69.4238 573.514 69.4583 573.399 69.5243L566.747 73.3502C566.498 73.495 566.345 73.761 566.345 74.0489L566.359 84.3541C566.359 84.4969 566.433 84.6304 566.559 84.701C566.681 84.7764 566.835 84.7764 566.958 84.701L570.913 82.4371C571.162 82.2886 571.315 82.0261 571.315 81.7401V76.9258C571.314 76.6389 571.467 76.3735 571.716 76.2303L573.4 75.261C573.522 75.1901 573.661 75.1529 573.802 75.153C573.939 75.153 574.08 75.1885 574.201 75.2609L575.884 76.2299C576.133 76.3727 576.286 76.638 576.286 76.9253V81.7393C576.286 82.025 576.441 82.2888 576.689 82.4364L580.642 84.6987C580.765 84.7725 580.92 84.7725 581.044 84.6987C581.167 84.6264 581.243 84.4944 581.243 84.3517L581.256 74.0481ZM612.648 79.4136C612.648 79.4853 612.61 79.5517 612.547 79.5872L610.262 80.9038C610.2 80.9394 610.124 80.9394 610.062 80.9038L607.776 79.5872C607.714 79.5516 607.676 79.4852 607.676 79.4136V76.7767C607.676 76.7048 607.714 76.6385 607.775 76.6024L610.058 75.2836C610.121 75.2475 610.198 75.2475 610.261 75.2836L612.546 76.6024C612.609 76.6385 612.647 76.7048 612.647 76.7767L612.648 79.4136ZM613.265 59.883C613.14 59.8137 612.988 59.8153 612.865 59.8872C612.743 59.9594 612.667 60.0913 612.667 60.2342V70.4389C612.667 70.5393 612.614 70.6322 612.527 70.6824C612.44 70.7326 612.333 70.7326 612.246 70.6823L610.579 69.7229C610.331 69.5794 610.025 69.5794 609.776 69.7229L603.121 73.5619C602.873 73.7047 602.72 73.9693 602.719 74.2558V81.936C602.719 82.2233 602.873 82.4871 603.121 82.6315L609.776 86.4732C610.025 86.6161 610.331 86.6161 610.58 86.4732L617.235 82.6299C617.483 82.4855 617.637 82.2218 617.637 81.9344V62.7935C617.636 62.5021 617.478 62.2337 617.224 62.0918L613.265 59.883ZM635.426 76.7073C635.673 76.5634 635.825 76.299 635.825 76.013V74.1517C635.825 73.8653 635.673 73.6011 635.425 73.457L628.813 69.62C628.563 69.4756 628.256 69.4756 628.007 69.62L621.354 73.4586C621.104 73.603 620.951 73.8668 620.951 74.1541V81.8311C620.951 82.12 621.107 82.3869 621.357 82.5298L627.968 86.2961C628.211 86.4358 628.509 86.4374 628.756 86.3008L632.755 84.0793C632.88 84.0087 632.961 83.8752 632.961 83.7308C632.961 83.5864 632.884 83.4513 632.758 83.3807L626.064 79.5406C625.938 79.4699 625.861 79.3365 625.861 79.1936V76.7853C625.861 76.6415 625.937 76.509 626.062 76.4374L628.145 75.2364C628.269 75.1642 628.421 75.1642 628.546 75.2364L630.63 76.4374C630.754 76.508 630.831 76.6415 630.831 76.7844V78.6777C630.831 78.8206 630.908 78.954 631.032 79.0263C631.156 79.0969 631.31 79.0969 631.434 79.0247L635.426 76.7073Z" fill="white"/>
<path fill-rule="evenodd" clip-rule="evenodd" d="M627.713 75.904C627.772 75.8735 627.845 75.8735 627.904 75.904L629.494 76.7106C629.553 76.7409 629.59 76.7966 629.59 76.8568V78.4718C629.59 78.532 629.553 78.5878 629.494 78.618L627.904 79.4247C627.845 79.4551 627.772 79.4551 627.713 79.4247L626.124 78.618C626.064 78.5883 626.027 78.5325 626.026 78.4718V76.8568C626.026 76.7966 626.062 76.7409 626.122 76.7106L627.713 75.904Z" fill="white"/>
<path d="M605.438 72.5649L586.743 63.4926L577.156 82.8524L595.852 91.9253L605.438 72.5649Z" fill="url(#paint2_linear)"/>
<path d="M576.154 75.5633L589.173 93.6268L606.391 80.5861L593.371 62.5231L576.154 75.5633Z" fill="url(#paint3_linear)"/>
<path d="M585.054 68.901V86.4763H600.145V68.901H585.054Z" fill="url(#paint4_linear)"/>
<rect x="490" y="224" width="223" height="1" fill="#EAECF5"/>
<g filter="url(#filter3_d)">
<rect x="737" width="223" height="296" fill="white"/>
<rect x="737.5" y="0.5" width="222" height="295" stroke="#EAECF5"/>
</g>
<path d="M793.76 261.632L796.208 252.656H797.824L794.592 264H792.976L790.016 254.8L787.088 264H785.52L782.24 252.656H783.856L786.352 261.536L789.2 252.656H790.848L793.76 261.632ZM799.494 259.36H803.702C803.681 258.784 803.489 258.315 803.126 257.952C802.763 257.579 802.251 257.392 801.59 257.392C800.993 257.392 800.502 257.589 800.118 257.984C799.734 258.368 799.526 258.827 799.494 259.36ZM803.926 261.36L805.222 261.808C804.998 262.523 804.582 263.109 803.974 263.568C803.366 264.016 802.63 264.24 801.766 264.24C800.689 264.24 799.771 263.872 799.014 263.136C798.267 262.389 797.894 261.387 797.894 260.128C797.894 258.955 798.257 257.984 798.982 257.216C799.707 256.448 800.571 256.064 801.574 256.064C802.737 256.064 803.643 256.432 804.294 257.168C804.945 257.893 805.27 258.869 805.27 260.096C805.27 260.288 805.259 260.448 805.238 260.576H799.446C799.457 261.259 799.681 261.819 800.118 262.256C800.566 262.693 801.115 262.912 801.766 262.912C802.865 262.912 803.585 262.395 803.926 261.36ZM808.432 259.472V264H806.928V252.416H808.432V257.2C808.944 256.453 809.723 256.08 810.768 256.08C811.653 256.08 812.331 256.363 812.8 256.928C813.28 257.493 813.52 258.224 813.52 259.12V264H812.016V259.376C812.016 258.085 811.419 257.44 810.224 257.44C809.669 257.44 809.237 257.632 808.928 258.016C808.619 258.389 808.453 258.875 808.432 259.472ZM815.171 261.936C815.171 261.275 815.384 260.747 815.811 260.352C816.237 259.947 816.803 259.696 817.507 259.6L819.587 259.296C819.981 259.243 820.179 259.051 820.179 258.72C820.179 258.315 820.04 257.984 819.763 257.728C819.485 257.472 819.069 257.344 818.515 257.344C818.003 257.344 817.597 257.488 817.299 257.776C817 258.053 816.824 258.427 816.771 258.896L815.331 258.56C815.405 257.824 815.741 257.227 816.339 256.768C816.936 256.299 817.651 256.064 818.483 256.064C819.571 256.064 820.376 256.331 820.899 256.864C821.421 257.387 821.683 258.059 821.683 258.88V262.736C821.683 263.195 821.715 263.616 821.779 264H820.307C820.253 263.68 820.227 263.333 820.227 262.96C820.013 263.301 819.699 263.6 819.283 263.856C818.877 264.112 818.365 264.24 817.747 264.24C816.989 264.24 816.371 264.016 815.891 263.568C815.411 263.109 815.171 262.565 815.171 261.936ZM817.955 262.976C818.627 262.976 819.165 262.795 819.571 262.432C819.976 262.069 820.179 261.493 820.179 260.704V260.352L817.827 260.704C817.485 260.757 817.213 260.88 817.011 261.072C816.808 261.264 816.707 261.525 816.707 261.856C816.707 262.155 816.819 262.416 817.043 262.64C817.277 262.864 817.581 262.976 817.955 262.976ZM825.268 259.552V264H823.764V256.304H825.236V257.408C825.748 256.523 826.537 256.08 827.604 256.08C828.489 256.08 829.166 256.363 829.636 256.928C830.116 257.493 830.356 258.224 830.356 259.12V264H828.852V259.376C828.852 258.085 828.254 257.44 827.06 257.44C826.494 257.44 826.052 257.643 825.732 258.048C825.422 258.443 825.268 258.944 825.268 259.552ZM835.718 257.456C835.067 257.456 834.513 257.691 834.054 258.16C833.606 258.629 833.382 259.291 833.382 260.144C833.382 260.987 833.606 261.648 834.054 262.128C834.513 262.608 835.073 262.848 835.734 262.848C836.374 262.848 836.859 262.688 837.19 262.368C837.531 262.048 837.761 261.68 837.878 261.264L839.206 261.84C838.993 262.48 838.587 263.04 837.99 263.52C837.403 264 836.651 264.24 835.734 264.24C834.614 264.24 833.686 263.851 832.95 263.072C832.214 262.293 831.846 261.317 831.846 260.144C831.846 258.949 832.214 257.973 832.95 257.216C833.686 256.448 834.609 256.064 835.718 256.064C836.657 256.064 837.414 256.304 837.99 256.784C838.577 257.264 838.961 257.84 839.142 258.512L837.782 259.088C837.665 258.64 837.441 258.256 837.11 257.936C836.779 257.616 836.315 257.456 835.718 257.456ZM841.606 259.36H845.814C845.793 258.784 845.601 258.315 845.238 257.952C844.876 257.579 844.364 257.392 843.702 257.392C843.105 257.392 842.614 257.589 842.23 257.984C841.846 258.368 841.638 258.827 841.606 259.36ZM846.038 261.36L847.334 261.808C847.11 262.523 846.694 263.109 846.086 263.568C845.478 264.016 844.742 264.24 843.878 264.24C842.801 264.24 841.884 263.872 841.126 263.136C840.38 262.389 840.006 261.387 840.006 260.128C840.006 258.955 840.369 257.984 841.094 257.216C841.82 256.448 842.684 256.064 843.686 256.064C844.849 256.064 845.756 256.432 846.406 257.168C847.057 257.893 847.382 258.869 847.382 260.096C847.382 260.288 847.372 260.448 847.35 260.576H841.558C841.569 261.259 841.793 261.819 842.23 262.256C842.678 262.693 843.228 262.912 843.878 262.912C844.977 262.912 845.697 262.395 846.038 261.36Z" fill="#B5BAC6"/>
<path d="M766.994 253C766.442 253.009 766.002 253.462 766.01 254.014V262.6L762.717 259.307C762.528 259.113 762.27 259.004 762 259.004C761.593 259.004 761.227 259.251 761.074 259.628C760.92 260.005 761.011 260.437 761.303 260.721L766.215 265.633C766.403 265.88 766.696 266.026 767.008 266.027C767.319 266.028 767.613 265.883 767.803 265.637C767.804 265.635 767.805 265.633 767.807 265.631L772.717 260.721C772.978 260.47 773.083 260.098 772.992 259.747C772.9 259.397 772.627 259.123 772.276 259.032C771.926 258.94 771.553 259.046 771.303 259.307L768.01 262.6V254.014C768.013 253.743 767.907 253.483 767.716 253.292C767.525 253.101 767.264 252.996 766.994 253Z" fill="#ABB1BD"/>
<path d="M815.84 156.508V152.042H818.238C819.756 152.042 820.68 152.9 820.68 154.286C820.68 155.628 819.756 156.508 818.238 156.508H815.84ZM818.612 159.126C821.692 159.126 823.738 157.102 823.738 154.264C823.738 151.448 821.692 149.402 818.612 149.402H812.782V165H815.818V159.126H818.612ZM829.042 169.268L835.84 154.176H832.716L830.054 160.512L827.172 154.176H823.894L828.492 163.636L825.94 169.268H829.042ZM840.834 150.942H838.194V152.46C838.194 153.428 837.666 154.176 836.522 154.176H835.972V156.772H837.93V161.81C837.93 163.9 839.25 165.154 841.362 165.154C842.22 165.154 842.748 165 843.012 164.89V162.47C842.858 162.514 842.462 162.558 842.11 162.558C841.274 162.558 840.834 162.25 840.834 161.304V156.772H843.012V154.176H840.834V150.942ZM847.199 158.642C847.265 157.454 847.991 156.53 849.223 156.53C850.631 156.53 851.225 157.476 851.225 158.686V165H854.151V158.18C854.151 155.804 852.875 153.89 850.125 153.89C849.091 153.89 847.903 154.242 847.199 155.078V149.072H844.273V165H847.199V158.642ZM861.295 162.668C859.865 162.668 858.545 161.612 858.545 159.588C858.545 157.542 859.865 156.508 861.295 156.508C862.725 156.508 864.045 157.542 864.045 159.588C864.045 161.634 862.725 162.668 861.295 162.668ZM861.295 153.846C858.061 153.846 855.619 156.244 855.619 159.588C855.619 162.91 858.061 165.33 861.295 165.33C864.529 165.33 866.971 162.91 866.971 159.588C866.971 156.244 864.529 153.846 861.295 153.846ZM871.519 158.774C871.519 157.52 872.267 156.53 873.543 156.53C874.951 156.53 875.545 157.476 875.545 158.686V165H878.471V158.18C878.471 155.804 877.239 153.89 874.555 153.89C873.389 153.89 872.091 154.396 871.431 155.518V154.176H868.593V165H871.519V158.774Z" fill="black"/>
<path d="M814.331 183.232L812.923 183.728C812.849 183.237 812.609 182.795 812.203 182.4C811.798 181.995 811.238 181.792 810.523 181.792C809.894 181.792 809.371 181.973 808.955 182.336C808.539 182.699 808.331 183.147 808.331 183.68C808.331 184.096 808.454 184.448 808.699 184.736C808.955 185.024 809.318 185.221 809.787 185.328L811.483 185.696C812.422 185.899 813.147 186.283 813.659 186.848C814.171 187.403 814.427 188.08 814.427 188.88C814.427 189.797 814.065 190.587 813.339 191.248C812.614 191.909 811.67 192.24 810.507 192.24C809.238 192.24 808.241 191.909 807.515 191.248C806.801 190.576 806.385 189.781 806.267 188.864L807.771 188.384C807.835 189.067 808.102 189.643 808.571 190.112C809.041 190.581 809.681 190.816 810.491 190.816C811.238 190.816 811.814 190.645 812.219 190.304C812.625 189.963 812.827 189.531 812.827 189.008C812.827 188.581 812.683 188.213 812.395 187.904C812.107 187.584 811.686 187.365 811.131 187.248L809.515 186.896C808.673 186.715 808.001 186.357 807.499 185.824C806.998 185.291 806.747 184.613 806.747 183.792C806.747 182.896 807.11 182.112 807.835 181.44C808.571 180.757 809.457 180.416 810.491 180.416C811.654 180.416 812.545 180.699 813.163 181.264C813.782 181.829 814.171 182.485 814.331 183.232ZM816.981 187.36H821.189C821.168 186.784 820.976 186.315 820.613 185.952C820.251 185.579 819.739 185.392 819.077 185.392C818.48 185.392 817.989 185.589 817.605 185.984C817.221 186.368 817.013 186.827 816.981 187.36ZM821.413 189.36L822.709 189.808C822.485 190.523 822.069 191.109 821.461 191.568C820.853 192.016 820.117 192.24 819.253 192.24C818.176 192.24 817.259 191.872 816.501 191.136C815.755 190.389 815.381 189.387 815.381 188.128C815.381 186.955 815.744 185.984 816.469 185.216C817.195 184.448 818.059 184.064 819.061 184.064C820.224 184.064 821.131 184.432 821.781 185.168C822.432 185.893 822.757 186.869 822.757 188.096C822.757 188.288 822.747 188.448 822.725 188.576H816.933C816.944 189.259 817.168 189.819 817.605 190.256C818.053 190.693 818.603 190.912 819.253 190.912C820.352 190.912 821.072 190.395 821.413 189.36ZM828.687 184.224V185.824C828.463 185.792 828.245 185.776 828.031 185.776C826.623 185.776 825.919 186.565 825.919 188.144V192H824.415V184.304H825.887V185.648C826.357 184.667 827.125 184.176 828.191 184.176C828.362 184.176 828.527 184.192 828.687 184.224ZM836.855 184.304L833.783 192H832.263L829.143 184.304H830.839L833.031 190.24L835.239 184.304H836.855ZM839.52 192H838.032V184.304H839.52V192ZM838 182.16C837.798 181.947 837.696 181.691 837.696 181.392C837.696 181.093 837.798 180.837 838 180.624C838.214 180.411 838.47 180.304 838.768 180.304C839.067 180.304 839.323 180.411 839.536 180.624C839.75 180.827 839.856 181.083 839.856 181.392C839.856 181.691 839.75 181.947 839.536 182.16C839.323 182.363 839.067 182.464 838.768 182.464C838.47 182.464 838.214 182.363 838 182.16ZM845.049 185.456C844.399 185.456 843.844 185.691 843.385 186.16C842.937 186.629 842.713 187.291 842.713 188.144C842.713 188.987 842.937 189.648 843.385 190.128C843.844 190.608 844.404 190.848 845.065 190.848C845.705 190.848 846.191 190.688 846.521 190.368C846.863 190.048 847.092 189.68 847.209 189.264L848.537 189.84C848.324 190.48 847.919 191.04 847.321 191.52C846.735 192 845.983 192.24 845.065 192.24C843.945 192.24 843.017 191.851 842.281 191.072C841.545 190.293 841.177 189.317 841.177 188.144C841.177 186.949 841.545 185.973 842.281 185.216C843.017 184.448 843.94 184.064 845.049 184.064C845.988 184.064 846.745 184.304 847.321 184.784C847.908 185.264 848.292 185.84 848.473 186.512L847.113 187.088C846.996 186.64 846.772 186.256 846.441 185.936C846.111 185.616 845.647 185.456 845.049 185.456ZM850.938 187.36H855.146C855.124 186.784 854.932 186.315 854.57 185.952C854.207 185.579 853.695 185.392 853.034 185.392C852.436 185.392 851.946 185.589 851.562 185.984C851.178 186.368 850.97 186.827 850.938 187.36ZM855.37 189.36L856.666 189.808C856.442 190.523 856.026 191.109 855.418 191.568C854.81 192.016 854.074 192.24 853.21 192.24C852.132 192.24 851.215 191.872 850.458 191.136C849.711 190.389 849.338 189.387 849.338 188.128C849.338 186.955 849.7 185.984 850.426 185.216C851.151 184.448 852.015 184.064 853.018 184.064C854.18 184.064 855.087 184.432 855.738 185.168C856.388 185.893 856.714 186.869 856.714 188.096C856.714 188.288 856.703 188.448 856.682 188.576H850.89C850.9 189.259 851.124 189.819 851.562 190.256C852.01 190.693 852.559 190.912 853.21 190.912C854.308 190.912 855.028 190.395 855.37 189.36ZM864.126 181.872V184.304H865.79V185.664H864.126V189.664C864.126 190.027 864.206 190.293 864.366 190.464C864.536 190.635 864.814 190.72 865.198 190.72C865.422 190.72 865.619 190.699 865.79 190.656V191.936C865.534 192.032 865.192 192.08 864.766 192.08C864.104 192.08 863.582 191.888 863.198 191.504C862.814 191.12 862.622 190.581 862.622 189.888V185.664H861.15V184.304H861.566C861.96 184.304 862.254 184.197 862.446 183.984C862.648 183.76 862.75 183.472 862.75 183.12V181.872H864.126ZM869.533 195.216H867.885L869.805 191.152L866.493 184.304H868.221L870.621 189.616L872.925 184.304H874.541L869.533 195.216ZM877.214 195.04H875.726V184.304H877.182V185.504C877.406 185.099 877.742 184.768 878.19 184.512C878.638 184.256 879.161 184.128 879.758 184.128C880.868 184.128 881.732 184.507 882.35 185.264C882.98 186.021 883.294 186.981 883.294 188.144C883.294 189.317 882.969 190.288 882.318 191.056C881.678 191.824 880.809 192.208 879.71 192.208C879.145 192.208 878.644 192.091 878.206 191.856C877.769 191.621 877.438 191.323 877.214 190.96V195.04ZM881.758 188.144C881.758 187.365 881.55 186.725 881.134 186.224C880.729 185.712 880.18 185.456 879.486 185.456C878.804 185.456 878.249 185.712 877.822 186.224C877.406 186.725 877.198 187.365 877.198 188.144C877.198 188.944 877.406 189.6 877.822 190.112C878.249 190.613 878.804 190.864 879.486 190.864C880.169 190.864 880.718 190.613 881.134 190.112C881.55 189.6 881.758 188.944 881.758 188.144ZM885.925 187.36H890.133C890.112 186.784 889.92 186.315 889.557 185.952C889.194 185.579 888.682 185.392 888.021 185.392C887.424 185.392 886.933 185.589 886.549 185.984C886.165 186.368 885.957 186.827 885.925 187.36ZM890.357 189.36L891.653 189.808C891.429 190.523 891.013 191.109 890.405 191.568C889.797 192.016 889.061 192.24 888.197 192.24C887.12 192.24 886.202 191.872 885.445 191.136C884.698 190.389 884.325 189.387 884.325 188.128C884.325 186.955 884.688 185.984 885.413 185.216C886.138 184.448 887.002 184.064 888.005 184.064C889.168 184.064 890.074 184.432 890.725 185.168C891.376 185.893 891.701 186.869 891.701 188.096C891.701 188.288 891.69 188.448 891.669 188.576H885.877C885.888 189.259 886.112 189.819 886.549 190.256C886.997 190.693 887.546 190.912 888.197 190.912C889.296 190.912 890.016 190.395 890.357 189.36Z" fill="#B5BAC6"/>
<path d="M907.324 257.664H909.292L908.812 259.904H906.524V261.424H908.476L907.932 264H909.612L910.156 261.424H912.252L911.708 264H913.372L913.916 261.424H916.284V259.904H914.252L914.732 257.664H917.084V256.128H915.052L915.596 253.632H913.932L913.388 256.128H911.292L911.836 253.632H910.156L909.612 256.128H907.324V257.664ZM910.972 257.664H913.068L912.588 259.904H910.492L910.972 257.664ZM920.126 258.816C920.126 257.728 920.286 256.8 920.686 256.176C921.006 255.664 921.502 255.328 922.254 255.328C923.022 255.328 923.486 255.664 923.806 256.176C924.222 256.8 924.382 257.728 924.382 258.816C924.382 259.904 924.222 260.832 923.806 261.456C923.486 261.968 923.022 262.304 922.254 262.304C921.502 262.304 921.006 261.968 920.686 261.456C920.286 260.832 920.126 259.904 920.126 258.816ZM917.918 258.816C917.918 260.144 918.126 261.44 918.83 262.512C919.518 263.536 920.638 264.256 922.254 264.256C923.87 264.256 924.99 263.536 925.662 262.512C926.366 261.44 926.59 260.144 926.59 258.816C926.59 257.488 926.366 256.192 925.662 255.12C924.99 254.096 923.87 253.376 922.254 253.376C920.638 253.376 919.518 254.096 918.83 255.12C918.126 256.192 917.918 257.488 917.918 258.816ZM931.45 257.872C930.49 257.856 929.93 257.248 929.93 256.512C929.93 255.824 930.49 255.2 931.45 255.2C932.426 255.2 932.986 255.824 932.986 256.512C932.986 257.248 932.426 257.856 931.45 257.872ZM931.45 262.416C930.314 262.416 929.706 261.712 929.706 260.976C929.706 260.224 930.282 259.504 931.45 259.504C932.618 259.504 933.21 260.224 933.21 260.976C933.21 261.712 932.602 262.416 931.45 262.416ZM931.45 264.24C933.818 264.24 935.37 262.992 935.37 261.2C935.37 260.08 934.634 259.072 933.546 258.672C934.586 258.288 935.162 257.264 935.162 256.352C935.162 254.608 933.61 253.376 931.45 253.376C929.29 253.376 927.738 254.608 927.738 256.352C927.738 257.28 928.33 258.288 929.37 258.672C928.266 259.088 927.53 260.08 927.53 261.2C927.53 262.992 929.082 264.24 931.45 264.24Z" fill="black"/>
<rect x="809" y="45" width="79.2788" height="79.353" rx="4" fill="#F1EBF5"/>
<path fill-rule="evenodd" clip-rule="evenodd" d="M834.499 61.7807C834.499 61.7807 833.567 55.3159 848.494 55.3159C864.093 55.3159 862.888 63.1105 862.888 63.1105V75.99C862.888 83.7795 854.95 83.6514 854.95 83.6514H840.823C832.35 83.6514 832.619 91.9776 832.619 91.9776V98.9577H827.643C827.643 98.9577 819.306 99.4912 819.306 84.4491C819.306 69.4074 828.858 70.4893 828.858 70.4893H848.76V68.4785H834.516L834.499 61.7807ZM842.452 60.5689C841.971 60.0888 841.319 59.8194 840.639 59.82C839.96 59.8194 839.308 60.0888 838.827 60.5689C838.346 61.049 838.076 61.7003 838.077 62.3793C838.076 63.0582 838.346 63.7095 838.827 64.1896C839.308 64.6697 839.96 64.9391 840.639 64.9385C841.319 64.9391 841.971 64.6697 842.452 64.1896C842.933 63.7095 843.203 63.0582 843.202 62.3793C843.203 61.7003 842.933 61.049 842.452 60.5689Z" fill="url(#paint5_linear)"/>
<path fill-rule="evenodd" clip-rule="evenodd" d="M862.78 106.779C862.78 106.779 863.712 113.244 848.785 113.244H848.785C833.185 113.244 834.391 105.449 834.391 105.449V92.5696C834.391 84.7798 842.328 84.9079 842.328 84.9079H856.456C864.928 84.9079 864.66 76.5817 864.66 76.5817V69.6018H869.636C869.636 69.6018 877.972 69.0684 877.972 84.1102C877.972 99.1523 868.421 98.0705 868.421 98.0705H848.519V100.081H862.763L862.78 106.779ZM854.827 107.991C855.307 108.471 855.96 108.741 856.639 108.74V108.74C857.319 108.74 857.971 108.471 858.452 107.991C858.933 107.511 859.203 106.859 859.202 106.18C859.203 105.502 858.933 104.85 858.452 104.37C857.971 103.89 857.319 103.621 856.639 103.621C855.96 103.621 855.307 103.89 854.827 104.37C854.346 104.85 854.076 105.502 854.077 106.181C854.076 106.86 854.346 107.511 854.827 107.991Z" fill="url(#paint6_linear)"/>
<rect x="737" y="224" width="223" height="1" fill="#EAECF5"/>
</g>
<defs>
<filter id="filter0_d" x="-25" y="-21" width="273" height="346" filterUnits="userSpaceOnUse" color-interpolation-filters="sRGB">
<feFlood flood-opacity="0" result="BackgroundImageFix"/>
<feColorMatrix in="SourceAlpha" type="matrix" values="0 0 0 0 0 0 0 0 0 0 0 0 0 0 0 0 0 0 127 0"/>
<feOffset dy="4"/>
<feGaussianBlur stdDeviation="12.5"/>
<feColorMatrix type="matrix" values="0 0 0 0 0.948879 0 0 0 0 0.948879 0 0 0 0 0.948879 0 0 0 0.346372 0"/>
<feBlend mode="normal" in2="BackgroundImageFix" result="effect1_dropShadow"/>
<feBlend mode="normal" in="SourceGraphic" in2="effect1_dropShadow" result="shape"/>
</filter>
<filter id="filter1_d" x="220" y="-21" width="273" height="346" filterUnits="userSpaceOnUse" color-interpolation-filters="sRGB">
<feFlood flood-opacity="0" result="BackgroundImageFix"/>
<feColorMatrix in="SourceAlpha" type="matrix" values="0 0 0 0 0 0 0 0 0 0 0 0 0 0 0 0 0 0 127 0"/>
<feOffset dy="4"/>
<feGaussianBlur stdDeviation="12.5"/>
<feColorMatrix type="matrix" values="0 0 0 0 0.948879 0 0 0 0 0.948879 0 0 0 0 0.948879 0 0 0 0.346372 0"/>
<feBlend mode="normal" in2="BackgroundImageFix" result="effect1_dropShadow"/>
<feBlend mode="normal" in="SourceGraphic" in2="effect1_dropShadow" result="shape"/>
</filter>
<filter id="filter2_d" x="465" y="-21" width="273" height="346" filterUnits="userSpaceOnUse" color-interpolation-filters="sRGB">
<feFlood flood-opacity="0" result="BackgroundImageFix"/>
<feColorMatrix in="SourceAlpha" type="matrix" values="0 0 0 0 0 0 0 0 0 0 0 0 0 0 0 0 0 0 127 0"/>
<feOffset dy="4"/>
<feGaussianBlur stdDeviation="12.5"/>
<feColorMatrix type="matrix" values="0 0 0 0 0.948879 0 0 0 0 0.948879 0 0 0 0 0.948879 0 0 0 0.346372 0"/>
<feBlend mode="normal" in2="BackgroundImageFix" result="effect1_dropShadow"/>
<feBlend mode="normal" in="SourceGraphic" in2="effect1_dropShadow" result="shape"/>
</filter>
<filter id="filter3_d" x="712" y="-21" width="273" height="346" filterUnits="userSpaceOnUse" color-interpolation-filters="sRGB">
<feFlood flood-opacity="0" result="BackgroundImageFix"/>
<feColorMatrix in="SourceAlpha" type="matrix" values="0 0 0 0 0 0 0 0 0 0 0 0 0 0 0 0 0 0 127 0"/>
<feOffset dy="4"/>
<feGaussianBlur stdDeviation="12.5"/>
<feColorMatrix type="matrix" values="0 0 0 0 0.948879 0 0 0 0 0.948879 0 0 0 0 0.948879 0 0 0 0.346372 0"/>
<feBlend mode="normal" in2="BackgroundImageFix" result="effect1_dropShadow"/>
<feBlend mode="normal" in="SourceGraphic" in2="effect1_dropShadow" result="shape"/>
</filter>
<linearGradient id="paint0_linear" x1="72" y1="43" x2="72" y2="122.353" gradientUnits="userSpaceOnUse">
<stop stop-color="#947CE0" stop-opacity="0.0923569"/>
<stop offset="1" stop-color="#5A46BE" stop-opacity="0.0923569"/>
</linearGradient>
<linearGradient id="paint1_linear" x1="561" y1="42" x2="561" y2="121.353" gradientUnits="userSpaceOnUse">
<stop stop-color="#181C21"/>
<stop offset="1" stop-color="#181C21"/>
</linearGradient>
<linearGradient id="paint2_linear" x1="586.457" y1="63.1962" x2="576.789" y2="82.5138" gradientUnits="userSpaceOnUse">
<stop offset="0.3" stop-color="#3E863D"/>
<stop offset="0.5" stop-color="#55934F"/>
<stop offset="0.8" stop-color="#5AAD45"/>
</linearGradient>
<linearGradient id="paint3_linear" x1="589.081" y1="93.5546" x2="606.639" y2="80.9861" gradientUnits="userSpaceOnUse">
<stop offset="0.57" stop-color="#3E863D"/>
<stop offset="0.72" stop-color="#619857"/>
<stop offset="1" stop-color="#76AC64"/>
</linearGradient>
<linearGradient id="paint4_linear" x1="585.059" y1="86.4755" x2="600.148" y2="86.4755" gradientUnits="userSpaceOnUse">
<stop offset="0.16" stop-color="#6BBF47"/>
<stop offset="0.38" stop-color="#79B461"/>
<stop offset="0.47" stop-color="#75AC64"/>
<stop offset="0.7" stop-color="#659E5A"/>
<stop offset="0.9" stop-color="#3E863D"/>
</linearGradient>
<linearGradient id="paint5_linear" x1="810.46" y1="75.1862" x2="839.692" y2="104.035" gradientUnits="userSpaceOnUse">
<stop stop-color="#387EB8"/>
<stop offset="1" stop-color="#366994"/>
</linearGradient>
<linearGradient id="paint6_linear" x1="827.857" y1="94.2785" x2="859.25" y2="123.862" gradientUnits="userSpaceOnUse">
<stop stop-color="#FFE052"/>
<stop offset="1" stop-color="#FFC331"/>
</linearGradient>
<clipPath id="clip0">
<rect width="960" height="296" fill="white"/>
</clipPath>
<clipPath id="clip1">
<rect width="223" height="296" fill="white" transform="translate(245)"/>
</clipPath>
</defs>
</svg>
