<svg width="960" height="296" viewBox="0 0 960 296" fill="none" xmlns="http://www.w3.org/2000/svg">
<g clip-path="url(#clip0)">
<g filter="url(#filter0_d)">
<rect width="223" height="296" fill="white"/>
<rect x="0.5" y="0.5" width="222" height="295" stroke="#EAECF5"/>
</g>
<rect x="72" y="43" width="79.2788" height="79.353" rx="4" fill="#F7DF1E"/>
<path d="M93.3787 108.429L99.4379 104.769C100.607 106.838 101.67 108.588 104.221 108.588C106.666 108.588 108.207 107.634 108.207 103.92V78.6643H115.648V104.025C115.648 111.718 111.13 115.22 104.54 115.22C98.5875 115.22 95.1324 112.143 93.3785 108.429" fill="black"/>
<path d="M119.211 107.72L125.258 104.259C126.849 106.829 128.918 108.717 132.578 108.717C135.655 108.717 137.617 107.196 137.617 105.098C137.617 102.58 135.601 101.689 132.207 100.221L130.35 99.4333C124.993 97.1785 121.439 94.3464 121.439 88.3673C121.439 82.8603 125.682 78.6643 132.313 78.6643C137.034 78.6643 140.429 80.2903 142.869 84.5386L137.087 88.2097C135.813 85.9547 134.435 85.0632 132.313 85.0632C130.138 85.0632 128.759 86.4268 128.759 88.2097C128.759 90.4126 130.138 91.3044 133.32 92.6681L135.177 93.4548C141.489 96.1298 145.043 98.8567 145.043 104.993C145.043 111.602 139.792 115.22 132.737 115.22C125.841 115.22 121.386 111.969 119.211 107.72" fill="black"/>
<path d="M56.76 261.632L59.208 252.656H60.824L57.592 264H55.976L53.016 254.8L50.088 264H48.52L45.24 252.656H46.856L49.352 261.536L52.2 252.656H53.848L56.76 261.632ZM62.4941 259.36H66.7021C66.6808 258.784 66.4888 258.315 66.1261 257.952C65.7634 257.579 65.2514 257.392 64.5901 257.392C63.9928 257.392 63.5021 257.589 63.1181 257.984C62.7341 258.368 62.5261 258.827 62.4941 259.36ZM66.9261 261.36L68.2221 261.808C67.9981 262.523 67.5821 263.109 66.9741 263.568C66.3661 264.016 65.6301 264.24 64.7661 264.24C63.6888 264.24 62.7714 263.872 62.0141 263.136C61.2674 262.389 60.8941 261.387 60.8941 260.128C60.8941 258.955 61.2568 257.984 61.9821 257.216C62.7074 256.448 63.5714 256.064 64.5741 256.064C65.7368 256.064 66.6434 256.432 67.2941 257.168C67.9448 257.893 68.2701 258.869 68.2701 260.096C68.2701 260.288 68.2594 260.448 68.2381 260.576H62.4461C62.4568 261.259 62.6808 261.819 63.1181 262.256C63.5661 262.693 64.1154 262.912 64.7661 262.912C65.8648 262.912 66.5848 262.395 66.9261 261.36ZM71.4321 259.472V264H69.9281V252.416H71.4321V257.2C71.9441 256.453 72.7227 256.08 73.7681 256.08C74.6534 256.08 75.3307 256.363 75.8001 256.928C76.2801 257.493 76.5201 258.224 76.5201 259.12V264H75.0161V259.376C75.0161 258.085 74.4187 257.44 73.2241 257.44C72.6694 257.44 72.2374 257.632 71.9281 258.016C71.6187 258.389 71.4534 258.875 71.4321 259.472ZM78.1705 261.936C78.1705 261.275 78.3839 260.747 78.8105 260.352C79.2372 259.947 79.8025 259.696 80.5065 259.6L82.5865 259.296C82.9812 259.243 83.1785 259.051 83.1785 258.72C83.1785 258.315 83.0399 257.984 82.7625 257.728C82.4852 257.472 82.0692 257.344 81.5145 257.344C81.0025 257.344 80.5972 257.488 80.2985 257.776C79.9999 258.053 79.8239 258.427 79.7705 258.896L78.3305 258.56C78.4052 257.824 78.7412 257.227 79.3385 256.768C79.9359 256.299 80.6505 256.064 81.4825 256.064C82.5705 256.064 83.3759 256.331 83.8985 256.864C84.4212 257.387 84.6825 258.059 84.6825 258.88V262.736C84.6825 263.195 84.7145 263.616 84.7785 264H83.3065C83.2532 263.68 83.2265 263.333 83.2265 262.96C83.0132 263.301 82.6985 263.6 82.2825 263.856C81.8772 264.112 81.3652 264.24 80.7465 264.24C79.9892 264.24 79.3705 264.016 78.8905 263.568C78.4105 263.109 78.1705 262.565 78.1705 261.936ZM80.9545 262.976C81.6265 262.976 82.1652 262.795 82.5705 262.432C82.9759 262.069 83.1785 261.493 83.1785 260.704V260.352L80.8265 260.704C80.4852 260.757 80.2132 260.88 80.0105 261.072C79.8079 261.264 79.7065 261.525 79.7065 261.856C79.7065 262.155 79.8185 262.416 80.0425 262.64C80.2772 262.864 80.5812 262.976 80.9545 262.976ZM88.2676 259.552V264H86.7636V256.304H88.2356V257.408C88.7476 256.523 89.537 256.08 90.6036 256.08C91.489 256.08 92.1663 256.363 92.6356 256.928C93.1156 257.493 93.3556 258.224 93.3556 259.12V264H91.8516V259.376C91.8516 258.085 91.2543 257.44 90.0596 257.44C89.4943 257.44 89.0516 257.643 88.7316 258.048C88.4223 258.443 88.2676 258.944 88.2676 259.552ZM98.7181 257.456C98.0674 257.456 97.5128 257.691 97.0541 258.16C96.6061 258.629 96.3821 259.291 96.3821 260.144C96.3821 260.987 96.6061 261.648 97.0541 262.128C97.5128 262.608 98.0728 262.848 98.7341 262.848C99.3741 262.848 99.8594 262.688 100.19 262.368C100.531 262.048 100.761 261.68 100.878 261.264L102.206 261.84C101.993 262.48 101.587 263.04 100.99 263.52C100.403 264 99.6514 264.24 98.7341 264.24C97.6141 264.24 96.6861 263.851 95.9501 263.072C95.2141 262.293 94.8461 261.317 94.8461 260.144C94.8461 258.949 95.2141 257.973 95.9501 257.216C96.6861 256.448 97.6088 256.064 98.7181 256.064C99.6568 256.064 100.414 256.304 100.99 256.784C101.577 257.264 101.961 257.84 102.142 258.512L100.782 259.088C100.665 258.64 100.441 258.256 100.11 257.936C99.7794 257.616 99.3154 257.456 98.7181 257.456ZM104.606 259.36H108.814C108.793 258.784 108.601 258.315 108.238 257.952C107.876 257.579 107.364 257.392 106.702 257.392C106.105 257.392 105.614 257.589 105.23 257.984C104.846 258.368 104.638 258.827 104.606 259.36ZM109.038 261.36L110.334 261.808C110.11 262.523 109.694 263.109 109.086 263.568C108.478 264.016 107.742 264.24 106.878 264.24C105.801 264.24 104.884 263.872 104.126 263.136C103.38 262.389 103.006 261.387 103.006 260.128C103.006 258.955 103.369 257.984 104.094 257.216C104.82 256.448 105.684 256.064 106.686 256.064C107.849 256.064 108.756 256.432 109.406 257.168C110.057 257.893 110.382 258.869 110.382 260.096C110.382 260.288 110.372 260.448 110.35 260.576H104.558C104.569 261.259 104.793 261.819 105.23 262.256C105.678 262.693 106.228 262.912 106.878 262.912C107.977 262.912 108.697 262.395 109.038 261.36Z" fill="#B5BAC6"/>
<path d="M29.994 253C29.4425 253.009 29.0021 253.462 29.0096 254.014V262.6L25.7167 259.307C25.5284 259.113 25.2699 259.004 24.9999 259.004C24.5929 259.004 24.2267 259.251 24.0735 259.628C23.9204 260.005 24.011 260.437 24.3026 260.721L29.2147 265.633C29.4034 265.88 29.6965 266.026 30.0077 266.027C30.3189 266.028 30.6127 265.883 30.8026 265.637C30.8039 265.635 30.8052 265.633 30.8065 265.631L35.7167 260.721C35.9779 260.47 36.0831 260.098 35.9918 259.747C35.9004 259.397 35.6268 259.123 35.2763 259.032C34.9259 258.94 34.5534 259.046 34.3026 259.307L31.0096 262.6V254.014C31.0133 253.743 30.9075 253.483 30.7161 253.292C30.5248 253.101 30.2643 252.996 29.994 253Z" fill="#ABB1BD"/>
<path d="M62.44 160.248C62.44 163.306 64.464 165.33 67.544 165.33C70.58 165.33 72.626 162.998 72.626 160.182V149.402H69.59V160.182C69.59 161.546 68.798 162.448 67.522 162.448C66.29 162.448 65.388 161.722 65.366 160.116V158.686L62.44 159.214V160.248ZM74.3961 162.052C74.3961 163.746 75.8041 165.308 78.1141 165.308C79.7201 165.308 80.7541 164.56 81.3041 163.702C81.3041 164.12 81.3481 164.714 81.4141 165H84.0981C84.0321 164.626 83.9661 163.856 83.9661 163.284V157.96C83.9661 155.782 82.6901 153.846 79.2581 153.846C76.3541 153.846 74.7921 155.716 74.6161 157.41L77.2121 157.96C77.3001 157.014 78.0041 156.2 79.2801 156.2C80.5121 156.2 81.1061 156.838 81.1061 157.608C81.1061 157.982 80.9081 158.29 80.2921 158.378L77.6301 158.774C75.8261 159.038 74.3961 160.116 74.3961 162.052ZM78.7301 163.13C77.7841 163.13 77.3221 162.514 77.3221 161.876C77.3221 161.04 77.9161 160.622 78.6641 160.512L81.1061 160.138V160.622C81.1061 162.536 79.9621 163.13 78.7301 163.13ZM96.2427 154.176H93.1627L90.5887 161.436L87.9047 154.176H84.6927L89.1147 165H92.0407L96.2427 154.176ZM96.6325 162.052C96.6325 163.746 98.0405 165.308 100.35 165.308C101.956 165.308 102.99 164.56 103.54 163.702C103.54 164.12 103.584 164.714 103.65 165H106.334C106.268 164.626 106.202 163.856 106.202 163.284V157.96C106.202 155.782 104.926 153.846 101.494 153.846C98.5905 153.846 97.0285 155.716 96.8525 157.41L99.4485 157.96C99.5365 157.014 100.24 156.2 101.516 156.2C102.748 156.2 103.342 156.838 103.342 157.608C103.342 157.982 103.144 158.29 102.528 158.378L99.8665 158.774C98.0625 159.038 96.6325 160.116 96.6325 162.052ZM100.966 163.13C100.02 163.13 99.5585 162.514 99.5585 161.876C99.5585 161.04 100.152 160.622 100.9 160.512L103.342 160.138V160.622C103.342 162.536 102.198 163.13 100.966 163.13ZM107.54 161.986C107.672 163.218 108.794 165.33 112.05 165.33C114.888 165.33 116.252 163.526 116.252 161.766C116.252 160.182 115.174 158.884 113.04 158.444L111.5 158.114C110.906 158.004 110.51 157.674 110.51 157.146C110.51 156.53 111.126 156.068 111.896 156.068C113.128 156.068 113.59 156.882 113.678 157.52L116.12 156.97C115.988 155.804 114.954 153.846 111.874 153.846C109.542 153.846 107.826 155.452 107.826 157.388C107.826 158.906 108.772 160.16 110.862 160.622L112.292 160.952C113.128 161.128 113.458 161.524 113.458 162.008C113.458 162.58 112.996 163.086 112.028 163.086C110.752 163.086 110.114 162.294 110.048 161.436L107.54 161.986ZM122.737 156.552C124.189 156.552 124.871 157.476 125.135 158.378L127.753 157.498C127.291 155.672 125.619 153.846 122.671 153.846C119.525 153.846 117.061 156.244 117.061 159.588C117.061 162.91 119.569 165.33 122.759 165.33C125.641 165.33 127.335 163.482 127.819 161.678L125.245 160.82C125.003 161.656 124.255 162.646 122.759 162.646C121.263 162.646 119.987 161.546 119.987 159.588C119.987 157.63 121.241 156.552 122.737 156.552ZM135.883 154.132C135.663 154.11 135.443 154.088 135.201 154.088C134.277 154.088 132.781 154.352 132.121 155.782V154.176H129.283V165H132.209V160.05C132.209 157.718 133.507 156.992 135.003 156.992C135.267 156.992 135.553 157.014 135.883 157.08V154.132ZM140.179 165V154.176H137.253V165H140.179ZM136.901 150.634C136.901 151.602 137.715 152.416 138.705 152.416C139.717 152.416 140.509 151.602 140.509 150.634C140.509 149.622 139.717 148.808 138.705 148.808C137.715 148.808 136.901 149.622 136.901 150.634ZM145.551 169.18V163.944C146.079 164.67 147.179 165.264 148.675 165.264C151.733 165.264 153.779 162.844 153.779 159.566C153.779 156.354 151.953 153.934 148.785 153.934C147.157 153.934 145.947 154.66 145.463 155.496V154.176H142.625V169.18H145.551ZM150.897 159.588C150.897 161.524 149.709 162.646 148.213 162.646C146.716 162.646 145.507 161.502 145.507 159.588C145.507 157.674 146.716 156.552 148.213 156.552C149.709 156.552 150.897 157.674 150.897 159.588ZM158.973 150.942H156.333V152.46C156.333 153.428 155.805 154.176 154.661 154.176H154.111V156.772H156.069V161.81C156.069 163.9 157.389 165.154 159.501 165.154C160.359 165.154 160.887 165 161.151 164.89V162.47C160.997 162.514 160.601 162.558 160.249 162.558C159.413 162.558 158.973 162.25 158.973 161.304V156.772H161.151V154.176H158.973V150.942Z" fill="black"/>
<path d="M77.3312 183.232L75.9232 183.728C75.8486 183.237 75.6086 182.795 75.2032 182.4C74.7979 181.995 74.2379 181.792 73.5232 181.792C72.8939 181.792 72.3712 181.973 71.9552 182.336C71.5392 182.699 71.3312 183.147 71.3312 183.68C71.3312 184.096 71.4539 184.448 71.6992 184.736C71.9552 185.024 72.3179 185.221 72.7872 185.328L74.4832 185.696C75.4219 185.899 76.1472 186.283 76.6592 186.848C77.1712 187.403 77.4272 188.08 77.4272 188.88C77.4272 189.797 77.0646 190.587 76.3392 191.248C75.6139 191.909 74.6699 192.24 73.5072 192.24C72.2379 192.24 71.2406 191.909 70.5152 191.248C69.8006 190.576 69.3846 189.781 69.2672 188.864L70.7712 188.384C70.8352 189.067 71.1019 189.643 71.5712 190.112C72.0406 190.581 72.6806 190.816 73.4912 190.816C74.2379 190.816 74.8139 190.645 75.2192 190.304C75.6246 189.963 75.8272 189.531 75.8272 189.008C75.8272 188.581 75.6832 188.213 75.3952 187.904C75.1072 187.584 74.6859 187.365 74.1312 187.248L72.5152 186.896C71.6726 186.715 71.0006 186.357 70.4992 185.824C69.9979 185.291 69.7472 184.613 69.7472 183.792C69.7472 182.896 70.1099 182.112 70.8352 181.44C71.5712 180.757 72.4566 180.416 73.4912 180.416C74.6539 180.416 75.5446 180.699 76.1632 181.264C76.7819 181.829 77.1712 182.485 77.3312 183.232ZM79.9814 187.36H84.1894C84.1681 186.784 83.9761 186.315 83.6134 185.952C83.2508 185.579 82.7388 185.392 82.0774 185.392C81.4801 185.392 80.9894 185.589 80.6054 185.984C80.2214 186.368 80.0134 186.827 79.9814 187.36ZM84.4134 189.36L85.7094 189.808C85.4854 190.523 85.0694 191.109 84.4614 191.568C83.8534 192.016 83.1174 192.24 82.2534 192.24C81.1761 192.24 80.2588 191.872 79.5014 191.136C78.7548 190.389 78.3814 189.387 78.3814 188.128C78.3814 186.955 78.7441 185.984 79.4694 185.216C80.1948 184.448 81.0588 184.064 82.0614 184.064C83.2241 184.064 84.1308 184.432 84.7814 185.168C85.4321 185.893 85.7574 186.869 85.7574 188.096C85.7574 188.288 85.7468 188.448 85.7254 188.576H79.9334C79.9441 189.259 80.1681 189.819 80.6054 190.256C81.0534 190.693 81.6028 190.912 82.2534 190.912C83.3521 190.912 84.0721 190.395 84.4134 189.36ZM91.6874 184.224V185.824C91.4634 185.792 91.2447 185.776 91.0314 185.776C89.6234 185.776 88.9194 186.565 88.9194 188.144V192H87.4154V184.304H88.8874V185.648C89.3567 184.667 90.1247 184.176 91.1914 184.176C91.3621 184.176 91.5274 184.192 91.6874 184.224ZM99.8549 184.304L96.7829 192H95.2629L92.1429 184.304H93.8389L96.0309 190.24L98.2389 184.304H99.8549ZM102.52 192H101.032V184.304H102.52V192ZM101 182.16C100.798 181.947 100.696 181.691 100.696 181.392C100.696 181.093 100.798 180.837 101 180.624C101.214 180.411 101.47 180.304 101.768 180.304C102.067 180.304 102.323 180.411 102.536 180.624C102.75 180.827 102.856 181.083 102.856 181.392C102.856 181.691 102.75 181.947 102.536 182.16C102.323 182.363 102.067 182.464 101.768 182.464C101.47 182.464 101.214 182.363 101 182.16ZM108.049 185.456C107.399 185.456 106.844 185.691 106.385 186.16C105.937 186.629 105.713 187.291 105.713 188.144C105.713 188.987 105.937 189.648 106.385 190.128C106.844 190.608 107.404 190.848 108.065 190.848C108.705 190.848 109.191 190.688 109.521 190.368C109.863 190.048 110.092 189.68 110.209 189.264L111.537 189.84C111.324 190.48 110.919 191.04 110.321 191.52C109.735 192 108.983 192.24 108.065 192.24C106.945 192.24 106.017 191.851 105.281 191.072C104.545 190.293 104.177 189.317 104.177 188.144C104.177 186.949 104.545 185.973 105.281 185.216C106.017 184.448 106.94 184.064 108.049 184.064C108.988 184.064 109.745 184.304 110.321 184.784C110.908 185.264 111.292 185.84 111.473 186.512L110.113 187.088C109.996 186.64 109.772 186.256 109.441 185.936C109.111 185.616 108.647 185.456 108.049 185.456ZM113.938 187.36H118.146C118.124 186.784 117.932 186.315 117.57 185.952C117.207 185.579 116.695 185.392 116.034 185.392C115.436 185.392 114.946 185.589 114.562 185.984C114.178 186.368 113.97 186.827 113.938 187.36ZM118.37 189.36L119.666 189.808C119.442 190.523 119.026 191.109 118.418 191.568C117.81 192.016 117.074 192.24 116.21 192.24C115.132 192.24 114.215 191.872 113.458 191.136C112.711 190.389 112.338 189.387 112.338 188.128C112.338 186.955 112.7 185.984 113.426 185.216C114.151 184.448 115.015 184.064 116.018 184.064C117.18 184.064 118.087 184.432 118.738 185.168C119.388 185.893 119.714 186.869 119.714 188.096C119.714 188.288 119.703 188.448 119.682 188.576H113.89C113.9 189.259 114.124 189.819 114.562 190.256C115.01 190.693 115.559 190.912 116.21 190.912C117.308 190.912 118.028 190.395 118.37 189.36ZM127.126 181.872V184.304H128.79V185.664H127.126V189.664C127.126 190.027 127.206 190.293 127.366 190.464C127.536 190.635 127.814 190.72 128.198 190.72C128.422 190.72 128.619 190.699 128.79 190.656V191.936C128.534 192.032 128.192 192.08 127.766 192.08C127.104 192.08 126.582 191.888 126.198 191.504C125.814 191.12 125.622 190.581 125.622 189.888V185.664H124.15V184.304H124.566C124.96 184.304 125.254 184.197 125.446 183.984C125.648 183.76 125.75 183.472 125.75 183.12V181.872H127.126ZM132.533 195.216H130.885L132.805 191.152L129.493 184.304H131.221L133.621 189.616L135.925 184.304H137.541L132.533 195.216ZM140.214 195.04H138.726V184.304H140.182V185.504C140.406 185.099 140.742 184.768 141.19 184.512C141.638 184.256 142.161 184.128 142.758 184.128C143.868 184.128 144.732 184.507 145.35 185.264C145.98 186.021 146.294 186.981 146.294 188.144C146.294 189.317 145.969 190.288 145.318 191.056C144.678 191.824 143.809 192.208 142.71 192.208C142.145 192.208 141.644 192.091 141.206 191.856C140.769 191.621 140.438 191.323 140.214 190.96V195.04ZM144.758 188.144C144.758 187.365 144.55 186.725 144.134 186.224C143.729 185.712 143.18 185.456 142.486 185.456C141.804 185.456 141.249 185.712 140.822 186.224C140.406 186.725 140.198 187.365 140.198 188.144C140.198 188.944 140.406 189.6 140.822 190.112C141.249 190.613 141.804 190.864 142.486 190.864C143.169 190.864 143.718 190.613 144.134 190.112C144.55 189.6 144.758 188.944 144.758 188.144ZM148.925 187.36H153.133C153.112 186.784 152.92 186.315 152.557 185.952C152.194 185.579 151.682 185.392 151.021 185.392C150.424 185.392 149.933 185.589 149.549 185.984C149.165 186.368 148.957 186.827 148.925 187.36ZM153.357 189.36L154.653 189.808C154.429 190.523 154.013 191.109 153.405 191.568C152.797 192.016 152.061 192.24 151.197 192.24C150.12 192.24 149.202 191.872 148.445 191.136C147.698 190.389 147.325 189.387 147.325 188.128C147.325 186.955 147.688 185.984 148.413 185.216C149.138 184.448 150.002 184.064 151.005 184.064C152.168 184.064 153.074 184.432 153.725 185.168C154.376 185.893 154.701 186.869 154.701 188.096C154.701 188.288 154.69 188.448 154.669 188.576H148.877C148.888 189.259 149.112 189.819 149.549 190.256C149.997 190.693 150.546 190.912 151.197 190.912C152.296 190.912 153.016 190.395 153.357 189.36Z" fill="#B5BAC6"/>
<path d="M173.167 257.664H175.135L174.655 259.904H172.367V261.424H174.319L173.775 264H175.455L175.999 261.424H178.095L177.551 264H179.215L179.759 261.424H182.127V259.904H180.095L180.575 257.664H182.927V256.128H180.895L181.439 253.632H179.775L179.231 256.128H177.135L177.679 253.632H175.999L175.455 256.128H173.167V257.664ZM176.815 257.664H178.911L178.431 259.904H176.335L176.815 257.664ZM185.97 258.816C185.97 257.728 186.13 256.8 186.53 256.176C186.85 255.664 187.346 255.328 188.098 255.328C188.866 255.328 189.33 255.664 189.65 256.176C190.066 256.8 190.226 257.728 190.226 258.816C190.226 259.904 190.066 260.832 189.65 261.456C189.33 261.968 188.866 262.304 188.098 262.304C187.346 262.304 186.85 261.968 186.53 261.456C186.13 260.832 185.97 259.904 185.97 258.816ZM183.762 258.816C183.762 260.144 183.97 261.44 184.674 262.512C185.362 263.536 186.482 264.256 188.098 264.256C189.714 264.256 190.834 263.536 191.506 262.512C192.21 261.44 192.434 260.144 192.434 258.816C192.434 257.488 192.21 256.192 191.506 255.12C190.834 254.096 189.714 253.376 188.098 253.376C186.482 253.376 185.362 254.096 184.674 255.12C183.97 256.192 183.762 257.488 183.762 258.816ZM197.84 264V253.616H195.936C195.728 254.704 194.672 255.552 193.152 255.568V257.056H195.648V264H197.84Z" fill="black"/>
<rect y="224" width="223" height="1" fill="#EAECF5"/>
<g clip-path="url(#clip1)">
<g filter="url(#filter1_d)">
<rect x="245" width="223" height="296" fill="white"/>
<rect x="245.5" y="0.5" width="222" height="295" stroke="#EAECF5"/>
</g>
<path d="M415.699 257.664H417.667L417.187 259.904H414.899V261.424H416.851L416.307 264H417.987L418.531 261.424H420.627L420.083 264H421.747L422.291 261.424H424.659V259.904H422.627L423.107 257.664H425.459V256.128H423.427L423.971 253.632H422.307L421.763 256.128H419.667L420.211 253.632H418.531L417.987 256.128H415.699V257.664ZM419.347 257.664H421.443L420.963 259.904H418.867L419.347 257.664ZM428.501 258.816C428.501 257.728 428.661 256.8 429.061 256.176C429.381 255.664 429.877 255.328 430.629 255.328C431.397 255.328 431.861 255.664 432.181 256.176C432.597 256.8 432.757 257.728 432.757 258.816C432.757 259.904 432.597 260.832 432.181 261.456C431.861 261.968 431.397 262.304 430.629 262.304C429.877 262.304 429.381 261.968 429.061 261.456C428.661 260.832 428.501 259.904 428.501 258.816ZM426.293 258.816C426.293 260.144 426.501 261.44 427.205 262.512C427.893 263.536 429.013 264.256 430.629 264.256C432.245 264.256 433.365 263.536 434.037 262.512C434.741 261.44 434.965 260.144 434.965 258.816C434.965 257.488 434.741 256.192 434.037 255.12C433.365 254.096 432.245 253.376 430.629 253.376C429.013 253.376 427.893 254.096 427.205 255.12C426.501 256.192 426.293 257.488 426.293 258.816ZM438.081 257.632C438.033 257.456 438.001 257.248 438.001 257.056C438.001 256.08 438.545 255.328 439.649 255.328C440.689 255.328 441.217 256 441.217 256.752C441.217 257.472 440.865 258.016 439.985 258.544L438.273 259.568C436.417 260.688 435.84 262.176 435.825 264H443.505V262.096H438.529C438.689 261.696 439.025 261.408 439.424 261.152L441.425 259.936C442.705 259.152 443.441 258.064 443.441 256.72C443.441 254.912 442.017 253.376 439.697 253.376C437.281 253.376 435.905 255.024 435.905 256.848C435.905 257.104 435.953 257.424 435.985 257.568L438.081 257.632Z" fill="black"/>
<path d="M301.76 261.632L304.208 252.656H305.824L302.592 264H300.976L298.016 254.8L295.088 264H293.52L290.24 252.656H291.856L294.352 261.536L297.2 252.656H298.848L301.76 261.632ZM307.494 259.36H311.702C311.681 258.784 311.489 258.315 311.126 257.952C310.763 257.579 310.251 257.392 309.59 257.392C308.993 257.392 308.502 257.589 308.118 257.984C307.734 258.368 307.526 258.827 307.494 259.36ZM311.926 261.36L313.222 261.808C312.998 262.523 312.582 263.109 311.974 263.568C311.366 264.016 310.63 264.24 309.766 264.24C308.689 264.24 307.771 263.872 307.014 263.136C306.267 262.389 305.894 261.387 305.894 260.128C305.894 258.955 306.257 257.984 306.982 257.216C307.707 256.448 308.571 256.064 309.574 256.064C310.737 256.064 311.643 256.432 312.294 257.168C312.945 257.893 313.27 258.869 313.27 260.096C313.27 260.288 313.259 260.448 313.238 260.576H307.446C307.457 261.259 307.681 261.819 308.118 262.256C308.566 262.693 309.115 262.912 309.766 262.912C310.865 262.912 311.585 262.395 311.926 261.36ZM316.432 259.472V264H314.928V252.416H316.432V257.2C316.944 256.453 317.723 256.08 318.768 256.08C319.653 256.08 320.331 256.363 320.8 256.928C321.28 257.493 321.52 258.224 321.52 259.12V264H320.016V259.376C320.016 258.085 319.419 257.44 318.224 257.44C317.669 257.44 317.237 257.632 316.928 258.016C316.619 258.389 316.453 258.875 316.432 259.472ZM323.171 261.936C323.171 261.275 323.384 260.747 323.811 260.352C324.237 259.947 324.803 259.696 325.507 259.6L327.587 259.296C327.981 259.243 328.179 259.051 328.179 258.72C328.179 258.315 328.04 257.984 327.763 257.728C327.485 257.472 327.069 257.344 326.515 257.344C326.003 257.344 325.597 257.488 325.299 257.776C325 258.053 324.824 258.427 324.771 258.896L323.331 258.56C323.405 257.824 323.741 257.227 324.339 256.768C324.936 256.299 325.651 256.064 326.483 256.064C327.571 256.064 328.376 256.331 328.899 256.864C329.421 257.387 329.683 258.059 329.683 258.88V262.736C329.683 263.195 329.715 263.616 329.779 264H328.307C328.253 263.68 328.227 263.333 328.227 262.96C328.013 263.301 327.699 263.6 327.283 263.856C326.877 264.112 326.365 264.24 325.747 264.24C324.989 264.24 324.371 264.016 323.891 263.568C323.411 263.109 323.171 262.565 323.171 261.936ZM325.955 262.976C326.627 262.976 327.165 262.795 327.571 262.432C327.976 262.069 328.179 261.493 328.179 260.704V260.352L325.827 260.704C325.485 260.757 325.213 260.88 325.011 261.072C324.808 261.264 324.707 261.525 324.707 261.856C324.707 262.155 324.819 262.416 325.043 262.64C325.277 262.864 325.581 262.976 325.955 262.976ZM333.268 259.552V264H331.764V256.304H333.236V257.408C333.748 256.523 334.537 256.08 335.604 256.08C336.489 256.08 337.166 256.363 337.636 256.928C338.116 257.493 338.356 258.224 338.356 259.12V264H336.852V259.376C336.852 258.085 336.254 257.44 335.06 257.44C334.494 257.44 334.052 257.643 333.732 258.048C333.422 258.443 333.268 258.944 333.268 259.552ZM343.718 257.456C343.067 257.456 342.513 257.691 342.054 258.16C341.606 258.629 341.382 259.291 341.382 260.144C341.382 260.987 341.606 261.648 342.054 262.128C342.513 262.608 343.073 262.848 343.734 262.848C344.374 262.848 344.859 262.688 345.19 262.368C345.531 262.048 345.761 261.68 345.878 261.264L347.206 261.84C346.993 262.48 346.587 263.04 345.99 263.52C345.403 264 344.651 264.24 343.734 264.24C342.614 264.24 341.686 263.851 340.95 263.072C340.214 262.293 339.846 261.317 339.846 260.144C339.846 258.949 340.214 257.973 340.95 257.216C341.686 256.448 342.609 256.064 343.718 256.064C344.657 256.064 345.414 256.304 345.99 256.784C346.577 257.264 346.961 257.84 347.142 258.512L345.782 259.088C345.665 258.64 345.441 258.256 345.11 257.936C344.779 257.616 344.315 257.456 343.718 257.456ZM349.606 259.36H353.814C353.793 258.784 353.601 258.315 353.238 257.952C352.876 257.579 352.364 257.392 351.702 257.392C351.105 257.392 350.614 257.589 350.23 257.984C349.846 258.368 349.638 258.827 349.606 259.36ZM354.038 261.36L355.334 261.808C355.11 262.523 354.694 263.109 354.086 263.568C353.478 264.016 352.742 264.24 351.878 264.24C350.801 264.24 349.884 263.872 349.126 263.136C348.38 262.389 348.006 261.387 348.006 260.128C348.006 258.955 348.369 257.984 349.094 257.216C349.82 256.448 350.684 256.064 351.686 256.064C352.849 256.064 353.756 256.432 354.406 257.168C355.057 257.893 355.382 258.869 355.382 260.096C355.382 260.288 355.372 260.448 355.35 260.576H349.558C349.569 261.259 349.793 261.819 350.23 262.256C350.678 262.693 351.228 262.912 351.878 262.912C352.977 262.912 353.697 262.395 354.038 261.36Z" fill="#B5BAC6"/>
<path d="M274.994 253C274.442 253.009 274.002 253.462 274.01 254.014V262.6L270.717 259.307C270.528 259.113 270.27 259.004 270 259.004C269.593 259.004 269.227 259.251 269.074 259.628C268.92 260.005 269.011 260.437 269.303 260.721L274.215 265.633C274.403 265.88 274.696 266.026 275.008 266.027C275.319 266.028 275.613 265.883 275.803 265.637C275.804 265.635 275.805 265.633 275.807 265.631L280.717 260.721C280.978 260.47 281.083 260.098 280.992 259.747C280.9 259.397 280.627 259.123 280.276 259.032C279.926 258.94 279.553 259.046 279.303 259.307L276.01 262.6V254.014C276.013 253.743 275.907 253.483 275.716 253.292C275.525 253.101 275.264 252.996 274.994 253Z" fill="#ABB1BD"/>
<path d="M327.482 162H330.87L327.526 155.62C329.572 155.026 330.848 153.376 330.848 151.198C330.848 148.492 328.912 146.402 325.876 146.402H319.782V162H322.84V155.994H324.424L327.482 162ZM322.84 153.376V149.042H325.304C326.844 149.042 327.746 149.9 327.746 151.22C327.746 152.496 326.844 153.376 325.304 153.376H322.84ZM334.458 155.356C334.524 154.366 335.36 153.222 336.878 153.222C338.55 153.222 339.254 154.278 339.298 155.356H334.458ZM339.584 158.172C339.232 159.14 338.484 159.822 337.12 159.822C335.668 159.822 334.458 158.788 334.392 157.358H342.136C342.136 157.314 342.18 156.874 342.18 156.456C342.18 152.98 340.178 150.846 336.834 150.846C334.062 150.846 331.51 153.09 331.51 156.544C331.51 160.196 334.128 162.33 337.098 162.33C339.76 162.33 341.476 160.768 342.026 158.898L339.584 158.172ZM343.136 159.052C343.136 160.746 344.544 162.308 346.854 162.308C348.46 162.308 349.494 161.56 350.044 160.702C350.044 161.12 350.088 161.714 350.154 162H352.838C352.772 161.626 352.706 160.856 352.706 160.284V154.96C352.706 152.782 351.43 150.846 347.998 150.846C345.094 150.846 343.532 152.716 343.356 154.41L345.952 154.96C346.04 154.014 346.744 153.2 348.02 153.2C349.252 153.2 349.846 153.838 349.846 154.608C349.846 154.982 349.648 155.29 349.032 155.378L346.37 155.774C344.566 156.038 343.136 157.116 343.136 159.052ZM347.47 160.13C346.524 160.13 346.062 159.514 346.062 158.876C346.062 158.04 346.656 157.622 347.404 157.512L349.846 157.138V157.622C349.846 159.536 348.702 160.13 347.47 160.13ZM359.787 153.552C361.239 153.552 361.921 154.476 362.185 155.378L364.803 154.498C364.341 152.672 362.669 150.846 359.721 150.846C356.575 150.846 354.111 153.244 354.111 156.588C354.111 159.91 356.619 162.33 359.809 162.33C362.691 162.33 364.385 160.482 364.869 158.678L362.295 157.82C362.053 158.656 361.305 159.646 359.809 159.646C358.313 159.646 357.037 158.546 357.037 156.588C357.037 154.63 358.291 153.552 359.787 153.552ZM369.941 147.942H367.301V149.46C367.301 150.428 366.773 151.176 365.629 151.176H365.079V153.772H367.037V158.81C367.037 160.9 368.357 162.154 370.469 162.154C371.327 162.154 371.855 162 372.119 161.89V159.47C371.965 159.514 371.569 159.558 371.217 159.558C370.381 159.558 369.941 159.25 369.941 158.304V153.772H372.119V151.176H369.941V147.942ZM372.731 157.248C372.731 160.306 374.755 162.33 377.835 162.33C380.871 162.33 382.917 159.998 382.917 157.182V146.402H379.881V157.182C379.881 158.546 379.089 159.448 377.813 159.448C376.581 159.448 375.679 158.722 375.657 157.116V155.686L372.731 156.214V157.248ZM396.126 150.12C395.774 148.36 394.322 146.072 390.538 146.072C387.59 146.072 385.104 148.184 385.104 150.956C385.104 153.31 386.71 154.916 389.196 155.422L391.374 155.862C392.584 156.104 393.266 156.808 393.266 157.71C393.266 158.81 392.364 159.624 390.736 159.624C388.536 159.624 387.458 158.238 387.326 156.698L384.51 157.446C384.752 159.668 386.578 162.33 390.714 162.33C394.344 162.33 396.346 159.91 396.346 157.512C396.346 155.312 394.828 153.464 391.99 152.914L389.812 152.496C388.668 152.276 388.118 151.594 388.118 150.736C388.118 149.702 389.086 148.756 390.56 148.756C392.54 148.756 393.244 150.098 393.398 150.956L396.126 150.12Z" fill="black"/>
<path d="M322.331 183.232L320.923 183.728C320.849 183.237 320.609 182.795 320.203 182.4C319.798 181.995 319.238 181.792 318.523 181.792C317.894 181.792 317.371 181.973 316.955 182.336C316.539 182.699 316.331 183.147 316.331 183.68C316.331 184.096 316.454 184.448 316.699 184.736C316.955 185.024 317.318 185.221 317.787 185.328L319.483 185.696C320.422 185.899 321.147 186.283 321.659 186.848C322.171 187.403 322.427 188.08 322.427 188.88C322.427 189.797 322.065 190.587 321.339 191.248C320.614 191.909 319.67 192.24 318.507 192.24C317.238 192.24 316.241 191.909 315.515 191.248C314.801 190.576 314.385 189.781 314.267 188.864L315.771 188.384C315.835 189.067 316.102 189.643 316.571 190.112C317.041 190.581 317.681 190.816 318.491 190.816C319.238 190.816 319.814 190.645 320.219 190.304C320.625 189.963 320.827 189.531 320.827 189.008C320.827 188.581 320.683 188.213 320.395 187.904C320.107 187.584 319.686 187.365 319.131 187.248L317.515 186.896C316.673 186.715 316.001 186.357 315.499 185.824C314.998 185.291 314.747 184.613 314.747 183.792C314.747 182.896 315.11 182.112 315.835 181.44C316.571 180.757 317.457 180.416 318.491 180.416C319.654 180.416 320.545 180.699 321.163 181.264C321.782 181.829 322.171 182.485 322.331 183.232ZM324.981 187.36H329.189C329.168 186.784 328.976 186.315 328.613 185.952C328.251 185.579 327.739 185.392 327.077 185.392C326.48 185.392 325.989 185.589 325.605 185.984C325.221 186.368 325.013 186.827 324.981 187.36ZM329.413 189.36L330.709 189.808C330.485 190.523 330.069 191.109 329.461 191.568C328.853 192.016 328.117 192.24 327.253 192.24C326.176 192.24 325.259 191.872 324.501 191.136C323.755 190.389 323.381 189.387 323.381 188.128C323.381 186.955 323.744 185.984 324.469 185.216C325.195 184.448 326.059 184.064 327.061 184.064C328.224 184.064 329.131 184.432 329.781 185.168C330.432 185.893 330.757 186.869 330.757 188.096C330.757 188.288 330.747 188.448 330.725 188.576H324.933C324.944 189.259 325.168 189.819 325.605 190.256C326.053 190.693 326.603 190.912 327.253 190.912C328.352 190.912 329.072 190.395 329.413 189.36ZM336.687 184.224V185.824C336.463 185.792 336.245 185.776 336.031 185.776C334.623 185.776 333.919 186.565 333.919 188.144V192H332.415V184.304H333.887V185.648C334.357 184.667 335.125 184.176 336.191 184.176C336.362 184.176 336.527 184.192 336.687 184.224ZM344.855 184.304L341.783 192H340.263L337.143 184.304H338.839L341.031 190.24L343.239 184.304H344.855ZM347.52 192H346.032V184.304H347.52V192ZM346 182.16C345.798 181.947 345.696 181.691 345.696 181.392C345.696 181.093 345.798 180.837 346 180.624C346.214 180.411 346.47 180.304 346.768 180.304C347.067 180.304 347.323 180.411 347.536 180.624C347.75 180.827 347.856 181.083 347.856 181.392C347.856 181.691 347.75 181.947 347.536 182.16C347.323 182.363 347.067 182.464 346.768 182.464C346.47 182.464 346.214 182.363 346 182.16ZM353.049 185.456C352.399 185.456 351.844 185.691 351.385 186.16C350.937 186.629 350.713 187.291 350.713 188.144C350.713 188.987 350.937 189.648 351.385 190.128C351.844 190.608 352.404 190.848 353.065 190.848C353.705 190.848 354.191 190.688 354.521 190.368C354.863 190.048 355.092 189.68 355.209 189.264L356.537 189.84C356.324 190.48 355.919 191.04 355.321 191.52C354.735 192 353.983 192.24 353.065 192.24C351.945 192.24 351.017 191.851 350.281 191.072C349.545 190.293 349.177 189.317 349.177 188.144C349.177 186.949 349.545 185.973 350.281 185.216C351.017 184.448 351.94 184.064 353.049 184.064C353.988 184.064 354.745 184.304 355.321 184.784C355.908 185.264 356.292 185.84 356.473 186.512L355.113 187.088C354.996 186.64 354.772 186.256 354.441 185.936C354.111 185.616 353.647 185.456 353.049 185.456ZM358.938 187.36H363.146C363.124 186.784 362.932 186.315 362.57 185.952C362.207 185.579 361.695 185.392 361.034 185.392C360.436 185.392 359.946 185.589 359.562 185.984C359.178 186.368 358.97 186.827 358.938 187.36ZM363.37 189.36L364.666 189.808C364.442 190.523 364.026 191.109 363.418 191.568C362.81 192.016 362.074 192.24 361.21 192.24C360.132 192.24 359.215 191.872 358.458 191.136C357.711 190.389 357.338 189.387 357.338 188.128C357.338 186.955 357.7 185.984 358.426 185.216C359.151 184.448 360.015 184.064 361.018 184.064C362.18 184.064 363.087 184.432 363.738 185.168C364.388 185.893 364.714 186.869 364.714 188.096C364.714 188.288 364.703 188.448 364.682 188.576H358.89C358.9 189.259 359.124 189.819 359.562 190.256C360.01 190.693 360.559 190.912 361.21 190.912C362.308 190.912 363.028 190.395 363.37 189.36ZM372.126 181.872V184.304H373.79V185.664H372.126V189.664C372.126 190.027 372.206 190.293 372.366 190.464C372.536 190.635 372.814 190.72 373.198 190.72C373.422 190.72 373.619 190.699 373.79 190.656V191.936C373.534 192.032 373.192 192.08 372.766 192.08C372.104 192.08 371.582 191.888 371.198 191.504C370.814 191.12 370.622 190.581 370.622 189.888V185.664H369.15V184.304H369.566C369.96 184.304 370.254 184.197 370.446 183.984C370.648 183.76 370.75 183.472 370.75 183.12V181.872H372.126ZM377.533 195.216H375.885L377.805 191.152L374.493 184.304H376.221L378.621 189.616L380.925 184.304H382.541L377.533 195.216ZM385.214 195.04H383.726V184.304H385.182V185.504C385.406 185.099 385.742 184.768 386.19 184.512C386.638 184.256 387.161 184.128 387.758 184.128C388.868 184.128 389.732 184.507 390.35 185.264C390.98 186.021 391.294 186.981 391.294 188.144C391.294 189.317 390.969 190.288 390.318 191.056C389.678 191.824 388.809 192.208 387.71 192.208C387.145 192.208 386.644 192.091 386.206 191.856C385.769 191.621 385.438 191.323 385.214 190.96V195.04ZM389.758 188.144C389.758 187.365 389.55 186.725 389.134 186.224C388.729 185.712 388.18 185.456 387.486 185.456C386.804 185.456 386.249 185.712 385.822 186.224C385.406 186.725 385.198 187.365 385.198 188.144C385.198 188.944 385.406 189.6 385.822 190.112C386.249 190.613 386.804 190.864 387.486 190.864C388.169 190.864 388.718 190.613 389.134 190.112C389.55 189.6 389.758 188.944 389.758 188.144ZM393.925 187.36H398.133C398.112 186.784 397.92 186.315 397.557 185.952C397.194 185.579 396.682 185.392 396.021 185.392C395.424 185.392 394.933 185.589 394.549 185.984C394.165 186.368 393.957 186.827 393.925 187.36ZM398.357 189.36L399.653 189.808C399.429 190.523 399.013 191.109 398.405 191.568C397.797 192.016 397.061 192.24 396.197 192.24C395.12 192.24 394.202 191.872 393.445 191.136C392.698 190.389 392.325 189.387 392.325 188.128C392.325 186.955 392.688 185.984 393.413 185.216C394.138 184.448 395.002 184.064 396.005 184.064C397.168 184.064 398.074 184.432 398.725 185.168C399.376 185.893 399.701 186.869 399.701 188.096C399.701 188.288 399.69 188.448 399.669 188.576H393.877C393.888 189.259 394.112 189.819 394.549 190.256C394.997 190.693 395.546 190.912 396.197 190.912C397.296 190.912 398.016 190.395 398.357 189.36Z" fill="#B5BAC6"/>
<rect x="321" y="48" width="72" height="72" rx="18" fill="#E0E0E0"/>
</g>
<rect x="317" y="44" width="79.2788" height="79.353" rx="4" fill="url(#paint0_linear)"/>
<path fill-rule="evenodd" clip-rule="evenodd" d="M377.74 71.7444C386.804 74.5119 392.716 78.9746 392.716 83.6837C392.716 88.3782 386.833 92.841 377.827 95.6084C379.933 104.795 379.018 112.112 374.937 114.459C373.978 115.01 372.874 115.271 371.654 115.271C367.659 115.271 362.43 112.46 357.143 107.562C351.856 112.489 346.626 115.328 342.632 115.328C341.412 115.328 340.308 115.068 339.364 114.517C335.268 112.17 334.338 104.838 336.43 95.6229C327.366 92.8555 321.454 88.3927 321.454 83.6837C321.454 78.9891 327.337 74.5409 336.371 71.7589C334.265 62.5727 335.18 55.2555 339.262 52.9083C340.221 52.3577 341.325 52.0969 342.545 52.0969V52.0824C346.539 52.0824 351.768 54.8933 357.056 59.7907C362.343 54.8643 367.572 52.0244 371.567 52.0244V52.0389C372.767 52.041 373.865 52.3019 374.806 52.8503C378.902 55.1976 379.832 62.5292 377.74 71.7444ZM371.552 55.2556C368.531 55.2633 364.093 57.6678 359.365 62.0511C361.413 64.181 363.447 66.6152 365.408 69.2957C368.676 69.6435 371.785 70.1796 374.632 70.8751C374.951 69.4117 375.213 67.9772 375.372 66.6152C376.04 61.0803 375.183 56.7769 373.208 55.6468C372.758 55.4004 372.22 55.27 371.552 55.27V55.2556ZM354.746 62.0655C350.011 57.7042 345.552 55.3135 342.545 55.3135V55.328C341.877 55.328 341.31 55.4439 340.874 55.7047C338.913 56.8494 338.071 61.1527 338.754 66.6877C338.928 68.0352 339.175 69.4406 339.509 70.8896C342.356 70.1796 345.464 69.6435 348.747 69.2957C350.679 66.6152 352.713 64.1955 354.746 62.0655ZM371.843 79.7426C372.598 77.8155 373.266 75.8884 373.804 74.0193C371.901 73.5556 369.911 73.1789 367.848 72.8746C368.56 73.9758 369.272 75.106 369.94 76.2651C370.622 77.4243 371.247 78.5834 371.843 79.7426ZM367.151 89.4504C366.018 91.4065 364.856 93.2612 363.65 94.9854C361.486 95.1737 359.293 95.2752 357.085 95.2752C354.891 95.2752 352.698 95.1738 350.548 94.9999C349.343 93.2756 348.166 91.4355 347.033 89.4939C345.929 87.5958 344.927 85.6687 344.012 83.7271C344.912 81.7856 345.929 79.844 347.019 77.9459C348.152 75.9898 349.314 74.1352 350.519 72.411C352.684 72.2226 354.877 72.1212 357.085 72.1212C359.278 72.1212 361.471 72.2226 363.621 72.3965C364.827 74.1207 366.003 75.9608 367.136 77.9024C368.24 79.8005 369.243 81.7276 370.158 83.6692C369.243 85.6108 368.24 87.5523 367.151 89.4504ZM373.847 93.3336C373.295 91.45 372.627 89.5084 371.843 87.5668C371.247 88.726 370.622 89.8996 369.954 91.0588C369.286 92.2324 368.574 93.3771 367.863 94.4928C369.94 94.1885 371.944 93.7973 373.847 93.3336ZM357.114 103.027C355.763 101.636 354.412 100.086 353.076 98.3904C354.383 98.4483 355.719 98.4918 357.07 98.4918C358.436 98.4918 359.786 98.4628 361.108 98.3904C359.801 100.086 358.45 101.636 357.114 103.027ZM340.351 93.3481C342.254 93.8117 344.244 94.1885 346.307 94.4928C345.595 93.3916 344.898 92.2614 344.215 91.1022C343.533 89.9431 342.908 88.7839 342.312 87.6248C341.557 89.5519 340.889 91.479 340.351 93.3481ZM357.041 64.3404C358.392 65.7314 359.743 67.2817 361.079 68.977C359.772 68.919 358.436 68.8755 357.085 68.8755C355.719 68.8755 354.369 68.9045 353.047 68.977C354.354 67.2817 355.705 65.7314 357.041 64.3404ZM344.201 76.3086C344.869 75.135 345.581 73.9903 346.292 72.8746C344.215 73.1789 342.211 73.5701 340.308 74.0193C340.86 75.9029 341.528 77.8445 342.312 79.786C342.908 78.6269 343.533 77.4677 344.201 76.3086ZM333.147 91.0153C328.005 88.8274 324.679 85.9585 324.679 83.6837C324.679 81.4089 328.005 78.5255 333.147 76.3521C334.396 75.816 335.761 75.3378 337.17 74.8886C337.998 77.7286 339.088 80.6844 340.439 83.7127C339.102 86.7264 338.027 89.6678 337.214 92.4932C335.776 92.044 334.411 91.5514 333.147 91.0153ZM338.797 100.752C338.129 106.287 338.986 110.59 340.962 111.721C341.397 111.967 341.949 112.097 342.603 112.112C345.624 112.112 350.069 109.707 354.804 105.316C352.756 103.186 350.723 100.752 348.762 98.0716C345.493 97.7239 342.385 97.1878 339.538 96.4923C339.218 97.9557 338.957 99.3902 338.797 100.752ZM375.416 100.68C376.099 106.215 375.256 110.518 373.295 111.663C372.859 111.923 372.293 112.039 371.625 112.039C368.618 112.039 364.159 109.649 359.423 105.287C361.457 103.157 363.49 100.738 365.422 98.0571C368.705 97.7094 371.814 97.1733 374.661 96.4633C374.995 97.9267 375.256 99.3322 375.416 100.68ZM376.985 92.4787C378.394 92.0296 379.759 91.5514 381.008 91.0153C386.15 88.8419 389.477 85.9585 389.491 83.6837C389.491 81.4089 386.165 78.54 381.023 76.3521C379.744 75.816 378.379 75.3233 376.941 74.8741C376.128 77.6996 375.053 80.6409 373.716 83.6547C375.067 86.683 376.157 89.6388 376.985 92.4787Z" fill="#61DAFB"/>
<ellipse cx="357.53" cy="83.6764" rx="6.6808" ry="6.68705" fill="#61DAFB"/>
<rect x="245" y="224" width="223" height="1" fill="#EAECF5"/>
<g filter="url(#filter2_d)">
<rect x="490" width="223" height="296" fill="white"/>
<rect x="490.5" y="0.5" width="222" height="295" stroke="#EAECF5"/>
</g>
<path d="M546.76 261.632L549.208 252.656H550.824L547.592 264H545.976L543.016 254.8L540.088 264H538.52L535.24 252.656H536.856L539.352 261.536L542.2 252.656H543.848L546.76 261.632ZM552.494 259.36H556.702C556.681 258.784 556.489 258.315 556.126 257.952C555.763 257.579 555.251 257.392 554.59 257.392C553.993 257.392 553.502 257.589 553.118 257.984C552.734 258.368 552.526 258.827 552.494 259.36ZM556.926 261.36L558.222 261.808C557.998 262.523 557.582 263.109 556.974 263.568C556.366 264.016 555.63 264.24 554.766 264.24C553.689 264.24 552.771 263.872 552.014 263.136C551.267 262.389 550.894 261.387 550.894 260.128C550.894 258.955 551.257 257.984 551.982 257.216C552.707 256.448 553.571 256.064 554.574 256.064C555.737 256.064 556.643 256.432 557.294 257.168C557.945 257.893 558.27 258.869 558.27 260.096C558.27 260.288 558.259 260.448 558.238 260.576H552.446C552.457 261.259 552.681 261.819 553.118 262.256C553.566 262.693 554.115 262.912 554.766 262.912C555.865 262.912 556.585 262.395 556.926 261.36ZM561.432 259.472V264H559.928V252.416H561.432V257.2C561.944 256.453 562.723 256.08 563.768 256.08C564.653 256.08 565.331 256.363 565.8 256.928C566.28 257.493 566.52 258.224 566.52 259.12V264H565.016V259.376C565.016 258.085 564.419 257.44 563.224 257.44C562.669 257.44 562.237 257.632 561.928 258.016C561.619 258.389 561.453 258.875 561.432 259.472ZM568.171 261.936C568.171 261.275 568.384 260.747 568.811 260.352C569.237 259.947 569.803 259.696 570.507 259.6L572.587 259.296C572.981 259.243 573.179 259.051 573.179 258.72C573.179 258.315 573.04 257.984 572.763 257.728C572.485 257.472 572.069 257.344 571.515 257.344C571.003 257.344 570.597 257.488 570.299 257.776C570 258.053 569.824 258.427 569.771 258.896L568.331 258.56C568.405 257.824 568.741 257.227 569.339 256.768C569.936 256.299 570.651 256.064 571.483 256.064C572.571 256.064 573.376 256.331 573.899 256.864C574.421 257.387 574.683 258.059 574.683 258.88V262.736C574.683 263.195 574.715 263.616 574.779 264H573.307C573.253 263.68 573.227 263.333 573.227 262.96C573.013 263.301 572.699 263.6 572.283 263.856C571.877 264.112 571.365 264.24 570.747 264.24C569.989 264.24 569.371 264.016 568.891 263.568C568.411 263.109 568.171 262.565 568.171 261.936ZM570.955 262.976C571.627 262.976 572.165 262.795 572.571 262.432C572.976 262.069 573.179 261.493 573.179 260.704V260.352L570.827 260.704C570.485 260.757 570.213 260.88 570.011 261.072C569.808 261.264 569.707 261.525 569.707 261.856C569.707 262.155 569.819 262.416 570.043 262.64C570.277 262.864 570.581 262.976 570.955 262.976ZM578.268 259.552V264H576.764V256.304H578.236V257.408C578.748 256.523 579.537 256.08 580.604 256.08C581.489 256.08 582.166 256.363 582.636 256.928C583.116 257.493 583.356 258.224 583.356 259.12V264H581.852V259.376C581.852 258.085 581.254 257.44 580.06 257.44C579.494 257.44 579.052 257.643 578.732 258.048C578.422 258.443 578.268 258.944 578.268 259.552ZM588.718 257.456C588.067 257.456 587.513 257.691 587.054 258.16C586.606 258.629 586.382 259.291 586.382 260.144C586.382 260.987 586.606 261.648 587.054 262.128C587.513 262.608 588.073 262.848 588.734 262.848C589.374 262.848 589.859 262.688 590.19 262.368C590.531 262.048 590.761 261.68 590.878 261.264L592.206 261.84C591.993 262.48 591.587 263.04 590.99 263.52C590.403 264 589.651 264.24 588.734 264.24C587.614 264.24 586.686 263.851 585.95 263.072C585.214 262.293 584.846 261.317 584.846 260.144C584.846 258.949 585.214 257.973 585.95 257.216C586.686 256.448 587.609 256.064 588.718 256.064C589.657 256.064 590.414 256.304 590.99 256.784C591.577 257.264 591.961 257.84 592.142 258.512L590.782 259.088C590.665 258.64 590.441 258.256 590.11 257.936C589.779 257.616 589.315 257.456 588.718 257.456ZM594.606 259.36H598.814C598.793 258.784 598.601 258.315 598.238 257.952C597.876 257.579 597.364 257.392 596.702 257.392C596.105 257.392 595.614 257.589 595.23 257.984C594.846 258.368 594.638 258.827 594.606 259.36ZM599.038 261.36L600.334 261.808C600.11 262.523 599.694 263.109 599.086 263.568C598.478 264.016 597.742 264.24 596.878 264.24C595.801 264.24 594.884 263.872 594.126 263.136C593.38 262.389 593.006 261.387 593.006 260.128C593.006 258.955 593.369 257.984 594.094 257.216C594.82 256.448 595.684 256.064 596.686 256.064C597.849 256.064 598.756 256.432 599.406 257.168C600.057 257.893 600.382 258.869 600.382 260.096C600.382 260.288 600.372 260.448 600.35 260.576H594.558C594.569 261.259 594.793 261.819 595.23 262.256C595.678 262.693 596.228 262.912 596.878 262.912C597.977 262.912 598.697 262.395 599.038 261.36Z" fill="#B5BAC6"/>
<path d="M519.994 253C519.442 253.009 519.002 253.462 519.01 254.014V262.6L515.717 259.307C515.528 259.113 515.27 259.004 515 259.004C514.593 259.004 514.227 259.251 514.074 259.628C513.92 260.005 514.011 260.437 514.303 260.721L519.215 265.633C519.403 265.88 519.696 266.026 520.008 266.027C520.319 266.028 520.613 265.883 520.803 265.637C520.804 265.635 520.805 265.633 520.807 265.631L525.717 260.721C525.978 260.47 526.083 260.098 525.992 259.747C525.9 259.397 525.627 259.123 525.276 259.032C524.926 258.94 524.553 259.046 524.303 259.307L521.01 262.6V254.014C521.013 253.743 520.907 253.483 520.716 253.292C520.525 253.101 520.264 252.996 519.994 253Z" fill="#ABB1BD"/>
<path d="M570.364 165H573.664L567.724 149.402H564.204L558.22 165H561.432L562.73 161.436H569.066L570.364 165ZM565.898 152.768L568.054 158.664H563.742L565.898 152.768ZM577.634 158.774C577.634 157.52 578.382 156.53 579.658 156.53C581.066 156.53 581.66 157.476 581.66 158.686V165H584.586V158.18C584.586 155.804 583.354 153.89 580.67 153.89C579.504 153.89 578.206 154.396 577.546 155.518V154.176H574.708V165H577.634V158.774ZM586.099 165.594C586.407 167.662 588.387 169.51 591.357 169.51C595.427 169.51 597.033 166.804 597.033 163.834V154.176H594.217V155.452C593.843 154.726 592.853 153.978 591.137 153.978C588.167 153.978 586.099 156.398 586.099 159.258C586.099 162.294 588.255 164.516 591.137 164.516C592.699 164.516 593.711 163.834 594.151 163.13V163.922C594.151 166.012 593.117 166.936 591.269 166.936C589.883 166.936 588.937 166.078 588.739 164.89L586.099 165.594ZM591.643 162.008C590.125 162.008 589.047 160.952 589.047 159.258C589.047 157.586 590.191 156.53 591.643 156.53C593.051 156.53 594.195 157.586 594.195 159.258C594.195 160.93 593.139 162.008 591.643 162.008ZM606.285 165H609.079C609.035 164.626 608.969 163.878 608.969 163.042V154.176H606.043V160.468C606.043 161.722 605.295 162.602 603.997 162.602C602.633 162.602 602.017 161.634 602.017 160.424V154.176H599.091V161.018C599.091 163.372 600.587 165.286 603.205 165.286C604.349 165.286 605.603 164.846 606.197 163.834C606.197 164.274 606.241 164.78 606.285 165ZM614.33 165V149.072H611.404V165H614.33ZM616.05 162.052C616.05 163.746 617.458 165.308 619.768 165.308C621.374 165.308 622.408 164.56 622.958 163.702C622.958 164.12 623.002 164.714 623.068 165H625.752C625.686 164.626 625.62 163.856 625.62 163.284V157.96C625.62 155.782 624.344 153.846 620.912 153.846C618.008 153.846 616.446 155.716 616.27 157.41L618.866 157.96C618.954 157.014 619.658 156.2 620.934 156.2C622.166 156.2 622.76 156.838 622.76 157.608C622.76 157.982 622.562 158.29 621.946 158.378L619.284 158.774C617.48 159.038 616.05 160.116 616.05 162.052ZM620.384 163.13C619.438 163.13 618.976 162.514 618.976 161.876C618.976 161.04 619.57 160.622 620.318 160.512L622.76 160.138V160.622C622.76 162.536 621.616 163.13 620.384 163.13ZM634.482 154.132C634.262 154.11 634.042 154.088 633.8 154.088C632.876 154.088 631.38 154.352 630.72 155.782V154.176H627.882V165H630.808V160.05C630.808 157.718 632.106 156.992 633.602 156.992C633.866 156.992 634.152 157.014 634.482 157.08V154.132ZM634.667 160.248C634.667 163.306 636.691 165.33 639.771 165.33C642.807 165.33 644.853 162.998 644.853 160.182V149.402H641.817V160.182C641.817 161.546 641.025 162.448 639.749 162.448C638.517 162.448 637.615 161.722 637.593 160.116V158.686L634.667 159.214V160.248ZM658.061 153.12C657.709 151.36 656.257 149.072 652.473 149.072C649.525 149.072 647.039 151.184 647.039 153.956C647.039 156.31 648.645 157.916 651.131 158.422L653.309 158.862C654.519 159.104 655.201 159.808 655.201 160.71C655.201 161.81 654.299 162.624 652.671 162.624C650.471 162.624 649.393 161.238 649.261 159.698L646.445 160.446C646.687 162.668 648.513 165.33 652.649 165.33C656.279 165.33 658.281 162.91 658.281 160.512C658.281 158.312 656.763 156.464 653.925 155.914L651.747 155.496C650.603 155.276 650.053 154.594 650.053 153.736C650.053 152.702 651.021 151.756 652.495 151.756C654.475 151.756 655.179 153.098 655.333 153.956L658.061 153.12Z" fill="black"/>
<path d="M567.331 183.232L565.923 183.728C565.849 183.237 565.609 182.795 565.203 182.4C564.798 181.995 564.238 181.792 563.523 181.792C562.894 181.792 562.371 181.973 561.955 182.336C561.539 182.699 561.331 183.147 561.331 183.68C561.331 184.096 561.454 184.448 561.699 184.736C561.955 185.024 562.318 185.221 562.787 185.328L564.483 185.696C565.422 185.899 566.147 186.283 566.659 186.848C567.171 187.403 567.427 188.08 567.427 188.88C567.427 189.797 567.065 190.587 566.339 191.248C565.614 191.909 564.67 192.24 563.507 192.24C562.238 192.24 561.241 191.909 560.515 191.248C559.801 190.576 559.385 189.781 559.267 188.864L560.771 188.384C560.835 189.067 561.102 189.643 561.571 190.112C562.041 190.581 562.681 190.816 563.491 190.816C564.238 190.816 564.814 190.645 565.219 190.304C565.625 189.963 565.827 189.531 565.827 189.008C565.827 188.581 565.683 188.213 565.395 187.904C565.107 187.584 564.686 187.365 564.131 187.248L562.515 186.896C561.673 186.715 561.001 186.357 560.499 185.824C559.998 185.291 559.747 184.613 559.747 183.792C559.747 182.896 560.11 182.112 560.835 181.44C561.571 180.757 562.457 180.416 563.491 180.416C564.654 180.416 565.545 180.699 566.163 181.264C566.782 181.829 567.171 182.485 567.331 183.232ZM569.981 187.36H574.189C574.168 186.784 573.976 186.315 573.613 185.952C573.251 185.579 572.739 185.392 572.077 185.392C571.48 185.392 570.989 185.589 570.605 185.984C570.221 186.368 570.013 186.827 569.981 187.36ZM574.413 189.36L575.709 189.808C575.485 190.523 575.069 191.109 574.461 191.568C573.853 192.016 573.117 192.24 572.253 192.24C571.176 192.24 570.259 191.872 569.501 191.136C568.755 190.389 568.381 189.387 568.381 188.128C568.381 186.955 568.744 185.984 569.469 185.216C570.195 184.448 571.059 184.064 572.061 184.064C573.224 184.064 574.131 184.432 574.781 185.168C575.432 185.893 575.757 186.869 575.757 188.096C575.757 188.288 575.747 188.448 575.725 188.576H569.933C569.944 189.259 570.168 189.819 570.605 190.256C571.053 190.693 571.603 190.912 572.253 190.912C573.352 190.912 574.072 190.395 574.413 189.36ZM581.687 184.224V185.824C581.463 185.792 581.245 185.776 581.031 185.776C579.623 185.776 578.919 186.565 578.919 188.144V192H577.415V184.304H578.887V185.648C579.357 184.667 580.125 184.176 581.191 184.176C581.362 184.176 581.527 184.192 581.687 184.224ZM589.855 184.304L586.783 192H585.263L582.143 184.304H583.839L586.031 190.24L588.239 184.304H589.855ZM592.52 192H591.032V184.304H592.52V192ZM591 182.16C590.798 181.947 590.696 181.691 590.696 181.392C590.696 181.093 590.798 180.837 591 180.624C591.214 180.411 591.47 180.304 591.768 180.304C592.067 180.304 592.323 180.411 592.536 180.624C592.75 180.827 592.856 181.083 592.856 181.392C592.856 181.691 592.75 181.947 592.536 182.16C592.323 182.363 592.067 182.464 591.768 182.464C591.47 182.464 591.214 182.363 591 182.16ZM598.049 185.456C597.399 185.456 596.844 185.691 596.385 186.16C595.937 186.629 595.713 187.291 595.713 188.144C595.713 188.987 595.937 189.648 596.385 190.128C596.844 190.608 597.404 190.848 598.065 190.848C598.705 190.848 599.191 190.688 599.521 190.368C599.863 190.048 600.092 189.68 600.209 189.264L601.537 189.84C601.324 190.48 600.919 191.04 600.321 191.52C599.735 192 598.983 192.24 598.065 192.24C596.945 192.24 596.017 191.851 595.281 191.072C594.545 190.293 594.177 189.317 594.177 188.144C594.177 186.949 594.545 185.973 595.281 185.216C596.017 184.448 596.94 184.064 598.049 184.064C598.988 184.064 599.745 184.304 600.321 184.784C600.908 185.264 601.292 185.84 601.473 186.512L600.113 187.088C599.996 186.64 599.772 186.256 599.441 185.936C599.111 185.616 598.647 185.456 598.049 185.456ZM603.938 187.36H608.146C608.124 186.784 607.932 186.315 607.57 185.952C607.207 185.579 606.695 185.392 606.034 185.392C605.436 185.392 604.946 185.589 604.562 185.984C604.178 186.368 603.97 186.827 603.938 187.36ZM608.37 189.36L609.666 189.808C609.442 190.523 609.026 191.109 608.418 191.568C607.81 192.016 607.074 192.24 606.21 192.24C605.132 192.24 604.215 191.872 603.458 191.136C602.711 190.389 602.338 189.387 602.338 188.128C602.338 186.955 602.7 185.984 603.426 185.216C604.151 184.448 605.015 184.064 606.018 184.064C607.18 184.064 608.087 184.432 608.738 185.168C609.388 185.893 609.714 186.869 609.714 188.096C609.714 188.288 609.703 188.448 609.682 188.576H603.89C603.9 189.259 604.124 189.819 604.562 190.256C605.01 190.693 605.559 190.912 606.21 190.912C607.308 190.912 608.028 190.395 608.37 189.36ZM617.126 181.872V184.304H618.79V185.664H617.126V189.664C617.126 190.027 617.206 190.293 617.366 190.464C617.536 190.635 617.814 190.72 618.198 190.72C618.422 190.72 618.619 190.699 618.79 190.656V191.936C618.534 192.032 618.192 192.08 617.766 192.08C617.104 192.08 616.582 191.888 616.198 191.504C615.814 191.12 615.622 190.581 615.622 189.888V185.664H614.15V184.304H614.566C614.96 184.304 615.254 184.197 615.446 183.984C615.648 183.76 615.75 183.472 615.75 183.12V181.872H617.126ZM622.533 195.216H620.885L622.805 191.152L619.493 184.304H621.221L623.621 189.616L625.925 184.304H627.541L622.533 195.216ZM630.214 195.04H628.726V184.304H630.182V185.504C630.406 185.099 630.742 184.768 631.19 184.512C631.638 184.256 632.161 184.128 632.758 184.128C633.868 184.128 634.732 184.507 635.35 185.264C635.98 186.021 636.294 186.981 636.294 188.144C636.294 189.317 635.969 190.288 635.318 191.056C634.678 191.824 633.809 192.208 632.71 192.208C632.145 192.208 631.644 192.091 631.206 191.856C630.769 191.621 630.438 191.323 630.214 190.96V195.04ZM634.758 188.144C634.758 187.365 634.55 186.725 634.134 186.224C633.729 185.712 633.18 185.456 632.486 185.456C631.804 185.456 631.249 185.712 630.822 186.224C630.406 186.725 630.198 187.365 630.198 188.144C630.198 188.944 630.406 189.6 630.822 190.112C631.249 190.613 631.804 190.864 632.486 190.864C633.169 190.864 633.718 190.613 634.134 190.112C634.55 189.6 634.758 188.944 634.758 188.144ZM638.925 187.36H643.133C643.112 186.784 642.92 186.315 642.557 185.952C642.194 185.579 641.682 185.392 641.021 185.392C640.424 185.392 639.933 185.589 639.549 185.984C639.165 186.368 638.957 186.827 638.925 187.36ZM643.357 189.36L644.653 189.808C644.429 190.523 644.013 191.109 643.405 191.568C642.797 192.016 642.061 192.24 641.197 192.24C640.12 192.24 639.202 191.872 638.445 191.136C637.698 190.389 637.325 189.387 637.325 188.128C637.325 186.955 637.688 185.984 638.413 185.216C639.138 184.448 640.002 184.064 641.005 184.064C642.168 184.064 643.074 184.432 643.725 185.168C644.376 185.893 644.701 186.869 644.701 188.096C644.701 188.288 644.69 188.448 644.669 188.576H638.877C638.888 189.259 639.112 189.819 639.549 190.256C639.997 190.693 640.546 190.912 641.197 190.912C642.296 190.912 643.016 190.395 643.357 189.36Z" fill="#B5BAC6"/>
<path d="M660.589 257.664H662.557L662.077 259.904H659.789V261.424H661.741L661.197 264H662.877L663.421 261.424H665.517L664.973 264H666.637L667.181 261.424H669.549V259.904H667.517L667.997 257.664H670.349V256.128H668.317L668.861 253.632H667.197L666.653 256.128H664.557L665.101 253.632H663.421L662.877 256.128H660.589V257.664ZM664.237 257.664H666.333L665.853 259.904H663.757L664.237 257.664ZM673.392 258.816C673.392 257.728 673.552 256.8 673.952 256.176C674.272 255.664 674.768 255.328 675.52 255.328C676.288 255.328 676.752 255.664 677.072 256.176C677.488 256.8 677.648 257.728 677.648 258.816C677.648 259.904 677.488 260.832 677.072 261.456C676.752 261.968 676.288 262.304 675.52 262.304C674.768 262.304 674.272 261.968 673.952 261.456C673.552 260.832 673.392 259.904 673.392 258.816ZM671.184 258.816C671.184 260.144 671.392 261.44 672.096 262.512C672.784 263.536 673.904 264.256 675.52 264.256C677.136 264.256 678.256 263.536 678.928 262.512C679.632 261.44 679.856 260.144 679.856 258.816C679.856 257.488 679.632 256.192 678.928 255.12C678.256 254.096 677.136 253.376 675.52 253.376C673.904 253.376 672.784 254.096 672.096 255.12C671.392 256.192 671.184 257.488 671.184 258.816ZM683.643 259.392C683.867 259.312 684.139 259.232 684.587 259.232C685.579 259.232 686.283 259.792 686.283 260.768C686.283 261.632 685.627 262.336 684.523 262.336C683.435 262.336 682.683 261.568 682.635 260.512L680.507 260.928C680.635 262.672 682.107 264.24 684.523 264.24C687.035 264.24 688.507 262.592 688.507 260.8C688.507 258.896 687.067 257.696 685.499 257.632L688.187 255.392V253.616H680.843V255.52H685.387L682.667 257.856L683.643 259.392Z" fill="black"/>
<rect x="561.019" y="50" width="72" height="72" rx="18" fill="#EC6737"/>
<rect x="561.019" y="42" width="79.2788" height="79.353" rx="4" fill="#E23237"/>
<path d="M567.255 58.1326L600.215 46.458L634.063 57.9251L628.582 101.277L600.215 116.895L572.292 101.484L567.255 58.1326Z" fill="#E23237"/>
<path d="M634.063 57.9251L600.213 46.458V116.895L628.582 101.303L634.063 57.9251Z" fill="#B52E31"/>
<path fill-rule="evenodd" clip-rule="evenodd" d="M579.726 99.8249L600.165 54.4824L621.592 99.9543L614.294 99.8249L609.801 89.4667H591.465L587.361 99.6954L579.726 99.8249ZM607.126 83.4072L600.217 69.0097L594.14 83.4072H607.126Z" fill="white"/>
<rect x="490" y="224" width="223" height="1" fill="#EAECF5"/>
<g filter="url(#filter3_d)">
<rect x="737" width="223" height="296" fill="white"/>
<rect x="737.5" y="0.5" width="222" height="295" stroke="#EAECF5"/>
</g>
<path d="M793.76 261.632L796.208 252.656H797.824L794.592 264H792.976L790.016 254.8L787.088 264H785.52L782.24 252.656H783.856L786.352 261.536L789.2 252.656H790.848L793.76 261.632ZM799.494 259.36H803.702C803.681 258.784 803.489 258.315 803.126 257.952C802.763 257.579 802.251 257.392 801.59 257.392C800.993 257.392 800.502 257.589 800.118 257.984C799.734 258.368 799.526 258.827 799.494 259.36ZM803.926 261.36L805.222 261.808C804.998 262.523 804.582 263.109 803.974 263.568C803.366 264.016 802.63 264.24 801.766 264.24C800.689 264.24 799.771 263.872 799.014 263.136C798.267 262.389 797.894 261.387 797.894 260.128C797.894 258.955 798.257 257.984 798.982 257.216C799.707 256.448 800.571 256.064 801.574 256.064C802.737 256.064 803.643 256.432 804.294 257.168C804.945 257.893 805.27 258.869 805.27 260.096C805.27 260.288 805.259 260.448 805.238 260.576H799.446C799.457 261.259 799.681 261.819 800.118 262.256C800.566 262.693 801.115 262.912 801.766 262.912C802.865 262.912 803.585 262.395 803.926 261.36ZM808.432 259.472V264H806.928V252.416H808.432V257.2C808.944 256.453 809.723 256.08 810.768 256.08C811.653 256.08 812.331 256.363 812.8 256.928C813.28 257.493 813.52 258.224 813.52 259.12V264H812.016V259.376C812.016 258.085 811.419 257.44 810.224 257.44C809.669 257.44 809.237 257.632 808.928 258.016C808.619 258.389 808.453 258.875 808.432 259.472ZM815.171 261.936C815.171 261.275 815.384 260.747 815.811 260.352C816.237 259.947 816.803 259.696 817.507 259.6L819.587 259.296C819.981 259.243 820.179 259.051 820.179 258.72C820.179 258.315 820.04 257.984 819.763 257.728C819.485 257.472 819.069 257.344 818.515 257.344C818.003 257.344 817.597 257.488 817.299 257.776C817 258.053 816.824 258.427 816.771 258.896L815.331 258.56C815.405 257.824 815.741 257.227 816.339 256.768C816.936 256.299 817.651 256.064 818.483 256.064C819.571 256.064 820.376 256.331 820.899 256.864C821.421 257.387 821.683 258.059 821.683 258.88V262.736C821.683 263.195 821.715 263.616 821.779 264H820.307C820.253 263.68 820.227 263.333 820.227 262.96C820.013 263.301 819.699 263.6 819.283 263.856C818.877 264.112 818.365 264.24 817.747 264.24C816.989 264.24 816.371 264.016 815.891 263.568C815.411 263.109 815.171 262.565 815.171 261.936ZM817.955 262.976C818.627 262.976 819.165 262.795 819.571 262.432C819.976 262.069 820.179 261.493 820.179 260.704V260.352L817.827 260.704C817.485 260.757 817.213 260.88 817.011 261.072C816.808 261.264 816.707 261.525 816.707 261.856C816.707 262.155 816.819 262.416 817.043 262.64C817.277 262.864 817.581 262.976 817.955 262.976ZM825.268 259.552V264H823.764V256.304H825.236V257.408C825.748 256.523 826.537 256.08 827.604 256.08C828.489 256.08 829.166 256.363 829.636 256.928C830.116 257.493 830.356 258.224 830.356 259.12V264H828.852V259.376C828.852 258.085 828.254 257.44 827.06 257.44C826.494 257.44 826.052 257.643 825.732 258.048C825.422 258.443 825.268 258.944 825.268 259.552ZM835.718 257.456C835.067 257.456 834.513 257.691 834.054 258.16C833.606 258.629 833.382 259.291 833.382 260.144C833.382 260.987 833.606 261.648 834.054 262.128C834.513 262.608 835.073 262.848 835.734 262.848C836.374 262.848 836.859 262.688 837.19 262.368C837.531 262.048 837.761 261.68 837.878 261.264L839.206 261.84C838.993 262.48 838.587 263.04 837.99 263.52C837.403 264 836.651 264.24 835.734 264.24C834.614 264.24 833.686 263.851 832.95 263.072C832.214 262.293 831.846 261.317 831.846 260.144C831.846 258.949 832.214 257.973 832.95 257.216C833.686 256.448 834.609 256.064 835.718 256.064C836.657 256.064 837.414 256.304 837.99 256.784C838.577 257.264 838.961 257.84 839.142 258.512L837.782 259.088C837.665 258.64 837.441 258.256 837.11 257.936C836.779 257.616 836.315 257.456 835.718 257.456ZM841.606 259.36H845.814C845.793 258.784 845.601 258.315 845.238 257.952C844.876 257.579 844.364 257.392 843.702 257.392C843.105 257.392 842.614 257.589 842.23 257.984C841.846 258.368 841.638 258.827 841.606 259.36ZM846.038 261.36L847.334 261.808C847.11 262.523 846.694 263.109 846.086 263.568C845.478 264.016 844.742 264.24 843.878 264.24C842.801 264.24 841.884 263.872 841.126 263.136C840.38 262.389 840.006 261.387 840.006 260.128C840.006 258.955 840.369 257.984 841.094 257.216C841.82 256.448 842.684 256.064 843.686 256.064C844.849 256.064 845.756 256.432 846.406 257.168C847.057 257.893 847.382 258.869 847.382 260.096C847.382 260.288 847.372 260.448 847.35 260.576H841.558C841.569 261.259 841.793 261.819 842.23 262.256C842.678 262.693 843.228 262.912 843.878 262.912C844.977 262.912 845.697 262.395 846.038 261.36Z" fill="#B5BAC6"/>
<path d="M766.994 253C766.442 253.009 766.002 253.462 766.01 254.014V262.6L762.717 259.307C762.528 259.113 762.27 259.004 762 259.004C761.593 259.004 761.227 259.251 761.074 259.628C760.92 260.005 761.011 260.437 761.303 260.721L766.215 265.633C766.403 265.88 766.696 266.026 767.008 266.027C767.319 266.028 767.613 265.883 767.803 265.637C767.804 265.635 767.805 265.633 767.807 265.631L772.717 260.721C772.978 260.47 773.083 260.098 772.992 259.747C772.9 259.397 772.627 259.123 772.276 259.032C771.926 258.94 771.553 259.046 771.303 259.307L768.01 262.6V254.014C768.013 253.743 767.907 253.483 767.716 253.292C767.525 253.101 767.264 252.996 766.994 253Z" fill="#ABB1BD"/>
<path d="M823.276 153.12C822.924 151.36 821.472 149.072 817.688 149.072C814.74 149.072 812.254 151.184 812.254 153.956C812.254 156.31 813.86 157.916 816.346 158.422L818.524 158.862C819.734 159.104 820.416 159.808 820.416 160.71C820.416 161.81 819.514 162.624 817.886 162.624C815.686 162.624 814.608 161.238 814.476 159.698L811.66 160.446C811.902 162.668 813.728 165.33 817.864 165.33C821.494 165.33 823.496 162.91 823.496 160.512C823.496 158.312 821.978 156.464 819.14 155.914L816.962 155.496C815.818 155.276 815.268 154.594 815.268 153.736C815.268 152.702 816.236 151.756 817.71 151.756C819.69 151.756 820.394 153.098 820.548 153.956L823.276 153.12ZM834.93 154.176H831.85L829.276 161.436L826.592 154.176H823.38L827.802 165H830.728L834.93 154.176ZM837.835 158.356C837.901 157.366 838.737 156.222 840.255 156.222C841.927 156.222 842.631 157.278 842.675 158.356H837.835ZM842.961 161.172C842.609 162.14 841.861 162.822 840.497 162.822C839.045 162.822 837.835 161.788 837.769 160.358H845.513C845.513 160.314 845.557 159.874 845.557 159.456C845.557 155.98 843.555 153.846 840.211 153.846C837.439 153.846 834.887 156.09 834.887 159.544C834.887 163.196 837.505 165.33 840.475 165.33C843.137 165.33 844.853 163.768 845.403 161.898L842.961 161.172ZM850.099 165V149.072H847.173V165H850.099ZM856.152 150.942H853.512V152.46C853.512 153.428 852.984 154.176 851.84 154.176H851.29V156.772H853.248V161.81C853.248 163.9 854.568 165.154 856.68 165.154C857.538 165.154 858.066 165 858.33 164.89V162.47C858.176 162.514 857.78 162.558 857.428 162.558C856.592 162.558 856.152 162.25 856.152 161.304V156.772H858.33V154.176H856.152V150.942ZM862.155 158.356C862.221 157.366 863.057 156.222 864.575 156.222C866.247 156.222 866.951 157.278 866.995 158.356H862.155ZM867.281 161.172C866.929 162.14 866.181 162.822 864.817 162.822C863.365 162.822 862.155 161.788 862.089 160.358H869.833C869.833 160.314 869.877 159.874 869.877 159.456C869.877 155.98 867.875 153.846 864.531 153.846C861.759 153.846 859.207 156.09 859.207 159.544C859.207 163.196 861.825 165.33 864.795 165.33C867.457 165.33 869.173 163.768 869.723 161.898L867.281 161.172ZM870.372 160.248C870.372 163.306 872.396 165.33 875.476 165.33C878.512 165.33 880.558 162.998 880.558 160.182V149.402H877.522V160.182C877.522 161.546 876.73 162.448 875.454 162.448C874.222 162.448 873.32 161.722 873.298 160.116V158.686L870.372 159.214V160.248ZM893.766 153.12C893.414 151.36 891.962 149.072 888.178 149.072C885.23 149.072 882.744 151.184 882.744 153.956C882.744 156.31 884.35 157.916 886.836 158.422L889.014 158.862C890.224 159.104 890.906 159.808 890.906 160.71C890.906 161.81 890.004 162.624 888.376 162.624C886.176 162.624 885.098 161.238 884.966 159.698L882.15 160.446C882.392 162.668 884.218 165.33 888.354 165.33C891.984 165.33 893.986 162.91 893.986 160.512C893.986 158.312 892.468 156.464 889.63 155.914L887.452 155.496C886.308 155.276 885.758 154.594 885.758 153.736C885.758 152.702 886.726 151.756 888.2 151.756C890.18 151.756 890.884 153.098 891.038 153.956L893.766 153.12Z" fill="black"/>
<path d="M814.331 183.232L812.923 183.728C812.849 183.237 812.609 182.795 812.203 182.4C811.798 181.995 811.238 181.792 810.523 181.792C809.894 181.792 809.371 181.973 808.955 182.336C808.539 182.699 808.331 183.147 808.331 183.68C808.331 184.096 808.454 184.448 808.699 184.736C808.955 185.024 809.318 185.221 809.787 185.328L811.483 185.696C812.422 185.899 813.147 186.283 813.659 186.848C814.171 187.403 814.427 188.08 814.427 188.88C814.427 189.797 814.065 190.587 813.339 191.248C812.614 191.909 811.67 192.24 810.507 192.24C809.238 192.24 808.241 191.909 807.515 191.248C806.801 190.576 806.385 189.781 806.267 188.864L807.771 188.384C807.835 189.067 808.102 189.643 808.571 190.112C809.041 190.581 809.681 190.816 810.491 190.816C811.238 190.816 811.814 190.645 812.219 190.304C812.625 189.963 812.827 189.531 812.827 189.008C812.827 188.581 812.683 188.213 812.395 187.904C812.107 187.584 811.686 187.365 811.131 187.248L809.515 186.896C808.673 186.715 808.001 186.357 807.499 185.824C806.998 185.291 806.747 184.613 806.747 183.792C806.747 182.896 807.11 182.112 807.835 181.44C808.571 180.757 809.457 180.416 810.491 180.416C811.654 180.416 812.545 180.699 813.163 181.264C813.782 181.829 814.171 182.485 814.331 183.232ZM816.981 187.36H821.189C821.168 186.784 820.976 186.315 820.613 185.952C820.251 185.579 819.739 185.392 819.077 185.392C818.48 185.392 817.989 185.589 817.605 185.984C817.221 186.368 817.013 186.827 816.981 187.36ZM821.413 189.36L822.709 189.808C822.485 190.523 822.069 191.109 821.461 191.568C820.853 192.016 820.117 192.24 819.253 192.24C818.176 192.24 817.259 191.872 816.501 191.136C815.755 190.389 815.381 189.387 815.381 188.128C815.381 186.955 815.744 185.984 816.469 185.216C817.195 184.448 818.059 184.064 819.061 184.064C820.224 184.064 821.131 184.432 821.781 185.168C822.432 185.893 822.757 186.869 822.757 188.096C822.757 188.288 822.747 188.448 822.725 188.576H816.933C816.944 189.259 817.168 189.819 817.605 190.256C818.053 190.693 818.603 190.912 819.253 190.912C820.352 190.912 821.072 190.395 821.413 189.36ZM828.687 184.224V185.824C828.463 185.792 828.245 185.776 828.031 185.776C826.623 185.776 825.919 186.565 825.919 188.144V192H824.415V184.304H825.887V185.648C826.357 184.667 827.125 184.176 828.191 184.176C828.362 184.176 828.527 184.192 828.687 184.224ZM836.855 184.304L833.783 192H832.263L829.143 184.304H830.839L833.031 190.24L835.239 184.304H836.855ZM839.52 192H838.032V184.304H839.52V192ZM838 182.16C837.798 181.947 837.696 181.691 837.696 181.392C837.696 181.093 837.798 180.837 838 180.624C838.214 180.411 838.47 180.304 838.768 180.304C839.067 180.304 839.323 180.411 839.536 180.624C839.75 180.827 839.856 181.083 839.856 181.392C839.856 181.691 839.75 181.947 839.536 182.16C839.323 182.363 839.067 182.464 838.768 182.464C838.47 182.464 838.214 182.363 838 182.16ZM845.049 185.456C844.399 185.456 843.844 185.691 843.385 186.16C842.937 186.629 842.713 187.291 842.713 188.144C842.713 188.987 842.937 189.648 843.385 190.128C843.844 190.608 844.404 190.848 845.065 190.848C845.705 190.848 846.191 190.688 846.521 190.368C846.863 190.048 847.092 189.68 847.209 189.264L848.537 189.84C848.324 190.48 847.919 191.04 847.321 191.52C846.735 192 845.983 192.24 845.065 192.24C843.945 192.24 843.017 191.851 842.281 191.072C841.545 190.293 841.177 189.317 841.177 188.144C841.177 186.949 841.545 185.973 842.281 185.216C843.017 184.448 843.94 184.064 845.049 184.064C845.988 184.064 846.745 184.304 847.321 184.784C847.908 185.264 848.292 185.84 848.473 186.512L847.113 187.088C846.996 186.64 846.772 186.256 846.441 185.936C846.111 185.616 845.647 185.456 845.049 185.456ZM850.938 187.36H855.146C855.124 186.784 854.932 186.315 854.57 185.952C854.207 185.579 853.695 185.392 853.034 185.392C852.436 185.392 851.946 185.589 851.562 185.984C851.178 186.368 850.97 186.827 850.938 187.36ZM855.37 189.36L856.666 189.808C856.442 190.523 856.026 191.109 855.418 191.568C854.81 192.016 854.074 192.24 853.21 192.24C852.132 192.24 851.215 191.872 850.458 191.136C849.711 190.389 849.338 189.387 849.338 188.128C849.338 186.955 849.7 185.984 850.426 185.216C851.151 184.448 852.015 184.064 853.018 184.064C854.18 184.064 855.087 184.432 855.738 185.168C856.388 185.893 856.714 186.869 856.714 188.096C856.714 188.288 856.703 188.448 856.682 188.576H850.89C850.9 189.259 851.124 189.819 851.562 190.256C852.01 190.693 852.559 190.912 853.21 190.912C854.308 190.912 855.028 190.395 855.37 189.36ZM864.126 181.872V184.304H865.79V185.664H864.126V189.664C864.126 190.027 864.206 190.293 864.366 190.464C864.536 190.635 864.814 190.72 865.198 190.72C865.422 190.72 865.619 190.699 865.79 190.656V191.936C865.534 192.032 865.192 192.08 864.766 192.08C864.104 192.08 863.582 191.888 863.198 191.504C862.814 191.12 862.622 190.581 862.622 189.888V185.664H861.15V184.304H861.566C861.96 184.304 862.254 184.197 862.446 183.984C862.648 183.76 862.75 183.472 862.75 183.12V181.872H864.126ZM869.533 195.216H867.885L869.805 191.152L866.493 184.304H868.221L870.621 189.616L872.925 184.304H874.541L869.533 195.216ZM877.214 195.04H875.726V184.304H877.182V185.504C877.406 185.099 877.742 184.768 878.19 184.512C878.638 184.256 879.161 184.128 879.758 184.128C880.868 184.128 881.732 184.507 882.35 185.264C882.98 186.021 883.294 186.981 883.294 188.144C883.294 189.317 882.969 190.288 882.318 191.056C881.678 191.824 880.809 192.208 879.71 192.208C879.145 192.208 878.644 192.091 878.206 191.856C877.769 191.621 877.438 191.323 877.214 190.96V195.04ZM881.758 188.144C881.758 187.365 881.55 186.725 881.134 186.224C880.729 185.712 880.18 185.456 879.486 185.456C878.804 185.456 878.249 185.712 877.822 186.224C877.406 186.725 877.198 187.365 877.198 188.144C877.198 188.944 877.406 189.6 877.822 190.112C878.249 190.613 878.804 190.864 879.486 190.864C880.169 190.864 880.718 190.613 881.134 190.112C881.55 189.6 881.758 188.944 881.758 188.144ZM885.925 187.36H890.133C890.112 186.784 889.92 186.315 889.557 185.952C889.194 185.579 888.682 185.392 888.021 185.392C887.424 185.392 886.933 185.589 886.549 185.984C886.165 186.368 885.957 186.827 885.925 187.36ZM890.357 189.36L891.653 189.808C891.429 190.523 891.013 191.109 890.405 191.568C889.797 192.016 889.061 192.24 888.197 192.24C887.12 192.24 886.202 191.872 885.445 191.136C884.698 190.389 884.325 189.387 884.325 188.128C884.325 186.955 884.688 185.984 885.413 185.216C886.138 184.448 887.002 184.064 888.005 184.064C889.168 184.064 890.074 184.432 890.725 185.168C891.376 185.893 891.701 186.869 891.701 188.096C891.701 188.288 891.69 188.448 891.669 188.576H885.877C885.888 189.259 886.112 189.819 886.549 190.256C886.997 190.693 887.546 190.912 888.197 190.912C889.296 190.912 890.016 190.395 890.357 189.36Z" fill="#B5BAC6"/>
<path d="M906.792 257.664H908.76L908.28 259.904H905.992V261.424H907.944L907.4 264H909.08L909.624 261.424H911.72L911.176 264H912.84L913.384 261.424H915.752V259.904H913.72L914.2 257.664H916.552V256.128H914.52L915.064 253.632H913.4L912.856 256.128H910.76L911.304 253.632H909.624L909.08 256.128H906.792V257.664ZM910.44 257.664H912.536L912.056 259.904H909.96L910.44 257.664ZM919.595 258.816C919.595 257.728 919.755 256.8 920.155 256.176C920.475 255.664 920.971 255.328 921.723 255.328C922.491 255.328 922.955 255.664 923.275 256.176C923.691 256.8 923.851 257.728 923.851 258.816C923.851 259.904 923.691 260.832 923.275 261.456C922.955 261.968 922.491 262.304 921.723 262.304C920.971 262.304 920.475 261.968 920.155 261.456C919.755 260.832 919.595 259.904 919.595 258.816ZM917.387 258.816C917.387 260.144 917.595 261.44 918.299 262.512C918.987 263.536 920.107 264.256 921.723 264.256C923.339 264.256 924.459 263.536 925.131 262.512C925.835 261.44 926.059 260.144 926.059 258.816C926.059 257.488 925.835 256.192 925.131 255.12C924.459 254.096 923.339 253.376 921.723 253.376C920.107 253.376 918.987 254.096 918.299 255.12C917.595 256.192 917.387 257.488 917.387 258.816ZM926.965 261.776H931.877V264H934.053V261.776H935.765V259.888H934.053V253.616H931.333L926.965 259.472V261.776ZM931.877 259.888H928.917L931.877 255.92V259.888Z" fill="black"/>
<rect x="809" y="45" width="79.2788" height="79.353" rx="4" fill="#FF3C00"/>
<path d="M873.642 60.0627C867.449 51.309 855.218 48.7146 846.375 54.2798L830.845 64.0572C826.607 66.687 823.685 70.9576 822.795 75.8231C822.052 79.8844 822.702 84.0745 824.641 87.7301C823.312 89.7217 822.406 91.9594 821.979 94.3072C821.083 99.2758 822.253 104.391 825.224 108.497C831.417 117.251 843.648 119.845 852.491 114.28L868.02 104.543C872.253 101.908 875.174 97.6403 876.071 92.7776C876.811 88.7175 876.159 84.5296 874.219 80.8765C875.547 78.8838 876.455 76.6468 876.887 74.2994C877.78 69.3308 876.61 64.2162 873.642 60.1098" fill="white"/>
<path d="M844.885 108.885C839.909 110.166 834.655 108.232 831.725 104.041C829.95 101.577 829.252 98.5075 829.79 95.5268C829.877 95.0468 829.999 94.5739 830.156 94.1117L830.446 93.2309L831.239 93.8181C833.062 95.1384 835.097 96.143 837.257 96.7892L837.849 96.9595L837.796 97.5466C837.739 98.3517 837.967 99.1513 838.441 99.8073C839.325 101.068 840.907 101.649 842.406 101.263C842.74 101.174 843.059 101.036 843.353 100.852L858.762 91.0936C859.527 90.6158 860.054 89.8397 860.212 88.9563C860.371 88.0568 860.158 87.1316 859.62 86.3904C858.736 85.1294 857.154 84.5484 855.655 84.9342C855.32 85.0223 855.001 85.1609 854.708 85.3452L848.791 89.0737C847.823 89.6827 846.767 90.142 845.66 90.436C840.693 91.7096 835.451 89.7791 832.523 85.5977C830.754 83.1319 830.061 80.0628 830.6 77.0837C831.129 74.1568 832.875 71.5862 835.411 70.0024L850.868 60.2436C851.83 59.6359 852.879 59.1765 853.98 58.8813C858.955 57.5991 864.208 59.5333 867.135 63.7255C868.912 66.1881 869.612 69.2579 869.076 72.2395C868.984 72.7222 868.861 73.1987 868.709 73.6663L868.413 74.5471L867.626 73.9599C865.8 72.6295 863.759 71.6169 861.59 70.9653L860.999 70.7951L861.052 70.2079C861.12 69.3988 860.898 68.5918 860.425 67.9296C859.535 66.6908 857.966 66.1274 856.484 66.5146C856.149 66.6027 855.829 66.7413 855.537 66.9256L840.098 76.6668C839.336 77.1449 838.81 77.9179 838.648 78.7982C838.492 79.6995 838.705 80.6254 839.24 81.37C840.12 82.619 841.686 83.1986 843.175 82.8262C843.509 82.7358 843.828 82.5973 844.122 82.4152L850.039 78.6925C851.006 78.0769 852.065 77.6153 853.176 77.3244C858.149 76.0391 863.403 77.9713 866.33 82.1627C868.106 84.6258 868.806 87.6952 868.271 90.6767C867.743 93.6036 865.997 96.1742 863.46 97.758L848.021 107.517C847.052 108.128 845.994 108.589 844.885 108.885Z" fill="#FF3C00"/>
<rect x="737" y="224" width="223" height="1" fill="#EAECF5"/>
</g>
<defs>
<filter id="filter0_d" x="-25" y="-21" width="273" height="346" filterUnits="userSpaceOnUse" color-interpolation-filters="sRGB">
<feFlood flood-opacity="0" result="BackgroundImageFix"/>
<feColorMatrix in="SourceAlpha" type="matrix" values="0 0 0 0 0 0 0 0 0 0 0 0 0 0 0 0 0 0 127 0"/>
<feOffset dy="4"/>
<feGaussianBlur stdDeviation="12.5"/>
<feColorMatrix type="matrix" values="0 0 0 0 0.948879 0 0 0 0 0.948879 0 0 0 0 0.948879 0 0 0 0.346372 0"/>
<feBlend mode="normal" in2="BackgroundImageFix" result="effect1_dropShadow"/>
<feBlend mode="normal" in="SourceGraphic" in2="effect1_dropShadow" result="shape"/>
</filter>
<filter id="filter1_d" x="220" y="-21" width="273" height="346" filterUnits="userSpaceOnUse" color-interpolation-filters="sRGB">
<feFlood flood-opacity="0" result="BackgroundImageFix"/>
<feColorMatrix in="SourceAlpha" type="matrix" values="0 0 0 0 0 0 0 0 0 0 0 0 0 0 0 0 0 0 127 0"/>
<feOffset dy="4"/>
<feGaussianBlur stdDeviation="12.5"/>
<feColorMatrix type="matrix" values="0 0 0 0 0.948879 0 0 0 0 0.948879 0 0 0 0 0.948879 0 0 0 0.346372 0"/>
<feBlend mode="normal" in2="BackgroundImageFix" result="effect1_dropShadow"/>
<feBlend mode="normal" in="SourceGraphic" in2="effect1_dropShadow" result="shape"/>
</filter>
<filter id="filter2_d" x="465" y="-21" width="273" height="346" filterUnits="userSpaceOnUse" color-interpolation-filters="sRGB">
<feFlood flood-opacity="0" result="BackgroundImageFix"/>
<feColorMatrix in="SourceAlpha" type="matrix" values="0 0 0 0 0 0 0 0 0 0 0 0 0 0 0 0 0 0 127 0"/>
<feOffset dy="4"/>
<feGaussianBlur stdDeviation="12.5"/>
<feColorMatrix type="matrix" values="0 0 0 0 0.948879 0 0 0 0 0.948879 0 0 0 0 0.948879 0 0 0 0.346372 0"/>
<feBlend mode="normal" in2="BackgroundImageFix" result="effect1_dropShadow"/>
<feBlend mode="normal" in="SourceGraphic" in2="effect1_dropShadow" result="shape"/>
</filter>
<filter id="filter3_d" x="712" y="-21" width="273" height="346" filterUnits="userSpaceOnUse" color-interpolation-filters="sRGB">
<feFlood flood-opacity="0" result="BackgroundImageFix"/>
<feColorMatrix in="SourceAlpha" type="matrix" values="0 0 0 0 0 0 0 0 0 0 0 0 0 0 0 0 0 0 127 0"/>
<feOffset dy="4"/>
<feGaussianBlur stdDeviation="12.5"/>
<feColorMatrix type="matrix" values="0 0 0 0 0.948879 0 0 0 0 0.948879 0 0 0 0 0.948879 0 0 0 0.346372 0"/>
<feBlend mode="normal" in2="BackgroundImageFix" result="effect1_dropShadow"/>
<feBlend mode="normal" in="SourceGraphic" in2="effect1_dropShadow" result="shape"/>
</filter>
<linearGradient id="paint0_linear" x1="317" y1="44" x2="317" y2="123.353" gradientUnits="userSpaceOnUse">
<stop stop-color="#181C21"/>
<stop offset="1" stop-color="#181C21"/>
</linearGradient>
<clipPath id="clip0">
<rect width="960" height="296" fill="white"/>
</clipPath>
<clipPath id="clip1">
<rect width="223" height="296" fill="white" transform="translate(245)"/>
</clipPath>
</defs>
</svg>
