<svg width="288" height="386" viewBox="0 0 288 386" fill="none" xmlns="http://www.w3.org/2000/svg">
<rect width="288" height="386" fill="#183A4C"/>
<path opacity="0.18" d="M174.54 341.68C195.274 333.514 214.745 322.447 232.37 308.81C243.47 300.22 254.08 290.25 259.74 277.4C272.1 249.31 257.8 216.11 264.95 186.26C267.36 176.18 272.16 166.81 274.79 156.79C282.85 126.06 267.28 90.79 239.15 76.03C225.88 69.03 210.83 66.5 196.29 62.86C173.97 57.27 152.1 48.92 129.14 47.45C109.61 46.22 89.46 50.22 72.91 60.67C56.36 71.12 43.8 88.36 40.82 107.67C38.82 120.52 41.02 133.73 39.17 146.6C36.06 168.21 22.03 186.6 15.69 207.51C8.51053 231.713 11.8996 257.822 25.02 279.39C36.22 297.55 53.79 311.16 73.02 320.45C92.25 329.74 113.11 335.01 134.02 339.26" fill="#68E1FD"/>
<path d="M155.35 42.67C155.462 42.3919 155.672 42.1643 155.94 42.03C156.22 41.9735 156.511 42.0196 156.76 42.16C159.61 43.3339 162.298 44.8663 164.76 46.72C159.367 59.3867 153.613 71.86 147.5 84.14C147.31 84.54 141.27 76.56 140.86 75.7C139.04 71.88 140.03 70.19 142 66.77C146.59 58.82 150.91 50.7 155.35 42.67Z" fill="#68E1FD"/>
<path d="M164.77 46.72C164.29 47.85 163.77 48.99 163.3 50.12C161.793 53.6533 160.247 57.1633 158.66 60.65C157.913 62.29 157.16 63.9366 156.4 65.59C154.847 68.9233 153.27 72.2566 151.67 75.59C150.337 78.4433 148.953 81.28 147.52 84.1C147.32 84.5 141.28 76.52 140.87 75.66C139.05 71.83 140.03 70.15 142.01 66.74C143.42 64.3 144.79 61.84 146.17 59.38L152.11 48.53C153.19 46.53 154.26 44.6 155.35 42.64C155.404 42.5366 155.464 42.4364 155.53 42.34C155.634 42.1909 155.78 42.076 155.95 42.01C156.224 41.9471 156.512 41.9862 156.76 42.12C159.608 43.3004 162.296 44.8359 164.76 46.69L164.77 46.72Z" fill="url(#paint0_linear)"/>
<path d="M156.47 222.9C154.128 217.783 152.173 212.499 150.62 207.09C150.12 205.31 149.68 203.53 149.3 201.72C147.98 195.33 147.66 188.43 150.41 182.51C151.07 181.1 152.16 179.59 153.72 179.51C155.28 179.43 156.44 180.82 157.22 182.15C159.14 185.47 160.01 189.28 161.02 192.98C163.881 203.541 168.021 213.713 173.35 223.27C179.19 233.74 180.35 246.82 179.84 258.8C179.78 261.439 179.421 264.062 178.77 266.62C177.08 272.62 172.91 277.73 171.22 283.74C166.12 301.89 172.36 321.99 175.22 340.62C175.487 341.52 175.368 342.491 174.89 343.3C174.398 343.795 173.76 344.117 173.07 344.22C161.937 347.004 150.186 345.896 139.77 341.08C138.19 313.203 129.039 286.284 113.3 263.22C110.57 259.22 107.59 255.22 106.52 250.55C105.15 244.5 107.14 238.27 108.05 232.14C109.697 220.661 107.541 208.958 101.91 198.82C100.91 196.94 99.65 194.94 99.91 192.82C100.15 190.82 101.6 189.28 103.08 187.98C108.08 183.471 114.46 180.788 121.18 180.37C127.937 180.022 134.516 182.606 139.23 187.46C143.91 192.52 145.78 199.46 148.23 205.88C150.48 211.36 153.25 217.96 156.47 222.9Z" fill="#F7BC9F"/>
<path d="M151.99 225.78C152.303 226.75 152.468 227.761 152.48 228.78C152.326 230.011 152.007 231.215 151.53 232.36C150.07 236.92 150.65 241.84 151.25 246.59L153.32 263.08C153.82 267.08 154.17 271.56 151.6 274.63C149.03 277.7 144.12 278.11 140.6 276.23C137.08 274.35 134.73 270.68 133.53 266.84C132.33 263 132.12 258.94 131.74 254.94C130.476 241.492 127.402 228.275 122.6 215.65C120.87 211.1 118.9 206.03 120.77 201.53C120.995 200.842 121.442 200.248 122.04 199.84C123.04 199.24 124.31 199.6 125.41 199.98C132.252 202.257 138.824 205.274 145.01 208.98C150.15 212.14 150.46 220.22 151.99 225.78Z" fill="url(#paint1_linear)"/>
<path d="M112.85 176.22L139.25 268.31L154.91 169.1C154.91 169.1 119.01 151.63 112.85 176.22Z" fill="#68E1FD"/>
<path d="M112.85 176.22L139.25 268.31L154.91 169.1C154.91 169.1 119.01 151.63 112.85 176.22Z" fill="url(#paint2_linear)"/>
<path d="M127.78 176.5C129.192 176.714 130.534 177.255 131.7 178.08C138.342 182.191 143.901 187.836 147.91 194.54C148.69 195.85 149.42 197.44 148.81 198.83C148.2 200.22 146.47 200.76 144.95 200.7C141.52 200.56 138.62 198.26 135.8 196.3C132.98 194.34 129.5 192.56 126.23 193.61C122.31 194.87 119.71 199.89 115.63 199.35C110.04 198.6 109.3 188.84 111.22 184.81C113.25 180.41 123.29 176.12 127.78 176.5Z" fill="#F7BC9F"/>
<path d="M129.63 199.4C132.73 199.01 135.8 200.3 138.41 202.02C141.02 203.74 143.3 205.89 145.94 207.56C147.593 208.407 149.102 209.511 150.41 210.83C151.6 212.27 152.05 214.54 150.83 215.94C149.83 217.04 148.25 217.25 146.83 217.23C144.159 217.212 141.513 216.71 139.02 215.75C137.26 215.08 135.52 214.16 133.63 214.12C131.09 214.06 128.83 215.57 126.48 216.52C124.687 217.245 122.782 217.655 120.85 217.73C120.347 217.798 119.835 217.715 119.38 217.49C118.954 217.185 118.627 216.76 118.44 216.27C117.04 213.33 115.16 206.56 117.13 203.41C118.76 200.76 126.68 199.77 129.63 199.4Z" fill="#F7BC9F"/>
<path d="M144.18 247.65C145.68 247.88 147.64 247.95 148.18 246.56C148.307 246.218 148.362 245.854 148.34 245.49C148.29 242.79 146.4 240.4 144.08 239.01C141.69 237.746 139.103 236.895 136.43 236.49C138.71 235.09 141.62 235.73 144.29 235.83C146.96 235.93 150.29 234.83 150.63 232.21C150.734 230.737 150.087 229.312 148.91 228.42C147.737 227.565 146.429 226.913 145.04 226.49L125.53 219.38C124.932 219.098 124.267 218.987 123.61 219.06C122.721 219.365 121.997 220.024 121.61 220.88C116.882 229.08 117.097 239.228 122.17 247.22C123.11 248.65 125.01 251.63 126.86 251.87C129.37 252.2 129 249.58 130.15 248.34C132.61 245.71 141 247.16 144.18 247.65Z" fill="#F7BC9F"/>
<path d="M168.98 170.95C168.62 172.36 167.14 173.17 165.81 173.79L161.19 175.96C160.778 176.224 160.281 176.32 159.8 176.23C159.449 176.084 159.152 175.832 158.95 175.51C158.099 174.451 157.337 173.324 156.67 172.14C156.18 171.9 155.82 172.63 155.46 173.06C154.57 174.14 152.84 173.39 151.69 172.57C148.91 170.57 146.02 168.43 142.62 168.08C140.921 167.999 139.219 168.123 137.55 168.45C131.903 169.278 126.187 169.522 120.49 169.18C119.816 169.088 119.13 169.16 118.49 169.39C116.12 170.55 114.73 175.78 112.57 178.72C111.09 180.72 109.25 181.72 106.49 179.46C105.93 180.71 103.49 181.66 102.43 180.41C101.09 179.49 100.49 177.83 99.97 176.29L95.97 164.48C95.6416 163.767 95.62 162.95 95.91 162.22C96.2152 161.771 96.6468 161.423 97.15 161.22L106.5 156.47C104.75 154.71 105.5 151.55 107.32 149.84C108.535 148.782 109.931 147.952 111.44 147.39C111.521 147.341 111.609 147.304 111.7 147.28C112.42 146.96 113.14 146.67 113.85 146.34C119.61 143.65 124.17 138.75 130.07 136.34C139.304 132.878 149.713 136.033 155.47 144.04C155.84 144.668 156.305 145.235 156.85 145.72C156.959 145.811 157.076 145.892 157.2 145.96C157.959 146.273 158.762 146.465 159.58 146.53C160.404 146.694 161.191 147.01 161.9 147.46C163.687 148.634 165.059 150.342 165.82 152.34C166.766 155.156 167.242 158.109 167.23 161.08C167.237 163.115 167.547 165.137 168.15 167.08C168.59 168.37 169.31 169.66 168.98 170.95Z" fill="#68E1FD"/>
<path d="M110.91 152.05C112.544 152.058 114.126 151.479 115.37 150.42C115.979 149.724 116.733 149.171 117.58 148.8C118.7 148.49 119.83 149.13 120.9 149.61C123.094 150.591 125.519 150.937 127.9 150.61C131 150.17 133.81 148.61 136.68 147.36C139.55 146.11 142.74 145.1 145.78 145.86C147.27 146.23 148.63 147 150.11 147.39C150.582 147.56 151.098 147.56 151.57 147.39C152.39 146.97 152.41 145.83 152.32 144.91L151.53 137.22C151.499 136.532 151.347 135.855 151.08 135.22C150.502 134.285 149.619 133.579 148.58 133.22C144.42 131.41 139.66 131.82 135.15 132.36C132.651 132.603 130.178 133.065 127.76 133.74C124.43 134.911 121.246 136.461 118.27 138.36C116.908 139.019 115.724 139.996 114.82 141.21C113.857 142.601 113.131 144.142 112.67 145.77C112.49 146.39 111.8 152.06 110.91 152.05Z" fill="url(#paint3_linear)"/>
<path d="M158.48 165.37C158.441 165.767 158.284 166.143 158.03 166.45C156.94 167.52 155.3 165.26 153.81 165.58C152.81 165.79 152.31 167.02 151.34 167.08C150.706 167.016 150.119 166.721 149.69 166.25C146.113 163.369 141.205 162.783 137.05 164.74C136.565 165.042 136.018 165.23 135.45 165.29C134.53 165.29 133.79 164.58 132.98 164.16C131.777 163.643 130.401 163.714 129.258 164.353C128.114 164.991 127.332 166.124 127.14 167.42C125.47 166.42 123.34 165.49 121.74 166.55C121.37 166.866 120.971 167.147 120.55 167.39C119.833 167.555 119.087 167.555 118.37 167.39C116.993 167.379 115.68 167.974 114.782 169.019C113.884 170.063 113.492 171.45 113.71 172.81C115.19 172.29 116.21 170.92 117.61 170.19C119.55 169.19 121.88 169.55 124.07 169.74C128.793 170.159 133.553 169.632 138.07 168.19C139.045 167.785 140.095 167.591 141.15 167.62C142.96 167.83 144.32 169.45 146.1 169.86C147.1 170.09 148.35 169.96 149.1 170.74C149.51 171.19 149.64 171.87 150.1 172.26C150.78 172.81 151.77 172.5 152.64 172.39C153.51 172.28 154.64 172.76 154.52 173.62L156.78 172.37C157.193 173.577 158.042 174.586 159.16 175.2C160.52 175.72 162.01 175.01 163.29 174.32L167 172.32C167.8 171.88 168.68 171.32 168.93 170.48C169.29 169.24 168.25 168.1 167.58 167C165.71 163.95 166.52 160 166.15 156.49C165.938 153.807 164.804 151.281 162.94 149.34C161.009 147.432 158.221 146.674 155.59 147.34C157.548 148.105 159.381 149.157 161.03 150.46C162.688 151.796 163.667 153.801 163.7 155.93C163.316 155.789 162.899 155.761 162.5 155.85C162.203 157.268 162.296 158.741 162.77 160.11C162.021 159.863 161.246 159.701 160.46 159.63C159.31 159.81 159.63 159.45 159.11 160.5C158.59 161.55 158.7 164.16 158.48 165.37Z" fill="url(#paint4_linear)"/>
<path d="M165.69 145.08C165.41 146.72 163.52 147.68 161.88 147.46C161.038 147.338 160.236 147.019 159.54 146.53C158.863 146.075 158.242 145.541 157.69 144.94C157.446 145.251 157.148 145.515 156.81 145.72C155.723 146.368 154.417 146.538 153.2 146.19C151.623 145.671 150.232 144.701 149.2 143.4C146.428 144.954 143.076 145.073 140.2 143.72C138.86 143.06 137.68 142.11 136.33 141.49C135.009 140.755 133.413 140.707 132.05 141.36C130.84 142.08 130.17 143.59 128.83 144.01C127.12 144.54 125.28 143.01 123.56 143.49C122.45 143.79 121.74 144.82 120.83 145.49C119.92 146.16 118.34 146.41 117.83 145.39C117.668 146.602 117.004 147.691 116 148.39C114.14 149.47 114 147.7 112.71 147.39C112.451 147.327 112.186 147.297 111.92 147.3H111.43C110.32 147.3 109 147.61 108.04 147.55C106.008 147.557 103.993 147.18 102.1 146.44C100.18 145.659 98.8615 143.866 98.69 141.8C98.69 139.8 100.69 137.8 102.69 138.4C100.936 135.864 100.936 132.506 102.69 129.97C102.945 129.673 103.148 129.335 103.29 128.97C103.375 128.385 103.277 127.788 103.01 127.26C102.01 124.52 101.23 121.54 101.86 118.68C101.928 118.341 102.018 118.007 102.13 117.68C103.13 114.68 105.47 112.27 107.75 110.01L109.91 107.92L110.34 107.49C113.34 104.49 116.56 101.37 120.62 100.06C122.789 99.441 125.035 99.1346 127.29 99.15C130.748 99.045 134.21 99.1251 137.66 99.39C139.97 99.56 142.45 99.88 144.13 101.47C144.42 101.798 144.757 102.081 145.13 102.31C145.691 102.536 146.299 102.618 146.9 102.55C150.366 102.362 153.799 103.299 156.69 105.22C157.605 105.882 158.406 106.689 159.06 107.61C160.619 110.064 161.422 112.923 161.37 115.83C161.444 118.371 161.195 120.911 160.63 123.39C160.422 124.035 160.357 124.717 160.44 125.39C160.698 126.136 161.033 126.853 161.44 127.53C162.13 129.09 161.72 131.05 162.69 132.46C163.206 133.056 163.764 133.614 164.36 134.13C165.191 135.122 165.576 136.413 165.424 137.698C165.273 138.983 164.599 140.148 163.56 140.92C164.73 142.03 165.98 143.47 165.69 145.08Z" fill="#68E1FD"/>
<path d="M103.42 109.44C103.59 106.78 105.59 104.57 107.86 103.17C110.13 101.77 112.71 100.99 115.07 99.7601C117.74 98.3701 120.13 96.4101 122.99 95.4801C125.85 94.5501 128.86 94.7301 131.82 94.9001C138.31 95.2801 144.88 95.6801 151.11 97.5501C152.072 97.756 152.954 98.2352 153.65 98.9301C154.284 99.8608 154.616 100.964 154.6 102.09C154.809 103.563 154.772 105.06 154.49 106.52C154.181 107.997 153.158 109.223 151.76 109.79C149.4 110.57 147.11 108.63 144.76 107.79C142.25 106.845 139.443 107.126 137.17 108.55C135.88 109.36 134.82 110.55 133.46 111.19C132.1 111.83 130.22 111.92 129.28 110.72C128.81 110.12 128.62 109.27 127.97 108.88C127.245 108.59 126.429 108.634 125.74 109L115.27 112.81C113.371 113.386 111.565 114.234 109.91 115.33C107.58 117.08 106.08 119.74 103.8 121.54C103.07 122.12 101.8 122.54 101.3 121.78C101.099 121.432 101.025 121.026 101.09 120.63C101.254 118.169 102.302 115.85 104.04 114.1C104.209 112.519 103.996 110.921 103.42 109.44Z" fill="url(#paint5_linear)"/>
<path d="M158.09 102.77C158.085 103.776 157.554 104.705 156.69 105.22C156.182 105.562 155.599 105.774 154.99 105.84C153.368 105.852 151.789 105.324 150.5 104.34C149.707 105.782 148.139 106.62 146.5 106.48C144.901 106.333 143.381 105.717 142.13 104.71C139.844 106.769 136.705 107.6 133.7 106.94C132.3 106.61 130.98 105.94 129.58 105.66C128.177 105.253 126.664 105.552 125.52 106.46C124.52 107.39 124.22 108.95 123.04 109.63C121.55 110.51 119.49 109.45 117.97 110.27C116.97 110.79 116.54 111.92 115.83 112.77C115.12 113.62 113.69 114.17 112.98 113.32C113.023 113.997 112.935 114.676 112.72 115.32C112.556 115.808 112.278 116.25 111.91 116.61C110.39 118.02 109.85 116.39 108.59 116.33C107.33 116.27 105.54 117.33 104.22 117.5C103.48 117.62 102.74 117.74 102 117.81C100.803 117.975 99.5872 117.945 98.4 117.72C97.1767 117.465 96.0583 116.849 95.19 115.95C94.7068 115.419 94.3632 114.777 94.19 114.08C93.74 112.17 95.26 109.88 97.19 110.08C94.9588 108.063 94.2311 104.864 95.37 102.08C95.5504 101.747 95.669 101.385 95.72 101.01C95.6823 100.441 95.4652 99.8982 95.1 99.46C93.54 97.09 92.2 94.46 92.18 91.61C92.18 88.21 94.05 85.11 95.88 82.23L97.82 79.23C100.03 75.75 102.36 72.14 105.92 70.04C107.835 68.9961 109.889 68.2316 112.02 67.77C115.253 66.9338 118.528 66.2662 121.83 65.77C124.05 65.44 126.45 65.22 128.38 66.35C128.718 66.5996 129.092 66.7953 129.49 66.93C130.071 67.0261 130.667 66.971 131.22 66.77C135.51 65.68 140.5 65.98 143.8 68.94C145.781 70.9263 147.143 73.4449 147.72 76.19C148.335 78.5677 148.644 81.0141 148.64 83.47C148.587 84.114 148.672 84.7619 148.89 85.37C149.293 86.0199 149.766 86.6235 150.3 87.17C151.3 88.49 151.3 90.43 152.53 91.55C153.147 91.9939 153.792 92.398 154.46 92.76C155.455 93.5179 156.093 94.6536 156.222 95.8979C156.351 97.1422 155.959 98.3844 155.14 99.33C156.54 100.1 158.02 101.22 158.09 102.77Z" fill="#68E1FD"/>
<path d="M98.5 105.38C98.8872 105.769 99.4214 105.977 99.97 105.95C100.261 105.888 100.526 105.737 100.73 105.52C102.06 104.27 102.03 102.1 101.34 100.41C100.65 98.72 99.45 97.2899 98.63 95.66C96.988 92.3379 97.0214 88.4334 98.72 85.1399C99.5902 83.3813 101.032 81.9708 102.81 81.1399C104.62 80.3314 106.718 80.505 108.37 81.5999C110.77 83.34 111.06 86.76 111.02 89.7299C110.93 95.8699 110.46 102.43 113.59 107.73C115.81 107.67 118.59 107.22 119.22 105.09C119.415 104.208 119.352 103.288 119.04 102.44C117.35 96.4399 113.18 91.25 112.44 85.08C112.219 83.8897 112.384 82.6602 112.91 81.57C113.493 80.4687 114.796 79.962 115.97 80.3799C117.61 81.1699 117.28 83.5399 117.67 85.32C118.025 86.8572 119.069 88.1448 120.5 88.8099C121.718 87.5709 122.073 85.7218 121.4 84.1199C120.81 82.7699 119.48 81.5599 119.77 80.12C119.921 79.5145 120.274 78.9785 120.77 78.5999C122.269 77.406 124.336 77.2249 126.02 78.1399C128.02 79.28 128.94 81.76 129.15 84.08C129.36 86.4 129.06 88.76 129.48 91.08C129.9 93.4 131.28 95.7199 133.54 96.2899C135.6 93.9299 135.22 90.2899 134.12 87.3799C133.02 84.4699 131.28 81.6999 130.93 78.5899C133.21 77.4999 136.04 78.5899 137.77 80.4199C139.5 82.25 140.4 84.6999 141.34 87.0399C142.914 90.9902 144.706 94.8495 146.71 98.5999C147.09 99.32 147.65 100.13 148.47 100.11C149.73 100.11 149.93 98.2399 149.59 97.0199C147.71 90.2199 141.91 84.8599 140.84 77.8799L144.74 79.8799C145.97 78.0199 144.88 75.5499 143.74 73.61C142.928 71.9118 141.785 70.3923 140.38 69.1399C138.607 67.9582 136.577 67.2176 134.46 66.9799C128.609 65.7811 122.609 65.4911 116.67 66.1199C110.05 66.9799 100.48 69.9899 97.38 76.5999C96.19 79.1299 95.74 81.94 94.52 84.5C92.7827 87.7869 92.1315 91.5398 92.66 95.2199C93.2853 99.2116 95.3655 102.831 98.5 105.38Z" fill="url(#paint6_linear)"/>
<path d="M124.77 101.59C124.935 101.731 125.136 101.825 125.35 101.86C125.89 101.86 126.23 101.28 126.35 100.76C126.69 99.42 126.35 94.15 124.03 94.95C121.57 95.83 123.46 100.6 124.77 101.59Z" fill="url(#paint7_linear)"/>
<path d="M105.39 170.1C105.817 173.647 108.105 176.697 111.39 178.1C111.799 178.263 112.188 178.471 112.55 178.72C111.07 180.72 109.23 181.72 106.47 179.46C105.91 180.71 103.47 181.66 102.41 180.41C101.07 179.49 100.47 177.83 99.95 176.29L95.95 164.48C95.6281 163.764 95.6136 162.947 95.91 162.22C96.2152 161.771 96.6468 161.423 97.15 161.22L106.5 156.47C104.75 154.71 105.5 151.55 107.32 149.84C108.535 148.782 109.931 147.952 111.44 147.39C110.33 147.39 109.01 147.7 108.05 147.64C106.018 147.647 104.003 147.27 102.11 146.53C100.19 145.75 98.8715 143.956 98.7 141.89C98.7 139.89 100.7 137.89 102.7 138.49C100.946 135.954 100.946 132.596 102.7 130.06C102.955 129.763 103.158 129.425 103.3 129.06C103.385 128.475 103.287 127.878 103.02 127.35C102.02 124.61 101.24 121.63 101.87 118.77C101.938 118.431 102.028 118.097 102.14 117.77C100.943 117.935 99.7272 117.905 98.54 117.68C97.3167 117.425 96.1983 116.809 95.33 115.91C95.7787 114.291 96.4519 112.743 97.33 111.31C98.2815 110.07 99.0931 108.728 99.75 107.31C101.02 103.88 99.31 100.16 98.58 96.5601C96.37 85.8101 104.64 74.0701 115.52 72.5601C113.113 79.6667 110.76 86.7901 108.46 93.9301C107.03 98.3401 105.81 103.77 109.01 107.1C109.29 107.39 109.58 107.65 109.87 107.92C110.312 108.286 110.687 108.726 110.98 109.22C111.88 111.02 110.68 113.41 111.76 115.1C112.12 115.1 112.45 115.21 112.76 115.26C113.786 115.507 114.853 115.534 115.89 115.34C114.56 115.77 113.81 117.28 113.26 118.61C111.46 123.05 109.63 128 111.26 132.51C111.649 133.363 111.947 134.255 112.15 135.17C112.284 137.024 111.476 138.82 110 139.95C108.534 141.045 106.894 141.887 105.15 142.44C105.677 143.567 105.804 144.841 105.51 146.05L111.32 147.13C111.439 147.149 111.556 147.18 111.67 147.22C111.752 147.239 111.83 147.273 111.9 147.32C112.025 147.39 112.123 147.499 112.18 147.63C112.231 147.895 112.174 148.169 112.02 148.39C111.64 149.15 111.26 149.91 110.87 150.66C112.47 150.66 114.1 150.47 115.69 150.47C113.69 152.76 114.39 156.65 112.32 158.94C111.463 159.704 110.528 160.374 109.53 160.94C106.604 163.028 105.024 166.525 105.39 170.1Z" fill="url(#paint8_linear)"/>
<path d="M102.69 75.22C102.487 75.3826 102.325 75.5919 102.22 75.83C102.123 76.0816 102.231 76.3656 102.47 76.49C102.78 76.6 103.07 76.29 103.27 76.03C104.46 74.47 106.41 73.36 107.34 71.63C106.12 70.4 103.5 74.4 102.69 75.22Z" fill="#68E1FD"/>
<path d="M112.46 75.77C112.26 75.9374 112.102 76.1499 112 76.39C111.905 76.6387 112.012 76.9194 112.25 77.04C112.56 77.15 112.85 76.84 113.05 76.58C114.24 75.02 116.19 73.91 117.11 72.18C115.91 71 113.27 75 112.46 75.77Z" fill="#68E1FD"/>
<path d="M108.78 69.7C108.57 69.5494 108.326 69.4531 108.07 69.42C107.802 69.3896 107.556 69.5738 107.51 69.84C107.51 70.17 107.86 70.36 108.16 70.48C109.99 71.21 111.58 72.78 113.5 73.21C114.31 71.71 109.75 70.27 108.78 69.7Z" fill="#68E1FD"/>
<path d="M119.43 72.83C119.23 72.9938 119.073 73.2029 118.97 73.44C118.875 73.6888 118.982 73.9694 119.22 74.09C119.53 74.21 119.82 73.9 120.02 73.64C121.21 72.08 123.16 70.97 124.08 69.23C122.91 68.06 120.24 72.06 119.43 72.83Z" fill="#68E1FD"/>
<path d="M115.71 69.54C115.507 69.7009 115.349 69.9108 115.25 70.15C115.149 70.3987 115.259 70.6828 115.5 70.8C115.81 70.92 116.1 70.61 116.3 70.35C117.49 68.79 119.43 67.68 120.36 65.94C119.14 64.77 116.52 68.77 115.71 69.54Z" fill="#68E1FD"/>
<path d="M103.48 78.3301C103.278 78.4915 103.12 78.7013 103.02 78.9401C102.925 79.1888 103.032 79.4694 103.27 79.5901C103.58 79.7001 103.87 79.3901 104.07 79.1301C105.26 77.5801 107.21 76.4601 108.14 74.7301C106.91 73.5501 104.29 77.5501 103.48 78.3301Z" fill="#68E1FD"/>
<path d="M129.21 73.43C129.007 73.5926 128.845 73.8019 128.74 74.04C128.643 74.2916 128.751 74.5756 128.99 74.7C129.3 74.81 129.59 74.5 129.79 74.24C130.98 72.68 132.93 71.57 133.86 69.83C132.64 68.66 130.02 72.66 129.21 73.43Z" fill="#68E1FD"/>
<path d="M134.79 74.6701C134.589 74.833 134.431 75.0424 134.33 75.2801C134.228 75.5316 134.337 75.8189 134.58 75.9401C134.89 76.0501 135.17 75.7401 135.37 75.4801C136.57 73.9201 138.51 72.8101 139.44 71.0801C138.22 69.9001 135.6 73.9001 134.79 74.6701Z" fill="#68E1FD"/>
<path d="M125.53 67.36C125.316 67.2093 125.069 67.1132 124.81 67.08C124.547 67.0585 124.309 67.2332 124.25 67.49C124.25 67.82 124.6 68.02 124.91 68.14C126.73 68.86 128.33 70.44 130.25 70.86C131.05 69.37 126.49 67.93 125.53 67.36Z" fill="#68E1FD"/>
<path d="M139.2 129.4C139.56 131.9 140.92 134.4 143.2 135.4C144.61 133.66 144.2 131.14 143.89 128.92C143.293 124.583 143.3 120.185 143.91 115.85C144.08 114.59 144.42 113.16 145.56 112.59C147.365 114.216 148.716 116.284 149.48 118.59C150.84 117.65 150.41 115.47 149.36 114.2C148.31 112.93 146.79 112.06 146.04 110.56C145.29 109.06 145.95 106.92 144.54 106.04C142.21 104.58 139.63 106.6 139.35 108.79C138.98 111.72 140.14 114.86 140.05 117.79C139.91 121.69 138.63 125.55 139.2 129.4Z" fill="url(#paint9_linear)"/>
<path d="M154.91 68.57C153.35 71.9033 151.773 75.2366 150.18 78.57C149.67 77.51 149.18 76.45 148.61 75.41C147.386 73.3927 146.38 71.2506 145.61 69.02C145.226 67.4777 144.975 65.9052 144.86 64.32C144.8 63.67 144.74 63.01 144.67 62.32C146.67 58.71 148.67 55.08 150.61 51.47C150.928 51.9912 151.097 52.5894 151.1 53.2C151.481 57.5796 152.426 61.8918 153.91 66.03C154.22 66.88 154.54 67.72 154.91 68.57Z" fill="url(#paint10_linear)"/>
<path d="M163.3 50.12C161.793 53.6534 160.247 57.1634 158.66 60.65C158.33 59.99 158.01 59.34 157.66 58.65C156.434 56.6303 155.428 54.4846 154.66 52.25C154.266 50.7132 154.015 49.1431 153.91 47.56C153.84 46.9 153.78 46.25 153.72 45.56C154.32 44.47 154.92 43.38 155.51 42.28C155.614 42.1309 155.76 42.0161 155.93 41.95C156.204 41.8872 156.492 41.9263 156.74 42.06C158.391 42.739 159.989 43.5413 161.52 44.46C161.93 46.06 162.42 47.65 162.98 49.2L163.3 50.12Z" fill="url(#paint11_linear)"/>
<defs>
<linearGradient id="paint0_linear" x1="139.91" y1="84.1457" x2="164.77" y2="84.1457" gradientUnits="userSpaceOnUse">
<stop offset="0.01"/>
<stop offset="0.13" stop-opacity="0.69"/>
<stop offset="1" stop-opacity="0.01"/>
</linearGradient>
<linearGradient id="paint1_linear" x1="77.9431" y1="168.071" x2="188.837" y2="269.109" gradientUnits="userSpaceOnUse">
<stop offset="0.01"/>
<stop offset="0.13" stop-opacity="0.69"/>
<stop offset="1" stop-opacity="0.01"/>
</linearGradient>
<linearGradient id="paint2_linear" x1="112.85" y1="268.262" x2="154.86" y2="268.262" gradientUnits="userSpaceOnUse">
<stop offset="0.01"/>
<stop offset="0.13" stop-opacity="0.69"/>
<stop offset="1" stop-opacity="0.01"/>
</linearGradient>
<linearGradient id="paint3_linear" x1="69.6045" y1="100.561" x2="70.5887" y2="157.376" gradientUnits="userSpaceOnUse">
<stop offset="0.01"/>
<stop offset="0.13" stop-opacity="0.69"/>
<stop offset="1" stop-opacity="0.01"/>
</linearGradient>
<linearGradient id="paint4_linear" x1="113.62" y1="175.363" x2="168.99" y2="175.363" gradientUnits="userSpaceOnUse">
<stop offset="0.01"/>
<stop offset="0.13" stop-opacity="0.69"/>
<stop offset="1" stop-opacity="0.01"/>
</linearGradient>
<linearGradient id="paint5_linear" x1="78.1342" y1="78.6094" x2="78.8085" y2="127.656" gradientUnits="userSpaceOnUse">
<stop offset="0.01"/>
<stop offset="0.13" stop-opacity="0.69"/>
<stop offset="1" stop-opacity="0.01"/>
</linearGradient>
<linearGradient id="paint6_linear" x1="92.45" y1="107.72" x2="149.77" y2="107.72" gradientUnits="userSpaceOnUse">
<stop offset="0.01"/>
<stop offset="0.13" stop-opacity="0.69"/>
<stop offset="1" stop-opacity="0.01"/>
</linearGradient>
<linearGradient id="paint7_linear" x1="122.83" y1="101.868" x2="126.47" y2="101.868" gradientUnits="userSpaceOnUse">
<stop offset="0.01"/>
<stop offset="0.13" stop-opacity="0.69"/>
<stop offset="1" stop-opacity="0.01"/>
</linearGradient>
<linearGradient id="paint8_linear" x1="95.23" y1="181.232" x2="115.89" y2="181.232" gradientUnits="userSpaceOnUse">
<stop offset="0.01" stop-color="white"/>
<stop offset="0.13" stop-color="white" stop-opacity="0.69"/>
<stop offset="1" stop-color="white" stop-opacity="0.01"/>
</linearGradient>
<linearGradient id="paint9_linear" x1="133.329" y1="102.828" x2="156.805" y2="131.056" gradientUnits="userSpaceOnUse">
<stop offset="0.01"/>
<stop offset="0.13" stop-opacity="0.69"/>
<stop offset="1" stop-opacity="0.01"/>
</linearGradient>
<linearGradient id="paint10_linear" x1="144.65" y1="78.63" x2="154.89" y2="78.63" gradientUnits="userSpaceOnUse">
<stop offset="0.01"/>
<stop offset="0.13" stop-opacity="0.69"/>
<stop offset="1" stop-opacity="0.01"/>
</linearGradient>
<linearGradient id="paint11_linear" x1="153.74" y1="60.6651" x2="163.3" y2="60.6651" gradientUnits="userSpaceOnUse">
<stop offset="0.01"/>
<stop offset="0.13" stop-opacity="0.69"/>
<stop offset="1" stop-opacity="0.01"/>
</linearGradient>
</defs>
</svg>
