<svg width="288" height="386" viewBox="0 0 288 386" fill="none" xmlns="http://www.w3.org/2000/svg">
<rect width="288" height="386" fill="#1D2132"/>
<path opacity="0.48" d="M249.633 262.27C234.296 272.872 215.061 278.941 202.981 293.503C201.648 295.093 200.325 296.636 199.008 298.093C190.195 307.794 180.973 314.208 166.157 315.74C155.756 316.8 145.334 314.43 135.155 312.087C125.769 309.93 116.643 306.41 107.532 302.816C91.9198 296.657 76.4029 290.296 59.8662 290.296L30.713 265.393C23.6 253.132 16.5401 239.8 13.4378 225.976C10.3355 212.151 11.977 196.54 21.082 185.637C31.0583 173.726 48.2432 169.204 57.0932 156.482C66.7029 142.658 63.5581 123.723 69.3803 107.922C75.9408 90.1852 93.4337 78.2743 111.745 73.4664C130.056 68.6586 149.36 69.8513 168.261 71.1606C182.896 72.1571 197.823 73.2809 211.422 78.7566C225.669 84.508 237.68 94.7227 248.671 105.457C257.835 114.415 267.2 125.955 264.783 138.529C263.343 146.072 257.797 152.311 256.119 159.806C251.981 178.391 272.055 193.434 276.199 211.998C280.597 231.653 266.207 250.81 249.633 262.27Z" fill="#68E1FD"/>
<path d="M198 298.075C189.233 307.785 180.059 314.206 165.32 315.739C154.973 316.801 144.605 314.429 134.48 312.083C125.142 309.924 116.063 306.401 107 302.803L142.898 143.809L161.019 142L198 298.075Z" fill="url(#paint0_linear)"/>
<ellipse cx="152.539" cy="140.825" rx="4.55682" ry="2.57479" transform="rotate(-3.4 152.539 140.825)" fill="#68E1FD"/>
<ellipse cx="152.539" cy="140.825" rx="4.55682" ry="2.57479" transform="rotate(-3.4 152.539 140.825)" fill="url(#paint1_linear)"/>
<path d="M176 123.913C176.002 125.868 175.764 127.816 175.292 129.713C167.712 130.605 160.084 131.034 152.451 130.997C144.506 131.04 136.567 130.572 128.682 129.595C126.491 120.623 129.672 111.194 136.856 105.367C144.039 99.5399 153.944 98.3538 162.307 102.319C170.67 106.285 175.999 114.695 176 123.929V123.913Z" fill="#68E1FD"/>
<path d="M176 121.976V122.227C175.961 125.391 173.458 128.007 170.221 128.268C164.892 128.739 158.855 129 152.453 129C145.676 129 139.306 128.702 133.758 128.185C130.981 127.939 128.695 125.956 128.123 123.298C128.041 122.919 128 122.531 128 122.143V122.086C128.163 109.311 138.826 99.0301 151.944 99.0001C165.063 98.9701 175.776 109.202 176 121.976Z" fill="url(#paint2_linear)"/>
<path d="M176 122.017V122.267C175.961 125.412 173.459 128.013 170.223 128.273C166.548 128.595 162.536 128.792 158.303 128.922C156.399 128.979 154.457 129 152.467 129C150.67 129 148.899 129 147.167 128.938C142.366 128.829 137.854 128.564 133.756 128.189C130.98 127.945 128.694 125.974 128.123 123.332L128 122.126C128 122.126 134.185 118.806 151.351 119.009H151.721C154.038 119.04 156.549 119.139 159.263 119.326C163.909 119.627 169.16 120.162 175.077 121.025L176 122.017Z" fill="#68E1FD"/>
<path d="M176 122.017V122.267C175.961 125.412 173.459 128.013 170.223 128.273C166.548 128.595 162.536 128.792 158.303 128.922C156.399 128.979 154.457 129 152.467 129C150.67 129 148.899 129 147.167 128.938C142.366 128.829 137.854 128.564 133.756 128.189C130.98 127.945 128.694 125.974 128.123 123.332L128 122.126C128 122.126 134.185 118.806 151.351 119.009H151.721C154.038 119.04 156.549 119.139 159.263 119.326C163.909 119.627 169.16 120.162 175.077 121.025L176 122.017Z" fill="url(#paint3_linear)"/>
<path d="M160.641 119.152C160.309 119.707 159.9 120.213 159.426 120.654C159.326 120.75 159.233 120.853 159.147 120.962C158.921 121.206 158.706 121.454 158.507 121.714C158.415 121.821 158.329 121.932 158.249 122.049C158.16 122.156 158.077 122.267 158.001 122.384C157.894 122.541 157.786 122.692 157.689 122.849C157.673 122.867 157.659 122.887 157.646 122.908C157.598 122.972 157.553 123.039 157.512 123.108C157.044 123.797 156.702 124.564 156.501 125.373C156.468 125.51 156.443 125.649 156.426 125.789C156.426 125.789 156.426 125.827 156.426 125.838C156.406 125.974 156.397 126.111 156.399 126.249C156.394 126.789 156.527 127.321 156.786 127.795C156.885 127.972 156.997 128.141 157.119 128.303C157.238 128.465 157.361 128.622 157.469 128.8C157.619 129.051 157.741 129.317 157.835 129.595C157.898 129.772 157.952 129.952 157.996 130.135C158.055 130.395 158.114 130.676 158.163 130.914C158.16 130.942 158.16 130.971 158.163 131C158.16 130.971 158.16 130.942 158.163 130.914C156.254 130.973 154.307 130.995 152.312 130.995C150.511 130.995 148.737 130.995 147 130.93C147 130.886 147.032 130.849 147.043 130.816C147.399 130.12 147.963 129.553 148.656 129.195C149.226 128.897 149.861 128.746 150.457 128.503C150.592 128.454 150.723 128.396 150.85 128.33C151.105 128.203 151.352 128.062 151.592 127.908C151.859 127.729 152.112 127.53 152.35 127.314C152.425 127.243 152.506 127.168 152.576 127.092C152.646 127.016 152.726 126.935 152.796 126.849C152.936 126.68 153.06 126.499 153.167 126.308C153.218 126.213 153.262 126.116 153.302 126.016C153.525 125.355 153.504 124.636 153.243 123.989C153.194 123.854 153.135 123.719 153.081 123.589C153.028 123.46 152.952 123.33 152.882 123.2C152.812 123.07 152.737 122.946 152.662 122.822C152.587 122.697 152.511 122.578 152.441 122.465L152.259 122.184C151.915 121.643 151.576 121.141 151.232 120.633C151.183 120.551 151.135 120.481 151.076 120.4C151.017 120.319 151.076 120.4 151.076 120.357C150.914 120.114 150.748 119.87 150.586 119.638C150.437 119.43 150.277 119.23 150.108 119.038C149.848 118.764 149.602 118.477 149.371 118.179C149.219 117.964 149.096 117.729 149.006 117.481C148.958 117.356 148.919 117.228 148.887 117.097C148.791 116.7 148.758 116.289 148.791 115.881C148.791 115.676 148.844 115.476 148.877 115.276C148.903 115.173 148.925 115.076 148.957 114.973C149.078 114.573 149.24 114.188 149.441 113.822C149.784 113.211 150.199 112.645 150.678 112.135C151.006 111.756 151.366 111.405 151.753 111.087C151.951 110.93 152.16 110.788 152.377 110.66C152.486 110.593 152.599 110.533 152.716 110.481L153.054 110.335C153.329 110.238 153.592 110.152 153.823 110.092C154.7 109.844 155.641 110.106 156.264 110.773L158.146 112.53C158.765 113.119 159.388 113.708 160.001 114.303C160.071 114.368 160.136 114.433 160.2 114.503C160.412 114.694 160.584 114.926 160.706 115.184C160.74 115.251 160.767 115.322 160.786 115.395C160.845 115.62 160.883 115.849 160.899 116.081C161.034 117.108 161.104 118.211 160.641 119.152Z" fill="#68E1FD"/>
<path d="M160.638 119.193C160.305 119.749 159.896 120.254 159.422 120.695C159.322 120.791 159.228 120.893 159.142 121.002C158.916 121.246 158.701 121.494 158.502 121.753C158.411 121.867 158.324 121.975 158.244 122.088C158.163 122.202 158.072 122.31 157.996 122.423C157.921 122.536 157.781 122.731 157.684 122.887C157.668 122.906 157.654 122.926 157.641 122.947C157.593 123.011 157.548 123.078 157.507 123.147C157.039 123.835 156.696 124.601 156.495 125.41C156.495 125.507 156.458 125.599 156.436 125.691C156.434 125.727 156.434 125.763 156.436 125.799C156.436 125.799 156.436 125.836 156.436 125.847C156.417 125.983 156.408 126.12 156.409 126.258C156.404 126.798 156.537 127.33 156.797 127.803C156.896 127.979 157.007 128.149 157.13 128.31C157.249 128.472 157.378 128.629 157.485 128.807C157.634 129.058 157.754 129.324 157.846 129.601C157.909 129.778 157.963 129.958 158.007 130.141C158.066 130.4 158.12 130.681 158.168 130.919C156.259 130.978 154.311 131 152.315 131C150.513 131 148.738 131 147 130.935C147 130.892 147.032 130.854 147.043 130.822C147.399 130.126 147.964 129.559 148.657 129.201C149.227 128.904 149.862 128.753 150.459 128.51C150.594 128.461 150.725 128.404 150.852 128.337C151.11 128.216 151.358 128.075 151.594 127.916C151.862 127.738 152.116 127.54 152.353 127.322C152.428 127.252 152.509 127.176 152.579 127.1C152.649 127.025 152.729 126.944 152.799 126.857C152.941 126.69 153.065 126.509 153.171 126.317C153.221 126.223 153.266 126.125 153.305 126.026C153.528 125.365 153.507 124.646 153.246 124C153.198 123.865 153.138 123.73 153.085 123.6C153.031 123.471 152.955 123.336 152.886 123.212C152.816 123.087 152.74 122.958 152.665 122.833C152.59 122.709 152.514 122.59 152.444 122.477L152.261 122.196C151.917 121.656 151.578 121.154 151.234 120.646C151.234 120.646 151.132 120.495 151.083 120.414C151.035 120.333 151.083 120.414 151.083 120.371C150.922 120.127 150.755 119.884 150.594 119.652C150.444 119.444 150.285 119.244 150.115 119.053C149.855 118.779 149.609 118.492 149.378 118.194C149.226 117.979 149.103 117.745 149.012 117.497C148.829 116.978 148.756 116.426 148.797 115.877C148.797 115.672 148.851 115.472 148.883 115.272C148.91 115.169 148.931 115.072 148.964 114.969C149.078 114.567 149.24 114.181 149.448 113.819C149.791 113.209 150.206 112.643 150.685 112.134C151.014 111.754 151.373 111.404 151.761 111.086C151.959 110.93 152.168 110.787 152.385 110.659C152.494 110.592 152.607 110.533 152.724 110.481C152.834 110.424 152.947 110.373 153.063 110.33L153.235 110.276C153.445 110.206 153.644 110.141 153.832 110.092C154.709 109.844 155.651 110.106 156.275 110.773L158.158 112.528L160.014 114.294C160.085 114.355 160.152 114.422 160.213 114.494C160.425 114.685 160.596 114.916 160.719 115.175C160.752 115.242 160.779 115.312 160.799 115.385C160.858 115.61 160.896 115.839 160.912 116.071C161.031 117.151 161.1 118.253 160.638 119.193Z" fill="url(#paint4_linear)"/>
<ellipse cx="152.465" cy="116.909" rx="1.72728" ry="2.16171" transform="rotate(-33.14 152.465 116.909)" fill="#68E1FD"/>
<ellipse cx="159.225" cy="116.988" rx="2.16171" ry="1.44028" transform="rotate(-56.86 159.225 116.988)" fill="#68E1FD"/>
<ellipse cx="152.465" cy="116.909" rx="1.72728" ry="2.16171" transform="rotate(-33.14 152.465 116.909)" fill="url(#paint5_linear)"/>
<ellipse cx="159.225" cy="116.988" rx="2.16171" ry="1.44028" transform="rotate(-56.86 159.225 116.988)" fill="url(#paint6_linear)"/>
<path d="M158 122.305L157.844 122.543C157.419 123.177 157.107 123.881 156.922 124.624C156.903 124.711 156.888 124.799 156.878 124.888C156.702 125.817 156.761 126.81 156.327 127.679C156.271 127.822 156.157 127.934 156.015 127.987C155.741 128.062 155.527 127.798 155.415 127.56C155.233 126.974 155.128 126.366 155.102 125.752C154.899 124.307 154.244 122.968 153.234 121.932L153.068 121.669L152 120.035V120C152.746 120.333 154.195 121.286 154.439 121.431C155.059 121.778 155.795 123.169 156.507 123.343C157.01 123.467 157.41 123.02 158 122.305Z" fill="url(#paint7_linear)"/>
<path d="M158.078 121.395C158.114 121.409 158.15 121.409 158.186 121.395C158.216 121.377 158.244 121.35 158.271 121.315C158.486 121.123 158.721 121.054 158.953 121.115C158.965 121.105 158.979 121.105 158.991 121.115C159.014 121.165 158.991 121.245 158.948 121.265C158.727 121.378 158.508 121.518 158.294 121.685C158.235 121.794 158.164 121.87 158.087 121.905C158.026 121.912 157.965 121.888 157.908 121.835C157.756 121.736 157.596 121.702 157.438 121.735C157.313 121.765 157.187 121.765 157.062 121.735C157.033 121.735 156.996 121.685 157 121.615C157.005 121.545 157.033 121.535 157.062 121.525C157.39 121.308 157.739 121.264 158.078 121.395Z" fill="url(#paint8_linear)"/>
<path opacity="0.23" d="M173.997 123.468V123.6C173.955 126.593 171.713 129.064 168.813 129.313C164.046 129.753 158.633 130 152.903 130C146.832 130 141.146 129.725 136.155 129.236C133.266 128.971 131.041 126.501 131.003 123.518V123.468C130.88 115.483 134.951 108.051 141.652 104.022C148.354 99.9927 156.646 99.9927 163.348 104.022C170.049 108.051 174.12 115.483 173.997 123.468Z" fill="url(#paint9_linear)"/>
<path d="M204.876 124.503C204.876 118.703 182.097 114 154.007 114C125.917 114 103.134 118.703 103.134 124.503C103.134 125.043 102.8 128.491 103.187 129.01C106.889 134.048 128.547 135 154.007 135C178.59 135 199.866 133.842 204.611 129.057C205.288 128.372 204.876 125.223 204.876 124.503Z" fill="#68E1FD"/>
<path d="M204.966 124.5C204.966 118.699 182.174 114 154.068 114C125.962 114 103.164 118.699 103.164 124.5C103.164 124.943 102.841 128.309 103.101 128.741C106.218 133.919 128.1 135 154.068 135C179.655 135 201.177 134.14 204.771 129.071C205.12 128.571 204.966 125.02 204.966 124.5Z" fill="url(#paint10_linear)"/>
<path d="M205 128.497C205 131.662 196.688 134.466 183.909 136.189C173.994 137.446 164.005 138.049 154.008 137.996C143.595 138.058 133.19 137.4 122.871 136.027C110.787 134.288 103 131.568 103 128.497C103 125.427 110.702 122.753 122.685 121.004C133.056 119.611 143.514 118.942 153.981 119.004C164.048 118.952 174.106 119.562 184.09 120.832C196.773 122.56 205 125.354 205 128.497Z" fill="#68E1FD"/>
<path fill-rule="evenodd" clip-rule="evenodd" d="M197 128.497C197 130.662 189.665 132.583 178.391 133.763C170.975 134.543 161.856 134.997 151.995 134.997C142.823 135.039 133.656 134.59 124.529 133.652C113.868 132.462 107 130.596 107 128.497C107 126.399 113.792 124.561 124.363 123.37C133.544 122.415 142.767 121.959 151.995 122.003C161.931 122.003 171.115 122.468 178.557 123.254C189.762 124.439 197 126.344 197 128.497Z" stroke="white" stroke-width="1.19"/>
<ellipse cx="121.091" cy="133.128" rx="2.26687" ry="4.0198" transform="rotate(-87.72 121.091 133.128)" fill="#68E1FD"/>
<ellipse cx="121.091" cy="133.128" rx="2.26687" ry="4.0198" transform="rotate(-87.72 121.091 133.128)" fill="url(#paint11_linear)"/>
<ellipse cx="183.15" cy="132.775" rx="2.26687" ry="4.0198" transform="rotate(-87.72 183.15 132.775)" fill="#68E1FD"/>
<ellipse cx="183.15" cy="132.775" rx="2.26687" ry="4.0198" transform="rotate(-87.72 183.15 132.775)" fill="url(#paint12_linear)"/>
<path d="M185 128.142V128.312C185 131.553 183.618 134.607 181.173 137.256C175.816 143.057 165.431 147 153.5 147C141.855 147 131.687 143.244 126.235 137.678C123.53 134.936 122 131.728 122 128.312C122 128.103 122 127.89 122 127.703L124.779 127.358C133.82 126.409 142.904 125.957 151.991 126.003C161.784 126.003 170.825 126.464 178.151 127.243C180.638 127.511 182.941 127.796 185 128.142Z" fill="#68E1FD"/>
<path d="M185 128.142V128.312C185 131.553 183.618 134.607 181.173 137.256C175.816 143.057 165.431 147 153.5 147C141.855 147 131.687 143.244 126.235 137.678C123.53 134.936 122 131.728 122 128.312C122 128.103 122 127.89 122 127.703L124.779 127.358C133.82 126.409 142.904 125.957 151.991 126.003C161.784 126.003 170.825 126.464 178.151 127.243C180.638 127.511 182.941 127.796 185 128.142Z" fill="url(#paint13_linear)"/>
<ellipse cx="124.662" cy="123.916" rx="4.1421" ry="2.34119" transform="rotate(-1.13 124.662 123.916)" fill="#68E1FD"/>
<ellipse cx="124.662" cy="123.916" rx="4.1421" ry="2.34119" transform="rotate(-1.13 124.662 123.916)" fill="url(#paint14_linear)"/>
<ellipse cx="178.29" cy="123.792" rx="2.3412" ry="4.14209" transform="rotate(-87.35 178.29 123.792)" fill="#68E1FD"/>
<ellipse cx="178.29" cy="123.792" rx="2.3412" ry="4.14209" transform="rotate(-87.35 178.29 123.792)" fill="url(#paint15_linear)"/>
<ellipse cx="150.511" cy="122.908" rx="4.1421" ry="2.34119" transform="rotate(-1.13 150.511 122.908)" fill="#68E1FD"/>
<ellipse cx="150.511" cy="122.908" rx="4.1421" ry="2.34119" transform="rotate(-1.13 150.511 122.908)" fill="url(#paint16_linear)"/>
<ellipse cx="108.342" cy="128.617" rx="2.57478" ry="4.55684" transform="rotate(-87.72 108.342 128.617)" fill="#68E1FD"/>
<ellipse cx="108.342" cy="128.617" rx="2.57478" ry="4.55684" transform="rotate(-87.72 108.342 128.617)" fill="url(#paint17_linear)"/>
<ellipse cx="196.51" cy="128.96" rx="2.57478" ry="4.55684" transform="rotate(-87.72 196.51 128.96)" fill="#68E1FD"/>
<ellipse cx="196.51" cy="128.96" rx="2.57478" ry="4.55684" transform="rotate(-87.72 196.51 128.96)" fill="url(#paint18_linear)"/>
<circle opacity="0.36" cx="148.5" cy="207.5" r="8.5" fill="#68E1FD"/>
<path d="M146.641 203.582C146.325 204.117 146.113 204.733 146.022 205.384C145.938 206.044 146.098 206.716 146.46 207.219C146.591 207.372 146.73 207.516 146.874 207.65C147.079 207.868 147.272 208.103 147.451 208.353L148.145 209.282C148.38 209.573 148.586 209.897 148.76 210.245C148.93 210.599 148.993 211.014 148.937 211.418C148.883 211.666 148.79 211.899 148.662 212.104C148.414 212.517 148.096 212.863 147.731 213.118C147.451 213.289 147.179 213.478 146.916 213.685C146.608 213.96 146.38 214.347 146.264 214.789C146.255 214.826 146.255 214.866 146.264 214.903C146.264 214.982 146.366 214.999 146.436 214.999C148.209 215.021 149.971 214.649 151.633 213.9C151.53 213.456 151.359 213.039 151.13 212.67C151.005 212.483 150.851 212.336 150.73 212.149C150.489 211.751 150.377 211.259 150.413 210.766C150.454 210.278 150.563 209.8 150.735 209.356C150.939 208.796 151.187 208.26 151.475 207.758C151.668 207.46 151.825 207.13 151.941 206.777C152.047 206.173 152.01 205.544 151.834 204.964C151.803 204.784 151.748 204.612 151.671 204.454C151.562 204.276 151.426 204.124 151.27 204.007C150.59 203.429 149.907 202.862 149.221 202.307C148.748 201.887 148.105 201.899 147.642 202.335C147.235 202.653 146.893 203.079 146.641 203.582Z" fill="#68E1FD"/>
<path d="M151.925 206.791C151.808 207.142 151.651 207.472 151.459 207.771C151.2 208.225 150.974 208.705 150.783 209.206C150.783 209.257 150.741 209.313 150.718 209.37C150.546 209.815 150.438 210.292 150.397 210.782C150.397 210.833 150.397 210.889 150.397 210.946C150.392 211.377 150.505 211.798 150.718 212.142C150.839 212.335 150.993 212.482 151.123 212.669C151.349 213.04 151.518 213.456 151.622 213.9C149.958 214.646 148.196 215.019 146.422 214.999C146.352 214.999 146.268 214.999 146.249 214.903C146.231 214.807 146.249 214.829 146.249 214.79C146.364 214.345 146.592 213.958 146.902 213.684C147.165 213.477 147.437 213.288 147.717 213.117C148.083 212.862 148.4 212.517 148.649 212.103C148.777 211.898 148.87 211.665 148.924 211.417C148.98 211.012 148.917 210.597 148.747 210.243C148.605 209.949 148.436 209.675 148.244 209.427L148.132 209.279C147.899 208.968 147.666 208.656 147.438 208.35C147.261 208.109 147.073 207.882 146.874 207.669C146.729 207.535 146.591 207.391 146.459 207.239C146.093 206.738 145.933 206.062 146.026 205.402C146.113 204.751 146.323 204.134 146.641 203.599C146.898 203.09 147.247 202.657 147.661 202.335C148.239 201.95 148.677 201.842 149.241 202.307C149.924 202.866 150.608 203.433 151.291 204.007C151.448 204.125 151.584 204.279 151.692 204.461C151.77 204.616 151.825 204.787 151.855 204.965C152.021 205.553 152.045 206.187 151.925 206.791Z" fill="url(#paint19_linear)"/>
<ellipse cx="148.076" cy="206.306" rx="0.967053" ry="1.21126" transform="rotate(-41.84 148.076 206.306)" fill="#68E1FD"/>
<ellipse cx="151.824" cy="205.785" rx="1.21074" ry="0.807998" transform="rotate(-65.56 151.824 205.785)" fill="#68E1FD"/>
<ellipse cx="148.076" cy="206.306" rx="0.967053" ry="1.21126" transform="rotate(-41.84 148.076 206.306)" fill="url(#paint20_linear)"/>
<ellipse cx="151.824" cy="205.785" rx="1.21074" ry="0.807998" transform="rotate(-65.56 151.824 205.785)" fill="url(#paint21_linear)"/>
<path d="M151 208.742C151 208.786 150.962 208.834 150.942 208.883C150.788 209.264 150.691 209.672 150.654 210.091C150.654 210.134 150.654 210.183 150.654 210.232C150.698 210.751 150.677 211.276 150.592 211.789C150.575 211.871 150.53 211.941 150.467 211.983C150.346 212.046 150.213 211.925 150.154 211.803C150.024 211.497 149.931 211.17 149.879 210.833C149.678 210.069 149.272 209.399 148.721 208.922L148.621 208.796C148.413 208.529 148.204 208.262 148 208C148.375 208.121 149.129 208.514 149.25 208.572C149.567 208.708 150.017 209.397 150.367 209.431C150.617 209.465 150.775 209.193 151 208.742Z" fill="url(#paint22_linear)"/>
<path d="M150.553 208.44C150.572 208.445 150.592 208.445 150.611 208.44L150.65 208.38C150.756 208.237 150.877 208.157 151 208.15C151 208.15 151 208.23 151 208.25C150.887 208.348 150.778 208.465 150.673 208.6C150.645 208.668 150.612 208.723 150.575 208.76C150.543 208.775 150.51 208.775 150.478 208.76C150.396 208.725 150.312 208.725 150.23 208.76C150.167 208.805 150.102 208.835 150.035 208.85H150C150 208.815 150.011 208.785 150.027 208.78C150.188 208.574 150.368 208.457 150.553 208.44Z" fill="url(#paint23_linear)"/>
<path d="M153.898 215.012C153.819 214.154 153.906 213.288 154.152 212.465C154.36 211.927 154.713 211.464 154.946 210.936C154.997 210.879 155.013 210.797 154.988 210.724C154.963 210.651 154.901 210.598 154.827 210.586C151.797 209.411 148.39 210.029 145.924 212.201C145.605 212.475 145.327 212.796 145.099 213.154C145.031 213.251 144.996 213.369 145 213.488C145 213.65 145.161 213.768 145.296 213.859C145.869 214.251 146.461 214.611 147.072 214.936C149.247 218.484 149.807 222.828 150.705 226.936C150.735 227.25 150.873 227.543 151.095 227.76C151.265 227.876 151.462 227.943 151.666 227.953C152.009 228.016 152.36 228.016 152.704 227.953C153.836 227.684 154.521 226.419 154.604 225.213C154.687 224.007 153.919 216.304 153.898 215.012Z" fill="#68E1FD"/>
<path d="M154.969 210.921C154.74 211.46 154.381 211.917 154.173 212.45C153.927 213.272 153.84 214.138 153.919 214.995C153.919 216.287 154.714 223.993 154.631 225.22C154.581 226.086 154.209 226.898 153.591 227.485C153.343 227.715 153.043 227.876 152.718 227.953C152.374 228.016 152.023 228.016 151.679 227.953C151.475 227.942 151.278 227.875 151.107 227.76C150.886 227.542 150.746 227.25 150.712 226.936C149.834 222.83 149.272 218.488 147.074 214.941C146.461 214.617 145.866 214.258 145.291 213.865C145.161 213.774 145.016 213.661 145 213.499C144.996 213.38 145.031 213.262 145.099 213.165C145.328 212.808 145.606 212.487 145.925 212.213C146.864 211.372 147.967 210.75 149.158 210.389C151.02 209.811 153.013 209.879 154.833 210.582C154.891 210.599 154.942 210.635 154.979 210.685C155.01 210.761 155.006 210.848 154.969 210.921Z" fill="url(#paint24_linear)"/>
<path d="M152.04 217.308C152.251 217.831 152.674 218.297 153.255 218.648C154.353 219.42 155.541 220.122 156.807 220.748C156.976 220.896 157.224 220.988 157.491 220.999C157.757 221.01 158.018 220.94 158.21 220.806C159.618 220.033 160.863 219.118 161.908 218.089C162.03 217.951 162.184 217.828 162.364 217.728C162.667 217.613 162.992 217.532 163.328 217.488C163.655 217.417 163.988 217.245 164 216.997C164 216.673 163.474 216.497 163.03 216.442C162.577 216.354 162.096 216.382 161.669 216.522C161.316 216.712 161.005 216.938 160.746 217.194C160.274 217.505 159.725 217.749 159.127 217.913C158.315 218.177 158.058 218.979 157.211 218.778C156.042 218.509 154.932 217.06 154.178 216.463C153.816 216.178 153.401 215.888 152.858 216.043C152.216 216.281 151.879 216.801 152.04 217.308Z" fill="#68E1FD"/>
<path d="M153.955 209.866C153.739 210.36 153.413 210.781 153.222 211.27C153.095 211.619 153.019 211.985 152.996 212.357C152.515 212.323 152.031 212.358 151.559 212.461C150.73 212.55 149.906 212.649 149.081 212.743C148.633 212.778 148.189 212.864 147.759 213C147.244 212.72 146.744 212.413 146.259 212.081C146.129 212.006 146.035 211.879 146 211.73C145.997 211.621 146.03 211.514 146.096 211.428C146.303 211.097 146.558 210.802 146.853 210.553C147.386 210.074 147.979 209.672 148.617 209.357C150.331 208.826 152.167 208.889 153.845 209.535C153.9 209.549 153.949 209.582 153.983 209.629C154.013 209.708 154.002 209.797 153.955 209.866Z" fill="#68E1FD"/>
<path d="M153.491 214C153.491 214.294 153.491 214.588 153.491 214.876C153.53 217.369 154.085 218.728 154.283 221.21C154.36 222.233 154.101 223.487 155.096 224.043C156.091 224.599 157.63 225.906 158.79 226.347C159.646 226.623 160.434 227.06 161.11 227.632C161.794 228.368 162.291 229.244 162.561 230.193C163.086 231.712 163.454 233.276 163.66 234.863C163.787 235.829 163.913 236.91 164.71 237.513C165.26 237.907 166.096 238.211 165.991 238.841C165.054 239.16 164.041 239.214 163.072 238.998C162.794 238.95 162.534 238.836 162.314 238.667C162.017 238.34 161.841 237.929 161.813 237.497C161.544 236.076 161.12 234.685 160.549 233.347C160.315 232.743 159.993 232.174 159.593 231.657C158.493 230.303 156.63 229.752 154.899 229.275C153.634 228.928 153.486 229.38 153.843 230.487C154.134 231.389 154.635 232.213 154.888 233.111C155.338 234.685 155.025 236.39 154.888 238.038C154.75 239.685 154.92 241.49 156.08 242.718C156.603 243.274 157.361 243.768 157.339 244.539C157.351 244.692 157.283 244.842 157.158 244.938C157.012 245.005 156.846 245.018 156.69 244.975C155.757 244.807 154.857 244.504 154.019 244.077C153.226 243.734 152.579 243.144 152.183 242.403C152.015 241.985 151.933 241.54 151.941 241.092C151.903 239.35 152.491 237.592 152.112 235.886C151.782 234.312 150.704 232.99 149.913 231.568C149.108 230.293 148.908 228.752 149.363 227.328C149.913 225.833 149.699 224.547 149.589 222.994C149.407 220.286 149.446 217.358 148 214.924L152.92 214.163C153.121 214.153 153.317 214.097 153.491 214Z" fill="#68E1FD"/>
<path opacity="0.45" d="M145.132 203.278C145.085 203.993 145.132 204.783 144.733 205.347C144.269 205.992 143.406 206.057 142.663 205.968C142.575 205.96 142.49 205.934 142.41 205.893C142.31 205.824 142.231 205.722 142.187 205.601C141.757 204.637 142.14 203.485 142.616 202.549C142.912 201.95 143.273 201.391 143.69 200.885C144.445 199.987 145.836 198.929 147 199.004C146.914 199.62 146.115 200.25 145.824 200.814C145.431 201.57 145.194 202.411 145.132 203.278Z" fill="white"/>
<path opacity="0.45" d="M143.457 207.371C143.057 207.75 142.901 208.361 143.063 208.919C143.142 209.127 143.247 209.321 143.374 209.498C143.655 209.912 143.956 210.31 144.275 210.688C144.379 210.839 144.525 210.948 144.689 210.999C144.922 211.015 145.144 210.885 145.262 210.66C145.395 210.457 145.474 210.197 145.615 210.012C145.724 209.881 145.823 209.742 145.914 209.595C145.988 209.406 146.015 209.198 145.992 208.993C145.897 207.663 144.557 206.334 143.457 207.371Z" fill="white"/>
<path d="M146.019 219.364C145.866 220.897 146.669 222.386 147.726 223.274C148.829 224.074 150.043 224.634 151.311 224.928C151.494 225.006 151.692 225.021 151.883 224.972C151.994 224.925 152.097 224.854 152.187 224.763C152.444 224.561 152.667 224.305 152.847 224.007C153.027 223.702 153.05 223.302 152.907 222.97C152.675 222.644 152.342 222.445 151.984 222.419C151.254 222.247 150.536 222.004 149.839 221.691C149.229 221.317 148.695 220.788 148.275 220.141C147.73 219.215 149.585 218.31 149.848 217.224C150.143 216.044 149.613 214.604 148.69 215.101C147.276 215.923 146.281 217.511 146.019 219.364Z" fill="#68E1FD"/>
<circle opacity="0.36" cx="149.5" cy="206.5" r="8.5" fill="url(#paint25_linear)"/>
<path d="M146.642 203.556C146.326 204.093 146.115 204.712 146.025 205.364C145.934 206.023 146.093 206.697 146.457 207.196C146.582 207.355 146.735 207.485 146.87 207.627C147.073 207.847 147.265 208.082 147.445 208.33L148.16 209.283C148.395 209.573 148.6 209.897 148.772 210.247C148.942 210.603 149.004 211.02 148.948 211.427C148.895 211.673 148.802 211.905 148.675 212.107C148.428 212.523 148.112 212.869 147.747 213.122C147.468 213.293 147.197 213.483 146.935 213.689C146.629 213.963 146.402 214.348 146.285 214.789C146.276 214.828 146.276 214.869 146.285 214.908C146.308 214.988 146.392 214.999 146.457 214.999C148.223 215.021 149.978 214.648 151.635 213.899C151.53 213.455 151.361 213.038 151.134 212.668C151.008 212.487 150.855 212.334 150.735 212.147C150.495 211.748 150.383 211.256 150.419 210.763C150.461 210.276 150.569 209.8 150.739 209.357C150.943 208.794 151.19 208.257 151.477 207.752C151.671 207.455 151.827 207.124 151.941 206.771C152.047 206.168 152.01 205.54 151.834 204.962C151.803 204.783 151.75 204.611 151.676 204.451C151.566 204.272 151.429 204.12 151.273 204.004C150.595 203.436 149.918 202.869 149.231 202.302C148.76 201.887 148.122 201.901 147.663 202.336C147.249 202.639 146.9 203.057 146.642 203.556Z" fill="url(#paint26_linear)"/>
<path d="M151.931 206.767C151.816 207.121 151.659 207.453 151.465 207.751C151.205 208.206 150.979 208.687 150.789 209.19C150.765 209.247 150.747 209.304 150.728 209.355C150.554 209.801 150.443 210.28 150.402 210.772V210.959C150.398 211.392 150.511 211.813 150.723 212.16C150.845 212.347 150.998 212.501 151.129 212.683C151.354 213.055 151.523 213.473 151.628 213.917C149.958 214.663 148.19 215.03 146.411 214.998C146.346 214.998 146.258 214.998 146.239 214.907C146.23 214.868 146.23 214.827 146.239 214.788C146.356 214.345 146.584 213.959 146.892 213.684C147.143 213.457 147.437 213.314 147.707 213.115C148.074 212.861 148.392 212.514 148.64 212.097C148.767 211.894 148.86 211.662 148.915 211.414C148.971 211.007 148.908 210.588 148.738 210.231C148.594 209.937 148.426 209.662 148.234 209.412C148.2 209.38 148.167 209.346 148.136 209.31L147.437 208.377C147.261 208.135 147.074 207.905 146.878 207.688C146.73 207.555 146.59 207.411 146.458 207.256C146.094 206.755 145.935 206.08 146.024 205.419C146.114 204.765 146.324 204.144 146.64 203.604C146.896 203.093 147.245 202.661 147.661 202.341C148.243 201.949 148.677 201.841 149.241 202.307C149.931 202.876 150.611 203.445 151.292 204.014C151.594 204.204 151.804 204.559 151.856 204.969C152.018 205.548 152.044 206.171 151.931 206.767Z" fill="url(#paint27_linear)"/>
<ellipse cx="148.515" cy="205.726" rx="0.967053" ry="1.21126" transform="rotate(-41.84 148.515 205.726)" fill="url(#paint28_linear)"/>
<ellipse cx="152.266" cy="205.203" rx="1.21074" ry="0.807998" transform="rotate(-65.56 152.266 205.203)" fill="url(#paint29_linear)"/>
<ellipse cx="148.515" cy="205.726" rx="0.967053" ry="1.21126" transform="rotate(-41.84 148.515 205.726)" fill="url(#paint30_linear)"/>
<ellipse cx="152.266" cy="205.203" rx="1.21074" ry="0.807998" transform="rotate(-65.56 152.266 205.203)" fill="url(#paint31_linear)"/>
<path d="M151 207.7C150.979 207.749 150.962 207.797 150.946 207.842C150.789 208.225 150.69 208.637 150.653 209.06V209.221C150.696 209.745 150.676 210.274 150.594 210.792C150.575 210.872 150.53 210.941 150.469 210.983C150.343 211.046 150.209 210.924 150.151 210.802C150.022 210.491 149.929 210.162 149.874 209.823C149.672 209.051 149.265 208.374 148.711 207.89C148.682 207.863 148.654 207.833 148.628 207.802L148 207C148.377 207.117 149.134 207.489 149.255 207.572C149.573 207.709 150.025 208.404 150.377 208.443C150.615 208.434 150.774 208.155 151 207.7Z" fill="url(#paint32_linear)"/>
<path d="M150.531 207.445C150.55 207.46 150.57 207.46 150.588 207.445L150.628 207.395C150.733 207.244 150.854 207.161 150.978 207.155H151C151 207.155 151 207.225 151 207.245C150.898 207.395 150.765 207.425 150.673 207.605C150.58 207.785 150.615 207.735 150.575 207.755C150.543 207.77 150.51 207.77 150.478 207.755C150.396 207.72 150.312 207.72 150.23 207.755C150.168 207.81 150.102 207.84 150.035 207.845C150.035 207.845 150 207.845 150 207.795C150 207.745 150 207.745 150.031 207.735C150.186 207.553 150.357 207.454 150.531 207.445Z" fill="url(#paint33_linear)"/>
<path d="M151.408 213.315C151.552 213.375 151.626 213.536 151.578 213.685L151.408 213.315Z" fill="url(#paint34_linear)"/>
<path d="M153.898 214.009C153.822 213.153 153.909 212.289 154.152 211.467C154.36 210.929 154.718 210.46 154.946 209.933C154.997 209.875 155.013 209.794 154.988 209.72C154.963 209.647 154.901 209.594 154.827 209.583C151.796 208.413 148.393 209.031 145.924 211.198C145.606 211.473 145.329 211.796 145.104 212.157C145.033 212.25 144.996 212.366 145 212.485C145 212.652 145.161 212.765 145.296 212.857C145.868 213.251 146.46 213.61 147.072 213.934C149.247 217.483 149.807 221.828 150.705 225.932C150.735 226.248 150.873 226.542 151.095 226.761C151.268 226.875 151.466 226.941 151.671 226.955C152.015 227.015 152.365 227.015 152.709 226.955C153.841 226.68 154.526 225.415 154.609 224.214C154.692 223.013 153.919 215.302 153.898 214.009Z" fill="url(#paint35_linear)"/>
<path d="M154.97 209.931C154.741 210.469 154.383 210.921 154.175 211.458C153.931 212.279 153.845 213.142 153.921 213.997C153.921 215.288 154.715 222.996 154.632 224.217C154.584 225.083 154.211 225.895 153.593 226.482C153.344 226.714 153.042 226.876 152.715 226.955C152.371 227.015 152.02 227.015 151.676 226.955C151.471 226.944 151.272 226.877 151.099 226.761C150.878 226.542 150.74 226.248 150.71 225.933C149.827 221.829 149.266 217.493 147.073 213.943C146.461 213.62 145.868 213.261 145.296 212.868C145.161 212.776 145.016 212.663 145 212.497C144.998 212.376 145.034 212.259 145.104 212.163C145.33 211.805 145.607 211.484 145.925 211.211C146.863 210.371 147.965 209.751 149.156 209.393C151.016 208.811 153.01 208.877 154.83 209.581C154.888 209.597 154.939 209.633 154.975 209.683C155.01 209.762 155.008 209.853 154.97 209.931Z" fill="url(#paint36_linear)"/>
<path d="M152.037 216.307C152.245 216.835 152.669 217.305 153.253 217.657C154.349 218.434 155.539 219.14 156.808 219.766C157.076 219.941 157.437 220.024 157.796 219.994C157.947 219.958 158.086 219.9 158.206 219.825C159.617 219.05 160.864 218.131 161.907 217.096C162.03 216.958 162.184 216.835 162.363 216.733C162.666 216.62 162.991 216.54 163.328 216.497C163.655 216.421 163.988 216.248 164 216.003C164 215.674 163.474 215.501 163.029 215.442C162.576 215.355 162.095 215.384 161.667 215.522C161.314 215.714 161.002 215.943 160.743 216.201C160.271 216.512 159.722 216.756 159.124 216.919C158.311 217.189 158.059 217.99 157.206 217.792C156.036 217.522 154.925 216.062 154.171 215.467C153.809 215.176 153.394 214.885 152.85 215.046C152.216 215.286 151.884 215.802 152.037 216.307Z" fill="url(#paint37_linear)"/>
<path d="M154.966 209.862C154.75 210.358 154.425 210.774 154.233 211.27C154.106 211.62 154.03 211.987 154.008 212.361C153.527 212.325 153.043 212.358 152.571 212.46L150.094 212.742C149.646 212.78 149.203 212.866 148.772 213C148.258 212.72 147.758 212.414 147.273 212.083C147.141 212.012 147.042 211.889 147 211.741C146.998 211.63 147.032 211.522 147.096 211.434C147.306 211.105 147.561 210.81 147.853 210.556C148.384 210.076 148.978 209.674 149.615 209.362C151.33 208.826 153.168 208.887 154.846 209.535C154.899 209.551 154.946 209.584 154.98 209.629C155.011 209.705 155.006 209.791 154.966 209.862Z" fill="url(#paint38_linear)"/>
<path d="M154.499 214C154.499 214.289 154.499 214.588 154.499 214.877C154.543 217.367 155.098 218.727 155.29 221.217C155.372 222.236 155.109 223.497 156.103 224.048C157.097 224.6 158.636 225.918 159.795 226.354C160.649 226.631 161.438 227.068 162.113 227.641C162.798 228.378 163.294 229.257 163.563 230.21C164.091 231.729 164.459 233.295 164.662 234.884C164.788 235.846 164.915 236.933 165.711 237.511C166.26 237.91 167.095 238.209 166.991 238.845C166.054 239.162 165.042 239.215 164.074 238.997C163.795 238.953 163.534 238.839 163.316 238.666C163.021 238.338 162.845 237.927 162.816 237.495C162.54 236.069 162.113 234.673 161.542 233.33C161.304 232.728 160.98 232.161 160.58 231.643C159.482 230.288 157.619 229.737 155.889 229.259C154.625 228.907 154.477 229.364 154.834 230.472C155.125 231.37 155.625 232.195 155.883 233.098C156.328 234.674 156.015 236.381 155.883 238.031C155.751 239.68 155.922 241.492 157.075 242.721C157.597 243.278 158.355 243.772 158.339 244.539C158.346 244.692 158.277 244.84 158.152 244.938C158.007 245.005 157.84 245.018 157.685 244.975C156.753 244.805 155.853 244.503 155.015 244.076C154.223 243.732 153.576 243.142 153.181 242.401C153.015 241.983 152.933 241.539 152.939 241.093C152.9 239.349 153.488 237.589 153.109 235.877C152.78 234.301 151.708 232.983 150.912 231.554C150.107 230.278 149.908 228.735 150.362 227.31C150.912 225.813 150.697 224.526 150.593 222.971C150.406 220.261 150.445 217.33 149 214.898L153.917 214.131C154.119 214.131 154.318 214.086 154.499 214Z" fill="url(#paint39_linear)"/>
<path opacity="0.45" d="M145.132 203.283C145.085 203.998 145.132 204.788 144.733 205.352C144.273 205.992 143.406 206.057 142.663 205.968C142.575 205.964 142.488 205.94 142.409 205.897C142.31 205.827 142.232 205.726 142.186 205.606C141.757 204.642 142.143 203.485 142.615 202.554C142.912 201.953 143.272 201.393 143.689 200.884C144.449 199.986 145.836 198.933 147 199.003C146.914 199.619 146.115 200.245 145.823 200.809C145.43 201.568 145.194 202.413 145.132 203.283Z" fill="url(#paint40_linear)"/>
<path opacity="0.45" d="M143.474 206.374C143.066 206.745 142.901 207.355 143.059 207.916C143.138 208.124 143.243 208.319 143.371 208.494C143.652 208.91 143.953 209.309 144.272 209.689C144.379 209.837 144.524 209.946 144.688 209.999C144.92 210.012 145.14 209.882 145.261 209.661C145.394 209.453 145.473 209.198 145.614 209.008C145.725 208.88 145.825 208.741 145.913 208.592C145.988 208.403 146.015 208.195 145.992 207.99C145.913 206.661 144.571 205.332 143.474 206.374Z" fill="url(#paint41_linear)"/>
<path d="M146.019 218.352C145.866 219.883 146.669 221.37 147.726 222.257C148.83 223.059 150.046 223.619 151.316 223.909C151.609 224.075 151.957 224.01 152.193 223.744C152.448 223.545 152.671 223.291 152.848 222.995C153.027 222.689 153.05 222.291 152.908 221.959C152.677 221.632 152.343 221.433 151.985 221.409C151.255 221.234 150.537 220.991 149.839 220.682C149.226 220.31 148.69 219.78 148.27 219.129C147.726 218.209 149.581 217.306 149.848 216.221C150.139 215.037 149.609 213.605 148.686 214.101C147.273 214.92 146.28 216.504 146.019 218.352Z" fill="url(#paint42_linear)"/>
<defs>
<linearGradient id="paint0_linear" x1="216.864" y1="326.147" x2="201.778" y2="82.6044" gradientUnits="userSpaceOnUse">
<stop stop-color="white" stop-opacity="0.01"/>
<stop offset="0.95" stop-color="white"/>
</linearGradient>
<linearGradient id="paint1_linear" x1="144.665" y1="139.015" x2="145.023" y2="147.631" gradientUnits="userSpaceOnUse">
<stop stop-color="#010101" stop-opacity="0.01"/>
<stop offset="0.95" stop-color="#010101"/>
</linearGradient>
<linearGradient id="paint2_linear" x1="176.691" y1="89.0885" x2="133.43" y2="118.696" gradientUnits="userSpaceOnUse">
<stop stop-color="white" stop-opacity="0.01"/>
<stop offset="0.95" stop-color="white"/>
</linearGradient>
<linearGradient id="paint3_linear" x1="62.8264" y1="113.573" x2="62.815" y2="150.758" gradientUnits="userSpaceOnUse">
<stop stop-color="#010101" stop-opacity="0.01"/>
<stop offset="0.95" stop-color="#010101"/>
</linearGradient>
<linearGradient id="paint4_linear" x1="159.066" y1="101.928" x2="135.365" y2="104.245" gradientUnits="userSpaceOnUse">
<stop stop-color="#010101" stop-opacity="0.01"/>
<stop offset="0.95" stop-color="#010101"/>
</linearGradient>
<linearGradient id="paint5_linear" x1="155.156" y1="114.399" x2="152.043" y2="114.794" gradientUnits="userSpaceOnUse">
<stop stop-color="#010101" stop-opacity="0.01"/>
<stop offset="0.95" stop-color="#010101"/>
</linearGradient>
<linearGradient id="paint6_linear" x1="161.122" y1="115.742" x2="158.984" y2="116.717" gradientUnits="userSpaceOnUse">
<stop stop-color="#010101" stop-opacity="0.01"/>
<stop offset="0.95" stop-color="#010101"/>
</linearGradient>
<linearGradient id="paint7_linear" x1="163.447" y1="129.844" x2="166.248" y2="106.07" gradientUnits="userSpaceOnUse">
<stop stop-color="#010101" stop-opacity="0.01"/>
<stop offset="0.95" stop-color="#010101"/>
</linearGradient>
<linearGradient id="paint8_linear" x1="157.005" y1="122.014" x2="159" y2="122.014" gradientUnits="userSpaceOnUse">
<stop stop-color="#010101" stop-opacity="0.01"/>
<stop offset="0.95" stop-color="#010101"/>
</linearGradient>
<linearGradient id="paint9_linear" x1="174.827" y1="91.9015" x2="134.021" y2="117.24" gradientUnits="userSpaceOnUse">
<stop stop-color="white" stop-opacity="0.01"/>
<stop offset="0.95" stop-color="white"/>
</linearGradient>
<linearGradient id="paint10_linear" x1="9.79234" y1="112.62" x2="9.82173" y2="171.93" gradientUnits="userSpaceOnUse">
<stop stop-color="#010101" stop-opacity="0.01"/>
<stop offset="0.95" stop-color="#010101"/>
</linearGradient>
<linearGradient id="paint11_linear" x1="122.691" y1="126.171" x2="115.095" y2="126.485" gradientUnits="userSpaceOnUse">
<stop stop-color="#010101" stop-opacity="0.01"/>
<stop offset="0.95" stop-color="#010101"/>
</linearGradient>
<linearGradient id="paint12_linear" x1="184.746" y1="125.814" x2="177.146" y2="126.129" gradientUnits="userSpaceOnUse">
<stop stop-color="#010101" stop-opacity="0.01"/>
<stop offset="0.95" stop-color="#010101"/>
</linearGradient>
<linearGradient id="paint13_linear" x1="204.237" y1="147.294" x2="206.205" y2="108.13" gradientUnits="userSpaceOnUse">
<stop stop-color="#010101" stop-opacity="0.01"/>
<stop offset="0.95" stop-color="#010101"/>
</linearGradient>
<linearGradient id="paint14_linear" x1="117.502" y1="122.266" x2="117.828" y2="130.101" gradientUnits="userSpaceOnUse">
<stop stop-color="#010101" stop-opacity="0.01"/>
<stop offset="0.95" stop-color="#010101"/>
</linearGradient>
<linearGradient id="paint15_linear" x1="179.937" y1="116.63" x2="172.102" y2="116.955" gradientUnits="userSpaceOnUse">
<stop stop-color="#010101" stop-opacity="0.01"/>
<stop offset="0.95" stop-color="#010101"/>
</linearGradient>
<linearGradient id="paint16_linear" x1="143.357" y1="121.262" x2="143.682" y2="129.097" gradientUnits="userSpaceOnUse">
<stop stop-color="#010101" stop-opacity="0.01"/>
<stop offset="0.95" stop-color="#010101"/>
</linearGradient>
<linearGradient id="paint17_linear" x1="110.163" y1="120.742" x2="101.546" y2="121.098" gradientUnits="userSpaceOnUse">
<stop stop-color="#010101" stop-opacity="0.01"/>
<stop offset="0.95" stop-color="#010101"/>
</linearGradient>
<linearGradient id="paint18_linear" x1="198.319" y1="121.09" x2="189.702" y2="121.448" gradientUnits="userSpaceOnUse">
<stop stop-color="#010101" stop-opacity="0.01"/>
<stop offset="0.95" stop-color="#010101"/>
</linearGradient>
<linearGradient id="paint19_linear" x1="150.849" y1="195.183" x2="139.563" y2="196.309" gradientUnits="userSpaceOnUse">
<stop stop-color="#010101" stop-opacity="0.01"/>
<stop offset="0.95" stop-color="#010101"/>
</linearGradient>
<linearGradient id="paint20_linear" x1="149.576" y1="204.894" x2="147.829" y2="205.118" gradientUnits="userSpaceOnUse">
<stop stop-color="#010101" stop-opacity="0.01"/>
<stop offset="0.95" stop-color="#010101"/>
</linearGradient>
<linearGradient id="paint21_linear" x1="152.893" y1="205.088" x2="151.694" y2="205.636" gradientUnits="userSpaceOnUse">
<stop stop-color="#010101" stop-opacity="0.01"/>
<stop offset="0.95" stop-color="#010101"/>
</linearGradient>
<linearGradient id="paint22_linear" x1="154.703" y1="211.933" x2="153.028" y2="198.94" gradientUnits="userSpaceOnUse">
<stop stop-color="#010101" stop-opacity="0.01"/>
<stop offset="0.95" stop-color="#010101"/>
</linearGradient>
<linearGradient id="paint23_linear" x1="150.18" y1="209.248" x2="151.221" y2="208.888" gradientUnits="userSpaceOnUse">
<stop stop-color="#010101" stop-opacity="0.01"/>
<stop offset="0.95" stop-color="#010101"/>
</linearGradient>
<linearGradient id="paint24_linear" x1="146.405" y1="229.066" x2="156.636" y2="228.565" gradientUnits="userSpaceOnUse">
<stop stop-color="#010101" stop-opacity="0.01"/>
<stop offset="0.95" stop-color="#010101"/>
</linearGradient>
<linearGradient id="paint25_linear" x1="69.7624" y1="189.419" x2="77.6209" y2="346.805" gradientUnits="userSpaceOnUse">
<stop stop-color="#010101" stop-opacity="0.01"/>
<stop offset="0.95" stop-color="#010101"/>
</linearGradient>
<linearGradient id="paint26_linear" x1="111.122" y1="192.131" x2="141.013" y2="347.878" gradientUnits="userSpaceOnUse">
<stop stop-color="#010101" stop-opacity="0.01"/>
<stop offset="0.95" stop-color="#010101"/>
</linearGradient>
<linearGradient id="paint27_linear" x1="115.479" y1="160.71" x2="41.9617" y2="288.861" gradientUnits="userSpaceOnUse">
<stop stop-color="#010101" stop-opacity="0.01"/>
<stop offset="0.95" stop-color="#010101"/>
</linearGradient>
<linearGradient id="paint28_linear" x1="114.456" y1="130.97" x2="-0.696635" y2="221.656" gradientUnits="userSpaceOnUse">
<stop stop-color="#010101" stop-opacity="0.01"/>
<stop offset="0.95" stop-color="#010101"/>
</linearGradient>
<linearGradient id="paint29_linear" x1="118.034" y1="151.644" x2="26.9921" y2="257.222" gradientUnits="userSpaceOnUse">
<stop stop-color="#010101" stop-opacity="0.01"/>
<stop offset="0.95" stop-color="#010101"/>
</linearGradient>
<linearGradient id="paint30_linear" x1="128.315" y1="118.672" x2="-2.35871" y2="187.58" gradientUnits="userSpaceOnUse">
<stop stop-color="#010101" stop-opacity="0.01"/>
<stop offset="0.95" stop-color="#010101"/>
</linearGradient>
<linearGradient id="paint31_linear" x1="142.866" y1="150.829" x2="21.8527" y2="228.619" gradientUnits="userSpaceOnUse">
<stop stop-color="#010101" stop-opacity="0.01"/>
<stop offset="0.95" stop-color="#010101"/>
</linearGradient>
<linearGradient id="paint32_linear" x1="101.107" y1="172.512" x2="70.7332" y2="306.485" gradientUnits="userSpaceOnUse">
<stop stop-color="#010101" stop-opacity="0.01"/>
<stop offset="0.95" stop-color="#010101"/>
</linearGradient>
<linearGradient id="paint33_linear" x1="13.7228" y1="150.778" x2="-4.73555" y2="430.588" gradientUnits="userSpaceOnUse">
<stop stop-color="#010101" stop-opacity="0.01"/>
<stop offset="0.95" stop-color="#010101"/>
</linearGradient>
<linearGradient id="paint34_linear" x1="7.63561" y1="168.538" x2="21.744" y2="451.091" gradientUnits="userSpaceOnUse">
<stop stop-color="#010101" stop-opacity="0.01"/>
<stop offset="0.95" stop-color="#010101"/>
</linearGradient>
<linearGradient id="paint35_linear" x1="106.458" y1="191.263" x2="129.813" y2="340.916" gradientUnits="userSpaceOnUse">
<stop stop-color="#010101" stop-opacity="0.01"/>
<stop offset="0.95" stop-color="#010101"/>
</linearGradient>
<linearGradient id="paint36_linear" x1="113.257" y1="162.471" x2="51.7039" y2="294.368" gradientUnits="userSpaceOnUse">
<stop stop-color="#010101" stop-opacity="0.01"/>
<stop offset="0.95" stop-color="#010101"/>
</linearGradient>
<linearGradient id="paint37_linear" x1="13.3355" y1="194.036" x2="14.7696" y2="313.306" gradientUnits="userSpaceOnUse">
<stop stop-color="#010101" stop-opacity="0.01"/>
<stop offset="0.95" stop-color="#010101"/>
</linearGradient>
<linearGradient id="paint38_linear" x1="9.79155" y1="188.257" x2="11.4818" y2="328.371" gradientUnits="userSpaceOnUse">
<stop stop-color="#010101" stop-opacity="0.01"/>
<stop offset="0.95" stop-color="#010101"/>
</linearGradient>
<linearGradient id="paint39_linear" x1="112.815" y1="192.622" x2="135.461" y2="338.726" gradientUnits="userSpaceOnUse">
<stop stop-color="#010101" stop-opacity="0.01"/>
<stop offset="0.95" stop-color="#010101"/>
</linearGradient>
<linearGradient id="paint40_linear" x1="96.4112" y1="192.088" x2="108.24" y2="324.447" gradientUnits="userSpaceOnUse">
<stop stop-color="#010101" stop-opacity="0.01"/>
<stop offset="0.95" stop-color="#010101"/>
</linearGradient>
<linearGradient id="paint41_linear" x1="94.5589" y1="191.785" x2="104.958" y2="322.244" gradientUnits="userSpaceOnUse">
<stop stop-color="#010101" stop-opacity="0.01"/>
<stop offset="0.95" stop-color="#010101"/>
</linearGradient>
<linearGradient id="paint42_linear" x1="93.5173" y1="188.743" x2="106.754" y2="343.773" gradientUnits="userSpaceOnUse">
<stop stop-color="#010101" stop-opacity="0.01"/>
<stop offset="0.95" stop-color="#010101"/>
</linearGradient>
</defs>
</svg>
