<svg width="288" height="386" viewBox="0 0 288 386" fill="none" xmlns="http://www.w3.org/2000/svg">
<rect width="288" height="386" fill="#78386B"/>
<path opacity="0.24" d="M232.479 273.939C224.457 277.013 215.979 278.893 208.114 282.343C195.276 288.007 184.63 297.631 172.484 304.647C167.245 307.682 161.708 310.173 155.96 312.081C150.282 313.966 144.435 315.298 138.5 316.059C130.621 317.076 122.656 317.269 114.737 316.635C107.108 316.049 99.5346 314.896 92.0783 313.185C80.8482 310.599 69.8243 307.19 59.0961 302.985C25.8041 290.178 4.06894 223.802 18.5772 192.421C24.966 178.583 37.4642 168.656 46.4704 156.358C63.171 133.533 68.1934 102.188 90.1107 84.2815C104.309 72.6872 123.64 68.8547 141.913 70.2858C160.187 71.7169 177.707 77.9871 194.748 84.7545C202.971 88.0109 211.303 91.4977 217.953 97.3433C229.673 107.616 234.416 123.418 241.825 137.129C253.941 159.566 274.431 178.407 278.379 203.542C283.049 233.462 260.773 263.066 232.479 273.939Z" fill="white"/>
<rect x="91" y="238" width="89" height="34" fill="#68E1FD"/>
<rect x="91" y="238" width="89" height="34" fill="url(#paint0_linear)"/>
<rect x="91" y="236" width="89" height="34" fill="#68E1FD"/>
<rect x="94" y="242" width="6" height="5" fill="url(#paint1_linear)"/>
<rect x="94" y="248" width="6" height="5" fill="url(#paint2_linear)"/>
<rect x="94" y="254" width="6" height="5" fill="url(#paint3_linear)"/>
<rect x="94" y="259" width="6" height="5" fill="url(#paint4_linear)"/>
<rect x="102" y="242" width="6" height="5" fill="url(#paint5_linear)"/>
<rect x="102" y="248" width="6" height="5" fill="url(#paint6_linear)"/>
<rect x="102" y="254" width="6" height="5" fill="url(#paint7_linear)"/>
<rect x="102" y="259" width="6" height="5" fill="url(#paint8_linear)"/>
<rect x="110" y="242" width="6" height="5" fill="url(#paint9_linear)"/>
<rect x="110" y="248" width="6" height="5" fill="url(#paint10_linear)"/>
<rect x="110" y="254" width="6" height="5" fill="url(#paint11_linear)"/>
<rect x="110" y="259" width="6" height="5" fill="url(#paint12_linear)"/>
<rect x="118" y="242" width="6" height="5" fill="url(#paint13_linear)"/>
<rect x="118" y="248" width="6" height="5" fill="url(#paint14_linear)"/>
<rect x="118" y="254" width="6" height="5" fill="url(#paint15_linear)"/>
<rect x="125" y="242" width="6" height="5" fill="url(#paint16_linear)"/>
<rect x="125" y="248" width="6" height="5" fill="url(#paint17_linear)"/>
<rect x="125" y="254" width="6" height="5" fill="url(#paint18_linear)"/>
<rect x="133" y="242" width="6" height="5" fill="url(#paint19_linear)"/>
<rect x="133" y="248" width="6" height="5" fill="url(#paint20_linear)"/>
<rect x="133" y="254" width="6" height="5" fill="url(#paint21_linear)"/>
<rect x="141" y="242" width="6" height="5" fill="url(#paint22_linear)"/>
<rect x="141" y="248" width="6" height="5" fill="url(#paint23_linear)"/>
<rect x="141" y="254" width="6" height="5" fill="url(#paint24_linear)"/>
<rect x="149" y="242" width="6" height="5" fill="url(#paint25_linear)"/>
<rect x="149" y="248" width="6" height="5" fill="url(#paint26_linear)"/>
<rect x="149" y="254" width="6" height="5" fill="url(#paint27_linear)"/>
<rect x="156" y="242" width="6" height="5" fill="url(#paint28_linear)"/>
<rect x="156" y="248" width="6" height="5" fill="url(#paint29_linear)"/>
<rect x="156" y="254" width="6" height="5" fill="url(#paint30_linear)"/>
<rect x="156" y="259" width="6" height="5" fill="url(#paint31_linear)"/>
<rect x="164" y="242" width="6" height="5" fill="url(#paint32_linear)"/>
<rect x="164" y="248" width="6" height="5" fill="url(#paint33_linear)"/>
<rect x="164" y="254" width="6" height="5" fill="url(#paint34_linear)"/>
<rect x="164" y="259" width="6" height="5" fill="url(#paint35_linear)"/>
<rect x="172" y="242" width="6" height="5" fill="url(#paint36_linear)"/>
<rect x="172" y="248" width="6" height="5" fill="url(#paint37_linear)"/>
<rect x="172" y="254" width="6" height="5" fill="url(#paint38_linear)"/>
<rect x="172" y="259" width="6" height="5" fill="url(#paint39_linear)"/>
<rect x="109" y="260" width="46" height="5" fill="url(#paint40_linear)"/>
<path d="M103.969 259.401C104.125 258.728 104.568 257.884 105.24 258.103C105.594 258.218 105.768 258.612 105.899 258.964C106.265 259.929 107.698 261.251 108.046 262.222C108.112 259.795 108.202 253.656 109.641 250.144C109.796 249.769 110.181 249.545 110.58 249.597C110.979 249.649 111.294 249.965 111.35 250.369C111.907 254.36 112.273 260.82 112.501 259.498C112.795 257.83 113.7 244.442 116.176 245.971C116.956 248.349 116.404 257.551 116.11 260.038C116.77 256.744 118.011 243.714 120.505 245.103C122.082 249.265 118.814 259.911 120.313 264.102C120.589 264.873 121.183 265.698 121.998 265.637C122.814 265.576 123.239 264.703 123.287 263.92C123.335 263.138 123.119 262.355 123.179 261.573C123.18 261.14 123.408 260.74 123.779 260.523C124.498 260.208 125.11 261.13 125.314 261.912C126.286 265.581 126.224 269.451 125.134 273.086C123.995 276.877 121.782 280.232 119.606 283.526C119.324 284.014 118.953 284.444 118.515 284.794C118.283 284.949 118.031 285.07 117.765 285.151C115.893 285.779 113.926 286.062 111.955 285.989C103.459 285.515 104.233 279.977 103.561 275.239C102.694 269.982 102.833 264.605 103.969 259.401Z" fill="url(#paint41_linear)"/>
<path d="M104.177 286.069C104.535 285.254 105.174 284.595 105.978 284.21C106.451 284.06 106.947 283.992 107.443 284.012C111.535 283.931 115.623 284.272 119.645 285.028C120.033 285.057 120.397 285.227 120.669 285.505C120.809 285.724 120.888 285.976 120.899 286.236C121.148 288.236 120.935 290.267 120.278 292.173C120.212 292.461 120.044 292.716 119.806 292.892C119.546 293.004 119.256 293.03 118.98 292.966C114.837 292.497 110.67 292.27 106.5 292.284C102.302 292.266 102.358 289.39 104.177 286.069Z" fill="white"/>
<path d="M118.964 316C111.306 315.38 103.703 314.162 96.2184 312.355C95.99 311.569 95.9399 310.737 96.072 309.927C97.0089 303.829 98.9932 297.96 101.928 292.606C102.178 292.039 102.587 291.565 103.099 291.248C103.502 291.067 103.939 290.989 104.376 291.021C109.191 290.903 114.006 291.292 118.747 292.182C119.455 292.218 120.121 292.547 120.598 293.098C120.851 293.56 120.972 294.09 120.943 294.622C121.208 301.809 120.543 309.001 118.964 316Z" fill="#68E1FD"/>
<path d="M137.343 284.434C137.017 283.83 136.77 282.979 137.343 282.623C137.625 282.471 137.956 282.435 138.264 282.52C139.387 282.704 140.454 283.139 141.385 283.794C142.825 284.802 144.397 286.414 146.012 285.689C147.409 285.056 147.53 283.148 147.44 281.609C147.134 276.458 146.825 271.305 146.512 266.149C146.512 265.636 146.512 265.009 146.958 264.761C147.638 264.393 148.301 265.268 148.584 265.968L152.271 275.325C152.976 273.073 152.157 265.341 152.5 261.906C152.544 261.45 152.891 261.082 153.343 261.012C153.795 260.942 154.237 261.188 154.416 261.61C155.53 264.296 156.741 271.268 156.952 272.922C157.554 277.848 157.862 273.526 158.042 272.699C158.476 270.647 157.91 263.644 159.145 263.107C160.952 263.24 161.555 265.594 161.597 267.417C161.639 269.24 160.687 276.303 162.458 276.725C163.241 274.757 163.181 271.178 164.235 271.045C165.886 271.806 164.428 279.333 163.904 281.078C162.338 286.305 163.344 285.617 161.784 290.839C161.481 292.151 160.906 293.385 160.097 294.46C159.069 295.505 157.761 296.229 156.332 296.543C147.632 298.97 141.108 291.267 137.343 284.434Z" fill="url(#paint42_linear)"/>
<path d="M147.338 303.365C147.335 303.837 147.535 304.287 147.888 304.601C148.101 304.716 148.337 304.784 148.58 304.798C152.219 305.235 155.909 304.96 159.444 303.989C159.821 303.92 160.173 303.752 160.464 303.501C160.736 303.183 160.9 302.787 160.933 302.37C161.279 299.979 160.216 297.637 159.178 295.456C159.12 295.299 159.017 295.161 158.882 295.061C158.711 294.992 158.522 294.981 158.344 295.03C156.614 295.314 154.873 295.52 153.122 295.648C151.849 295.735 149.76 295.327 148.58 295.815C146.268 296.772 147.109 301.27 147.338 303.365Z" fill="white"/>
<path d="M164 310.788C158.146 312.782 152.118 314.192 146 315C146.078 312.537 146.15 309.988 146.354 307.518C146.522 305.413 148.556 301.262 151.052 301.262C153.554 300.154 156.368 300.074 159.086 300C160.04 300 161.102 300 161.828 300.647C162.554 301.293 162.686 302.217 162.836 303.11C163.268 305.64 163.7 308.208 164 310.788Z" fill="#68E1FD"/>
<path opacity="0.52" d="M203.389 219H56.6888L17 136H253L203.389 219Z" fill="#68E1FD"/>
<path opacity="0.27" d="M89.5955 211H32.1721C28.8324 211 25.2567 209.103 24.1797 206.757L14.3056 185.243C13.2347 182.897 15.068 181 18.4017 181H75.8311C79.1648 181 82.7405 182.897 83.8175 185.243L93.6916 206.739C94.7685 209.085 92.9353 211 89.5955 211Z" fill="white"/>
<path d="M85.5859 216H28.1607C24.8273 216 21.2458 214.103 20.1749 211.757L10.3016 190.261C9.24285 187.915 11.0578 186 14.3973 186H71.8164C75.156 186 78.7314 187.903 79.8083 190.249L89.7058 211.757C90.7525 214.103 88.9194 216 85.5859 216Z" fill="white"/>
<path opacity="0.27" d="M192.411 192H249.833C253.173 192 256.748 190.097 257.825 187.756L267.692 166.244C268.768 163.903 266.935 162 263.602 162H206.18C202.846 162 199.265 163.903 198.188 166.244L188.297 187.756C187.244 190.097 189.077 192 192.411 192Z" fill="white"/>
<path d="M192.411 199H249.833C253.173 199 256.748 197.097 257.825 194.749L267.692 173.244C268.768 170.903 266.935 169 263.602 169H206.18C202.846 169 199.265 170.903 198.188 173.244L188.297 194.749C187.244 197.097 189.077 199 192.411 199Z" fill="white"/>
<path d="M72 152H115.511L116 156H73.4357L72 152Z" fill="url(#paint43_linear)"/>
<path d="M75 158H100.26L101 161H76.2306L75 158Z" fill="url(#paint44_linear)"/>
<path d="M111 158H190L188.97 161H111.536L111 158Z" fill="url(#paint45_linear)"/>
<path d="M90 163H122.726L123 166H90.9279L90 163Z" fill="url(#paint46_linear)"/>
<path d="M102 168H140L139.94 171H102.681L102 168Z" fill="url(#paint47_linear)"/>
<path d="M143.118 168H176L175.179 171H143L143.118 168Z" fill="url(#paint48_linear)"/>
<path d="M104 173H131.899L132 175H104.589L104 173Z" fill="url(#paint49_linear)"/>
<path d="M135 173H194L192.909 176H135.061L135 173Z" fill="url(#paint50_linear)"/>
<path d="M85 179H119.682L120 181H85.9354L85 179Z" fill="url(#paint51_linear)"/>
<path d="M87 182H107.507L108 184H87.8179L87 182Z" fill="url(#paint52_linear)"/>
<path d="M116 182H181L180.304 184H116.363L116 182Z" fill="url(#paint53_linear)"/>
<path d="M98 186H125.804L126 188H98.6497L98 186Z" fill="url(#paint54_linear)"/>
<path d="M108 189H140L139.963 191H108.483L108 189Z" fill="url(#paint55_linear)"/>
<path d="M142.077 189H168L167.462 191H142L142.077 189Z" fill="url(#paint56_linear)"/>
<path d="M109 192H132.927L133 194H109.422L109 192Z" fill="url(#paint57_linear)"/>
<path d="M135 193H184L183.242 195H135.042L135 193Z" fill="url(#paint58_linear)"/>
<path d="M93 196H122.774L123 198H93.6788L93 196Z" fill="url(#paint59_linear)"/>
<path d="M94 200H111.64L112 201H94.6049L94 200Z" fill="url(#paint60_linear)"/>
<path d="M119 200H174L173.497 201H119.26L119 200Z" fill="url(#paint61_linear)"/>
<path d="M104 203H127.858L128 204H104.476L104 203Z" fill="url(#paint62_linear)"/>
<path d="M113 204H140L139.97 205H113.344L113 204Z" fill="url(#paint63_linear)"/>
<path d="M141.055 204H164L163.59 206H141L141.055 204Z" fill="url(#paint64_linear)"/>
<path d="M114 207H133.947L134 208H114.303L114 207Z" fill="url(#paint65_linear)"/>
<path d="M136 207H178L177.443 208H136.03L136 207Z" fill="url(#paint66_linear)"/>
<g opacity="0.52">
<path d="M15.1144 191.226H37.1214L37.3682 192.412H15.8427L15.1144 191.226Z" fill="#68E1FD"/>
<path d="M16.4928 193.475H29.3683L29.7476 194.502H17.1248L16.4928 193.475Z" fill="#68E1FD"/>
<path d="M34.5631 193.475H75.0918L74.5621 194.508H34.84L34.5631 193.475Z" fill="#68E1FD"/>
<path d="M24.1917 195.553H41.1965L41.341 196.549H24.6732L24.1917 195.553Z" fill="#68E1FD"/>
<path d="M30.3676 197.466H49.8524L49.8223 198.394H30.7167L30.3676 197.466Z" fill="#68E1FD"/>
<path d="M51.1225 197.466H67.4532L67.0439 198.498H51.0623L51.1225 197.466Z" fill="#68E1FD"/>
<path d="M31.0056 199.238H45.4944L45.5485 200.051H31.3126L31.0056 199.238Z" fill="#68E1FD"/>
<path d="M46.8848 199.238H76.7833L76.2355 200.136H46.9149L46.8848 199.238Z" fill="#68E1FD"/>
<path d="M21.3685 201.438H39.2402L39.4087 202.226H21.8501L21.3685 201.438Z" fill="#68E1FD"/>
<path d="M22.2835 202.935H32.8235L33.0763 203.626H22.7109L22.2835 202.935Z" fill="#68E1FD"/>
<path d="M37.0792 202.935H70.2462L69.8911 203.626H37.2598L37.0792 202.935Z" fill="#68E1FD"/>
<path d="M28.4413 204.328H42.4606L42.5569 205.013H28.7724L28.4413 204.328Z" fill="#68E1FD"/>
<path d="M33.4375 205.642H49.6057L49.5876 206.284H33.6783L33.4375 205.642Z" fill="#68E1FD"/>
<path d="M50.659 205.642H64.2147L63.9318 206.357H50.6169L50.659 205.642Z" fill="#68E1FD"/>
<path d="M33.8708 206.871H45.9759L46.012 207.439H34.0875L33.8708 206.871Z" fill="#68E1FD"/>
<path d="M47.1377 206.871H72.1123L71.721 207.5H47.1558L47.1377 206.871Z" fill="#68E1FD"/>
<path d="M25.6484 208.417H40.6909L40.8113 208.979H25.9855L25.6484 208.417Z" fill="#68E1FD"/>
<path d="M26.2985 209.486H35.2192L35.3998 209.981H26.6055L26.2985 209.486Z" fill="#68E1FD"/>
<path d="M38.8188 209.486H66.8874L66.6346 209.981H38.9513L38.8188 209.486Z" fill="#68E1FD"/>
<path d="M31.427 210.488H43.3454L43.4177 210.983H31.6618L31.427 210.488Z" fill="#68E1FD"/>
<path d="M35.6105 211.442H49.4311L49.413 211.912H35.785L35.6105 211.442Z" fill="#68E1FD"/>
<path d="M50.334 211.442H61.9153L61.7107 211.967H50.3039L50.334 211.442Z" fill="#68E1FD"/>
<path d="M35.9295 212.346H46.319L46.3431 212.768H36.086L35.9295 212.346Z" fill="#68E1FD"/>
<path d="M47.3182 212.346H68.7534L68.4705 212.811H47.3303L47.3182 212.346Z" fill="#68E1FD"/>
</g>
<g opacity="0.52">
<path d="M210.753 177.076H228.861L228.361 178.039H210.651L210.753 177.076Z" fill="#68E1FD"/>
<path d="M210.554 178.91H221.151L220.849 179.746H210.464L210.554 178.91Z" fill="#68E1FD"/>
<path d="M225.422 178.91H258.759L257.711 179.752H225.036L225.422 178.91Z" fill="#68E1FD"/>
<path d="M215.657 180.6H229.645L229.169 181.413H215.464L215.657 180.6Z" fill="#68E1FD"/>
<path d="M219.602 182.156H235.633L235.054 182.917H219.337L219.602 182.156Z" fill="#68E1FD"/>
<path d="M236.675 182.156H250.108L249.163 182.998H236.018L236.675 182.156Z" fill="#68E1FD"/>
<path d="M219.078 183.602H230.994L230.554 184.264H218.843L219.078 183.602Z" fill="#68E1FD"/>
<path d="M232.139 183.602H256.741L255.753 184.334H231.633L232.139 183.602Z" fill="#68E1FD"/>
<path d="M209.843 185.39H224.548L224.217 186.035H209.771L209.843 185.39Z" fill="#68E1FD"/>
<path d="M209.711 186.61H218.379L218.181 187.173H209.651L209.711 186.61Z" fill="#68E1FD"/>
<path d="M221.88 186.61H249.163L248.458 187.173H221.62L221.88 186.61Z" fill="#68E1FD"/>
<path d="M213.946 187.748H225.476L225.157 188.305H213.813L213.946 187.748Z" fill="#68E1FD"/>
<path d="M217.277 188.816H230.578L230.181 189.339H217.09L217.277 188.816Z" fill="#68E1FD"/>
<path d="M231.446 188.816H242.596L241.94 189.397H230.988L231.446 188.816Z" fill="#68E1FD"/>
<path d="M216.904 189.815H226.861L226.554 190.279H216.747L216.904 189.815Z" fill="#68E1FD"/>
<path d="M227.819 189.815H248.361L247.675 190.332H227.464L227.819 189.815Z" fill="#68E1FD"/>
<path d="M209.223 191.075H221.602L221.361 191.534H209.169L209.223 191.075Z" fill="#68E1FD"/>
<path d="M209.127 191.946H216.464L216.319 192.346H209.084L209.127 191.946Z" fill="#68E1FD"/>
<path d="M219.428 191.946H242.518L242.012 192.352H219.241L219.428 191.946Z" fill="#68E1FD"/>
<path d="M212.747 192.764H222.554L222.319 193.165H212.651L212.747 192.764Z" fill="#68E1FD"/>
<path d="M215.627 193.543H226.994L226.705 193.926H215.488L215.627 193.543Z" fill="#68E1FD"/>
<path d="M227.735 193.543H237.265L236.789 193.966H227.404L227.735 193.543Z" fill="#68E1FD"/>
<path d="M215.349 194.274H223.898L223.669 194.617H215.229L215.349 194.274Z" fill="#68E1FD"/>
<path d="M224.717 194.274H242.355L241.849 194.657H224.458L224.717 194.274Z" fill="#68E1FD"/>
</g>
<defs>
<linearGradient id="paint0_linear" x1="81.6662" y1="261.602" x2="81.8602" y2="302.9" gradientUnits="userSpaceOnUse">
<stop stop-color="#010101" stop-opacity="0.01"/>
<stop offset="0.95" stop-color="#010101"/>
</linearGradient>
<linearGradient id="paint1_linear" x1="73.8062" y1="243.441" x2="82.4367" y2="279.415" gradientUnits="userSpaceOnUse">
<stop stop-color="#010101" stop-opacity="0.01"/>
<stop offset="0.95" stop-color="#010101"/>
</linearGradient>
<linearGradient id="paint2_linear" x1="73.8062" y1="249.441" x2="82.4367" y2="285.415" gradientUnits="userSpaceOnUse">
<stop stop-color="#010101" stop-opacity="0.01"/>
<stop offset="0.95" stop-color="#010101"/>
</linearGradient>
<linearGradient id="paint3_linear" x1="73.8062" y1="255.441" x2="82.4367" y2="291.415" gradientUnits="userSpaceOnUse">
<stop stop-color="#010101" stop-opacity="0.01"/>
<stop offset="0.95" stop-color="#010101"/>
</linearGradient>
<linearGradient id="paint4_linear" x1="73.8062" y1="260.435" x2="82.4367" y2="296.409" gradientUnits="userSpaceOnUse">
<stop stop-color="#010101" stop-opacity="0.01"/>
<stop offset="0.95" stop-color="#010101"/>
</linearGradient>
<linearGradient id="paint5_linear" x1="81.8062" y1="243.444" x2="90.4413" y2="279.418" gradientUnits="userSpaceOnUse">
<stop stop-color="#010101" stop-opacity="0.01"/>
<stop offset="0.95" stop-color="#010101"/>
</linearGradient>
<linearGradient id="paint6_linear" x1="81.8062" y1="249.444" x2="90.4413" y2="285.418" gradientUnits="userSpaceOnUse">
<stop stop-color="#010101" stop-opacity="0.01"/>
<stop offset="0.95" stop-color="#010101"/>
</linearGradient>
<linearGradient id="paint7_linear" x1="81.8062" y1="255.444" x2="90.4413" y2="291.418" gradientUnits="userSpaceOnUse">
<stop stop-color="#010101" stop-opacity="0.01"/>
<stop offset="0.95" stop-color="#010101"/>
</linearGradient>
<linearGradient id="paint8_linear" x1="81.8062" y1="260.438" x2="90.4413" y2="296.412" gradientUnits="userSpaceOnUse">
<stop stop-color="#010101" stop-opacity="0.01"/>
<stop offset="0.95" stop-color="#010101"/>
</linearGradient>
<linearGradient id="paint9_linear" x1="89.8062" y1="243.441" x2="98.4367" y2="279.415" gradientUnits="userSpaceOnUse">
<stop stop-color="#010101" stop-opacity="0.01"/>
<stop offset="0.95" stop-color="#010101"/>
</linearGradient>
<linearGradient id="paint10_linear" x1="89.8062" y1="249.441" x2="98.4367" y2="285.415" gradientUnits="userSpaceOnUse">
<stop stop-color="#010101" stop-opacity="0.01"/>
<stop offset="0.95" stop-color="#010101"/>
</linearGradient>
<linearGradient id="paint11_linear" x1="89.8062" y1="255.441" x2="98.4367" y2="291.415" gradientUnits="userSpaceOnUse">
<stop stop-color="#010101" stop-opacity="0.01"/>
<stop offset="0.95" stop-color="#010101"/>
</linearGradient>
<linearGradient id="paint12_linear" x1="89.8062" y1="260.435" x2="98.4367" y2="296.409" gradientUnits="userSpaceOnUse">
<stop stop-color="#010101" stop-opacity="0.01"/>
<stop offset="0.95" stop-color="#010101"/>
</linearGradient>
<linearGradient id="paint13_linear" x1="97.8062" y1="243.444" x2="106.441" y2="279.418" gradientUnits="userSpaceOnUse">
<stop stop-color="#010101" stop-opacity="0.01"/>
<stop offset="0.95" stop-color="#010101"/>
</linearGradient>
<linearGradient id="paint14_linear" x1="97.8062" y1="249.444" x2="106.441" y2="285.418" gradientUnits="userSpaceOnUse">
<stop stop-color="#010101" stop-opacity="0.01"/>
<stop offset="0.95" stop-color="#010101"/>
</linearGradient>
<linearGradient id="paint15_linear" x1="97.8062" y1="255.444" x2="106.441" y2="291.418" gradientUnits="userSpaceOnUse">
<stop stop-color="#010101" stop-opacity="0.01"/>
<stop offset="0.95" stop-color="#010101"/>
</linearGradient>
<linearGradient id="paint16_linear" x1="104.806" y1="243.441" x2="113.437" y2="279.415" gradientUnits="userSpaceOnUse">
<stop stop-color="#010101" stop-opacity="0.01"/>
<stop offset="0.95" stop-color="#010101"/>
</linearGradient>
<linearGradient id="paint17_linear" x1="104.806" y1="249.441" x2="113.437" y2="285.415" gradientUnits="userSpaceOnUse">
<stop stop-color="#010101" stop-opacity="0.01"/>
<stop offset="0.95" stop-color="#010101"/>
</linearGradient>
<linearGradient id="paint18_linear" x1="104.806" y1="255.441" x2="113.437" y2="291.415" gradientUnits="userSpaceOnUse">
<stop stop-color="#010101" stop-opacity="0.01"/>
<stop offset="0.95" stop-color="#010101"/>
</linearGradient>
<linearGradient id="paint19_linear" x1="112.806" y1="243.444" x2="121.441" y2="279.418" gradientUnits="userSpaceOnUse">
<stop stop-color="#010101" stop-opacity="0.01"/>
<stop offset="0.95" stop-color="#010101"/>
</linearGradient>
<linearGradient id="paint20_linear" x1="112.806" y1="249.444" x2="121.441" y2="285.418" gradientUnits="userSpaceOnUse">
<stop stop-color="#010101" stop-opacity="0.01"/>
<stop offset="0.95" stop-color="#010101"/>
</linearGradient>
<linearGradient id="paint21_linear" x1="112.806" y1="255.444" x2="121.441" y2="291.418" gradientUnits="userSpaceOnUse">
<stop stop-color="#010101" stop-opacity="0.01"/>
<stop offset="0.95" stop-color="#010101"/>
</linearGradient>
<linearGradient id="paint22_linear" x1="120.806" y1="243.441" x2="129.437" y2="279.415" gradientUnits="userSpaceOnUse">
<stop stop-color="#010101" stop-opacity="0.01"/>
<stop offset="0.95" stop-color="#010101"/>
</linearGradient>
<linearGradient id="paint23_linear" x1="120.806" y1="249.441" x2="129.437" y2="285.415" gradientUnits="userSpaceOnUse">
<stop stop-color="#010101" stop-opacity="0.01"/>
<stop offset="0.95" stop-color="#010101"/>
</linearGradient>
<linearGradient id="paint24_linear" x1="120.806" y1="255.441" x2="129.437" y2="291.415" gradientUnits="userSpaceOnUse">
<stop stop-color="#010101" stop-opacity="0.01"/>
<stop offset="0.95" stop-color="#010101"/>
</linearGradient>
<linearGradient id="paint25_linear" x1="128.806" y1="243.444" x2="137.441" y2="279.418" gradientUnits="userSpaceOnUse">
<stop stop-color="#010101" stop-opacity="0.01"/>
<stop offset="0.95" stop-color="#010101"/>
</linearGradient>
<linearGradient id="paint26_linear" x1="128.806" y1="249.444" x2="137.441" y2="285.418" gradientUnits="userSpaceOnUse">
<stop stop-color="#010101" stop-opacity="0.01"/>
<stop offset="0.95" stop-color="#010101"/>
</linearGradient>
<linearGradient id="paint27_linear" x1="128.806" y1="255.444" x2="137.441" y2="291.418" gradientUnits="userSpaceOnUse">
<stop stop-color="#010101" stop-opacity="0.01"/>
<stop offset="0.95" stop-color="#010101"/>
</linearGradient>
<linearGradient id="paint28_linear" x1="135.812" y1="243.441" x2="144.443" y2="279.415" gradientUnits="userSpaceOnUse">
<stop stop-color="#010101" stop-opacity="0.01"/>
<stop offset="0.95" stop-color="#010101"/>
</linearGradient>
<linearGradient id="paint29_linear" x1="135.812" y1="249.441" x2="144.443" y2="285.415" gradientUnits="userSpaceOnUse">
<stop stop-color="#010101" stop-opacity="0.01"/>
<stop offset="0.95" stop-color="#010101"/>
</linearGradient>
<linearGradient id="paint30_linear" x1="135.812" y1="255.441" x2="144.443" y2="291.415" gradientUnits="userSpaceOnUse">
<stop stop-color="#010101" stop-opacity="0.01"/>
<stop offset="0.95" stop-color="#010101"/>
</linearGradient>
<linearGradient id="paint31_linear" x1="135.812" y1="260.435" x2="144.443" y2="296.409" gradientUnits="userSpaceOnUse">
<stop stop-color="#010101" stop-opacity="0.01"/>
<stop offset="0.95" stop-color="#010101"/>
</linearGradient>
<linearGradient id="paint32_linear" x1="143.806" y1="243.441" x2="152.437" y2="279.415" gradientUnits="userSpaceOnUse">
<stop stop-color="#010101" stop-opacity="0.01"/>
<stop offset="0.95" stop-color="#010101"/>
</linearGradient>
<linearGradient id="paint33_linear" x1="143.806" y1="249.441" x2="152.437" y2="285.415" gradientUnits="userSpaceOnUse">
<stop stop-color="#010101" stop-opacity="0.01"/>
<stop offset="0.95" stop-color="#010101"/>
</linearGradient>
<linearGradient id="paint34_linear" x1="143.806" y1="255.441" x2="152.437" y2="291.415" gradientUnits="userSpaceOnUse">
<stop stop-color="#010101" stop-opacity="0.01"/>
<stop offset="0.95" stop-color="#010101"/>
</linearGradient>
<linearGradient id="paint35_linear" x1="143.806" y1="260.435" x2="152.437" y2="296.409" gradientUnits="userSpaceOnUse">
<stop stop-color="#010101" stop-opacity="0.01"/>
<stop offset="0.95" stop-color="#010101"/>
</linearGradient>
<linearGradient id="paint36_linear" x1="151.806" y1="243.444" x2="160.441" y2="279.418" gradientUnits="userSpaceOnUse">
<stop stop-color="#010101" stop-opacity="0.01"/>
<stop offset="0.95" stop-color="#010101"/>
</linearGradient>
<linearGradient id="paint37_linear" x1="151.806" y1="249.444" x2="160.441" y2="285.418" gradientUnits="userSpaceOnUse">
<stop stop-color="#010101" stop-opacity="0.01"/>
<stop offset="0.95" stop-color="#010101"/>
</linearGradient>
<linearGradient id="paint38_linear" x1="151.806" y1="255.444" x2="160.441" y2="291.418" gradientUnits="userSpaceOnUse">
<stop stop-color="#010101" stop-opacity="0.01"/>
<stop offset="0.95" stop-color="#010101"/>
</linearGradient>
<linearGradient id="paint39_linear" x1="151.806" y1="260.438" x2="160.441" y2="296.412" gradientUnits="userSpaceOnUse">
<stop stop-color="#010101" stop-opacity="0.01"/>
<stop offset="0.95" stop-color="#010101"/>
</linearGradient>
<linearGradient id="paint40_linear" x1="-116.812" y1="251.265" x2="-116.816" y2="305.37" gradientUnits="userSpaceOnUse">
<stop stop-color="#010101" stop-opacity="0.01"/>
<stop offset="0.95" stop-color="#010101"/>
</linearGradient>
<linearGradient id="paint41_linear" x1="102.979" y1="285.968" x2="125.973" y2="285.968" gradientUnits="userSpaceOnUse">
<stop stop-color="#E5C6D6"/>
<stop offset="0.42" stop-color="#EAD4D0"/>
<stop offset="1" stop-color="#F0E9CB"/>
</linearGradient>
<linearGradient id="paint42_linear" x1="136.999" y1="297" x2="164.989" y2="297" gradientUnits="userSpaceOnUse">
<stop stop-color="#E5C6D6"/>
<stop offset="0.42" stop-color="#EAD4D0"/>
<stop offset="1" stop-color="#F0E9CB"/>
</linearGradient>
<linearGradient id="paint43_linear" x1="-784.436" y1="43.6747" x2="-784.456" y2="203.683" gradientUnits="userSpaceOnUse">
<stop stop-color="white" stop-opacity="0.01"/>
<stop offset="0.99" stop-color="white"/>
</linearGradient>
<linearGradient id="paint44_linear" x1="698.894" y1="358.659" x2="698.865" y2="230.392" gradientUnits="userSpaceOnUse">
<stop stop-color="white" stop-opacity="0.01"/>
<stop offset="0.99" stop-color="white"/>
</linearGradient>
<linearGradient id="paint45_linear" x1="1916.44" y1="358.263" x2="1916.44" y2="228.296" gradientUnits="userSpaceOnUse">
<stop stop-color="white" stop-opacity="0.01"/>
<stop offset="0.99" stop-color="white"/>
</linearGradient>
<linearGradient id="paint46_linear" x1="838.494" y1="356.463" x2="838.478" y2="233.197" gradientUnits="userSpaceOnUse">
<stop stop-color="white" stop-opacity="0.01"/>
<stop offset="0.99" stop-color="white"/>
</linearGradient>
<linearGradient id="paint47_linear" x1="956.748" y1="361.545" x2="956.736" y2="238.224" gradientUnits="userSpaceOnUse">
<stop stop-color="white" stop-opacity="0.01"/>
<stop offset="0.99" stop-color="white"/>
</linearGradient>
<linearGradient id="paint48_linear" x1="826.674" y1="341.819" x2="826.658" y2="230.785" gradientUnits="userSpaceOnUse">
<stop stop-color="white" stop-opacity="0.01"/>
<stop offset="0.99" stop-color="white"/>
</linearGradient>
<linearGradient id="paint49_linear" x1="785.973" y1="311.098" x2="785.964" y2="223.389" gradientUnits="userSpaceOnUse">
<stop stop-color="white" stop-opacity="0.01"/>
<stop offset="0.99" stop-color="white"/>
</linearGradient>
<linearGradient id="paint50_linear" x1="1419.97" y1="362.334" x2="1419.97" y2="240.288" gradientUnits="userSpaceOnUse">
<stop stop-color="white" stop-opacity="0.01"/>
<stop offset="0.99" stop-color="white"/>
</linearGradient>
<linearGradient id="paint51_linear" x1="890.366" y1="289.043" x2="890.361" y2="205.173" gradientUnits="userSpaceOnUse">
<stop stop-color="white" stop-opacity="0.01"/>
<stop offset="0.99" stop-color="white"/>
</linearGradient>
<linearGradient id="paint52_linear" x1="615.598" y1="298.112" x2="615.585" y2="209.741" gradientUnits="userSpaceOnUse">
<stop stop-color="white" stop-opacity="0.01"/>
<stop offset="0.99" stop-color="white"/>
</linearGradient>
<linearGradient id="paint53_linear" x1="1717.97" y1="300.497" x2="1717.97" y2="207.273" gradientUnits="userSpaceOnUse">
<stop stop-color="white" stop-opacity="0.01"/>
<stop offset="0.99" stop-color="white"/>
</linearGradient>
<linearGradient id="paint54_linear" x1="765.202" y1="296.399" x2="765.194" y2="210.972" gradientUnits="userSpaceOnUse">
<stop stop-color="white" stop-opacity="0.01"/>
<stop offset="0.99" stop-color="white"/>
</linearGradient>
<linearGradient id="paint55_linear" x1="869.167" y1="298.459" x2="869.161" y2="212.199" gradientUnits="userSpaceOnUse">
<stop stop-color="white" stop-opacity="0.01"/>
<stop offset="0.99" stop-color="white"/>
</linearGradient>
<linearGradient id="paint56_linear" x1="707.991" y1="286.487" x2="707.984" y2="209.601" gradientUnits="userSpaceOnUse">
<stop stop-color="white" stop-opacity="0.01"/>
<stop offset="0.99" stop-color="white"/>
</linearGradient>
<linearGradient id="paint57_linear" x1="721.795" y1="306.052" x2="721.786" y2="215.093" gradientUnits="userSpaceOnUse">
<stop stop-color="white" stop-opacity="0.01"/>
<stop offset="0.99" stop-color="white"/>
</linearGradient>
<linearGradient id="paint58_linear" x1="1271.81" y1="299.18" x2="1271.8" y2="212.84" gradientUnits="userSpaceOnUse">
<stop stop-color="white" stop-opacity="0.01"/>
<stop offset="0.99" stop-color="white"/>
</linearGradient>
<linearGradient id="paint59_linear" x1="817.811" y1="280.035" x2="817.805" y2="192.698" gradientUnits="userSpaceOnUse">
<stop stop-color="white" stop-opacity="0.01"/>
<stop offset="0.99" stop-color="white"/>
</linearGradient>
<linearGradient id="paint60_linear" x1="568.522" y1="242.913" x2="568.518" y2="197.269" gradientUnits="userSpaceOnUse">
<stop stop-color="white" stop-opacity="0.01"/>
<stop offset="0.99" stop-color="white"/>
</linearGradient>
<linearGradient id="paint61_linear" x1="1579.53" y1="245.723" x2="1579.53" y2="195.587" gradientUnits="userSpaceOnUse">
<stop stop-color="white" stop-opacity="0.01"/>
<stop offset="0.99" stop-color="white"/>
</linearGradient>
<linearGradient id="paint62_linear" x1="702.923" y1="242.902" x2="702.921" y2="198.611" gradientUnits="userSpaceOnUse">
<stop stop-color="white" stop-opacity="0.01"/>
<stop offset="0.99" stop-color="white"/>
</linearGradient>
<linearGradient id="paint63_linear" x1="788.045" y1="242.774" x2="788.044" y2="197.779" gradientUnits="userSpaceOnUse">
<stop stop-color="white" stop-opacity="0.01"/>
<stop offset="0.99" stop-color="white"/>
</linearGradient>
<linearGradient id="paint64_linear" x1="664.743" y1="272.098" x2="664.736" y2="192.551" gradientUnits="userSpaceOnUse">
<stop stop-color="white" stop-opacity="0.01"/>
<stop offset="0.99" stop-color="white"/>
</linearGradient>
<linearGradient id="paint65_linear" x1="650.888" y1="245.971" x2="650.885" y2="198.601" gradientUnits="userSpaceOnUse">
<stop stop-color="white" stop-opacity="0.01"/>
<stop offset="0.99" stop-color="white"/>
</linearGradient>
<linearGradient id="paint66_linear" x1="1171.43" y1="244.423" x2="1171.43" y2="198.703" gradientUnits="userSpaceOnUse">
<stop stop-color="white" stop-opacity="0.01"/>
<stop offset="0.99" stop-color="white"/>
</linearGradient>
</defs>
</svg>
