<svg width="68" height="68" viewBox="0 0 68 68" fill="none" xmlns="http://www.w3.org/2000/svg">
<g filter="url(#filter0_d)">
<circle cx="29.5" cy="38.5" r="29.5" fill="#DAE2E9"/>
</g>
<path d="M37.4617 31.5666C36.4671 30.5708 35.1078 30.0067 33.6867 30H33.6379C32.0204 29.996 30.4923 30.7274 29.4999 31.9806C28.5077 30.7275 26.9798 29.9961 25.3626 30H25.3413C23.9171 30.0029 22.5528 30.5626 21.5504 31.5552C20.5479 32.5479 19.99 33.8916 20.0001 35.289C20.0001 40.3199 28.9103 47.6178 29.2909 47.9261C29.4122 48.0246 29.5877 48.0246 29.7089 47.9261C30.0896 47.6178 38.9997 40.3199 38.9997 35.2916C39.0144 33.8983 38.4606 32.557 37.4617 31.5666Z" fill="#FF3951"/>
<path d="M30.5 10C45.701 10 58 22.3041 58 37.4885C58 52.6728 45.701 65 30.5 65C15.299 65 3 52.6959 3 37.5115C3 22.3272 15.299 10 30.5 10Z" fill="#E74D89"/>
<path fill-rule="evenodd" clip-rule="evenodd" d="M29.5 68C13.2289 68 0 54.7786 0 38.5115C0 22.2214 13.2289 9 29.5 9C45.7711 9 59 22.2214 59 38.4885C59 54.7556 45.7711 68 29.5 68ZM54.3676 42.5264C53.5148 42.2495 46.5777 40.1959 38.6727 41.4419C41.9684 50.4869 43.3051 57.8706 43.5586 59.3934C49.2281 55.5862 53.2613 49.5409 54.3676 42.5264ZM33.9711 42.6187C37.4973 51.8021 38.9723 59.5088 39.341 61.7239C36.3219 63.016 32.9801 63.7313 29.5 63.7083C23.6691 63.7083 18.2992 61.7239 14.0355 58.4013C14.4965 57.4783 19.5898 47.6257 33.8098 42.6648C33.8559 42.6648 33.925 42.6418 33.9711 42.6187ZM10.7859 55.3786C11.3621 54.4095 18.2762 42.9648 31.2746 38.7423C31.5391 38.6477 31.8191 38.5686 32.0891 38.4924C32.1485 38.4756 32.2074 38.459 32.2656 38.4423C31.6434 37.0117 30.952 35.5812 30.2145 34.1736C17.6309 37.9347 5.41602 37.7732 4.30977 37.7501C4.30977 37.877 4.304 38.0039 4.29824 38.1308L4.29824 38.1308C4.29248 38.2577 4.28672 38.3846 4.28672 38.5115C4.30977 44.9953 6.75273 50.9022 10.7859 55.3786ZM28.1402 30.2972C16.3402 33.4353 5.96914 33.3891 4.83984 33.3661C6.47617 25.5671 11.7309 19.0602 18.8062 15.7376L18.8832 15.8447C19.7511 17.0524 24.1072 23.1141 28.1402 30.2972ZM23.6 14.0301C24.2914 14.9531 28.8777 21.183 33.0031 28.7743C41.9684 25.4056 45.748 20.3293 46.209 19.6832C41.7609 15.7376 35.907 13.3379 29.5 13.3379C27.4719 13.3379 25.4898 13.5917 23.6 14.0301ZM34.9391 32.5354C44.25 28.7282 48.4676 23.3058 48.9977 22.5905C52.5238 26.8823 54.6441 32.3508 54.7133 38.2808C54.6925 38.2767 54.6669 38.2717 54.6368 38.2658C53.4662 38.0354 45.3532 36.4384 37.1746 37.4732C36.9903 37.058 36.806 36.6198 36.6217 36.1816L36.6215 36.1811C36.0914 34.9582 35.5152 33.7352 34.9391 32.5354Z" fill="#B2215A"/>
<defs>
<filter id="filter0_d" x="-9" y="0" width="77" height="77" filterUnits="userSpaceOnUse" color-interpolation-filters="sRGB">
<feFlood flood-opacity="0" result="BackgroundImageFix"/>
<feColorMatrix in="SourceAlpha" type="matrix" values="0 0 0 0 0 0 0 0 0 0 0 0 0 0 0 0 0 0 127 0"/>
<feOffset/>
<feGaussianBlur stdDeviation="4.5"/>
<feColorMatrix type="matrix" values="0 0 0 0 0.905882 0 0 0 0 0.301961 0 0 0 0 0.537255 0 0 0 1 0"/>
<feBlend mode="normal" in2="BackgroundImageFix" result="effect1_dropShadow"/>
<feBlend mode="normal" in="SourceGraphic" in2="effect1_dropShadow" result="shape"/>
</filter>
</defs>
</svg>
