<svg width="77" height="68" viewBox="0 0 77 68" fill="none" xmlns="http://www.w3.org/2000/svg">
<g filter="url(#filter0_d)">
<circle cx="38.5" cy="38.5" r="29.5" fill="#5BF674"/>
</g>
<path d="M46.4617 31.5666C45.4671 30.5708 44.1078 30.0067 42.6867 30H42.6379C41.0204 29.996 39.4923 30.7274 38.4999 31.9806C37.5077 30.7275 35.9798 29.9961 34.3626 30H34.3413C32.9171 30.0029 31.5528 30.5626 30.5504 31.5552C29.5479 32.5479 28.99 33.8916 29.0001 35.289C29.0001 40.3199 37.9103 47.6178 38.2909 47.9261C38.4122 48.0246 38.5877 48.0246 38.7089 47.9261C39.0896 47.6178 47.9997 40.3199 47.9997 35.2916C48.0144 33.8983 47.4606 32.557 46.4617 31.5666Z" fill="#FF3951"/>
<path d="M59.9556 49.0678C59.9556 49.3028 59.9484 49.8124 59.9343 50.2061C59.8997 51.1693 59.8234 52.4122 59.7079 52.9785C59.5344 53.8295 59.2724 54.6328 58.9308 55.3014C58.5267 56.0923 58.0112 56.8007 57.3986 57.4121C56.7874 58.0224 56.0796 58.5358 55.2899 58.9384C54.6178 59.2808 53.8095 59.5429 52.9536 59.7157C52.393 59.8289 51.1594 59.9038 50.2023 59.9379C49.8083 59.952 49.2986 59.959 49.0644 59.959L27.9322 59.9556C27.6972 59.9556 27.1876 59.9484 26.794 59.9343C25.8307 59.8998 24.5879 59.8234 24.0215 59.708C23.1705 59.5344 22.3672 59.2725 21.6986 58.9309C20.9077 58.5267 20.1993 58.0112 19.5879 57.3987C18.9777 56.7874 18.4642 56.0797 18.0617 55.29C17.7191 54.6179 17.457 53.8096 17.2842 52.9537C17.1711 52.3931 17.0962 51.1595 17.0621 50.2024C17.0481 49.8084 17.041 49.2986 17.041 49.0646L17.0444 27.9322C17.0444 27.6972 17.0515 27.1876 17.0657 26.794C17.1002 25.8307 17.1766 24.5879 17.292 24.0216C17.4656 23.1705 17.7275 22.3672 18.0691 21.6986C18.4733 20.9077 18.9888 20.1993 19.6013 19.5879C20.2125 18.9777 20.9203 18.4642 21.71 18.0617C22.3822 17.7192 23.1905 17.4571 24.0463 17.2843C24.607 17.1711 25.8406 17.0962 26.7977 17.0621C27.1917 17.0481 27.7015 17.041 27.9355 17.041L49.0678 17.0444C49.3028 17.0444 49.8124 17.0516 50.206 17.0657C51.1693 17.1003 52.4121 17.1766 52.9785 17.2921C53.8295 17.4656 54.6328 17.7275 55.3014 18.0692C56.0923 18.4733 56.8007 18.9888 57.4121 19.6014C58.0223 20.2126 58.5358 20.9203 58.9383 21.7101C59.2808 22.3822 59.5429 23.1905 59.7157 24.0463C59.8289 24.607 59.9038 25.8406 59.9379 26.7977C59.9519 27.1917 59.959 27.7015 59.959 27.9356L59.9556 49.0678Z" fill="url(#paint0_linear)"/>
<path fill-rule="evenodd" clip-rule="evenodd" d="M49.4834 27.505C46.5693 24.6015 42.6938 23.0016 38.5647 23C30.057 23 23.1328 29.8906 23.1294 38.3603C23.1283 41.0676 23.8391 43.7104 25.1898 46.0398L23 54L31.1824 51.8639C33.4369 53.0876 35.9752 53.7326 38.5586 53.7337H38.5649C47.0717 53.7337 53.9966 46.8422 54 38.3725C54.0016 34.268 52.3976 30.4085 49.4834 27.505ZM38.5649 51.1393H38.5596C36.2576 51.1384 33.9997 50.5229 32.03 49.3596L31.5615 49.083L26.7059 50.3506L28.002 45.6391L27.6969 45.1561C26.4127 43.1233 25.7344 40.7736 25.7354 38.3613C25.7382 31.3217 31.4934 25.5944 38.5699 25.5944C41.9965 25.5957 45.2176 26.9256 47.6398 29.3388C50.062 31.7521 51.3951 34.96 51.3939 38.3715C51.3911 45.4117 45.636 51.1393 38.5649 51.1393ZM42.9666 40.3282C43.3201 40.4563 45.2162 41.3849 45.6019 41.577C45.6772 41.6145 45.7475 41.6483 45.8127 41.6797C46.0818 41.8091 46.2635 41.8965 46.3411 42.0253C46.4375 42.1854 46.4375 42.9539 46.1161 43.8505C45.7947 44.7471 44.2539 45.5654 43.5129 45.6756C42.8483 45.7744 42.0076 45.8156 41.0837 45.5235C40.5235 45.3466 39.8052 45.1104 38.885 44.715C35.2701 43.1615 32.8269 39.6749 32.3645 39.0149C32.332 38.9685 32.3093 38.9361 32.2966 38.9193L32.2935 38.9152C32.0894 38.6442 30.7218 36.8282 30.7218 34.9488C30.7218 33.1808 31.5945 32.2541 31.9962 31.8275C32.0237 31.7983 32.049 31.7714 32.0717 31.7468C32.4252 31.3625 32.843 31.2665 33.1001 31.2665C33.3572 31.2665 33.6145 31.2688 33.8392 31.2799C33.8669 31.2813 33.8957 31.2811 33.9255 31.281C34.1503 31.2796 34.4306 31.278 34.707 31.9389C34.8134 32.1932 34.9691 32.5704 35.1332 32.9681C35.4651 33.7721 35.8317 34.6602 35.8962 34.7887C35.9926 34.9808 36.0569 35.205 35.9283 35.4612C35.9091 35.4994 35.8914 35.5355 35.8744 35.57C35.7777 35.7665 35.7067 35.9109 35.5427 36.1016C35.4783 36.1764 35.4118 36.257 35.3453 36.3376C35.2125 36.4985 35.0797 36.6594 34.9641 36.774C34.7711 36.9654 34.57 37.1731 34.795 37.5573C35.02 37.9416 35.7941 39.1987 36.9405 40.2163C38.173 41.3103 39.2441 41.7727 39.7871 42.0071C39.8931 42.0529 39.979 42.09 40.042 42.1214C40.4277 42.3135 40.6526 42.2815 40.8776 42.0253C41.1026 41.7691 41.8417 40.9046 42.0988 40.5204C42.356 40.136 42.6131 40.2001 42.9666 40.3282Z" fill="white"/>
<defs>
<filter id="filter0_d" x="0" y="0" width="77" height="77" filterUnits="userSpaceOnUse" color-interpolation-filters="sRGB">
<feFlood flood-opacity="0" result="BackgroundImageFix"/>
<feColorMatrix in="SourceAlpha" type="matrix" values="0 0 0 0 0 0 0 0 0 0 0 0 0 0 0 0 0 0 127 0"/>
<feOffset/>
<feGaussianBlur stdDeviation="4.5"/>
<feColorMatrix type="matrix" values="0 0 0 0 0.301961 0 0 0 0 0.890196 0 0 0 0 0.360784 0 0 0 1 0"/>
<feBlend mode="normal" in2="BackgroundImageFix" result="effect1_dropShadow"/>
<feBlend mode="normal" in="SourceGraphic" in2="effect1_dropShadow" result="shape"/>
</filter>
<linearGradient id="paint0_linear" x1="17.041" y1="17.041" x2="17.041" y2="59.9591" gradientUnits="userSpaceOnUse">
<stop stop-color="#61FD7D"/>
<stop offset="1" stop-color="#2BB826"/>
</linearGradient>
</defs>
</svg>
