<svg width="174" height="16" viewBox="0 0 174 16" fill="none" xmlns="http://www.w3.org/2000/svg">
<path d="M0.62 0.819999V15H6.1C8.76 15 10.48 13.34 10.48 11.04C10.48 9.28 9.36 8.02 7.98 7.68C9.16 7.28 10.04 6.1 10.04 4.64C10.04 2.44 8.48 0.819999 5.72 0.819999H0.62ZM3.34 6.68V3.14H5.28C6.62 3.14 7.32 3.82 7.32 4.9C7.32 5.98 6.56 6.68 5.3 6.68H3.34ZM3.34 12.7V8.96H5.62C7 8.96 7.72 9.74 7.72 10.86C7.72 12 6.92 12.7 5.58 12.7H3.34ZM15.287 15V0.519999H12.627V15H15.287ZM17.4763 12.32C17.4763 13.86 18.7563 15.28 20.8563 15.28C22.3163 15.28 23.2563 14.6 23.7563 13.82C23.7563 14.2 23.7963 14.74 23.8563 15H26.2963C26.2363 14.66 26.1763 13.96 26.1763 13.44V8.6C26.1763 6.62 25.0163 4.86 21.8963 4.86C19.2563 4.86 17.8363 6.56 17.6763 8.1L20.0363 8.6C20.1163 7.74 20.7563 7 21.9163 7C23.0363 7 23.5763 7.58 23.5763 8.28C23.5763 8.62 23.3963 8.9 22.8363 8.98L20.4163 9.34C18.7763 9.58 17.4763 10.56 17.4763 12.32ZM21.4163 13.3C20.5563 13.3 20.1363 12.74 20.1363 12.16C20.1363 11.4 20.6763 11.02 21.3563 10.92L23.5763 10.58V11.02C23.5763 12.76 22.5362 13.3 21.4163 13.3ZM33.2384 7.32C34.5584 7.32 35.1784 8.16 35.4184 8.98L37.7984 8.18C37.3784 6.52 35.8584 4.86 33.1784 4.86C30.3184 4.86 28.0784 7.04 28.0784 10.08C28.0784 13.1 30.3584 15.3 33.2584 15.3C35.8784 15.3 37.4184 13.62 37.8584 11.98L35.5184 11.2C35.2984 11.96 34.6184 12.86 33.2584 12.86C31.8984 12.86 30.7384 11.86 30.7384 10.08C30.7384 8.3 31.8784 7.32 33.2384 7.32ZM49.3545 5.16H45.8745L42.4745 8.82V0.519999H39.8145V15H42.4745V12.4L43.5745 11.24L46.1745 15H49.4345L45.4145 9.3L49.3545 5.16ZM65.2078 15V12.36H58.8878V0.819999H56.1278V15H65.2078ZM69.7792 15V5.16H67.1192V15H69.7792ZM66.7992 1.94C66.7992 2.82 67.5392 3.56 68.4392 3.56C69.3592 3.56 70.0792 2.82 70.0792 1.94C70.0792 1.02 69.3592 0.279999 68.4392 0.279999C67.5392 0.279999 66.7992 1.02 66.7992 1.94ZM81.907 5.16H79.107L76.767 11.76L74.327 5.16H71.407L75.427 15H78.087L81.907 5.16ZM85.1725 8.96C85.2325 8.06 85.9925 7.02 87.3725 7.02C88.8925 7.02 89.5325 7.98 89.5725 8.96H85.1725ZM89.8325 11.52C89.5125 12.4 88.8325 13.02 87.5925 13.02C86.2725 13.02 85.1725 12.08 85.1125 10.78H92.1525C92.1525 10.74 92.1925 10.34 92.1925 9.96C92.1925 6.8 90.3725 4.86 87.3325 4.86C84.8125 4.86 82.4925 6.9 82.4925 10.04C82.4925 13.36 84.8725 15.3 87.5725 15.3C89.9925 15.3 91.5525 13.88 92.0525 12.18L89.8325 11.52ZM93.4472 12.26C93.5672 13.38 94.5872 15.3 97.5472 15.3C100.127 15.3 101.367 13.66 101.367 12.06C101.367 10.62 100.387 9.44 98.4472 9.04L97.0472 8.74C96.5072 8.64 96.1472 8.34 96.1472 7.86C96.1472 7.3 96.7072 6.88 97.4072 6.88C98.5272 6.88 98.9472 7.62 99.0272 8.2L101.247 7.7C101.127 6.64 100.187 4.86 97.3872 4.86C95.2672 4.86 93.7072 6.32 93.7072 8.08C93.7072 9.46 94.5672 10.6 96.4672 11.02L97.7672 11.32C98.5272 11.48 98.8272 11.84 98.8272 12.28C98.8272 12.8 98.4072 13.26 97.5272 13.26C96.3672 13.26 95.7872 12.54 95.7272 11.76L93.4472 12.26ZM124.467 15V0.819999H120.707L116.547 11.06L112.287 0.819999H108.647V15H111.287V5.14L115.367 15H117.667L121.747 5.06V15H124.467ZM126.871 12.32C126.871 13.86 128.151 15.28 130.251 15.28C131.711 15.28 132.651 14.6 133.151 13.82C133.151 14.2 133.191 14.74 133.251 15H135.691C135.631 14.66 135.571 13.96 135.571 13.44V8.6C135.571 6.62 134.411 4.86 131.291 4.86C128.651 4.86 127.231 6.56 127.071 8.1L129.431 8.6C129.511 7.74 130.151 7 131.311 7C132.431 7 132.971 7.58 132.971 8.28C132.971 8.62 132.791 8.9 132.231 8.98L129.811 9.34C128.171 9.58 126.871 10.56 126.871 12.32ZM130.811 13.3C129.951 13.3 129.531 12.74 129.531 12.16C129.531 11.4 130.071 11.02 130.751 10.92L132.971 10.58V11.02C132.971 12.76 131.931 13.3 130.811 13.3ZM141.473 2.22H139.073V3.6C139.073 4.48 138.593 5.16 137.553 5.16H137.053V7.52H138.833V12.1C138.833 14 140.033 15.14 141.953 15.14C142.733 15.14 143.213 15 143.453 14.9V12.7C143.313 12.74 142.953 12.78 142.633 12.78C141.873 12.78 141.473 12.5 141.473 11.64V7.52H143.453V5.16H141.473V2.22ZM148.934 2.22H146.534V3.6C146.534 4.48 146.054 5.16 145.014 5.16H144.514V7.52H146.294V12.1C146.294 14 147.494 15.14 149.414 15.14C150.194 15.14 150.674 15 150.914 14.9V12.7C150.774 12.74 150.414 12.78 150.094 12.78C149.334 12.78 148.934 12.5 148.934 11.64V7.52H150.914V5.16H148.934V2.22ZM155.016 8.96C155.076 8.06 155.836 7.02 157.216 7.02C158.736 7.02 159.376 7.98 159.416 8.96H155.016ZM159.676 11.52C159.356 12.4 158.676 13.02 157.436 13.02C156.116 13.02 155.016 12.08 154.956 10.78H161.996C161.996 10.74 162.036 10.34 162.036 9.96C162.036 6.8 160.216 4.86 157.176 4.86C154.656 4.86 152.336 6.9 152.336 10.04C152.336 13.36 154.716 15.3 157.416 15.3C159.836 15.3 161.396 13.88 161.896 12.18L159.676 11.52ZM170.131 5.12C169.931 5.1 169.731 5.08 169.511 5.08C168.671 5.08 167.311 5.32 166.711 6.62V5.16H164.131V15H166.791V10.5C166.791 8.38 167.971 7.72 169.331 7.72C169.571 7.72 169.831 7.74 170.131 7.8V5.12ZM170.241 13.32C170.241 14.32 171.061 15.14 172.061 15.14C173.081 15.14 173.901 14.32 173.901 13.32C173.901 12.32 173.081 11.5 172.061 11.5C171.061 11.5 170.241 12.32 170.241 13.32Z" fill="#FFEAA0"/>
</svg>
