<svg width="26" height="22" viewBox="0 0 26 22" fill="none" xmlns="http://www.w3.org/2000/svg">
<path fill-rule="evenodd" clip-rule="evenodd" d="M15.6517 17.1872L13 19.8388C10.5592 22.2796 6.60194 22.2796 4.16117 19.8388C1.72039 17.3981 1.72039 13.4408 4.16117 11L6.81282 8.34835L8.58058 10.1161L5.92893 12.7678C4.46447 14.2322 4.46447 16.6066 5.92893 18.0711C7.3934 19.5355 9.76777 19.5355 11.2322 18.0711L13.8839 15.4194L15.6517 17.1872ZM10.3483 4.81282L13 2.16117C15.4408 -0.279611 19.3981 -0.279612 21.8388 2.16117C24.2796 4.60194 24.2796 8.55922 21.8388 11L19.1872 13.6517L17.4194 11.8839L20.0711 9.23223C21.5355 7.76777 21.5355 5.3934 20.0711 3.92893C18.6066 2.46447 16.2322 2.46447 14.7678 3.92893L12.1161 6.58058L10.3483 4.81282ZM7.6967 14.5355L9.46447 16.3033L18.3033 7.46447L16.5355 5.6967L7.6967 14.5355Z" fill="#FEE99F"/>
</svg>
