<svg width="83" height="80" viewBox="0 0 83 80" fill="none" xmlns="http://www.w3.org/2000/svg">
<rect x="1.01941" y="8" width="72" height="72" rx="18" fill="#EC6737"/>
<rect x="1.01941" width="79.2788" height="79.353" rx="4" fill="#E23237"/>
<path d="M7.25482 16.1326L40.215 4.45801L74.0628 15.9251L68.5823 59.2768L40.215 74.8949L12.2915 59.4844L7.25482 16.1326Z" fill="#E23237"/>
<path d="M74.0628 15.9251L40.2134 4.45801V74.8949L68.582 59.3029L74.0628 15.9251Z" fill="#B52E31"/>
<path fill-rule="evenodd" clip-rule="evenodd" d="M19.7256 57.8249L40.1652 12.4824L61.592 57.9543L54.2941 57.8249L49.8009 47.4667H31.4649L27.3612 57.6954L19.7256 57.8249ZM47.1258 41.4072L40.2174 27.0097L34.1397 41.4072H47.1258Z" fill="white"/>
<rect x="1" width="79.2788" height="79.353" rx="4" fill="url(#paint0_linear)"/>
<path d="M41.088 60.6292C40.8459 60.6292 40.6055 60.5666 40.3933 60.4461L38.1821 59.1546C37.8518 58.9724 38.013 58.9079 38.1219 58.8708C38.5623 58.7187 38.6516 58.6843 39.1217 58.421C39.1711 58.3932 39.2357 58.403 39.2863 58.4324L40.985 59.4269C41.0464 59.4596 41.1334 59.4596 41.1903 59.4269L47.8137 55.6552C47.8751 55.6208 47.9149 55.5505 47.9149 55.4785V47.9383C47.9149 47.863 47.8751 47.796 47.8124 47.7584L41.1916 43.9899C41.1303 43.9539 41.049 43.9539 40.9877 43.9899L34.3682 47.7584C34.304 47.7944 34.2632 47.8647 34.2632 47.9367V55.4769C34.2632 55.5488 34.303 55.6175 34.366 55.6519L36.1798 56.6856C37.1646 57.1714 37.7665 56.5989 37.7665 56.0232V48.5811C37.7665 48.4748 37.851 48.393 37.9588 48.393H38.7977C38.9022 48.393 38.9884 48.4748 38.9884 48.5811V56.0264C38.9884 57.3219 38.2721 58.0661 37.027 58.0661C36.644 58.0661 36.3423 58.0661 35.5001 57.6572L33.7625 56.6692C33.3327 56.4218 33.0682 55.9679 33.0679 55.4769V47.9367C33.0679 47.446 33.3331 46.988 33.7625 46.7459L40.3926 42.9725C40.8121 42.7386 41.3692 42.7386 41.7853 42.9725L48.4071 46.7476C48.8369 46.9942 49.1015 47.4477 49.1018 47.9383V55.4785C49.1018 55.9676 48.8349 56.4239 48.4071 56.6692L41.7853 60.4426C41.573 60.5632 41.3323 60.6264 41.0873 60.6258" fill="white"/>
<path fill-rule="evenodd" clip-rule="evenodd" d="M50.5539 49.0582C51.2242 49.0582 51.7741 48.4528 51.7741 47.7109H51.7725C51.7725 46.9497 51.2115 46.3635 50.5539 46.3635C49.901 46.3635 49.3337 46.948 49.3337 47.7109C49.3337 48.4598 49.8884 49.0582 50.5539 49.0582ZM49.5318 47.7074C49.5318 48.3338 49.9898 48.8413 50.5523 48.8413C51.1196 48.8413 51.5776 48.3233 51.5776 47.7074C51.5776 47.0792 51.1133 46.5805 50.5507 46.5805C49.9961 46.5805 49.5302 47.0722 49.5302 47.7056L49.5318 47.7074ZM50.5682 46.955H50.0975V48.4685H50.3622V47.8631H50.6015C50.6981 47.8631 50.7251 47.9051 50.7441 47.9908C50.7441 48.0088 50.7764 48.2923 50.7908 48.4182L50.7964 48.4668H51.0864C51.0497 48.3994 51.0293 48.2038 51.0165 48.0816L51.015 48.0678L51.013 48.0523C50.9889 47.8681 50.9719 47.7385 50.7884 47.7249L50.7892 47.7246C50.886 47.6896 51.0467 47.6314 51.0467 47.3539C51.0467 46.955 50.7298 46.955 50.5682 46.955ZM50.3558 47.6164H50.5682C50.7425 47.6164 50.7758 47.4817 50.7758 47.4029C50.7758 47.1964 50.6474 47.1964 50.5761 47.1964H50.3574L50.3558 47.6164ZM42.6541 56.163C39.8841 56.163 39.3033 54.7589 39.3033 53.5813C39.3033 53.4693 39.3851 53.3801 39.4866 53.3801H40.3043C40.3946 53.3801 40.4707 53.4527 40.485 53.5512C40.6086 54.4713 40.9762 54.9353 42.6512 54.9353C43.9855 54.9353 44.5528 54.6025 44.5528 53.8212C44.5528 53.3715 44.3912 53.0373 42.3184 52.8133C40.5848 52.6243 39.5136 52.2026 39.5136 50.6716C39.5136 49.2612 40.5911 48.4213 42.3961 48.4213C44.4229 48.4213 45.4275 49.1982 45.5543 50.8675C45.5586 50.9243 45.5411 50.9804 45.5062 51.0223C45.4713 51.0642 45.422 51.088 45.3705 51.088H44.548C44.4625 51.088 44.388 51.0215 44.3706 50.9305C44.1725 49.9629 43.6939 49.6532 42.3929 49.6532C40.9366 49.6532 40.767 50.2131 40.767 50.6331C40.767 51.1422 40.9667 51.291 42.9317 51.578C44.8777 51.8632 45.8015 52.2656 45.8015 53.7757C45.8015 55.298 44.651 56.1712 42.6449 56.1712L42.6541 56.163Z" fill="white"/>
<path fill-rule="evenodd" clip-rule="evenodd" d="M21.2557 32.0481C21.2557 31.7592 21.1033 31.4939 20.8539 31.3502L14.2013 27.5243C14.09 27.4594 13.9644 27.4233 13.8357 27.4191H13.7669C13.6393 27.4238 13.5135 27.4583 13.3993 27.5243L6.74706 31.3502C6.49816 31.495 6.34493 31.761 6.34467 32.0489L6.35927 42.3541C6.35927 42.4969 6.43309 42.6304 6.55874 42.701C6.68125 42.7764 6.83518 42.7764 6.95769 42.701L10.9125 40.4371C11.1623 40.2886 11.3146 40.0261 11.3146 39.7401V34.9258C11.314 34.6389 11.4671 34.3735 11.7159 34.2303L13.3997 33.261C13.5218 33.1901 13.6605 33.1529 13.8017 33.153C13.9393 33.153 14.0797 33.1885 14.2013 33.2609L15.8842 34.2299C16.1333 34.3727 16.2863 34.638 16.2863 34.9253V39.7393C16.2863 40.025 16.4407 40.2888 16.6892 40.4364L20.6415 42.6987C20.7654 42.7725 20.9198 42.7725 21.0436 42.6987C21.1668 42.6264 21.2425 42.4944 21.2428 42.3517L21.2557 32.0481ZM52.6477 37.4136C52.6477 37.4853 52.6095 37.5517 52.5472 37.5872L50.2622 38.9038C50.2001 38.9394 50.1237 38.9394 50.0616 38.9038L47.7763 37.5872C47.7135 37.5516 47.6758 37.4852 47.6758 37.4136V34.7767C47.6758 34.7048 47.7135 34.6385 47.7748 34.6024L50.0585 33.2836C50.1213 33.2475 50.1983 33.2475 50.2611 33.2836L52.5464 34.6024C52.6092 34.6385 52.6469 34.7048 52.6469 34.7767L52.6477 37.4136ZM53.2649 17.883C53.1404 17.8137 52.9884 17.8153 52.8654 17.8872C52.7429 17.9594 52.6672 18.0913 52.6672 18.2342V28.4389C52.6673 28.5393 52.6138 28.6322 52.5268 28.6824C52.4398 28.7326 52.3325 28.7326 52.2456 28.6823L50.5791 27.7229C50.3308 27.5794 50.0246 27.5794 49.7762 27.7229L43.1214 31.5619C42.873 31.7047 42.7197 31.9693 42.7194 32.2558V39.936C42.7194 40.2233 42.8728 40.4871 43.1214 40.6315L49.7762 44.4732C50.0247 44.6161 50.3307 44.6161 50.5799 44.4732L57.2347 40.6299C57.4829 40.4855 57.6368 40.2218 57.6368 39.9344V20.7935C57.6363 20.5021 57.4783 20.2337 57.2237 20.0918L53.2649 17.883ZM75.4255 34.7073C75.6728 34.5634 75.8249 34.299 75.8249 34.013V32.1517C75.8249 31.8653 75.6726 31.6011 75.4249 31.457L68.8125 27.62C68.5634 27.4756 68.2559 27.4756 68.0068 27.62L61.3536 31.4586C61.1038 31.603 60.9515 31.8668 60.9515 32.1541V39.8311C60.9515 40.12 61.107 40.3869 61.3567 40.5298L67.9675 44.2961C68.211 44.4358 68.5094 44.4374 68.756 44.3008L72.7548 42.0793C72.8805 42.0087 72.9606 41.8752 72.9606 41.7308C72.9606 41.5864 72.8836 41.4513 72.758 41.3807L66.0639 37.5406C65.9383 37.4699 65.8613 37.3365 65.8613 37.1936V34.7853C65.8613 34.6415 65.9367 34.509 66.0623 34.4374L68.145 33.2364C68.2691 33.1642 68.4214 33.1642 68.5455 33.2364L70.6297 34.4374C70.7538 34.508 70.8308 34.6415 70.8308 34.7844V36.6777C70.8308 36.8206 70.9077 36.954 71.0318 37.0263C71.1559 37.0969 71.3098 37.0969 71.4339 37.0247L75.4255 34.7073Z" fill="white"/>
<path fill-rule="evenodd" clip-rule="evenodd" d="M67.7127 33.904C67.7718 33.8735 67.8451 33.8735 67.9043 33.904L69.4937 34.7106C69.5532 34.7409 69.5895 34.7966 69.5895 34.8568V36.4718C69.5895 36.532 69.5532 36.5878 69.4937 36.618L67.9043 37.4247C67.8451 37.4551 67.7718 37.4551 67.7127 37.4247L66.1242 36.618C66.064 36.5883 66.0267 36.5325 66.0264 36.4718V34.8568C66.0264 34.7966 66.0616 34.7409 66.1222 34.7106L67.7127 33.904Z" fill="white"/>
<path d="M45.4383 30.5649L26.7425 21.4926L17.1564 40.8524L35.8518 49.9253L45.4383 30.5649Z" fill="url(#paint1_linear)"/>
<path d="M16.1541 33.5633L29.1733 51.6268L46.3914 38.5861L33.3714 20.5231L16.1541 33.5633Z" fill="url(#paint2_linear)"/>
<path d="M25.0542 26.901V44.4763H40.1452V26.901L25.0542 26.901Z" fill="url(#paint3_linear)"/>
<defs>
<linearGradient id="paint0_linear" x1="1" y1="0" x2="1" y2="79.353" gradientUnits="userSpaceOnUse">
<stop stop-color="#181C21"/>
<stop offset="1" stop-color="#181C21"/>
</linearGradient>
<linearGradient id="paint1_linear" x1="26.4569" y1="21.1962" x2="16.7894" y2="40.5138" gradientUnits="userSpaceOnUse">
<stop offset="0.3" stop-color="#3E863D"/>
<stop offset="0.5" stop-color="#55934F"/>
<stop offset="0.8" stop-color="#5AAD45"/>
</linearGradient>
<linearGradient id="paint2_linear" x1="29.0812" y1="51.5546" x2="46.639" y2="38.9861" gradientUnits="userSpaceOnUse">
<stop offset="0.57" stop-color="#3E863D"/>
<stop offset="0.72" stop-color="#619857"/>
<stop offset="1" stop-color="#76AC64"/>
</linearGradient>
<linearGradient id="paint3_linear" x1="25.0593" y1="44.4755" x2="40.148" y2="44.4755" gradientUnits="userSpaceOnUse">
<stop offset="0.16" stop-color="#6BBF47"/>
<stop offset="0.38" stop-color="#79B461"/>
<stop offset="0.47" stop-color="#75AC64"/>
<stop offset="0.7" stop-color="#659E5A"/>
<stop offset="0.9" stop-color="#3E863D"/>
</linearGradient>
</defs>
</svg>
