<svg width="82" height="80" viewBox="0 0 82 80" fill="none" xmlns="http://www.w3.org/2000/svg">
<rect x="1" width="79.2788" height="79.353" rx="4" fill="#F1EBF5"/>
<path fill-rule="evenodd" clip-rule="evenodd" d="M26.499 16.7807C26.499 16.7807 25.567 10.3159 40.4938 10.3159C56.0935 10.3159 54.8879 18.1105 54.8879 18.1105V30.99C54.8879 38.7795 46.9504 38.6514 46.9504 38.6514H32.8225C24.3504 38.6514 24.6186 46.9776 24.6186 46.9776V53.9577H19.6432C19.6432 53.9577 11.3062 54.4912 11.3062 39.4491C11.3062 24.4074 20.8579 25.4893 20.8579 25.4893H40.76V23.4785H26.5156L26.499 16.7807ZM34.4522 15.5689C33.9714 15.0888 33.3193 14.8194 32.6395 14.82C31.9597 14.8194 31.3075 15.0888 30.8268 15.5689C30.3461 16.049 30.0763 16.7003 30.0769 17.3793C30.0763 18.0582 30.3461 18.7095 30.8268 19.1896C31.3075 19.6697 31.9597 19.9391 32.6395 19.9385C33.3193 19.9391 33.9714 19.6697 34.4522 19.1896C34.9329 18.7095 35.2026 18.0582 35.202 17.3793C35.2026 16.7003 34.9329 16.049 34.4522 15.5689Z" fill="url(#paint0_linear)"/>
<path fill-rule="evenodd" clip-rule="evenodd" d="M54.7799 61.7788C54.7799 61.7788 55.7119 68.2436 40.7851 68.2436H40.7848C25.1854 68.2436 26.3907 60.4493 26.3907 60.4493V47.5696C26.3907 39.7798 34.3282 39.9079 34.3282 39.9079H48.4562C56.9283 39.9079 56.66 31.5817 56.66 31.5817V24.6018H61.6355C61.6355 24.6018 69.9725 24.0684 69.9725 39.1102C69.9725 54.1523 60.4208 53.0705 60.4208 53.0705H40.5187V55.0813H54.7633L54.7799 61.7788ZM46.8268 62.9911C47.3075 63.4711 47.9596 63.7406 48.6394 63.74V63.7397C49.3193 63.7404 49.9714 63.4709 50.4521 62.9908C50.9328 62.5107 51.2026 61.8594 51.202 61.1805C51.2026 60.5016 50.9328 59.8502 50.4521 59.3702C49.9714 58.8901 49.3193 58.6206 48.6394 58.6212C47.9596 58.6206 47.3074 58.8901 46.8267 59.3702C46.346 59.8504 46.0762 60.5017 46.0769 61.1807C46.0763 61.8597 46.346 62.511 46.8268 62.9911Z" fill="url(#paint1_linear)"/>
<defs>
<linearGradient id="paint0_linear" x1="2.46023" y1="30.1862" x2="31.6917" y2="59.0346" gradientUnits="userSpaceOnUse">
<stop stop-color="#387EB8"/>
<stop offset="1" stop-color="#366994"/>
</linearGradient>
<linearGradient id="paint1_linear" x1="19.857" y1="49.2785" x2="51.2502" y2="78.8617" gradientUnits="userSpaceOnUse">
<stop stop-color="#FFE052"/>
<stop offset="1" stop-color="#FFC331"/>
</linearGradient>
</defs>
</svg>
