<svg width="80" height="80" viewBox="0 0 80 80" fill="none" xmlns="http://www.w3.org/2000/svg">
<rect width="79.2788" height="79.353" rx="4" fill="url(#paint0_linear)"/>
<path fill-rule="evenodd" clip-rule="evenodd" d="M60.7399 27.7444C69.8038 30.5119 75.7157 34.9746 75.7157 39.6837C75.7157 44.3782 69.8329 48.841 60.8271 51.6084C62.9333 60.7947 62.0182 68.1118 57.9365 70.4591C56.9779 71.0097 55.8739 71.2705 54.6538 71.2705C50.6593 71.2705 45.4301 68.4596 40.1429 63.5622C34.8556 68.4885 29.6264 71.3285 25.632 71.3285C24.4118 71.3285 23.3079 71.0676 22.3637 70.5171C18.2676 68.1698 17.3379 60.8382 19.4296 51.6229C10.3657 48.8555 4.45386 44.3927 4.45386 39.6837C4.45386 34.9891 10.3367 30.5409 19.3715 27.7589C17.2653 18.5727 18.1804 11.2555 22.262 8.90827C23.2207 8.35767 24.3247 8.09686 25.5448 8.09686V8.08237C29.5393 8.08237 34.7685 10.8933 40.0557 15.7907C45.343 10.8643 50.5721 8.02441 54.5666 8.02441V8.03892C55.7666 8.041 56.8654 8.30192 57.8058 8.85031C61.902 11.1976 62.8316 18.5292 60.7399 27.7444ZM54.5521 11.2556C51.5311 11.2633 47.093 13.6678 42.3653 18.0511C44.4133 20.181 46.4469 22.6152 48.4078 25.2957C51.6761 25.6435 54.7845 26.1796 57.6315 26.8751C57.9511 25.4117 58.2125 23.9772 58.3723 22.6152C59.0405 17.0803 58.1835 12.7769 56.208 11.6468C55.7577 11.4004 55.2203 11.27 54.5521 11.27V11.2556ZM37.7462 18.0655C33.0109 13.7042 28.5516 11.3135 25.5448 11.3135V11.328C24.8766 11.328 24.3101 11.4439 23.8744 11.7047C21.9134 12.8494 21.071 17.1527 21.7537 22.6877C21.928 24.0352 22.1749 25.4406 22.509 26.8896C25.356 26.1796 28.4644 25.6435 31.7472 25.2957C33.679 22.6152 35.7126 20.1955 37.7462 18.0655ZM54.8426 35.7426C55.5979 33.8155 56.2661 31.8884 56.8036 30.0193C54.9007 29.5556 52.9107 29.1789 50.8481 28.8746C51.5599 29.9758 52.2716 31.106 52.9398 32.2651C53.6225 33.4243 54.2471 34.5834 54.8426 35.7426ZM50.1509 45.4504C49.0179 47.4065 47.8559 49.2612 46.6503 50.9854C44.486 51.1737 42.2926 51.2752 40.0848 51.2752C37.8914 51.2752 35.6981 51.1738 33.5483 50.9999C32.3427 49.2756 31.1661 47.4355 30.0332 45.4939C28.9292 43.5958 27.927 41.6687 27.0119 39.7271C27.9124 37.7856 28.9292 35.844 30.0186 33.9459C31.1516 31.9898 32.3137 30.1352 33.5193 28.411C35.6836 28.2226 37.8769 28.1212 40.0848 28.1212C42.2781 28.1212 44.4715 28.2226 46.6212 28.3965C47.8268 30.1207 49.0034 31.9608 50.1364 33.9024C51.2403 35.8005 52.2426 37.7276 53.1577 39.6692C52.2426 41.6108 51.2403 43.5523 50.1509 45.4504ZM56.8471 49.3336C56.2952 47.45 55.627 45.5084 54.8426 43.5668C54.2471 44.726 53.6225 45.8996 52.9543 47.0588C52.2861 48.2324 51.5744 49.3771 50.8626 50.4928C52.9398 50.1885 54.9443 49.7973 56.8471 49.3336ZM40.1138 59.027C38.763 57.636 37.4121 56.0856 36.0757 54.3904C37.383 54.4483 38.7194 54.4918 40.0702 54.4918C41.4356 54.4918 42.7865 54.4628 44.1083 54.3904C42.801 56.0856 41.4502 57.636 40.1138 59.027ZM23.3515 49.3481C25.2543 49.8117 27.2443 50.1885 29.3069 50.4928C28.5951 49.3916 27.8979 48.2614 27.2152 47.1022C26.5325 45.9431 25.9079 44.7839 25.3124 43.6248C24.5571 45.5519 23.8889 47.479 23.3515 49.3481ZM40.0412 20.3404C41.3921 21.7314 42.7429 23.2817 44.0793 24.977C42.772 24.919 41.4356 24.8755 40.0848 24.8755C38.7194 24.8755 37.3685 24.9045 36.0467 24.977C37.354 23.2817 38.7048 21.7314 40.0412 20.3404ZM27.2007 32.3086C27.8689 31.135 28.5806 29.9903 29.2924 28.8746C27.2152 29.1789 25.2107 29.5701 23.3079 30.0193C23.8598 31.9029 24.528 33.8445 25.3124 35.786C25.9079 34.6269 26.5325 33.4677 27.2007 32.3086ZM16.1468 47.0153C11.0048 44.8274 7.67851 41.9585 7.67851 39.6837C7.67851 37.4089 11.0048 34.5255 16.1468 32.3521C17.396 31.816 18.7614 31.3378 20.1704 30.8886C20.9983 33.7286 22.0877 36.6844 23.4386 39.7127C22.1023 42.7264 21.0274 45.6678 20.214 48.4932C18.7759 48.044 17.4106 47.5514 16.1468 47.0153ZM21.7972 56.7522C21.1291 62.2871 21.9861 66.5904 23.9615 67.7206C24.3973 67.9669 24.9493 68.0973 25.6029 68.1118C28.6242 68.1118 33.069 65.7066 37.8043 61.3163C35.7562 59.1864 33.7226 56.7522 31.7617 54.0716C28.4935 53.7239 25.385 53.1878 22.538 52.4923C22.2185 53.9557 21.957 55.3902 21.7972 56.7522ZM58.4159 56.6797C59.0986 62.2146 58.2561 66.518 56.2952 67.6627C55.8594 67.9235 55.2929 68.0394 54.6247 68.0394C51.618 68.0394 47.1587 65.6486 42.4234 61.2873C44.4569 59.1574 46.4905 56.7377 48.4224 54.0571C51.7051 53.7094 54.8136 53.1733 57.6606 52.4633C57.9946 53.9267 58.2561 55.3322 58.4159 56.6797ZM59.9846 48.4787C61.3936 48.0296 62.759 47.5514 64.0082 47.0153C69.1502 44.8419 72.4765 41.9585 72.491 39.6837C72.491 37.4089 69.1647 34.54 64.0227 32.3521C62.7445 31.816 61.3791 31.3233 59.941 30.8741C59.1276 33.6996 58.0527 36.6409 56.7164 39.6547C58.0673 42.683 59.1567 45.6388 59.9846 48.4787Z" fill="#61DAFB"/>
<ellipse cx="40.5302" cy="39.6764" rx="6.6808" ry="6.68705" fill="#61DAFB"/>
<defs>
<linearGradient id="paint0_linear" x1="0" y1="0" x2="0" y2="79.353" gradientUnits="userSpaceOnUse">
<stop stop-color="#181C21"/>
<stop offset="1" stop-color="#181C21"/>
</linearGradient>
</defs>
</svg>
