<svg width="80" height="80" viewBox="0 0 80 80" fill="none" xmlns="http://www.w3.org/2000/svg">
<rect width="79.2788" height="79.353" rx="4" fill="#FF3C00"/>
<path d="M64.6416 15.0627C58.4488 6.30897 46.2179 3.71461 37.3752 9.27984L21.8454 19.0572C17.6073 21.687 14.6851 25.9576 13.7946 30.8231C13.052 34.8844 13.7016 39.0745 15.6406 42.7301C14.3117 44.7217 13.4061 46.9594 12.9789 49.3072C12.0828 54.2758 13.2528 59.3914 16.2242 63.4967C22.417 72.2505 34.6479 74.8449 43.4906 69.2796L59.0204 59.5434C63.2533 56.9083 66.1737 52.6403 67.0711 47.7776C67.8111 43.7175 67.1594 39.5296 65.2192 35.8765C66.5475 33.8838 67.4548 31.6468 67.8869 29.2994C68.7802 24.3308 67.6105 19.2162 64.6416 15.1098" fill="white"/>
<path d="M35.8852 63.885C30.9087 65.1663 25.6549 63.2325 22.7246 59.0408C20.9499 56.5773 20.2522 53.5075 20.7895 50.5268C20.8768 50.0468 20.9994 49.5739 21.1564 49.1117L21.4464 48.2309L22.2393 48.8181C24.062 50.1384 26.0968 51.143 28.2575 51.7892L28.8492 51.9595L28.796 52.5466C28.739 53.3517 28.9672 54.1513 29.441 54.8073C30.3252 56.0682 31.9073 56.6492 33.4057 56.2634C33.7403 56.1742 34.0595 56.0357 34.3525 55.8524L49.7619 46.0936C50.5271 45.6158 51.0536 44.8397 51.2117 43.9563C51.371 43.0568 51.1576 42.1316 50.6199 41.3904C49.7357 40.1294 48.1536 39.5484 46.6551 39.9342C46.3202 40.0223 46.0009 40.1609 45.7083 40.3452L39.7908 44.0737C38.823 44.6827 37.7674 45.142 36.6604 45.436C31.6925 46.7096 26.4508 44.7791 23.5234 40.5977C21.7542 38.1319 21.0609 35.0628 21.6002 32.0837C22.1286 29.1568 23.8751 26.5862 26.4112 25.0024L41.8678 15.2436C42.83 14.6359 43.8795 14.1765 44.9805 13.8813C49.9553 12.5991 55.2079 14.5333 58.1352 18.7255C59.9119 21.1881 60.6117 24.2579 60.0761 27.2395C59.9838 27.7222 59.8613 28.1987 59.7093 28.6663L59.4134 29.5471L58.6263 28.9599C56.8 27.6295 54.7589 26.6169 52.5904 25.9653L51.9987 25.7951L52.0519 25.2079C52.1203 24.3988 51.8981 23.5918 51.4247 22.9296C50.5352 21.6908 48.966 21.1274 47.4836 21.5146C47.1487 21.6027 46.8293 21.7413 46.5368 21.9256L31.0979 31.6668C30.3355 32.1449 29.8098 32.9179 29.6481 33.7982C29.4918 34.6995 29.7049 35.6254 30.2398 36.37C31.1197 37.619 32.6858 38.1986 34.175 37.8262C34.5091 37.7358 34.8281 37.5973 35.1218 37.4152L41.0394 33.6925C42.0065 33.0769 43.0647 32.6153 44.1757 32.3244C49.1493 31.0391 54.4027 32.9713 57.3304 37.1627C59.1059 39.6258 59.8056 42.6952 59.2714 45.6767C58.743 48.6036 56.9965 51.1742 54.4604 52.758L39.0215 62.5168C38.0519 63.1277 36.9944 63.589 35.8852 63.885Z" fill="#FF3C00"/>
</svg>
