<svg width="379" height="29" viewBox="0 0 379 29" fill="none" xmlns="http://www.w3.org/2000/svg">
<g filter="url(#filter0_d)">
<path d="M6.86 14.22C5.51333 12.86 4.84 11.08 4.84 8.88C4.84 6.68 5.51333 4.9 6.86 3.54C8.20667 2.18 9.91333 1.5 11.98 1.5C13.78 1.5 15.3067 2 16.56 3C17.8267 4 18.5933 5.35333 18.86 7.06H15.74C15.5267 6.18 15.0867 5.5 14.42 5.02C13.7533 4.52667 12.94 4.28 11.98 4.28C10.7 4.28 9.7 4.69333 8.98 5.52C8.27333 6.34667 7.92 7.46667 7.92 8.88C7.92 10.2933 8.27333 11.4133 8.98 12.24C9.7 13.0667 10.7 13.48 11.98 13.48C12.94 13.48 13.7533 13.24 14.42 12.76C15.0867 12.2667 15.5267 11.58 15.74 10.7H18.86C18.5933 12.4067 17.8267 13.76 16.56 14.76C15.3067 15.76 13.78 16.26 11.98 16.26C9.91333 16.26 8.20667 15.58 6.86 14.22ZM29.0223 1.8V4.54H25.1223V16H22.2023V4.54H18.3023V1.8H29.0223ZM41.2763 3.6C42.6629 5 43.3563 6.76667 43.3563 8.9C43.3563 11.0333 42.6629 12.8 41.2763 14.2C39.8896 15.6 38.1229 16.3 35.9763 16.3C33.8296 16.3 32.0629 15.6 30.6763 14.2C29.2896 12.8 28.5963 11.0333 28.5963 8.9C28.5963 6.76667 29.2896 5 30.6763 3.6C32.0629 2.2 33.8296 1.5 35.9763 1.5C38.1229 1.5 39.8896 2.2 41.2763 3.6ZM39.0763 12.26C39.8763 11.4067 40.2763 10.2867 40.2763 8.9C40.2763 7.51333 39.8763 6.4 39.0763 5.56C38.2763 4.70667 37.2429 4.28 35.9763 4.28C34.7096 4.28 33.6763 4.70667 32.8763 5.56C32.0763 6.4 31.6763 7.51333 31.6763 8.9C31.6763 10.2867 32.0763 11.4067 32.8763 12.26C33.6763 13.1 34.7096 13.52 35.9763 13.52C37.2429 13.52 38.2763 13.1 39.0763 12.26ZM44.8216 12.78H47.9616L46.2216 18.84H43.6816L44.8216 12.78ZM56.9122 16H53.9922V1.8H63.4122V4.48H56.9122V7.46H63.1122V10.14H56.9122V16ZM70.9612 11.48V5.52H73.8012V16H71.1812V14.72C70.6346 15.7333 69.6079 16.24 68.1012 16.24C66.8746 16.24 65.9279 15.8667 65.2612 15.12C64.6079 14.36 64.2812 13.34 64.2812 12.06V5.52H67.1212V11.74C67.1212 13.1133 67.7012 13.8 68.8612 13.8C69.5546 13.8 70.0746 13.6 70.4212 13.2C70.7812 12.8 70.9612 12.2267 70.9612 11.48ZM78.533 16H75.693V0.999999H78.533V16ZM83.2822 16H80.4422V0.999999H83.2822V16ZM94.7267 13.68C95.5134 13.68 96.1267 13.54 96.5667 13.26C97.0067 12.9667 97.2267 12.56 97.2267 12.04C97.2267 11.6667 97.0867 11.36 96.8067 11.12C96.5267 10.88 96.1601 10.6933 95.7067 10.56C95.2667 10.4267 94.7734 10.3067 94.2267 10.2C93.6934 10.08 93.1534 9.93333 92.6067 9.76C92.0734 9.57333 91.5801 9.34 91.1267 9.06C90.6867 8.76667 90.3267 8.35333 90.0467 7.82C89.7667 7.27333 89.6267 6.62667 89.6267 5.88C89.6267 4.64 90.0934 3.6 91.0267 2.76C91.9601 1.92 93.2201 1.5 94.8067 1.5C96.4067 1.5 97.6734 1.95333 98.6067 2.86C99.5534 3.76667 100.047 4.89333 100.087 6.24H97.2267C97.2001 5.6 96.9667 5.08667 96.5267 4.7C96.1001 4.3 95.5134 4.1 94.7667 4.1C94.0867 4.1 93.5401 4.25333 93.1267 4.56C92.7134 4.85333 92.5067 5.23333 92.5067 5.7C92.5067 6.08667 92.6467 6.4 92.9267 6.64C93.2067 6.88 93.5734 7.06667 94.0267 7.2C94.4801 7.33333 94.9801 7.46 95.5267 7.58C96.0734 7.68667 96.6201 7.83333 97.1667 8.02C97.7134 8.20667 98.2134 8.44667 98.6667 8.74C99.1201 9.02 99.4867 9.43333 99.7667 9.98C100.047 10.5267 100.187 11.18 100.187 11.94C100.187 13.22 99.6667 14.2667 98.6267 15.08C97.6001 15.88 96.2467 16.28 94.5667 16.28C93.6201 16.28 92.7867 16.1467 92.0667 15.88C91.3467 15.6 90.7801 15.2267 90.3667 14.76C89.9534 14.2933 89.6401 13.7867 89.4267 13.24C89.2267 12.6933 89.1134 12.1133 89.0867 11.5H91.9667C92.0067 12.1267 92.2601 12.6467 92.7267 13.06C93.1934 13.4733 93.8601 13.68 94.7267 13.68ZM106.602 13.48V15.94C106.282 16.02 105.835 16.06 105.262 16.06C103.115 16.06 102.042 14.9933 102.042 12.86V7.76H100.622V5.52H102.042V2.92H104.882V5.52H106.622V7.76H104.882V12.56C104.882 13.24 105.235 13.58 105.942 13.58L106.602 13.48ZM113.982 11.28L111.462 11.7C110.395 11.8867 109.862 12.3 109.862 12.94C109.862 13.6733 110.388 14.04 111.442 14.04C112.255 14.04 112.882 13.8267 113.322 13.4C113.762 12.9733 113.982 12.4067 113.982 11.7V11.28ZM110.802 16.24C109.628 16.24 108.722 15.9467 108.082 15.36C107.442 14.7733 107.122 13.9933 107.122 13.02C107.122 12.1 107.448 11.3667 108.102 10.82C108.768 10.2733 109.795 9.89333 111.182 9.68L113.982 9.26V9.16C113.982 8.13333 113.355 7.62 112.102 7.62C110.928 7.62 110.282 8.04667 110.162 8.9H107.362C107.455 7.87333 107.882 7.01333 108.642 6.32C109.402 5.62667 110.548 5.28 112.082 5.28C113.602 5.28 114.748 5.62 115.522 6.3C116.295 6.98 116.682 7.94 116.682 9.18V14.12C116.682 14.9067 116.782 15.5333 116.982 16H114.242C114.228 16 114.215 15.9533 114.202 15.86C114.188 15.7667 114.168 15.6267 114.142 15.44C114.128 15.24 114.122 15.04 114.122 14.84C113.468 15.7733 112.362 16.24 110.802 16.24ZM119.344 14.68C118.358 13.6267 117.864 12.32 117.864 10.76C117.864 9.2 118.358 7.9 119.344 6.86C120.344 5.80667 121.604 5.28 123.124 5.28C124.618 5.28 125.791 5.7 126.644 6.54C127.511 7.38 128.004 8.32 128.124 9.36H125.204C125.098 8.90667 124.851 8.53333 124.464 8.24C124.078 7.94667 123.624 7.8 123.104 7.8C122.358 7.8 121.771 8.07333 121.344 8.62C120.918 9.15333 120.704 9.86667 120.704 10.76C120.704 11.6533 120.918 12.3733 121.344 12.92C121.771 13.4533 122.358 13.72 123.104 13.72C123.624 13.72 124.078 13.5733 124.464 13.28C124.851 12.9867 125.098 12.6133 125.204 12.16H128.124C128.004 13.2 127.511 14.14 126.644 14.98C125.791 15.82 124.618 16.24 123.124 16.24C121.604 16.24 120.344 15.72 119.344 14.68ZM135.871 5.52H139.431L135.511 9.98L139.711 16H136.351L133.631 11.86L132.051 13.66V16H129.211V0.999999H132.051V10.28L135.871 5.52ZM149.713 16H144.613V1.8H149.713C152.073 1.8 153.906 2.45333 155.213 3.76C156.533 5.06667 157.193 6.78 157.193 8.9C157.193 11.02 156.533 12.7333 155.213 14.04C153.906 15.3467 152.073 16 149.713 16ZM152.993 12.16C153.739 11.3733 154.113 10.2867 154.113 8.9C154.113 7.51333 153.739 6.43333 152.993 5.66C152.259 4.87333 151.139 4.48 149.633 4.48H147.533V13.32H149.633C151.139 13.32 152.259 12.9333 152.993 12.16ZM168.394 11.58H160.794C160.888 12.3 161.154 12.8533 161.594 13.24C162.034 13.6133 162.614 13.8 163.334 13.8C163.788 13.8 164.194 13.7067 164.554 13.52C164.928 13.32 165.194 13.0333 165.354 12.66H168.214C167.908 13.7267 167.301 14.5933 166.394 15.26C165.501 15.9133 164.454 16.24 163.254 16.24C161.708 16.24 160.441 15.7267 159.454 14.7C158.468 13.6733 157.974 12.3533 157.974 10.74C157.974 9.18 158.468 7.88 159.454 6.84C160.441 5.8 161.701 5.28 163.234 5.28C164.768 5.28 166.014 5.8 166.974 6.84C167.948 7.86667 168.434 9.16667 168.434 10.74L168.394 11.58ZM163.214 7.56C162.574 7.56 162.048 7.74 161.634 8.1C161.221 8.44667 160.954 8.92667 160.834 9.54H165.594C165.488 8.94 165.228 8.46 164.814 8.1C164.401 7.74 163.868 7.56 163.214 7.56ZM173.444 12.58L176.004 5.52H178.944L174.744 16H172.104L167.904 5.52H170.904L173.444 12.58ZM188.85 11.58H181.25C181.343 12.3 181.61 12.8533 182.05 13.24C182.49 13.6133 183.07 13.8 183.79 13.8C184.243 13.8 184.65 13.7067 185.01 13.52C185.383 13.32 185.65 13.0333 185.81 12.66H188.67C188.363 13.7267 187.757 14.5933 186.85 15.26C185.957 15.9133 184.91 16.24 183.71 16.24C182.163 16.24 180.897 15.7267 179.91 14.7C178.923 13.6733 178.43 12.3533 178.43 10.74C178.43 9.18 178.923 7.88 179.91 6.84C180.897 5.8 182.157 5.28 183.69 5.28C185.223 5.28 186.47 5.8 187.43 6.84C188.403 7.86667 188.89 9.16667 188.89 10.74L188.85 11.58ZM183.67 7.56C183.03 7.56 182.503 7.74 182.09 8.1C181.677 8.44667 181.41 8.92667 181.29 9.54H186.05C185.943 8.94 185.683 8.46 185.27 8.1C184.857 7.74 184.323 7.56 183.67 7.56ZM192.949 16H190.109V0.999999H192.949V16ZM203.678 14.66C202.664 15.7133 201.338 16.24 199.698 16.24C198.058 16.24 196.731 15.7133 195.718 14.66C194.704 13.5933 194.198 12.2933 194.198 10.76C194.198 9.22667 194.704 7.93333 195.718 6.88C196.731 5.81333 198.058 5.28 199.698 5.28C201.338 5.28 202.664 5.81333 203.678 6.88C204.691 7.93333 205.198 9.22667 205.198 10.76C205.198 12.2933 204.691 13.5933 203.678 14.66ZM197.778 8.58C197.284 9.11333 197.038 9.84 197.038 10.76C197.038 11.68 197.284 12.4067 197.778 12.94C198.284 13.4733 198.924 13.74 199.698 13.74C200.471 13.74 201.104 13.4733 201.598 12.94C202.104 12.4067 202.358 11.68 202.358 10.76C202.358 9.84 202.104 9.11333 201.598 8.58C201.104 8.04667 200.471 7.78 199.698 7.78C198.924 7.78 198.284 8.04667 197.778 8.58ZM209.283 14.88V20.16H206.443V5.52H209.063V6.8C209.756 5.78667 210.863 5.28 212.383 5.28C213.863 5.28 215.036 5.8 215.903 6.84C216.77 7.88 217.203 9.18667 217.203 10.76C217.203 12.3333 216.77 13.64 215.903 14.68C215.036 15.72 213.863 16.24 212.383 16.24C211.69 16.24 211.07 16.1133 210.523 15.86C209.99 15.5933 209.576 15.2667 209.283 14.88ZM209.903 8.62C209.436 9.18 209.203 9.89333 209.203 10.76C209.203 11.6267 209.436 12.34 209.903 12.9C210.383 13.46 211.01 13.74 211.783 13.74C212.556 13.74 213.176 13.46 213.643 12.9C214.123 12.34 214.363 11.6267 214.363 10.76C214.363 9.89333 214.123 9.18 213.643 8.62C213.176 8.06 212.556 7.78 211.783 7.78C211.01 7.78 210.383 8.06 209.903 8.62ZM228.198 11.58H220.598C220.692 12.3 220.958 12.8533 221.398 13.24C221.838 13.6133 222.418 13.8 223.138 13.8C223.592 13.8 223.998 13.7067 224.358 13.52C224.732 13.32 224.998 13.0333 225.158 12.66H228.018C227.712 13.7267 227.105 14.5933 226.198 15.26C225.305 15.9133 224.258 16.24 223.058 16.24C221.512 16.24 220.245 15.7267 219.258 14.7C218.272 13.6733 217.778 12.3533 217.778 10.74C217.778 9.18 218.272 7.88 219.258 6.84C220.245 5.8 221.505 5.28 223.038 5.28C224.572 5.28 225.818 5.8 226.778 6.84C227.752 7.86667 228.238 9.16667 228.238 10.74L228.198 11.58ZM223.018 7.56C222.378 7.56 221.852 7.74 221.438 8.1C221.025 8.44667 220.758 8.92667 220.638 9.54H225.398C225.292 8.94 225.032 8.46 224.618 8.1C224.205 7.74 223.672 7.56 223.018 7.56ZM235.377 5.44V8.1C235.177 8.06 234.99 8.04 234.817 8.04C233.977 8.04 233.344 8.26 232.917 8.7C232.504 9.14 232.297 9.83333 232.297 10.78V16H229.457V5.52H232.077V6.88C232.677 5.90667 233.664 5.42 235.037 5.42L235.377 5.44ZM242.793 8.12C241.94 7.18667 241.513 6.21333 241.513 5.2C241.513 4.18667 241.88 3.32 242.613 2.6C243.347 1.86667 244.367 1.5 245.673 1.5C246.98 1.5 248 1.86667 248.733 2.6C249.467 3.32 249.833 4.18667 249.833 5.2C249.833 6.8 248.853 8.04 246.893 8.92L249.153 11.4C249.42 10.7867 249.553 10.1 249.553 9.34L249.473 8.2H252.053C252.093 8.57333 252.113 8.94 252.113 9.3C252.113 10.8467 251.72 12.2 250.933 13.36L253.353 16H249.913L249.153 15.16C248.02 15.92 246.713 16.3 245.233 16.3C243.727 16.3 242.487 15.92 241.513 15.16C240.553 14.4 240.073 13.3933 240.073 12.14C240.073 10.26 240.98 8.92 242.793 8.12ZM245.313 13.82C246.113 13.82 246.827 13.6467 247.453 13.3L244.453 9.98C243.867 10.2467 243.447 10.5333 243.193 10.84C242.94 11.1333 242.813 11.5 242.813 11.94C242.813 12.4867 243.033 12.94 243.473 13.3C243.913 13.6467 244.527 13.82 245.313 13.82ZM244.133 5.2C244.133 5.66667 244.44 6.23333 245.053 6.9L245.213 7.08L245.793 6.82C246.74 6.42 247.213 5.88 247.213 5.2C247.213 4.8 247.067 4.46 246.773 4.18C246.493 3.9 246.127 3.76 245.673 3.76C245.207 3.76 244.833 3.9 244.553 4.18C244.273 4.44667 244.133 4.78667 244.133 5.2ZM268.425 13.32V16H258.205V1.8H268.425V4.48H261.125V7.46H268.125V10.14H261.125V13.32H268.425ZM272.64 5.52V6.8C273.186 5.78667 274.226 5.28 275.76 5.28C277 5.28 277.953 5.66 278.62 6.42C279.286 7.16667 279.62 8.18 279.62 9.46V16H276.78V9.78C276.78 8.40667 276.186 7.72 275 7.72C274.32 7.72 273.793 7.92667 273.42 8.34C273.046 8.74 272.86 9.29333 272.86 10V16H270.02V5.52H272.64ZM286.349 13.48V15.94C286.029 16.02 285.582 16.06 285.009 16.06C282.862 16.06 281.789 14.9933 281.789 12.86V7.76H280.369V5.52H281.789V2.92H284.629V5.52H286.369V7.76H284.629V12.56C284.629 13.24 284.982 13.58 285.689 13.58L286.349 13.48ZM293.329 5.44V8.1C293.129 8.06 292.942 8.04 292.769 8.04C291.929 8.04 291.295 8.26 290.869 8.7C290.455 9.14 290.249 9.83333 290.249 10.78V16H287.409V5.52H290.029V6.88C290.629 5.90667 291.615 5.42 292.989 5.42L293.329 5.44ZM303.48 11.58H295.88C295.974 12.3 296.24 12.8533 296.68 13.24C297.12 13.6133 297.7 13.8 298.42 13.8C298.874 13.8 299.28 13.7067 299.64 13.52C300.014 13.32 300.28 13.0333 300.44 12.66H303.3C302.994 13.7267 302.387 14.5933 301.48 15.26C300.587 15.9133 299.54 16.24 298.34 16.24C296.794 16.24 295.527 15.7267 294.54 14.7C293.554 13.6733 293.06 12.3533 293.06 10.74C293.06 9.18 293.554 7.88 294.54 6.84C295.527 5.8 296.787 5.28 298.32 5.28C299.854 5.28 301.1 5.8 302.06 6.84C303.034 7.86667 303.52 9.16667 303.52 10.74L303.48 11.58ZM298.3 7.56C297.66 7.56 297.134 7.74 296.72 8.1C296.307 8.44667 296.04 8.92667 295.92 9.54H300.68C300.574 8.94 300.314 8.46 299.9 8.1C299.487 7.74 298.954 7.56 298.3 7.56ZM307.579 14.88V20.16H304.739V5.52H307.359V6.8C308.052 5.78667 309.159 5.28 310.679 5.28C312.159 5.28 313.332 5.8 314.199 6.84C315.066 7.88 315.499 9.18667 315.499 10.76C315.499 12.3333 315.066 13.64 314.199 14.68C313.332 15.72 312.159 16.24 310.679 16.24C309.986 16.24 309.366 16.1133 308.819 15.86C308.286 15.5933 307.872 15.2667 307.579 14.88ZM308.199 8.62C307.732 9.18 307.499 9.89333 307.499 10.76C307.499 11.6267 307.732 12.34 308.199 12.9C308.679 13.46 309.306 13.74 310.079 13.74C310.852 13.74 311.472 13.46 311.939 12.9C312.419 12.34 312.659 11.6267 312.659 10.76C312.659 9.89333 312.419 9.18 311.939 8.62C311.472 8.06 310.852 7.78 310.079 7.78C309.306 7.78 308.679 8.06 308.199 8.62ZM322.654 5.44V8.1C322.454 8.06 322.268 8.04 322.094 8.04C321.254 8.04 320.621 8.26 320.194 8.7C319.781 9.14 319.574 9.83333 319.574 10.78V16H316.734V5.52H319.354V6.88C319.954 5.90667 320.941 5.42 322.314 5.42L322.654 5.44ZM332.806 11.58H325.206C325.299 12.3 325.566 12.8533 326.006 13.24C326.446 13.6133 327.026 13.8 327.746 13.8C328.199 13.8 328.606 13.7067 328.966 13.52C329.339 13.32 329.606 13.0333 329.766 12.66H332.626C332.319 13.7267 331.713 14.5933 330.806 15.26C329.913 15.9133 328.866 16.24 327.666 16.24C326.119 16.24 324.853 15.7267 323.866 14.7C322.879 13.6733 322.386 12.3533 322.386 10.74C322.386 9.18 322.879 7.88 323.866 6.84C324.853 5.8 326.113 5.28 327.646 5.28C329.179 5.28 330.426 5.8 331.386 6.84C332.359 7.86667 332.846 9.16667 332.846 10.74L332.806 11.58ZM327.626 7.56C326.986 7.56 326.459 7.74 326.046 8.1C325.633 8.44667 325.366 8.92667 325.246 9.54H330.006C329.899 8.94 329.639 8.46 329.226 8.1C328.813 7.74 328.279 7.56 327.626 7.56ZM336.685 5.52V6.8C337.231 5.78667 338.271 5.28 339.805 5.28C341.045 5.28 341.998 5.66 342.665 6.42C343.331 7.16667 343.665 8.18 343.665 9.46V16H340.825V9.78C340.825 8.40667 340.231 7.72 339.045 7.72C338.365 7.72 337.838 7.92667 337.465 8.34C337.091 8.74 336.905 9.29333 336.905 10V16H334.065V5.52H336.685ZM355.234 11.58H347.634C347.728 12.3 347.994 12.8533 348.434 13.24C348.874 13.6133 349.454 13.8 350.174 13.8C350.628 13.8 351.034 13.7067 351.394 13.52C351.768 13.32 352.034 13.0333 352.194 12.66H355.054C354.748 13.7267 354.141 14.5933 353.234 15.26C352.341 15.9133 351.294 16.24 350.094 16.24C348.548 16.24 347.281 15.7267 346.294 14.7C345.308 13.6733 344.814 12.3533 344.814 10.74C344.814 9.18 345.308 7.88 346.294 6.84C347.281 5.8 348.541 5.28 350.074 5.28C351.608 5.28 352.854 5.8 353.814 6.84C354.788 7.86667 355.274 9.16667 355.274 10.74L355.234 11.58ZM350.054 7.56C349.414 7.56 348.888 7.74 348.474 8.1C348.061 8.44667 347.794 8.92667 347.674 9.54H352.434C352.328 8.94 352.068 8.46 351.654 8.1C351.241 7.74 350.708 7.56 350.054 7.56ZM363.073 11.48V5.52H365.913V16H363.293V14.72C362.746 15.7333 361.72 16.24 360.213 16.24C358.986 16.24 358.04 15.8667 357.373 15.12C356.72 14.36 356.393 13.34 356.393 12.06V5.52H359.233V11.74C359.233 13.1133 359.813 13.8 360.973 13.8C361.666 13.8 362.186 13.6 362.533 13.2C362.893 12.8 363.073 12.2267 363.073 11.48ZM373.725 5.44V8.1C373.525 8.06 373.338 8.04 373.165 8.04C372.325 8.04 371.691 8.26 371.265 8.7C370.851 9.14 370.645 9.83333 370.645 10.78V16H367.805V5.52H370.425V6.88C371.025 5.90667 372.011 5.42 373.385 5.42L373.725 5.44Z" fill="#040110"/>
<path d="M6.86 14.22L6.50471 14.5718L6.50471 14.5718L6.86 14.22ZM6.86 3.54L6.50471 3.18819L6.50471 3.18819L6.86 3.54ZM16.56 3L16.2482 3.39084L16.2502 3.39244L16.56 3ZM18.86 7.06V7.56H19.4442L19.354 6.98281L18.86 7.06ZM15.74 7.06L15.2541 7.1778L15.3467 7.56H15.74V7.06ZM14.42 5.02L14.1226 5.42195L14.1278 5.42577L14.42 5.02ZM8.98 5.52L8.60294 5.19159L8.59994 5.19511L8.98 5.52ZM8.98 12.24L8.59992 12.5649L8.60296 12.5684L8.98 12.24ZM14.42 12.76L14.7122 13.1658L14.7174 13.1619L14.42 12.76ZM15.74 10.7V10.2H15.3467L15.2541 10.5822L15.74 10.7ZM18.86 10.7L19.354 10.7772L19.4442 10.2H18.86V10.7ZM16.56 14.76L16.2502 14.3676L16.2482 14.3692L16.56 14.76ZM7.21529 13.8682C5.97533 12.616 5.34 10.9696 5.34 8.88H4.34C4.34 11.1904 5.05134 13.104 6.50471 14.5718L7.21529 13.8682ZM5.34 8.88C5.34 6.79043 5.97533 5.14405 7.21529 3.89181L6.50471 3.18819C5.05134 4.65595 4.34 6.56957 4.34 8.88H5.34ZM7.21529 3.89181C8.46007 2.6347 10.035 2 11.98 2V1C9.79165 1 7.95326 1.7253 6.50471 3.18819L7.21529 3.89181ZM11.98 2C13.6814 2 15.0942 2.47016 16.2482 3.39084L16.8718 2.60916C15.5191 1.52984 13.8786 1 11.98 1V2ZM16.2502 3.39244C17.4105 4.30852 18.1173 5.54548 18.366 7.13719L19.354 6.98281C19.0694 5.16119 18.2428 3.69148 16.8698 2.60756L16.2502 3.39244ZM18.86 6.56H15.74V7.56H18.86V6.56ZM16.2259 6.9422C15.9875 5.95889 15.4859 5.1713 14.7122 4.61423L14.1278 5.42577C14.6875 5.8287 15.0658 6.40111 15.2541 7.1778L16.2259 6.9422ZM14.7174 4.61808C13.9516 4.05136 13.0296 3.78 11.98 3.78V4.78C12.8504 4.78 13.5551 5.00197 14.1226 5.42192L14.7174 4.61808ZM11.98 3.78C10.5822 3.78 9.43418 4.23724 8.60296 5.19161L9.35704 5.84839C9.96582 5.14943 10.8178 4.78 11.98 4.78V3.78ZM8.59994 5.19511C7.79513 6.13659 7.42 7.3839 7.42 8.88H8.42C8.42 7.54943 8.75154 6.55675 9.36006 5.84489L8.59994 5.19511ZM7.42 8.88C7.42 10.3761 7.79513 11.6234 8.59994 12.5649L9.36006 11.9151C8.75154 11.2033 8.42 10.2106 8.42 8.88H7.42ZM8.60296 12.5684C9.43418 13.5228 10.5822 13.98 11.98 13.98V12.98C10.8178 12.98 9.96582 12.6106 9.35704 11.9116L8.60296 12.5684ZM11.98 13.98C13.0266 13.98 13.9467 13.7169 14.7122 13.1658L14.1278 12.3542C13.56 12.7631 12.8534 12.98 11.98 12.98V13.98ZM14.7174 13.1619C15.4871 12.5923 15.9877 11.8005 16.2259 10.8178L15.2541 10.5822C15.0656 11.3595 14.6862 11.941 14.1226 12.3581L14.7174 13.1619ZM15.74 11.2H18.86V10.2H15.74V11.2ZM18.366 10.6228C18.1173 12.2145 17.4105 13.4515 16.2502 14.3676L16.8698 15.1524C18.2428 14.0685 19.0694 12.5988 19.354 10.7772L18.366 10.6228ZM16.2482 14.3692C15.0942 15.2898 13.6814 15.76 11.98 15.76V16.76C13.8786 16.76 15.5191 16.2302 16.8718 15.1508L16.2482 14.3692ZM11.98 15.76C10.035 15.76 8.46007 15.1253 7.21529 13.8682L6.50471 14.5718C7.95326 16.0347 9.79165 16.76 11.98 16.76V15.76ZM29.0223 1.8H29.5223V1.3H29.0223V1.8ZM29.0223 4.54V5.04H29.5223V4.54H29.0223ZM25.1223 4.54V4.04H24.6223V4.54H25.1223ZM25.1223 16V16.5H25.6223V16H25.1223ZM22.2023 16H21.7023V16.5H22.2023V16ZM22.2023 4.54H22.7023V4.04H22.2023V4.54ZM18.3023 4.54H17.8023V5.04H18.3023V4.54ZM18.3023 1.8V1.3H17.8023V1.8H18.3023ZM28.5223 1.8V4.54H29.5223V1.8H28.5223ZM29.0223 4.04H25.1223V5.04H29.0223V4.04ZM24.6223 4.54V16H25.6223V4.54H24.6223ZM25.1223 15.5H22.2023V16.5H25.1223V15.5ZM22.7023 16V4.54H21.7023V16H22.7023ZM22.2023 4.04H18.3023V5.04H22.2023V4.04ZM18.8023 4.54V1.8H17.8023V4.54H18.8023ZM18.3023 2.3H29.0223V1.3H18.3023V2.3ZM41.2763 3.6L41.6315 3.24814L41.2763 3.6ZM41.2763 14.2L41.6315 14.5519L41.6315 14.5519L41.2763 14.2ZM30.6763 14.2L31.0315 13.8481L31.0315 13.8481L30.6763 14.2ZM30.6763 3.6L31.0315 3.95186L31.0315 3.95186L30.6763 3.6ZM39.0763 12.26L39.4383 12.6048L39.441 12.602L39.0763 12.26ZM39.0763 5.56L38.7115 5.90198L38.7142 5.90483L39.0763 5.56ZM32.8763 5.56L33.2383 5.90484L33.241 5.90197L32.8763 5.56ZM32.8763 12.26L32.5115 12.602L32.5142 12.6048L32.8763 12.26ZM40.921 3.95186C42.2068 5.25004 42.8563 6.88645 42.8563 8.9H43.8563C43.8563 6.64689 43.119 4.74996 41.6315 3.24814L40.921 3.95186ZM42.8563 8.9C42.8563 10.9136 42.2068 12.55 40.921 13.8481L41.6315 14.5519C43.119 13.05 43.8563 11.1531 43.8563 8.9H42.8563ZM40.921 13.8481C39.6371 15.1444 38.0026 15.8 35.9763 15.8V16.8C38.2432 16.8 40.142 16.0556 41.6315 14.5519L40.921 13.8481ZM35.9763 15.8C33.9499 15.8 32.3154 15.1444 31.0315 13.8481L30.321 14.5519C31.8105 16.0556 33.7093 16.8 35.9763 16.8V15.8ZM31.0315 13.8481C29.7457 12.55 29.0963 10.9136 29.0963 8.9H28.0963C28.0963 11.1531 28.8335 13.05 30.321 14.5519L31.0315 13.8481ZM29.0963 8.9C29.0963 6.88645 29.7457 5.25004 31.0315 3.95186L30.321 3.24814C28.8335 4.74996 28.0963 6.64689 28.0963 8.9H29.0963ZM31.0315 3.95186C32.3154 2.65562 33.9499 2 35.9763 2V1C33.7093 1 31.8105 1.74438 30.321 3.24814L31.0315 3.95186ZM35.9763 2C38.0026 2 39.6371 2.65562 40.921 3.95186L41.6315 3.24814C40.142 1.74438 38.2432 1 35.9763 1V2ZM39.441 12.602C40.3437 11.6392 40.7763 10.3886 40.7763 8.9H39.7763C39.7763 10.1847 39.4089 11.1742 38.7115 11.918L39.441 12.602ZM40.7763 8.9C40.7763 7.41163 40.3437 6.16582 39.4383 5.21517L38.7142 5.90483C39.4088 6.63418 39.7763 7.61504 39.7763 8.9H40.7763ZM39.441 5.21803C38.5381 4.25491 37.3683 3.78 35.9763 3.78V4.78C37.1175 4.78 38.0144 5.15842 38.7115 5.90197L39.441 5.21803ZM35.9763 3.78C34.5842 3.78 33.4144 4.25491 32.5115 5.21803L33.241 5.90197C33.9381 5.15842 34.835 4.78 35.9763 4.78V3.78ZM32.5142 5.21517C31.6088 6.16582 31.1763 7.41163 31.1763 8.9H32.1763C32.1763 7.61504 32.5437 6.63418 33.2383 5.90483L32.5142 5.21517ZM31.1763 8.9C31.1763 10.3886 31.6089 11.6392 32.5115 12.602L33.241 11.918C32.5437 11.1742 32.1763 10.1847 32.1763 8.9H31.1763ZM32.5142 12.6048C33.4178 13.5536 34.5867 14.02 35.9763 14.02V13.02C34.8325 13.02 33.9347 12.6464 33.2383 11.9152L32.5142 12.6048ZM35.9763 14.02C37.3658 14.02 38.5347 13.5536 39.4383 12.6048L38.7142 11.9152C38.0178 12.6464 37.12 13.02 35.9763 13.02V14.02ZM44.8216 12.78V12.28H44.4069L44.3302 12.6876L44.8216 12.78ZM47.9616 12.78L48.4421 12.918L48.6253 12.28H47.9616V12.78ZM46.2216 18.84V19.34H46.5982L46.7021 18.978L46.2216 18.84ZM43.6816 18.84L43.1902 18.7476L43.0787 19.34H43.6816V18.84ZM44.8216 13.28H47.9616V12.28H44.8216V13.28ZM47.481 12.642L45.741 18.702L46.7021 18.978L48.4421 12.918L47.481 12.642ZM46.2216 18.34H43.6816V19.34H46.2216V18.34ZM44.1729 18.9324L45.3129 12.8724L44.3302 12.6876L43.1902 18.7476L44.1729 18.9324ZM56.9122 16V16.5H57.4122V16H56.9122ZM53.9922 16H53.4922V16.5H53.9922V16ZM53.9922 1.8V1.3H53.4922V1.8H53.9922ZM63.4122 1.8H63.9122V1.3H63.4122V1.8ZM63.4122 4.48V4.98H63.9122V4.48H63.4122ZM56.9122 4.48V3.98H56.4122V4.48H56.9122ZM56.9122 7.46H56.4122V7.96H56.9122V7.46ZM63.1122 7.46H63.6122V6.96H63.1122V7.46ZM63.1122 10.14V10.64H63.6122V10.14H63.1122ZM56.9122 10.14V9.64H56.4122V10.14H56.9122ZM56.9122 15.5H53.9922V16.5H56.9122V15.5ZM54.4922 16V1.8H53.4922V16H54.4922ZM53.9922 2.3H63.4122V1.3H53.9922V2.3ZM62.9122 1.8V4.48H63.9122V1.8H62.9122ZM63.4122 3.98H56.9122V4.98H63.4122V3.98ZM56.4122 4.48V7.46H57.4122V4.48H56.4122ZM56.9122 7.96H63.1122V6.96H56.9122V7.96ZM62.6122 7.46V10.14H63.6122V7.46H62.6122ZM63.1122 9.64H56.9122V10.64H63.1122V9.64ZM56.4122 10.14V16H57.4122V10.14H56.4122ZM70.9612 5.52V5.02H70.4612V5.52H70.9612ZM73.8012 5.52H74.3012V5.02H73.8012V5.52ZM73.8012 16V16.5H74.3012V16H73.8012ZM71.1812 16H70.6812V16.5H71.1812V16ZM71.1812 14.72H71.6812L70.7412 14.4826L71.1812 14.72ZM65.2612 15.12L64.882 15.446L64.8883 15.453L65.2612 15.12ZM64.2812 5.52V5.02H63.7812V5.52H64.2812ZM67.1212 5.52H67.6212V5.02H67.1212V5.52ZM70.4212 13.2L70.0495 12.8655L70.0434 12.8725L70.4212 13.2ZM71.4612 11.48V5.52H70.4612V11.48H71.4612ZM70.9612 6.02H73.8012V5.02H70.9612V6.02ZM73.3012 5.52V16H74.3012V5.52H73.3012ZM73.8012 15.5H71.1812V16.5H73.8012V15.5ZM71.6812 16V14.72H70.6812V16H71.6812ZM70.7412 14.4826C70.3092 15.2835 69.49 15.74 68.1012 15.74V16.74C69.7259 16.74 70.96 16.1832 71.6213 14.9574L70.7412 14.4826ZM68.1012 15.74C66.9822 15.74 66.1851 15.404 65.6342 14.787L64.8883 15.453C65.6707 16.3294 66.7669 16.74 68.1012 16.74V15.74ZM65.6404 14.7941C65.0847 14.1476 64.7812 13.2544 64.7812 12.06H63.7812C63.7812 13.4256 64.1312 14.5724 64.8821 15.4459L65.6404 14.7941ZM64.7812 12.06V5.52H63.7812V12.06H64.7812ZM64.2812 6.02H67.1212V5.02H64.2812V6.02ZM66.6212 5.52V11.74H67.6212V5.52H66.6212ZM66.6212 11.74C66.6212 12.4851 66.7768 13.1371 67.1743 13.6076C67.5854 14.0944 68.18 14.3 68.8612 14.3V13.3C68.3825 13.3 68.1071 13.1623 67.9382 12.9624C67.7557 12.7463 67.6212 12.3683 67.6212 11.74H66.6212ZM68.8612 14.3C69.6518 14.3 70.3301 14.0686 70.7991 13.5275L70.0434 12.8725C69.8191 13.1314 69.4574 13.3 68.8612 13.3V14.3ZM70.7929 13.5345C71.2628 13.0124 71.4612 12.3022 71.4612 11.48H70.4612C70.4612 12.1511 70.2997 12.5876 70.0496 12.8655L70.7929 13.5345ZM78.533 16V16.5H79.033V16H78.533ZM75.693 16H75.193V16.5H75.693V16ZM75.693 0.999999V0.499999H75.193V0.999999H75.693ZM78.533 0.999999H79.033V0.499999H78.533V0.999999ZM78.533 15.5H75.693V16.5H78.533V15.5ZM76.193 16V0.999999H75.193V16H76.193ZM75.693 1.5H78.533V0.499999H75.693V1.5ZM78.033 0.999999V16H79.033V0.999999H78.033ZM83.2822 16V16.5H83.7822V16H83.2822ZM80.4422 16H79.9422V16.5H80.4422V16ZM80.4422 0.999999V0.499999H79.9422V0.999999H80.4422ZM83.2822 0.999999H83.7822V0.499999H83.2822V0.999999ZM83.2822 15.5H80.4422V16.5H83.2822V15.5ZM80.9422 16V0.999999H79.9422V16H80.9422ZM80.4422 1.5H83.2822V0.499999H80.4422V1.5ZM82.7822 0.999999V16H83.7822V0.999999H82.7822ZM96.5667 13.26L96.8352 13.6819L96.8441 13.676L96.5667 13.26ZM96.8067 11.12L97.1321 10.7404L97.1321 10.7404L96.8067 11.12ZM95.7067 10.56L95.5617 11.0385L95.5656 11.0397L95.7067 10.56ZM94.2267 10.2L94.117 10.6878L94.1239 10.6894L94.131 10.6907L94.2267 10.2ZM92.6067 9.76L92.4415 10.2319L92.4485 10.2344L92.4556 10.2366L92.6067 9.76ZM91.1267 9.06L90.8494 9.47603L90.8566 9.48084L90.864 9.4854L91.1267 9.06ZM90.0467 7.82L89.6017 8.04795L89.604 8.05242L90.0467 7.82ZM91.0267 2.76L90.6922 2.38835L90.6922 2.38835L91.0267 2.76ZM98.6067 2.86L98.2583 3.21865L98.2609 3.2211L98.6067 2.86ZM100.087 6.24V6.74H100.602L100.586 6.22515L100.087 6.24ZM97.2267 6.24L96.7272 6.26081L96.7471 6.74H97.2267V6.24ZM96.5267 4.7L96.1847 5.06477L96.1906 5.07027L96.1967 5.07558L96.5267 4.7ZM93.1267 4.56L93.4162 4.96784L93.4246 4.96155L93.1267 4.56ZM94.0267 7.2L94.1678 6.72032L94.1678 6.72032L94.0267 7.2ZM95.5267 7.58L95.4195 8.06851L95.431 8.07074L95.5267 7.58ZM97.1667 8.02L97.0051 8.49317L97.0051 8.49317L97.1667 8.02ZM98.6667 8.74L98.395 9.15988L98.404 9.1654L98.6667 8.74ZM99.7667 9.98L99.3217 10.2079L99.3217 10.2079L99.7667 9.98ZM98.6267 15.08L98.934 15.4744L98.9347 15.4739L98.6267 15.08ZM92.0667 15.88L91.8855 16.3461L91.8931 16.3489L92.0667 15.88ZM90.3667 14.76L90.741 14.4285L90.741 14.4285L90.3667 14.76ZM89.4267 13.24L88.9571 13.4118L88.9609 13.4218L89.4267 13.24ZM89.0867 11.5V11H88.5645L88.5872 11.5217L89.0867 11.5ZM91.9667 11.5L92.4657 11.4681L92.4358 11H91.9667V11.5ZM92.7267 13.06L92.3952 13.4343L92.3952 13.4343L92.7267 13.06ZM94.7267 14.18C95.5634 14.18 96.2839 14.0326 96.8352 13.6818L96.2983 12.8382C95.9695 13.0474 95.4633 13.18 94.7267 13.18V14.18ZM96.8441 13.676C97.4203 13.2919 97.7267 12.7306 97.7267 12.04H96.7267C96.7267 12.3894 96.5931 12.6415 96.2894 12.844L96.8441 13.676ZM97.7267 12.04C97.7267 11.5228 97.5245 11.0767 97.1321 10.7404L96.4813 11.4996C96.6489 11.6433 96.7267 11.8106 96.7267 12.04H97.7267ZM97.1321 10.7404C96.7856 10.4434 96.3506 10.2282 95.8478 10.0803L95.5656 11.0397C95.9695 11.1585 96.2678 11.3166 96.4813 11.4996L97.1321 10.7404ZM95.8517 10.0815C95.3926 9.94235 94.8824 9.81851 94.3225 9.70925L94.131 10.6907C94.6644 10.7948 95.1409 10.911 95.5617 11.0385L95.8517 10.0815ZM94.3365 9.71219C93.8177 9.59548 93.2915 9.45261 92.7578 9.28338L92.4556 10.2366C93.0152 10.4141 93.569 10.5645 94.117 10.6878L94.3365 9.71219ZM92.7719 9.28807C92.2706 9.11263 91.8103 8.8945 91.3895 8.6346L90.864 9.4854C91.3498 9.7855 91.8762 10.034 92.4415 10.2319L92.7719 9.28807ZM91.4041 8.64397C91.0429 8.40317 90.736 8.05727 90.4894 7.58758L89.604 8.05242C89.9174 8.6494 90.3306 9.13016 90.8494 9.47603L91.4041 8.64397ZM90.4917 7.59206C90.2549 7.12957 90.1267 6.56428 90.1267 5.88H89.1267C89.1267 6.68905 89.2786 7.41709 89.6017 8.04794L90.4917 7.59206ZM90.1267 5.88C90.1267 4.78378 90.5317 3.87819 91.3612 3.13165L90.6922 2.38835C89.6551 3.3218 89.1267 4.49622 89.1267 5.88H90.1267ZM91.3612 3.13165C92.1804 2.39436 93.3098 2 94.8067 2V1C93.1303 1 91.7397 1.44564 90.6922 2.38835L91.3612 3.13165ZM94.8067 2C96.3082 2 97.4387 2.42248 98.2583 3.21864L98.9551 2.50136C97.908 1.48419 96.5052 1 94.8067 1V2ZM98.2609 3.2211C99.1099 4.03424 99.5507 5.03525 99.5869 6.25484L100.586 6.22515C100.543 4.75141 99.9969 3.4991 98.9526 2.4989L98.2609 3.2211ZM100.087 5.74H97.2267V6.74H100.087V5.74ZM97.7263 6.21918C97.6945 5.45689 97.4095 4.81017 96.8568 4.32442L96.1967 5.07558C96.5239 5.36316 96.7056 5.74311 96.7272 6.26081L97.7263 6.21918ZM96.8687 4.33523C96.3258 3.82624 95.6039 3.6 94.7667 3.6V4.6C95.4229 4.6 95.8743 4.77376 96.1847 5.06477L96.8687 4.33523ZM94.7667 3.6C94.0137 3.6 93.3523 3.77006 92.8288 4.15845L93.4246 4.96155C93.7278 4.73661 94.1597 4.6 94.7667 4.6V3.6ZM92.8373 4.15225C92.3052 4.5299 92.0067 5.05566 92.0067 5.7H93.0067C93.0067 5.41101 93.1216 5.17677 93.4161 4.96775L92.8373 4.15225ZM92.0067 5.7C92.0067 6.22454 92.2045 6.6795 92.6013 7.01963L93.2521 6.26037C93.0889 6.1205 93.0067 5.94879 93.0067 5.7H92.0067ZM92.6013 7.01963C92.9478 7.31664 93.3828 7.5318 93.8856 7.67968L94.1678 6.72032C93.7639 6.60153 93.4656 6.44336 93.2521 6.26037L92.6013 7.01963ZM93.8856 7.67968C94.352 7.81684 94.8635 7.94631 95.4195 8.06837L95.6339 7.09163C95.0966 6.97369 94.6081 6.84983 94.1678 6.72032L93.8856 7.67968ZM95.431 8.07074C95.9545 8.1729 96.4792 8.31358 97.0051 8.49317L97.3283 7.54682C96.7609 7.35308 96.1923 7.20043 95.6225 7.08925L95.431 8.07074ZM97.0051 8.49317C97.5158 8.66753 97.9784 8.89018 98.3951 9.15978L98.9383 8.32021C98.4483 8.00316 97.911 7.7458 97.3283 7.54682L97.0051 8.49317ZM98.404 9.1654C98.7684 9.3905 99.0768 9.72987 99.3217 10.2079L100.212 9.75206C99.8966 9.1368 99.4717 8.6495 98.9295 8.3146L98.404 9.1654ZM99.3217 10.2079C99.558 10.6693 99.6867 11.2408 99.6867 11.94H100.687C100.687 11.1192 100.535 10.3841 100.212 9.75206L99.3217 10.2079ZM99.6867 11.94C99.6867 13.0606 99.242 13.9641 98.3187 14.6861L98.9347 15.4739C100.091 14.5692 100.687 13.3794 100.687 11.94H99.6867ZM98.3194 14.6856C97.4032 15.3995 96.168 15.78 94.5667 15.78V16.78C96.3254 16.78 97.7969 16.3605 98.934 15.4744L98.3194 14.6856ZM94.5667 15.78C93.666 15.78 92.8935 15.653 92.2404 15.4111L91.8931 16.3489C92.6799 16.6403 93.5741 16.78 94.5667 16.78V15.78ZM92.2479 15.414C91.5847 15.1561 91.0905 14.823 90.741 14.4285L89.9924 15.0915C90.4696 15.6303 91.1088 16.0439 91.8855 16.346L92.2479 15.414ZM90.741 14.4285C90.3643 14.0032 90.0831 13.5466 89.8925 13.0582L88.9609 13.4218C89.197 14.0267 89.5425 14.5835 89.9924 15.0915L90.741 14.4285ZM89.8963 13.0682C89.7149 12.5723 89.6108 12.0432 89.5862 11.4783L88.5872 11.5217C88.616 12.1835 88.7386 12.8144 88.9572 13.4118L89.8963 13.0682ZM89.0867 12H91.9667V11H89.0867V12ZM91.4677 11.5318C91.5161 12.2892 91.8289 12.9327 92.3952 13.4343L93.0582 12.6857C92.6912 12.3606 92.4974 11.9641 92.4657 11.4681L91.4677 11.5318ZM92.3952 13.4343C92.9836 13.9554 93.7855 14.18 94.7267 14.18V13.18C93.9346 13.18 93.4032 12.9912 93.0582 12.6857L92.3952 13.4343ZM106.602 13.48H107.102V12.8985L106.527 12.9856L106.602 13.48ZM106.602 15.94L106.723 16.4251L107.102 16.3304V15.94H106.602ZM102.042 7.76H102.542V7.26H102.042V7.76ZM100.622 7.76H100.122V8.26H100.622V7.76ZM100.622 5.52V5.02H100.122V5.52H100.622ZM102.042 5.52V6.02H102.542V5.52H102.042ZM102.042 2.92V2.42H101.542V2.92H102.042ZM104.882 2.92H105.382V2.42H104.882V2.92ZM104.882 5.52H104.382V6.02H104.882V5.52ZM106.622 5.52H107.122V5.02H106.622V5.52ZM106.622 7.76V8.26H107.122V7.76H106.622ZM104.882 7.76V7.26H104.382V7.76H104.882ZM105.942 13.58V14.08H105.98L106.017 14.0744L105.942 13.58ZM106.102 13.48V15.94H107.102V13.48H106.102ZM106.481 15.4549C106.219 15.5203 105.82 15.56 105.262 15.56V16.56C105.851 16.56 106.345 16.5197 106.723 16.4251L106.481 15.4549ZM105.262 15.56C104.265 15.56 103.609 15.3125 103.199 14.9053C102.79 14.4987 102.542 13.8488 102.542 12.86H101.542C101.542 14.0045 101.83 14.9546 102.495 15.6147C103.158 16.2741 104.112 16.56 105.262 16.56V15.56ZM102.542 12.86V7.76H101.542V12.86H102.542ZM102.042 7.26H100.622V8.26H102.042V7.26ZM101.122 7.76V5.52H100.122V7.76H101.122ZM100.622 6.02H102.042V5.02H100.622V6.02ZM102.542 5.52V2.92H101.542V5.52H102.542ZM102.042 3.42H104.882V2.42H102.042V3.42ZM104.382 2.92V5.52H105.382V2.92H104.382ZM104.882 6.02H106.622V5.02H104.882V6.02ZM106.122 5.52V7.76H107.122V5.52H106.122ZM106.622 7.26H104.882V8.26H106.622V7.26ZM104.382 7.76V12.56H105.382V7.76H104.382ZM104.382 12.56C104.382 12.9821 104.493 13.3893 104.8 13.6853C105.104 13.9779 105.516 14.08 105.942 14.08V13.08C105.661 13.08 105.543 13.0121 105.494 12.9647C105.448 12.9207 105.382 12.8179 105.382 12.56H104.382ZM106.017 14.0744L106.677 13.9744L106.527 12.9856L105.867 13.0856L106.017 14.0744ZM113.982 11.28H114.482V10.6898L113.9 10.7868L113.982 11.28ZM111.462 11.7L111.38 11.2068L111.376 11.2075L111.462 11.7ZM113.322 13.4L112.974 13.041L112.974 13.041L113.322 13.4ZM108.082 15.36L107.744 15.7286L107.744 15.7286L108.082 15.36ZM108.102 10.82L107.785 10.4333L107.781 10.4365L108.102 10.82ZM111.182 9.68L111.108 9.18553L111.106 9.18581L111.182 9.68ZM113.982 9.26L114.056 9.75447L114.482 9.69059V9.26H113.982ZM110.162 8.9V9.4H110.596L110.657 8.96963L110.162 8.9ZM107.362 8.9L106.864 8.85473L106.814 9.4H107.362V8.9ZM108.642 6.32L108.305 5.95062L108.305 5.95062L108.642 6.32ZM115.522 6.3L115.852 5.92451L115.852 5.92451L115.522 6.3ZM116.982 16V16.5H117.74L117.441 15.803L116.982 16ZM114.142 15.44L113.643 15.4733L113.644 15.4921L113.647 15.5107L114.142 15.44ZM114.122 14.84H114.622V13.2538L113.712 14.5533L114.122 14.84ZM113.9 10.7868L111.38 11.2068L111.544 12.1932L114.064 11.7732L113.9 10.7868ZM111.376 11.2075C110.805 11.3073 110.314 11.4769 109.955 11.7548C109.574 12.0502 109.362 12.4559 109.362 12.94H110.362C110.362 12.7841 110.416 12.6631 110.568 12.5452C110.743 12.4098 111.051 12.2794 111.548 12.1925L111.376 11.2075ZM109.362 12.94C109.362 13.4433 109.553 13.8841 109.971 14.1753C110.356 14.4437 110.872 14.54 111.442 14.54V13.54C110.958 13.54 110.684 13.453 110.542 13.3547C110.434 13.2792 110.362 13.1701 110.362 12.94H109.362ZM111.442 14.54C112.341 14.54 113.109 14.3025 113.67 13.7589L112.974 13.041C112.654 13.3508 112.169 13.54 111.442 13.54V14.54ZM113.67 13.759C114.222 13.2235 114.482 12.5194 114.482 11.7H113.482C113.482 12.2939 113.301 12.7232 112.974 13.041L113.67 13.759ZM114.482 11.7V11.28H113.482V11.7H114.482ZM110.802 15.74C109.709 15.74 108.939 15.4676 108.42 14.9914L107.744 15.7286C108.504 16.4257 109.548 16.74 110.802 16.74V15.74ZM108.42 14.9914C107.896 14.5115 107.622 13.872 107.622 13.02H106.622C106.622 14.1147 106.987 15.0352 107.744 15.7286L108.42 14.9914ZM107.622 13.02C107.622 12.2346 107.893 11.6468 108.423 11.2035L107.781 10.4365C107.004 11.0865 106.622 11.9654 106.622 13.02H107.622ZM108.419 11.2066C108.985 10.7419 109.91 10.3816 111.258 10.1742L111.106 9.18581C109.68 9.4051 108.551 9.80475 107.785 10.4334L108.419 11.2066ZM111.256 10.1745L114.056 9.75447L113.908 8.76553L111.108 9.18553L111.256 10.1745ZM114.482 9.26V9.16H113.482V9.26H114.482ZM114.482 9.16C114.482 8.54035 114.288 7.99436 113.829 7.6182C113.388 7.25768 112.784 7.12 112.102 7.12V8.12C112.673 8.12 113.008 8.23898 113.195 8.39179C113.362 8.52897 113.482 8.75298 113.482 9.16H114.482ZM112.102 7.12C111.464 7.12 110.898 7.23431 110.461 7.52266C110.004 7.8244 109.744 8.27947 109.667 8.83037L110.657 8.96963C110.699 8.6672 110.823 8.48226 111.012 8.35734C111.222 8.21902 111.566 8.12 112.102 8.12V7.12ZM110.162 8.4H107.362V9.4H110.162V8.4ZM107.86 8.94527C107.942 8.04266 108.311 7.29837 108.979 6.68938L108.305 5.95062C107.452 6.7283 106.968 7.70401 106.864 8.85473L107.86 8.94527ZM108.979 6.68938C109.61 6.11315 110.613 5.78 112.082 5.78V4.78C110.483 4.78 109.193 5.14018 108.305 5.95062L108.979 6.68938ZM112.082 5.78C113.537 5.78 114.544 6.10649 115.192 6.67548L115.852 5.92451C114.952 5.13351 113.667 4.78 112.082 4.78V5.78ZM115.192 6.67548C115.835 7.24127 116.182 8.05171 116.182 9.18H117.182C117.182 7.82829 116.755 6.71873 115.852 5.92451L115.192 6.67548ZM116.182 9.18V14.12H117.182V9.18H116.182ZM116.182 14.12C116.182 14.9411 116.285 15.6434 116.522 16.197L117.441 15.803C117.279 15.4233 117.182 14.8723 117.182 14.12H116.182ZM116.982 15.5H114.242V16.5H116.982V15.5ZM114.242 15.5C114.396 15.5 114.507 15.5698 114.566 15.6215C114.622 15.6704 114.653 15.7201 114.666 15.7432C114.692 15.7896 114.702 15.8263 114.702 15.8276C114.705 15.838 114.703 15.8302 114.697 15.7893L113.707 15.9307C113.714 15.9831 113.725 16.0454 113.741 16.1024C113.748 16.127 113.764 16.1812 113.798 16.2393C113.814 16.2682 113.848 16.3223 113.907 16.3741C113.97 16.4287 114.084 16.5 114.242 16.5V15.5ZM114.697 15.7893C114.683 15.696 114.663 15.556 114.637 15.3693L113.647 15.5107C113.673 15.6974 113.693 15.8374 113.707 15.9307L114.697 15.7893ZM114.641 15.4067C114.628 15.2178 114.622 15.0289 114.622 14.84H113.622C113.622 15.0511 113.629 15.2622 113.643 15.4733L114.641 15.4067ZM113.712 14.5533C113.184 15.307 112.264 15.74 110.802 15.74V16.74C112.459 16.74 113.752 16.2397 114.531 15.1267L113.712 14.5533ZM119.344 14.68L118.979 15.0218L118.984 15.0266L119.344 14.68ZM119.344 6.86L118.982 6.51575L118.981 6.51587L119.344 6.86ZM126.644 6.54L126.293 6.89634L126.296 6.89903L126.644 6.54ZM128.124 9.36V9.86H128.685L128.621 9.30269L128.124 9.36ZM125.204 9.36L124.718 9.47452L124.808 9.86H125.204V9.36ZM124.464 8.24L124.162 8.63835L124.162 8.63835L124.464 8.24ZM121.344 8.62L121.735 8.93237L121.738 8.92763L121.344 8.62ZM121.344 12.92L120.95 13.2277L120.954 13.2323L121.344 12.92ZM124.464 13.28L124.766 13.6783L124.464 13.28ZM125.204 12.16V11.66H124.808L124.718 12.0455L125.204 12.16ZM128.124 12.16L128.621 12.2173L128.685 11.66H128.124V12.16ZM126.644 14.98L126.296 14.621L126.293 14.6237L126.644 14.98ZM119.709 14.3382C118.817 13.3854 118.364 12.2043 118.364 10.76H117.364C117.364 12.4357 117.898 13.8679 118.979 15.0218L119.709 14.3382ZM118.364 10.76C118.364 9.31571 118.817 8.14264 119.707 7.20413L118.981 6.51587C117.899 7.65736 117.364 9.08429 117.364 10.76H118.364ZM119.707 7.20425C120.608 6.25544 121.734 5.78 123.124 5.78V4.78C121.474 4.78 120.081 5.35789 118.982 6.51575L119.707 7.20425ZM123.124 5.78C124.521 5.78 125.555 6.16989 126.293 6.89633L126.995 6.18367C126.026 5.23011 124.715 4.78 123.124 4.78V5.78ZM126.296 6.89903C127.093 7.67159 127.523 8.50924 127.628 9.41731L128.621 9.30269C128.486 8.13076 127.928 7.08841 126.992 6.18097L126.296 6.89903ZM128.124 8.86H125.204V9.86H128.124V8.86ZM125.691 9.24548C125.556 8.67389 125.241 8.20205 124.766 7.84165L124.162 8.63835C124.46 8.86461 124.639 9.13944 124.718 9.47452L125.691 9.24548ZM124.766 7.84165C124.286 7.47752 123.725 7.3 123.104 7.3V8.3C123.523 8.3 123.869 8.41581 124.162 8.63835L124.766 7.84165ZM123.104 7.3C122.217 7.3 121.48 7.63395 120.95 8.31236L121.738 8.92763C122.062 8.51272 122.498 8.3 123.104 8.3V7.3ZM120.954 8.30765C120.437 8.95372 120.204 9.78836 120.204 10.76H121.204C121.204 9.94497 121.398 9.35295 121.735 8.93235L120.954 8.30765ZM120.204 10.76C120.204 11.7324 120.437 12.5705 120.95 13.2276L121.738 12.6124C121.398 12.1761 121.204 11.5743 121.204 10.76H120.204ZM120.954 13.2323C121.485 13.8964 122.222 14.22 123.104 14.22V13.22C122.493 13.22 122.057 13.0103 121.735 12.6077L120.954 13.2323ZM123.104 14.22C123.725 14.22 124.286 14.0425 124.766 13.6783L124.162 12.8817C123.869 13.1042 123.523 13.22 123.104 13.22V14.22ZM124.766 13.6783C125.241 13.3179 125.556 12.8461 125.691 12.2745L124.718 12.0455C124.639 12.3806 124.46 12.6554 124.162 12.8817L124.766 13.6783ZM125.204 12.66H128.124V11.66H125.204V12.66ZM127.628 12.1027C127.523 13.0108 127.093 13.8484 126.296 14.621L126.992 15.339C127.928 14.4316 128.486 13.3892 128.621 12.2173L127.628 12.1027ZM126.293 14.6237C125.555 15.3501 124.521 15.74 123.124 15.74V16.74C124.715 16.74 126.026 16.2899 126.995 15.3363L126.293 14.6237ZM123.124 15.74C121.732 15.74 120.605 15.2697 119.705 14.3334L118.984 15.0266C120.084 16.1703 121.476 16.74 123.124 16.74V15.74ZM135.871 5.52V5.02H135.631L135.481 5.20705L135.871 5.52ZM139.431 5.52L139.806 5.85009L140.536 5.02H139.431V5.52ZM135.511 9.98L135.135 9.64991L134.876 9.94447L135.101 10.2661L135.511 9.98ZM139.711 16V16.5H140.669L140.121 15.7139L139.711 16ZM136.351 16L135.933 16.2745L136.081 16.5H136.351V16ZM133.631 11.86L134.049 11.5855L133.688 11.0367L133.255 11.5302L133.631 11.86ZM132.051 13.66L131.675 13.3302L131.551 13.4717V13.66H132.051ZM132.051 16V16.5H132.551V16H132.051ZM129.211 16H128.711V16.5H129.211V16ZM129.211 0.999999V0.499999H128.711V0.999999H129.211ZM132.051 0.999999H132.551V0.499999H132.051V0.999999ZM132.051 10.28H131.551V11.7019L132.441 10.5929L132.051 10.28ZM135.871 6.02H139.431V5.02H135.871V6.02ZM139.055 5.18991L135.135 9.64991L135.886 10.3101L139.806 5.85009L139.055 5.18991ZM135.101 10.2661L139.301 16.2861L140.121 15.7139L135.921 9.69391L135.101 10.2661ZM139.711 15.5H136.351V16.5H139.711V15.5ZM136.769 15.7255L134.049 11.5855L133.213 12.1345L135.933 16.2745L136.769 15.7255ZM133.255 11.5302L131.675 13.3302L132.427 13.9898L134.007 12.1898L133.255 11.5302ZM131.551 13.66V16H132.551V13.66H131.551ZM132.051 15.5H129.211V16.5H132.051V15.5ZM129.711 16V0.999999H128.711V16H129.711ZM129.211 1.5H132.051V0.499999H129.211V1.5ZM131.551 0.999999V10.28H132.551V0.999999H131.551ZM132.441 10.5929L136.261 5.83295L135.481 5.20705L131.661 9.96705L132.441 10.5929ZM144.613 16H144.113V16.5H144.613V16ZM144.613 1.8V1.3H144.113V1.8H144.613ZM155.213 3.76L154.859 4.11356L154.861 4.11534L155.213 3.76ZM155.213 14.04L154.861 13.6847L154.859 13.6864L155.213 14.04ZM152.993 12.16L152.63 11.8158L152.63 11.816L152.993 12.16ZM152.993 5.66L152.627 6.00099L152.633 6.0073L152.993 5.66ZM147.533 4.48V3.98H147.033V4.48H147.533ZM147.533 13.32H147.033V13.82H147.533V13.32ZM149.713 15.5H144.613V16.5H149.713V15.5ZM145.113 16V1.8H144.113V16H145.113ZM144.613 2.3H149.713V1.3H144.613V2.3ZM149.713 2.3C151.978 2.3 153.67 2.92478 154.859 4.11355L155.566 3.40645C154.141 1.98188 152.167 1.3 149.713 1.3V2.3ZM154.861 4.11534C156.072 5.31457 156.693 6.89294 156.693 8.9H157.693C157.693 6.66706 156.993 4.81877 155.564 3.40466L154.861 4.11534ZM156.693 8.9C156.693 10.9071 156.072 12.4854 154.861 13.6847L155.564 14.3953C156.993 12.9812 157.693 11.1329 157.693 8.9H156.693ZM154.859 13.6864C153.67 14.8752 151.978 15.5 149.713 15.5V16.5C152.167 16.5 154.141 15.8181 155.566 14.3936L154.859 13.6864ZM153.355 12.5042C154.213 11.6008 154.613 10.3777 154.613 8.9H153.613C153.613 10.1957 153.266 11.1458 152.63 11.8158L153.355 12.5042ZM154.613 8.9C154.613 7.42282 154.213 6.204 153.352 5.3127L152.633 6.0073C153.266 6.66266 153.613 7.60385 153.613 8.9H154.613ZM153.358 5.31906C152.497 4.39564 151.221 3.98 149.633 3.98V4.98C151.058 4.98 152.021 5.35103 152.627 6.00094L153.358 5.31906ZM149.633 3.98H147.533V4.98H149.633V3.98ZM147.033 4.48V13.32H148.033V4.48H147.033ZM147.533 13.82H149.633V12.82H147.533V13.82ZM149.633 13.82C151.219 13.82 152.494 13.4123 153.355 12.504L152.63 11.816C152.024 12.4543 151.06 12.82 149.633 12.82V13.82ZM168.394 11.58V12.08H168.871L168.894 11.6038L168.394 11.58ZM160.794 11.58V11.08H160.225L160.299 11.6443L160.794 11.58ZM161.594 13.24L161.264 13.6156L161.271 13.6213L161.594 13.24ZM164.554 13.52L164.785 13.9639L164.79 13.9607L164.554 13.52ZM165.354 12.66V12.16H165.025L164.895 12.463L165.354 12.66ZM168.214 12.66L168.695 12.7982L168.878 12.16H168.214V12.66ZM166.394 15.26L166.69 15.6636L166.691 15.6628L166.394 15.26ZM159.454 14.7L159.815 14.3535L159.815 14.3535L159.454 14.7ZM159.454 6.84L159.092 6.49587L159.092 6.49587L159.454 6.84ZM166.974 6.84L166.607 7.17917L166.612 7.184L166.974 6.84ZM168.434 10.74L168.934 10.7638L168.934 10.7519V10.74H168.434ZM161.634 8.1L161.956 8.48316L161.963 8.47704L161.634 8.1ZM160.834 9.54L160.344 9.44399L160.227 10.04H160.834V9.54ZM165.594 9.54V10.04H166.191L166.087 9.45248L165.594 9.54ZM164.814 8.1L164.486 8.47704L164.486 8.47704L164.814 8.1ZM168.394 11.08H160.794V12.08H168.394V11.08ZM160.299 11.6443C160.404 12.4548 160.713 13.1308 161.264 13.6156L161.924 12.8644C161.596 12.5759 161.372 12.1452 161.29 11.5157L160.299 11.6443ZM161.271 13.6213C161.822 14.0888 162.526 14.3 163.334 14.3V13.3C162.703 13.3 162.247 13.1379 161.918 12.8587L161.271 13.6213ZM163.334 14.3C163.858 14.3 164.345 14.1916 164.785 13.9639L164.324 13.0761C164.043 13.2217 163.717 13.3 163.334 13.3V14.3ZM164.79 13.9607C165.259 13.7096 165.607 13.3393 165.814 12.857L164.895 12.463C164.782 12.7274 164.596 12.9304 164.318 13.0793L164.79 13.9607ZM165.354 13.16H168.214V12.16H165.354V13.16ZM167.734 12.5218C167.458 13.4808 166.917 14.255 166.098 14.8572L166.691 15.6628C167.685 14.9317 168.357 13.9726 168.695 12.7982L167.734 12.5218ZM166.099 14.8564C165.299 15.4417 164.358 15.74 163.254 15.74V16.74C164.551 16.74 165.703 16.3849 166.69 15.6636L166.099 14.8564ZM163.254 15.74C161.831 15.74 160.699 15.2731 159.815 14.3535L159.094 15.0465C160.183 16.1802 161.585 16.74 163.254 16.74V15.74ZM159.815 14.3535C158.93 13.4326 158.474 12.2428 158.474 10.74H157.474C157.474 12.4639 158.006 13.9141 159.094 15.0465L159.815 14.3535ZM158.474 10.74C158.474 9.29571 158.927 8.12264 159.817 7.18413L159.092 6.49587C158.009 7.63735 157.474 9.06429 157.474 10.74H158.474ZM159.817 7.18413C160.702 6.25112 161.828 5.78 163.234 5.78V4.78C161.575 4.78 160.18 5.34888 159.092 6.49587L159.817 7.18413ZM163.234 5.78C164.641 5.78 165.75 6.25086 166.607 7.17914L167.342 6.50086C166.279 5.34914 164.894 4.78 163.234 4.78V5.78ZM166.612 7.184C167.487 8.10705 167.934 9.27907 167.934 10.74H168.934C168.934 9.05426 168.409 7.62628 167.337 6.496L166.612 7.184ZM167.935 10.7162L167.895 11.5562L168.894 11.6038L168.934 10.7638L167.935 10.7162ZM163.214 7.06C162.475 7.06 161.825 7.27067 161.306 7.72296L161.963 8.47704C162.27 8.20933 162.674 8.06 163.214 8.06V7.06ZM161.313 7.7169C160.799 8.14843 160.482 8.73708 160.344 9.44399L161.325 9.63601C161.427 9.11626 161.644 8.7449 161.956 8.4831L161.313 7.7169ZM160.834 10.04H165.594V9.04H160.834V10.04ZM166.087 9.45248C165.962 8.75344 165.652 8.16637 165.143 7.72296L164.486 8.47704C164.804 8.75363 165.013 9.12656 165.102 9.62752L166.087 9.45248ZM165.143 7.72296C164.622 7.26902 163.964 7.06 163.214 7.06V8.06C163.771 8.06 164.181 8.21098 164.486 8.47704L165.143 7.72296ZM173.444 12.58L172.973 12.7493L173.442 14.0518L173.914 12.7504L173.444 12.58ZM176.004 5.52V5.02H175.653L175.534 5.34956L176.004 5.52ZM178.944 5.52L179.408 5.706L179.683 5.02H178.944V5.52ZM174.744 16V16.5H175.082L175.208 16.186L174.744 16ZM172.104 16L171.64 16.186L171.766 16.5H172.104V16ZM167.904 5.52V5.02H167.165L167.44 5.706L167.904 5.52ZM170.904 5.52L171.374 5.35073L171.255 5.02H170.904V5.52ZM173.914 12.7504L176.474 5.69044L175.534 5.34956L172.974 12.4096L173.914 12.7504ZM176.004 6.02H178.944V5.02H176.004V6.02ZM178.48 5.334L174.28 15.814L175.208 16.186L179.408 5.706L178.48 5.334ZM174.744 15.5H172.104V16.5H174.744V15.5ZM172.568 15.814L168.368 5.334L167.44 5.706L171.64 16.186L172.568 15.814ZM167.904 6.02H170.904V5.02H167.904V6.02ZM170.433 5.68926L172.973 12.7493L173.914 12.4107L171.374 5.35073L170.433 5.68926ZM188.85 11.58V12.08H189.327L189.349 11.6038L188.85 11.58ZM181.25 11.58V11.08H180.681L180.754 11.6443L181.25 11.58ZM182.05 13.24L181.72 13.6156L181.726 13.6213L182.05 13.24ZM185.01 13.52L185.24 13.9639L185.246 13.9607L185.01 13.52ZM185.81 12.66V12.16H185.48L185.35 12.463L185.81 12.66ZM188.67 12.66L189.15 12.7982L189.334 12.16H188.67V12.66ZM186.85 15.26L187.145 15.6636L187.146 15.6628L186.85 15.26ZM179.91 14.7L180.27 14.3535L180.27 14.3535L179.91 14.7ZM179.91 6.84L179.547 6.49587L179.547 6.49587L179.91 6.84ZM187.43 6.84L187.062 7.17917L187.067 7.184L187.43 6.84ZM188.89 10.74L189.389 10.7638L189.39 10.7519V10.74H188.89ZM182.09 8.1L182.411 8.48316L182.418 8.47704L182.09 8.1ZM181.29 9.54L180.799 9.44399L180.683 10.04H181.29V9.54ZM186.05 9.54V10.04H186.647L186.542 9.45248L186.05 9.54ZM185.27 8.1L184.941 8.47704L184.941 8.47704L185.27 8.1ZM188.85 11.08H181.25V12.08H188.85V11.08ZM180.754 11.6443C180.859 12.4548 181.168 13.1308 181.72 13.6156L182.38 12.8644C182.052 12.5759 181.827 12.1452 181.746 11.5157L180.754 11.6443ZM181.726 13.6213C182.277 14.0888 182.982 14.3 183.79 14.3V13.3C183.158 13.3 182.702 13.1379 182.373 12.8587L181.726 13.6213ZM183.79 14.3C184.314 14.3 184.801 14.1916 185.24 13.9639L184.78 13.0761C184.499 13.2217 184.173 13.3 183.79 13.3V14.3ZM185.246 13.9607C185.715 13.7096 186.063 13.3393 186.269 12.857L185.35 12.463C185.237 12.7274 185.052 12.9304 184.774 13.0793L185.246 13.9607ZM185.81 13.16H188.67V12.16H185.81V13.16ZM188.189 12.5218C187.914 13.4808 187.373 14.255 186.554 14.8572L187.146 15.6628C188.14 14.9317 188.813 13.9726 189.15 12.7982L188.189 12.5218ZM186.555 14.8564C185.754 15.4417 184.813 15.74 183.71 15.74V16.74C185.007 16.74 186.159 16.3849 187.145 15.6636L186.555 14.8564ZM183.71 15.74C182.286 15.74 181.154 15.2731 180.27 14.3535L179.549 15.0465C180.639 16.1802 182.04 16.74 183.71 16.74V15.74ZM180.27 14.3535C179.385 13.4326 178.93 12.2428 178.93 10.74H177.93C177.93 12.4639 178.461 13.9141 179.549 15.0465L180.27 14.3535ZM178.93 10.74C178.93 9.29571 179.382 8.12264 180.273 7.18413L179.547 6.49587C178.464 7.63735 177.93 9.06429 177.93 10.74H178.93ZM180.273 7.18413C181.158 6.25112 182.283 5.78 183.69 5.78V4.78C182.03 4.78 180.635 5.34888 179.547 6.49587L180.273 7.18413ZM183.69 5.78C185.097 5.78 186.206 6.25086 187.062 7.17914L187.797 6.50086C186.734 5.34914 185.35 4.78 183.69 4.78V5.78ZM187.067 7.184C187.942 8.10705 188.39 9.27907 188.39 10.74H189.39C189.39 9.05426 188.864 7.62628 187.793 6.496L187.067 7.184ZM188.39 10.7162L188.35 11.5562L189.349 11.6038L189.389 10.7638L188.39 10.7162ZM183.67 7.06C182.931 7.06 182.281 7.27067 181.761 7.72296L182.418 8.47704C182.726 8.20933 183.129 8.06 183.67 8.06V7.06ZM181.769 7.7169C181.254 8.14843 180.937 8.73708 180.799 9.44399L181.781 9.63601C181.882 9.11626 182.099 8.7449 182.411 8.4831L181.769 7.7169ZM181.29 10.04H186.05V9.04H181.29V10.04ZM186.542 9.45248C186.418 8.75344 186.107 8.16637 185.598 7.72296L184.941 8.47704C185.259 8.75363 185.469 9.12656 185.558 9.62752L186.542 9.45248ZM185.598 7.72296C185.077 7.26902 184.42 7.06 183.67 7.06V8.06C184.227 8.06 184.636 8.21098 184.941 8.47704L185.598 7.72296ZM192.949 16V16.5H193.449V16H192.949ZM190.109 16H189.609V16.5H190.109V16ZM190.109 0.999999V0.499999H189.609V0.999999H190.109ZM192.949 0.999999H193.449V0.499999H192.949V0.999999ZM192.949 15.5H190.109V16.5H192.949V15.5ZM190.609 16V0.999999H189.609V16H190.609ZM190.109 1.5H192.949V0.499999H190.109V1.5ZM192.449 0.999999V16H193.449V0.999999H192.449ZM203.678 14.66L204.038 15.0067L204.04 15.0044L203.678 14.66ZM195.718 14.66L195.355 15.0044L195.357 15.0066L195.718 14.66ZM195.718 6.88L196.078 7.22665L196.08 7.22437L195.718 6.88ZM203.678 6.88L203.315 7.22438L203.317 7.22664L203.678 6.88ZM197.778 8.58L197.415 8.23559L197.411 8.24048L197.778 8.58ZM197.778 12.94L197.411 13.2796L197.415 13.2844L197.778 12.94ZM201.598 12.94L201.235 12.5956L201.231 12.6005L201.598 12.94ZM201.598 8.58L201.231 8.91955L201.235 8.92437L201.598 8.58ZM203.317 14.3134C202.41 15.2563 201.22 15.74 199.698 15.74V16.74C201.456 16.74 202.919 16.1704 204.038 15.0066L203.317 14.3134ZM199.698 15.74C198.176 15.74 196.985 15.2563 196.078 14.3134L195.357 15.0066C196.477 16.1704 197.94 16.74 199.698 16.74V15.74ZM196.08 14.3156C195.159 13.3461 194.698 12.1711 194.698 10.76H193.698C193.698 12.4155 194.25 13.8405 195.355 15.0044L196.08 14.3156ZM194.698 10.76C194.698 9.34891 195.159 8.18189 196.078 7.22664L195.357 6.53335C194.25 7.68478 193.698 9.10442 193.698 10.76H194.698ZM196.08 7.22437C196.988 6.26898 198.178 5.78 199.698 5.78V4.78C197.938 4.78 196.474 5.35768 195.355 6.53562L196.08 7.22437ZM199.698 5.78C201.218 5.78 202.408 6.26898 203.315 7.22437L204.04 6.53562C202.921 5.35768 201.458 4.78 199.698 4.78V5.78ZM203.317 7.22664C204.236 8.18189 204.698 9.34891 204.698 10.76H205.698C205.698 9.10442 205.146 7.68478 204.038 6.53335L203.317 7.22664ZM204.698 10.76C204.698 12.1711 204.236 13.3461 203.315 14.3156L204.04 15.0044C205.146 13.8405 205.698 12.4155 205.698 10.76H204.698ZM197.411 8.24048C196.811 8.88896 196.538 9.74897 196.538 10.76H197.538C197.538 9.93103 197.758 9.33771 198.145 8.91952L197.411 8.24048ZM196.538 10.76C196.538 11.771 196.811 12.631 197.411 13.2795L198.145 12.6005C197.758 12.1823 197.538 11.589 197.538 10.76H196.538ZM197.415 13.2844C198.022 13.9226 198.795 14.24 199.698 14.24V13.24C199.054 13.24 198.547 13.024 198.14 12.5956L197.415 13.2844ZM199.698 14.24C200.6 14.24 201.37 13.9223 201.965 13.2795L201.231 12.6005C200.839 13.0243 200.342 13.24 199.698 13.24V14.24ZM201.96 13.2844C202.576 12.6363 202.858 11.7745 202.858 10.76H201.858C201.858 11.5855 201.633 12.177 201.235 12.5956L201.96 13.2844ZM202.858 10.76C202.858 9.74549 202.576 8.88371 201.96 8.23562L201.235 8.92437C201.633 9.34295 201.858 9.93451 201.858 10.76H202.858ZM201.965 8.24048C201.37 7.59766 200.6 7.28 199.698 7.28V8.28C200.342 8.28 200.839 8.49567 201.231 8.91952L201.965 8.24048ZM199.698 7.28C198.795 7.28 198.022 7.59736 197.415 8.23562L198.14 8.92437C198.547 8.49598 199.054 8.28 199.698 8.28V7.28ZM209.283 14.88L209.681 14.5778L208.783 13.3936V14.88H209.283ZM209.283 20.16V20.66H209.783V20.16H209.283ZM206.443 20.16H205.943V20.66H206.443V20.16ZM206.443 5.52V5.02H205.943V5.52H206.443ZM209.063 5.52H209.563V5.02H209.063V5.52ZM209.063 6.8H208.563V8.41622L209.476 7.08234L209.063 6.8ZM215.903 6.84L216.287 6.51991L216.287 6.51991L215.903 6.84ZM215.903 14.68L216.287 15.0001L216.287 15.0001L215.903 14.68ZM210.523 15.86L210.299 16.3072L210.306 16.3105L210.313 16.3137L210.523 15.86ZM209.903 8.62L209.523 8.29457L209.519 8.29991L209.903 8.62ZM209.903 12.9L209.519 13.2201L209.523 13.2254L209.903 12.9ZM213.643 12.9L213.263 12.5746L213.259 12.5799L213.643 12.9ZM213.643 8.62L213.259 8.94012L213.263 8.9454L213.643 8.62ZM208.783 14.88V20.16H209.783V14.88H208.783ZM209.283 19.66H206.443V20.66H209.283V19.66ZM206.943 20.16V5.52H205.943V20.16H206.943ZM206.443 6.02H209.063V5.02H206.443V6.02ZM208.563 5.52V6.8H209.563V5.52H208.563ZM209.476 7.08234C210.053 6.2382 210.984 5.78 212.383 5.78V4.78C210.742 4.78 209.459 5.33513 208.65 6.51766L209.476 7.08234ZM212.383 5.78C213.73 5.78 214.757 6.24562 215.519 7.16009L216.287 6.51991C215.316 5.35438 213.996 4.78 212.383 4.78V5.78ZM215.519 7.16009C216.299 8.096 216.703 9.28367 216.703 10.76H217.703C217.703 9.08967 217.24 7.664 216.287 6.51991L215.519 7.16009ZM216.703 10.76C216.703 12.2363 216.299 13.424 215.519 14.3599L216.287 15.0001C217.24 13.856 217.703 12.4303 217.703 10.76H216.703ZM215.519 14.3599C214.757 15.2744 213.73 15.74 212.383 15.74V16.74C213.996 16.74 215.316 16.1656 216.287 15.0001L215.519 14.3599ZM212.383 15.74C211.751 15.74 211.205 15.6249 210.733 15.4063L210.313 16.3137C210.935 16.6018 211.628 16.74 212.383 16.74V15.74ZM210.747 15.4128C210.266 15.1727 209.919 14.891 209.681 14.5778L208.885 15.1822C209.234 15.6423 209.713 16.0139 210.299 16.3072L210.747 15.4128ZM209.519 8.29991C208.964 8.96604 208.703 9.79946 208.703 10.76H209.703C209.703 9.9872 209.909 9.39396 210.287 8.94009L209.519 8.29991ZM208.703 10.76C208.703 11.7205 208.964 12.554 209.519 13.2201L210.287 12.5799C209.909 12.126 209.703 11.5328 209.703 10.76H208.703ZM209.523 13.2254C210.103 13.9022 210.872 14.24 211.783 14.24V13.24C211.148 13.24 210.662 13.0178 210.283 12.5746L209.523 13.2254ZM211.783 14.24C212.694 14.24 213.459 13.9018 214.027 13.2201L213.259 12.5799C212.894 13.0182 212.418 13.24 211.783 13.24V14.24ZM214.023 13.2254C214.593 12.5594 214.863 11.724 214.863 10.76H213.863C213.863 11.5293 213.652 12.1206 213.263 12.5746L214.023 13.2254ZM214.863 10.76C214.863 9.79598 214.593 8.96064 214.023 8.2946L213.263 8.9454C213.652 9.39936 213.863 9.99069 213.863 10.76H214.863ZM214.027 8.29991C213.459 7.6182 212.694 7.28 211.783 7.28V8.28C212.418 8.28 212.894 8.5018 213.259 8.94009L214.027 8.29991ZM211.783 7.28C210.872 7.28 210.103 7.61779 209.523 8.2946L210.283 8.9454C210.662 8.50221 211.148 8.28 211.783 8.28V7.28ZM228.198 11.58V12.08H228.675L228.698 11.6038L228.198 11.58ZM220.598 11.58V11.08H220.029L220.102 11.6443L220.598 11.58ZM221.398 13.24L221.068 13.6156L221.075 13.6213L221.398 13.24ZM224.358 13.52L224.588 13.9639L224.594 13.9607L224.358 13.52ZM225.158 12.66V12.16H224.829L224.699 12.463L225.158 12.66ZM228.018 12.66L228.499 12.7982L228.682 12.16H228.018V12.66ZM226.198 15.26L226.493 15.6636L226.494 15.6628L226.198 15.26ZM219.258 14.7L219.619 14.3535L219.619 14.3535L219.258 14.7ZM219.258 6.84L218.896 6.49587L218.896 6.49587L219.258 6.84ZM226.778 6.84L226.411 7.17917L226.415 7.184L226.778 6.84ZM228.238 10.74L228.738 10.7638L228.738 10.7519V10.74H228.238ZM221.438 8.1L221.76 8.48316L221.767 8.47704L221.438 8.1ZM220.638 9.54L220.148 9.44399L220.031 10.04H220.638V9.54ZM225.398 9.54V10.04H225.995L225.891 9.45248L225.398 9.54ZM224.618 8.1L224.29 8.47704L224.29 8.47704L224.618 8.1ZM228.198 11.08H220.598V12.08H228.198V11.08ZM220.102 11.6443C220.207 12.4548 220.517 13.1308 221.068 13.6156L221.728 12.8644C221.4 12.5759 221.176 12.1452 221.094 11.5157L220.102 11.6443ZM221.075 13.6213C221.626 14.0888 222.33 14.3 223.138 14.3V13.3C222.506 13.3 222.051 13.1379 221.722 12.8587L221.075 13.6213ZM223.138 14.3C223.662 14.3 224.149 14.1916 224.588 13.9639L224.128 13.0761C223.847 13.2217 223.521 13.3 223.138 13.3V14.3ZM224.594 13.9607C225.063 13.7096 225.411 13.3393 225.618 12.857L224.699 12.463C224.585 12.7274 224.4 12.9304 224.122 13.0793L224.594 13.9607ZM225.158 13.16H228.018V12.16H225.158V13.16ZM227.538 12.5218C227.262 13.4808 226.721 14.255 225.902 14.8572L226.494 15.6628C227.489 14.9317 228.161 13.9726 228.499 12.7982L227.538 12.5218ZM225.903 14.8564C225.103 15.4417 224.162 15.74 223.058 15.74V16.74C224.355 16.74 225.507 16.3849 226.493 15.6636L225.903 14.8564ZM223.058 15.74C221.635 15.74 220.503 15.2731 219.619 14.3535L218.898 15.0465C219.987 16.1802 221.389 16.74 223.058 16.74V15.74ZM219.619 14.3535C218.734 13.4326 218.278 12.2428 218.278 10.74H217.278C217.278 12.4639 217.809 13.9141 218.898 15.0465L219.619 14.3535ZM218.278 10.74C218.278 9.29571 218.731 8.12264 219.621 7.18413L218.896 6.49587C217.813 7.63735 217.278 9.06429 217.278 10.74H218.278ZM219.621 7.18413C220.506 6.25112 221.631 5.78 223.038 5.78V4.78C221.378 4.78 219.984 5.34888 218.896 6.49587L219.621 7.18413ZM223.038 5.78C224.445 5.78 225.554 6.25086 226.411 7.17914L227.146 6.50086C226.083 5.34914 224.698 4.78 223.038 4.78V5.78ZM226.415 7.184C227.291 8.10705 227.738 9.27907 227.738 10.74H228.738C228.738 9.05426 228.213 7.62628 227.141 6.496L226.415 7.184ZM227.739 10.7162L227.699 11.5562L228.698 11.6038L228.738 10.7638L227.739 10.7162ZM223.018 7.06C222.279 7.06 221.629 7.27067 221.11 7.72296L221.767 8.47704C222.074 8.20933 222.478 8.06 223.018 8.06V7.06ZM221.117 7.7169C220.602 8.14843 220.286 8.73708 220.148 9.44399L221.129 9.63601C221.231 9.11626 221.447 8.7449 221.76 8.4831L221.117 7.7169ZM220.638 10.04H225.398V9.04H220.638V10.04ZM225.891 9.45248C225.766 8.75344 225.456 8.16637 224.947 7.72296L224.29 8.47704C224.607 8.75363 224.817 9.12656 224.906 9.62752L225.891 9.45248ZM224.947 7.72296C224.425 7.26902 223.768 7.06 223.018 7.06V8.06C223.575 8.06 223.984 8.21098 224.29 8.47704L224.947 7.72296ZM235.377 5.44H235.877V4.96855L235.406 4.94086L235.377 5.44ZM235.377 8.1L235.279 8.59029L235.877 8.7099V8.1H235.377ZM232.917 8.7L232.558 8.35188L232.553 8.35766L232.917 8.7ZM232.297 16V16.5H232.797V16H232.297ZM229.457 16H228.957V16.5H229.457V16ZM229.457 5.52V5.02H228.957V5.52H229.457ZM232.077 5.52H232.577V5.02H232.077V5.52ZM232.077 6.88H231.577V8.64395L232.503 7.14237L232.077 6.88ZM235.037 5.42L235.066 4.92086L235.052 4.92H235.037V5.42ZM234.877 5.44V8.1H235.877V5.44H234.877ZM235.475 7.60971C235.248 7.56435 235.028 7.54 234.817 7.54V8.54C234.952 8.54 235.106 8.55565 235.279 8.59029L235.475 7.60971ZM234.817 7.54C233.893 7.54 233.11 7.78318 232.558 8.35193L233.276 9.04807C233.578 8.73682 234.061 8.54 234.817 8.54V7.54ZM232.553 8.35766C232.014 8.93095 231.797 9.77562 231.797 10.78H232.797C232.797 9.89105 232.993 9.34905 233.281 9.04234L232.553 8.35766ZM231.797 10.78V16H232.797V10.78H231.797ZM232.297 15.5H229.457V16.5H232.297V15.5ZM229.957 16V5.52H228.957V16H229.957ZM229.457 6.02H232.077V5.02H229.457V6.02ZM231.577 5.52V6.88H232.577V5.52H231.577ZM232.503 7.14237C232.992 6.34833 233.797 5.92 235.037 5.92V4.92C233.531 4.92 232.362 5.46501 231.651 6.61763L232.503 7.14237ZM235.008 5.91914L235.348 5.93914L235.406 4.94086L235.066 4.92086L235.008 5.91914ZM242.793 8.12L242.995 8.57746L243.632 8.29644L243.162 7.78261L242.793 8.12ZM242.613 2.6L242.964 2.9568L242.967 2.95355L242.613 2.6ZM248.733 2.6L248.38 2.95357L248.383 2.95678L248.733 2.6ZM246.893 8.92L246.688 8.46387L246.059 8.74659L246.524 9.25678L246.893 8.92ZM249.153 11.4L248.784 11.7368L249.304 12.3076L249.612 11.5994L249.153 11.4ZM249.553 9.34H250.053V9.32248L250.052 9.305L249.553 9.34ZM249.473 8.2V7.7H248.937L248.975 8.235L249.473 8.2ZM252.053 8.2L252.55 8.14673L252.503 7.7H252.053V8.2ZM250.933 13.36L250.519 13.0794L250.298 13.4065L250.565 13.6979L250.933 13.36ZM253.353 16V16.5H254.49L253.722 15.6621L253.353 16ZM249.913 16L249.543 16.3355L249.691 16.5H249.913V16ZM249.153 15.16L249.524 14.8245L249.234 14.5039L248.875 14.7447L249.153 15.16ZM241.513 15.16L241.203 15.552L241.206 15.5541L241.513 15.16ZM247.453 13.3L247.695 13.7375L248.247 13.4324L247.824 12.9648L247.453 13.3ZM244.453 9.98L244.824 9.64478L244.579 9.37355L244.246 9.52482L244.453 9.98ZM243.193 10.84L243.572 11.1669L243.579 11.1584L243.193 10.84ZM243.473 13.3L243.157 13.687L243.164 13.6927L243.473 13.3ZM245.053 6.9L245.427 6.56777L245.421 6.56147L245.053 6.9ZM245.213 7.08L244.84 7.41218L245.083 7.68625L245.418 7.53625L245.213 7.08ZM245.793 6.82L245.599 6.35932L245.589 6.36375L245.793 6.82ZM246.773 4.18L246.42 4.53365L246.428 4.54168L246.773 4.18ZM244.553 4.18L244.898 4.54218L244.907 4.53355L244.553 4.18ZM243.162 7.78261C242.371 6.91761 242.013 6.05955 242.013 5.2H241.013C241.013 6.36712 241.508 7.45572 242.424 8.45738L243.162 7.78261ZM242.013 5.2C242.013 4.32299 242.324 3.58426 242.964 2.95678L242.263 2.24322C241.435 3.05573 241.013 4.05034 241.013 5.2H242.013ZM242.967 2.95355C243.584 2.33687 244.463 2 245.673 2V1C244.27 1 243.11 1.39646 242.26 2.24645L242.967 2.95355ZM245.673 2C246.884 2 247.763 2.33687 248.38 2.95355L249.087 2.24645C248.237 1.39646 247.076 1 245.673 1V2ZM248.383 2.95678C249.022 3.58426 249.333 4.32299 249.333 5.2H250.333C250.333 4.05034 249.911 3.05573 249.084 2.24322L248.383 2.95678ZM249.333 5.2C249.333 6.53369 248.542 7.63161 246.688 8.46387L247.098 9.37613C249.164 8.44838 250.333 7.06631 250.333 5.2H249.333ZM246.524 9.25678L248.784 11.7368L249.523 11.0632L247.263 8.58322L246.524 9.25678ZM249.612 11.5994C249.909 10.9151 250.053 10.1593 250.053 9.34H249.053C249.053 10.0407 248.931 10.6582 248.695 11.2006L249.612 11.5994ZM250.052 9.305L249.972 8.165L248.975 8.235L249.055 9.375L250.052 9.305ZM249.473 8.7H252.053V7.7H249.473V8.7ZM251.556 8.25327C251.594 8.60966 251.613 8.95854 251.613 9.3H252.613C252.613 8.92146 252.592 8.537 252.55 8.14673L251.556 8.25327ZM251.613 9.3C251.613 10.7574 251.244 12.0107 250.519 13.0794L251.347 13.6406C252.196 12.3893 252.613 10.9359 252.613 9.3H251.613ZM250.565 13.6979L252.985 16.3379L253.722 15.6621L251.302 13.0221L250.565 13.6979ZM253.353 15.5H249.913V16.5H253.353V15.5ZM250.284 15.6645L249.524 14.8245L248.783 15.4955L249.543 16.3355L250.284 15.6645ZM248.875 14.7447C247.831 15.4448 246.623 15.8 245.233 15.8V16.8C246.804 16.8 248.209 16.3952 249.432 15.5753L248.875 14.7447ZM245.233 15.8C243.813 15.8 242.688 15.4432 241.821 14.7659L241.206 15.5541C242.285 16.3968 243.64 16.8 245.233 16.8V15.8ZM241.824 14.768C240.987 14.1054 240.573 13.2448 240.573 12.14H239.573C239.573 13.5419 240.12 14.6946 241.203 15.552L241.824 14.768ZM240.573 12.14C240.573 11.2833 240.779 10.5797 241.167 10.0052C241.557 9.42894 242.155 8.94806 242.995 8.57746L242.591 7.66254C241.618 8.09193 240.856 8.68106 240.339 9.4448C239.821 10.2103 239.573 11.1167 239.573 12.14H240.573ZM245.313 14.32C246.188 14.32 246.986 14.1298 247.695 13.7375L247.211 12.8625C246.667 13.1635 246.039 13.32 245.313 13.32V14.32ZM247.824 12.9648L244.824 9.64478L244.082 10.3152L247.082 13.6352L247.824 12.9648ZM244.246 9.52482C243.629 9.80564 243.13 10.131 242.808 10.5216L243.579 11.1584C243.763 10.9357 244.105 10.6877 244.66 10.4352L244.246 9.52482ZM242.815 10.5132C242.473 10.9096 242.313 11.3973 242.313 11.94H243.313C243.313 11.6027 243.407 11.357 243.572 11.1668L242.815 10.5132ZM242.313 11.94C242.313 12.6434 242.606 13.2364 243.157 13.687L243.79 12.913C243.461 12.6436 243.313 12.3299 243.313 11.94H242.313ZM243.164 13.6927C243.722 14.1322 244.459 14.32 245.313 14.32V13.32C244.594 13.32 244.105 13.1612 243.783 12.9073L243.164 13.6927ZM243.633 5.2C243.633 5.86657 244.057 6.55518 244.685 7.23853L245.421 6.56147C244.823 5.91148 244.633 5.46676 244.633 5.2H243.633ZM244.68 7.23218L244.84 7.41218L245.587 6.74782L245.427 6.56782L244.68 7.23218ZM245.418 7.53625L245.998 7.27625L245.589 6.36375L245.009 6.62375L245.418 7.53625ZM245.988 7.28057C247.011 6.84824 247.713 6.17712 247.713 5.2H246.713C246.713 5.58288 246.469 5.99176 245.599 6.35943L245.988 7.28057ZM247.713 5.2C247.713 4.66124 247.509 4.1912 247.119 3.81832L246.428 4.54168C246.624 4.7288 246.713 4.93876 246.713 5.2H247.713ZM247.127 3.82645C246.739 3.43889 246.238 3.26 245.673 3.26V4.26C246.015 4.26 246.247 4.36111 246.42 4.53355L247.127 3.82645ZM245.673 3.26C245.099 3.26 244.59 3.43608 244.2 3.82645L244.907 4.53355C245.076 4.36392 245.314 4.26 245.673 4.26V3.26ZM244.208 3.81793C243.822 4.18599 243.633 4.66036 243.633 5.2H244.633C244.633 4.91297 244.725 4.70734 244.898 4.54207L244.208 3.81793ZM268.425 13.32H268.925V12.82H268.425V13.32ZM268.425 16V16.5H268.925V16H268.425ZM258.205 16H257.705V16.5H258.205V16ZM258.205 1.8V1.3H257.705V1.8H258.205ZM268.425 1.8H268.925V1.3H268.425V1.8ZM268.425 4.48V4.98H268.925V4.48H268.425ZM261.125 4.48V3.98H260.625V4.48H261.125ZM261.125 7.46H260.625V7.96H261.125V7.46ZM268.125 7.46H268.625V6.96H268.125V7.46ZM268.125 10.14V10.64H268.625V10.14H268.125ZM261.125 10.14V9.64H260.625V10.14H261.125ZM261.125 13.32H260.625V13.82H261.125V13.32ZM267.925 13.32V16H268.925V13.32H267.925ZM268.425 15.5H258.205V16.5H268.425V15.5ZM258.705 16V1.8H257.705V16H258.705ZM258.205 2.3H268.425V1.3H258.205V2.3ZM267.925 1.8V4.48H268.925V1.8H267.925ZM268.425 3.98H261.125V4.98H268.425V3.98ZM260.625 4.48V7.46H261.625V4.48H260.625ZM261.125 7.96H268.125V6.96H261.125V7.96ZM267.625 7.46V10.14H268.625V7.46H267.625ZM268.125 9.64H261.125V10.64H268.125V9.64ZM260.625 10.14V13.32H261.625V10.14H260.625ZM261.125 13.82H268.425V12.82H261.125V13.82ZM272.64 5.52H273.14V5.02H272.64V5.52ZM272.64 6.8H272.14L273.08 7.03739L272.64 6.8ZM278.62 6.42L278.244 6.74973L278.247 6.75301L278.62 6.42ZM279.62 16V16.5H280.12V16H279.62ZM276.78 16H276.28V16.5H276.78V16ZM273.42 8.34L273.785 8.6812L273.791 8.67514L273.42 8.34ZM272.86 16V16.5H273.36V16H272.86ZM270.02 16H269.52V16.5H270.02V16ZM270.02 5.52V5.02H269.52V5.52H270.02ZM272.14 5.52V6.8H273.14V5.52H272.14ZM273.08 7.03739C273.51 6.23952 274.34 5.78 275.76 5.78V4.78C274.113 4.78 272.862 5.33381 272.199 6.5626L273.08 7.03739ZM275.76 5.78C276.891 5.78 277.693 6.12199 278.244 6.74972L278.995 6.09028C278.213 5.19801 277.108 4.78 275.76 4.78V5.78ZM278.247 6.75301C278.811 7.38475 279.12 8.26755 279.12 9.46H280.12C280.12 8.09245 279.762 6.94858 278.993 6.08699L278.247 6.75301ZM279.12 9.46V16H280.12V9.46H279.12ZM279.62 15.5H276.78V16.5H279.62V15.5ZM277.28 16V9.78H276.28V16H277.28ZM277.28 9.78C277.28 9.03271 277.12 8.37889 276.713 7.90809C276.294 7.42332 275.691 7.22 275 7.22V8.22C275.495 8.22 275.782 8.36001 275.956 8.5619C276.143 8.77777 276.28 9.15396 276.28 9.78H277.28ZM275 7.22C274.212 7.22 273.537 7.46385 273.048 8.00486L273.791 8.67514C274.049 8.38948 274.427 8.22 275 8.22V7.22ZM273.054 7.99884C272.571 8.51599 272.36 9.20486 272.36 10H273.36C273.36 9.38181 273.521 8.964 273.785 8.68116L273.054 7.99884ZM272.36 10V16H273.36V10H272.36ZM272.86 15.5H270.02V16.5H272.86V15.5ZM270.52 16V5.52H269.52V16H270.52ZM270.02 6.02H272.64V5.02H270.02V6.02ZM286.349 13.48H286.849V12.8985L286.274 12.9856L286.349 13.48ZM286.349 15.94L286.47 16.4251L286.849 16.3304V15.94H286.349ZM281.789 7.76H282.289V7.26H281.789V7.76ZM280.369 7.76H279.869V8.26H280.369V7.76ZM280.369 5.52V5.02H279.869V5.52H280.369ZM281.789 5.52V6.02H282.289V5.52H281.789ZM281.789 2.92V2.42H281.289V2.92H281.789ZM284.629 2.92H285.129V2.42H284.629V2.92ZM284.629 5.52H284.129V6.02H284.629V5.52ZM286.369 5.52H286.869V5.02H286.369V5.52ZM286.369 7.76V8.26H286.869V7.76H286.369ZM284.629 7.76V7.26H284.129V7.76H284.629ZM285.689 13.58V14.08H285.727L285.764 14.0744L285.689 13.58ZM285.849 13.48V15.94H286.849V13.48H285.849ZM286.228 15.4549C285.966 15.5203 285.567 15.56 285.009 15.56V16.56C285.598 16.56 286.092 16.5197 286.47 16.4251L286.228 15.4549ZM285.009 15.56C284.012 15.56 283.356 15.3125 282.946 14.9053C282.537 14.4987 282.289 13.8488 282.289 12.86H281.289C281.289 14.0045 281.577 14.9546 282.241 15.6147C282.905 16.2741 283.859 16.56 285.009 16.56V15.56ZM282.289 12.86V7.76H281.289V12.86H282.289ZM281.789 7.26H280.369V8.26H281.789V7.26ZM280.869 7.76V5.52H279.869V7.76H280.869ZM280.369 6.02H281.789V5.02H280.369V6.02ZM282.289 5.52V2.92H281.289V5.52H282.289ZM281.789 3.42H284.629V2.42H281.789V3.42ZM284.129 2.92V5.52H285.129V2.92H284.129ZM284.629 6.02H286.369V5.02H284.629V6.02ZM285.869 5.52V7.76H286.869V5.52H285.869ZM286.369 7.26H284.629V8.26H286.369V7.26ZM284.129 7.76V12.56H285.129V7.76H284.129ZM284.129 12.56C284.129 12.9821 284.24 13.3893 284.547 13.6853C284.851 13.9779 285.263 14.08 285.689 14.08V13.08C285.408 13.08 285.29 13.0121 285.241 12.9647C285.195 12.9207 285.129 12.8179 285.129 12.56H284.129ZM285.764 14.0744L286.424 13.9744L286.274 12.9856L285.614 13.0856L285.764 14.0744ZM293.329 5.44H293.829V4.96855L293.358 4.94086L293.329 5.44ZM293.329 8.1L293.231 8.59029L293.829 8.7099V8.1H293.329ZM290.869 8.7L290.51 8.35188L290.504 8.35766L290.869 8.7ZM290.249 16V16.5H290.749V16H290.249ZM287.409 16H286.909V16.5H287.409V16ZM287.409 5.52V5.02H286.909V5.52H287.409ZM290.029 5.52H290.529V5.02H290.029V5.52ZM290.029 6.88H289.529V8.64395L290.454 7.14237L290.029 6.88ZM292.989 5.42L293.018 4.92086L293.003 4.92H292.989V5.42ZM292.829 5.44V8.1H293.829V5.44H292.829ZM293.427 7.60971C293.2 7.56435 292.98 7.54 292.769 7.54V8.54C292.904 8.54 293.057 8.55565 293.231 8.59029L293.427 7.60971ZM292.769 7.54C291.845 7.54 291.061 7.78318 290.51 8.35193L291.228 9.04807C291.529 8.73682 292.012 8.54 292.769 8.54V7.54ZM290.504 8.35766C289.966 8.93095 289.749 9.77562 289.749 10.78H290.749C290.749 9.89105 290.945 9.34905 291.233 9.04234L290.504 8.35766ZM289.749 10.78V16H290.749V10.78H289.749ZM290.249 15.5H287.409V16.5H290.249V15.5ZM287.909 16V5.52H286.909V16H287.909ZM287.409 6.02H290.029V5.02H287.409V6.02ZM289.529 5.52V6.88H290.529V5.52H289.529ZM290.454 7.14237C290.944 6.34833 291.748 5.92 292.989 5.92V4.92C291.482 4.92 290.313 5.46501 289.603 6.61763L290.454 7.14237ZM292.959 5.91914L293.299 5.93914L293.358 4.94086L293.018 4.92086L292.959 5.91914ZM303.48 11.58V12.08H303.957L303.98 11.6038L303.48 11.58ZM295.88 11.58V11.08H295.311L295.384 11.6443L295.88 11.58ZM296.68 13.24L296.35 13.6156L296.357 13.6213L296.68 13.24ZM299.64 13.52L299.87 13.9639L299.876 13.9607L299.64 13.52ZM300.44 12.66V12.16H300.111L299.981 12.463L300.44 12.66ZM303.3 12.66L303.781 12.7982L303.964 12.16H303.3V12.66ZM301.48 15.26L301.775 15.6636L301.777 15.6628L301.48 15.26ZM294.54 14.7L294.901 14.3535L294.901 14.3535L294.54 14.7ZM294.54 6.84L294.178 6.49587L294.178 6.49587L294.54 6.84ZM302.06 6.84L301.693 7.17917L301.697 7.184L302.06 6.84ZM303.52 10.74L304.02 10.7638L304.02 10.7519V10.74H303.52ZM296.72 8.1L297.042 8.48316L297.049 8.47704L296.72 8.1ZM295.92 9.54L295.43 9.44399L295.313 10.04H295.92V9.54ZM300.68 9.54V10.04H301.277L301.173 9.45248L300.68 9.54ZM299.9 8.1L299.572 8.47704L299.572 8.47704L299.9 8.1ZM303.48 11.08H295.88V12.08H303.48V11.08ZM295.384 11.6443C295.49 12.4548 295.799 13.1308 296.35 13.6156L297.01 12.8644C296.682 12.5759 296.458 12.1452 296.376 11.5157L295.384 11.6443ZM296.357 13.6213C296.908 14.0888 297.612 14.3 298.42 14.3V13.3C297.789 13.3 297.333 13.1379 297.004 12.8587L296.357 13.6213ZM298.42 14.3C298.944 14.3 299.431 14.1916 299.87 13.9639L299.41 13.0761C299.129 13.2217 298.803 13.3 298.42 13.3V14.3ZM299.876 13.9607C300.345 13.7096 300.693 13.3393 300.9 12.857L299.981 12.463C299.867 12.7274 299.682 12.9304 299.404 13.0793L299.876 13.9607ZM300.44 13.16H303.3V12.16H300.44V13.16ZM302.82 12.5218C302.544 13.4808 302.003 14.255 301.184 14.8572L301.777 15.6628C302.771 14.9317 303.443 13.9726 303.781 12.7982L302.82 12.5218ZM301.185 14.8564C300.385 15.4417 299.444 15.74 298.34 15.74V16.74C299.637 16.74 300.789 16.3849 301.775 15.6636L301.185 14.8564ZM298.34 15.74C296.917 15.74 295.785 15.2731 294.901 14.3535L294.18 15.0465C295.269 16.1802 296.671 16.74 298.34 16.74V15.74ZM294.901 14.3535C294.016 13.4326 293.56 12.2428 293.56 10.74H292.56C292.56 12.4639 293.092 13.9141 294.18 15.0465L294.901 14.3535ZM293.56 10.74C293.56 9.29571 294.013 8.12264 294.903 7.18413L294.178 6.49587C293.095 7.63735 292.56 9.06429 292.56 10.74H293.56ZM294.903 7.18413C295.788 6.25112 296.913 5.78 298.32 5.78V4.78C296.66 4.78 295.266 5.34888 294.178 6.49587L294.903 7.18413ZM298.32 5.78C299.727 5.78 300.836 6.25086 301.693 7.17914L302.428 6.50086C301.365 5.34914 299.98 4.78 298.32 4.78V5.78ZM301.697 7.184C302.573 8.10705 303.02 9.27907 303.02 10.74H304.02C304.02 9.05426 303.495 7.62628 302.423 6.496L301.697 7.184ZM303.021 10.7162L302.981 11.5562L303.98 11.6038L304.02 10.7638L303.021 10.7162ZM298.3 7.06C297.561 7.06 296.911 7.27067 296.392 7.72296L297.049 8.47704C297.356 8.20933 297.76 8.06 298.3 8.06V7.06ZM296.399 7.7169C295.884 8.14843 295.568 8.73708 295.43 9.44399L296.411 9.63601C296.513 9.11626 296.729 8.7449 297.042 8.4831L296.399 7.7169ZM295.92 10.04H300.68V9.04H295.92V10.04ZM301.173 9.45248C301.048 8.75344 300.738 8.16637 300.229 7.72296L299.572 8.47704C299.889 8.75363 300.099 9.12656 300.188 9.62752L301.173 9.45248ZM300.229 7.72296C299.708 7.26902 299.05 7.06 298.3 7.06V8.06C298.857 8.06 299.266 8.21098 299.572 8.47704L300.229 7.72296ZM307.579 14.88L307.977 14.5778L307.079 13.3936V14.88H307.579ZM307.579 20.16V20.66H308.079V20.16H307.579ZM304.739 20.16H304.239V20.66H304.739V20.16ZM304.739 5.52V5.02H304.239V5.52H304.739ZM307.359 5.52H307.859V5.02H307.359V5.52ZM307.359 6.8H306.859V8.41622L307.772 7.08234L307.359 6.8ZM314.199 6.84L314.583 6.51991L314.583 6.51991L314.199 6.84ZM314.199 14.68L314.583 15.0001L314.583 15.0001L314.199 14.68ZM308.819 15.86L308.595 16.3072L308.602 16.3105L308.609 16.3137L308.819 15.86ZM308.199 8.62L307.819 8.29457L307.815 8.29991L308.199 8.62ZM308.199 12.9L307.815 13.2201L307.819 13.2254L308.199 12.9ZM311.939 12.9L311.559 12.5746L311.555 12.5799L311.939 12.9ZM311.939 8.62L311.555 8.94012L311.559 8.9454L311.939 8.62ZM307.079 14.88V20.16H308.079V14.88H307.079ZM307.579 19.66H304.739V20.66H307.579V19.66ZM305.239 20.16V5.52H304.239V20.16H305.239ZM304.739 6.02H307.359V5.02H304.739V6.02ZM306.859 5.52V6.8H307.859V5.52H306.859ZM307.772 7.08234C308.349 6.2382 309.28 5.78 310.679 5.78V4.78C309.038 4.78 307.756 5.33513 306.946 6.51766L307.772 7.08234ZM310.679 5.78C312.026 5.78 313.053 6.24562 313.815 7.16009L314.583 6.51991C313.612 5.35438 312.292 4.78 310.679 4.78V5.78ZM313.815 7.16009C314.595 8.096 314.999 9.28367 314.999 10.76H315.999C315.999 9.08967 315.537 7.664 314.583 6.51991L313.815 7.16009ZM314.999 10.76C314.999 12.2363 314.595 13.424 313.815 14.3599L314.583 15.0001C315.537 13.856 315.999 12.4303 315.999 10.76H314.999ZM313.815 14.3599C313.053 15.2744 312.026 15.74 310.679 15.74V16.74C312.292 16.74 313.612 16.1656 314.583 15.0001L313.815 14.3599ZM310.679 15.74C310.047 15.74 309.501 15.6249 309.029 15.4063L308.609 16.3137C309.231 16.6018 309.924 16.74 310.679 16.74V15.74ZM309.043 15.4128C308.563 15.1727 308.215 14.891 307.977 14.5778L307.181 15.1822C307.53 15.6423 308.009 16.0139 308.595 16.3072L309.043 15.4128ZM307.815 8.29991C307.26 8.96604 306.999 9.79946 306.999 10.76H307.999C307.999 9.9872 308.205 9.39396 308.583 8.94009L307.815 8.29991ZM306.999 10.76C306.999 11.7205 307.26 12.554 307.815 13.2201L308.583 12.5799C308.205 12.126 307.999 11.5328 307.999 10.76H306.999ZM307.819 13.2254C308.4 13.9022 309.168 14.24 310.079 14.24V13.24C309.444 13.24 308.959 13.0178 308.579 12.5746L307.819 13.2254ZM310.079 14.24C310.99 14.24 311.755 13.9018 312.323 13.2201L311.555 12.5799C311.19 13.0182 310.714 13.24 310.079 13.24V14.24ZM312.319 13.2254C312.89 12.5594 313.159 11.724 313.159 10.76H312.159C312.159 11.5293 311.949 12.1206 311.559 12.5746L312.319 13.2254ZM313.159 10.76C313.159 9.79598 312.89 8.96064 312.319 8.2946L311.559 8.9454C311.949 9.39936 312.159 9.99069 312.159 10.76H313.159ZM312.323 8.29991C311.755 7.6182 310.99 7.28 310.079 7.28V8.28C310.714 8.28 311.19 8.5018 311.555 8.94009L312.323 8.29991ZM310.079 7.28C309.168 7.28 308.4 7.61779 307.819 8.2946L308.579 8.9454C308.959 8.50221 309.444 8.28 310.079 8.28V7.28ZM322.654 5.44H323.154V4.96855L322.684 4.94086L322.654 5.44ZM322.654 8.1L322.556 8.59029L323.154 8.7099V8.1H322.654ZM320.194 8.7L319.835 8.35188L319.83 8.35766L320.194 8.7ZM319.574 16V16.5H320.074V16H319.574ZM316.734 16H316.234V16.5H316.734V16ZM316.734 5.52V5.02H316.234V5.52H316.734ZM319.354 5.52H319.854V5.02H319.354V5.52ZM319.354 6.88H318.854V8.64395L319.78 7.14237L319.354 6.88ZM322.314 5.42L322.344 4.92086L322.329 4.92H322.314V5.42ZM322.154 5.44V8.1H323.154V5.44H322.154ZM322.752 7.60971C322.526 7.56435 322.306 7.54 322.094 7.54V8.54C322.23 8.54 322.383 8.55565 322.556 8.59029L322.752 7.60971ZM322.094 7.54C321.171 7.54 320.387 7.78318 319.835 8.35193L320.553 9.04807C320.855 8.73682 321.338 8.54 322.094 8.54V7.54ZM319.83 8.35766C319.291 8.93095 319.074 9.77562 319.074 10.78H320.074C320.074 9.89105 320.271 9.34905 320.559 9.04234L319.83 8.35766ZM319.074 10.78V16H320.074V10.78H319.074ZM319.574 15.5H316.734V16.5H319.574V15.5ZM317.234 16V5.52H316.234V16H317.234ZM316.734 6.02H319.354V5.02H316.734V6.02ZM318.854 5.52V6.88H319.854V5.52H318.854ZM319.78 7.14237C320.269 6.34833 321.074 5.92 322.314 5.92V4.92C320.808 4.92 319.639 5.46501 318.929 6.61763L319.78 7.14237ZM322.285 5.91914L322.625 5.93914L322.684 4.94086L322.344 4.92086L322.285 5.91914ZM332.806 11.58V12.08H333.283L333.306 11.6038L332.806 11.58ZM325.206 11.58V11.08H324.637L324.71 11.6443L325.206 11.58ZM326.006 13.24L325.676 13.6156L325.683 13.6213L326.006 13.24ZM328.966 13.52L329.196 13.9639L329.202 13.9607L328.966 13.52ZM329.766 12.66V12.16H329.436L329.307 12.463L329.766 12.66ZM332.626 12.66L333.107 12.7982L333.29 12.16H332.626V12.66ZM330.806 15.26L331.101 15.6636L331.102 15.6628L330.806 15.26ZM323.866 14.7L324.227 14.3535L324.227 14.3535L323.866 14.7ZM323.866 6.84L323.503 6.49587L323.503 6.49587L323.866 6.84ZM331.386 6.84L331.019 7.17917L331.023 7.184L331.386 6.84ZM332.846 10.74L333.346 10.7638L333.346 10.7519V10.74H332.846ZM326.046 8.1L326.367 8.48316L326.374 8.47704L326.046 8.1ZM325.246 9.54L324.755 9.44399L324.639 10.04H325.246V9.54ZM330.006 9.54V10.04H330.603L330.498 9.45248L330.006 9.54ZM329.226 8.1L328.898 8.47704L328.898 8.47704L329.226 8.1ZM332.806 11.08H325.206V12.08H332.806V11.08ZM324.71 11.6443C324.815 12.4548 325.124 13.1308 325.676 13.6156L326.336 12.8644C326.008 12.5759 325.784 12.1452 325.702 11.5157L324.71 11.6443ZM325.683 13.6213C326.234 14.0888 326.938 14.3 327.746 14.3V13.3C327.114 13.3 326.659 13.1379 326.33 12.8587L325.683 13.6213ZM327.746 14.3C328.27 14.3 328.757 14.1916 329.196 13.9639L328.736 13.0761C328.455 13.2217 328.129 13.3 327.746 13.3V14.3ZM329.202 13.9607C329.671 13.7096 330.019 13.3393 330.226 12.857L329.307 12.463C329.193 12.7274 329.008 12.9304 328.73 13.0793L329.202 13.9607ZM329.766 13.16H332.626V12.16H329.766V13.16ZM332.146 12.5218C331.87 13.4808 331.329 14.255 330.51 14.8572L331.102 15.6628C332.097 14.9317 332.769 13.9726 333.107 12.7982L332.146 12.5218ZM330.511 14.8564C329.711 15.4417 328.769 15.74 327.666 15.74V16.74C328.963 16.74 330.115 16.3849 331.101 15.6636L330.511 14.8564ZM327.666 15.74C326.242 15.74 325.11 15.2731 324.227 14.3535L323.506 15.0465C324.595 16.1802 325.996 16.74 327.666 16.74V15.74ZM324.227 14.3535C323.342 13.4326 322.886 12.2428 322.886 10.74H321.886C321.886 12.4639 322.417 13.9141 323.506 15.0465L324.227 14.3535ZM322.886 10.74C322.886 9.29571 323.338 8.12264 324.229 7.18413L323.503 6.49587C322.42 7.63735 321.886 9.06429 321.886 10.74H322.886ZM324.229 7.18413C325.114 6.25112 326.239 5.78 327.646 5.78V4.78C325.986 4.78 324.592 5.34888 323.503 6.49587L324.229 7.18413ZM327.646 5.78C329.053 5.78 330.162 6.25086 331.019 7.17914L331.753 6.50086C330.69 5.34914 329.306 4.78 327.646 4.78V5.78ZM331.023 7.184C331.898 8.10705 332.346 9.27907 332.346 10.74H333.346C333.346 9.05426 332.821 7.62628 331.749 6.496L331.023 7.184ZM332.347 10.7162L332.307 11.5562L333.306 11.6038L333.346 10.7638L332.347 10.7162ZM327.626 7.06C326.887 7.06 326.237 7.27067 325.718 7.72296L326.374 8.47704C326.682 8.20933 327.085 8.06 327.626 8.06V7.06ZM325.725 7.7169C325.21 8.14843 324.894 8.73708 324.755 9.44399L325.737 9.63601C325.838 9.11626 326.055 8.7449 326.367 8.4831L325.725 7.7169ZM325.246 10.04H330.006V9.04H325.246V10.04ZM330.498 9.45248C330.374 8.75344 330.064 8.16637 329.554 7.72296L328.898 8.47704C329.215 8.75363 329.425 9.12656 329.514 9.62752L330.498 9.45248ZM329.554 7.72296C329.033 7.26902 328.376 7.06 327.626 7.06V8.06C328.183 8.06 328.592 8.21098 328.898 8.47704L329.554 7.72296ZM336.685 5.52H337.185V5.02H336.685V5.52ZM336.685 6.8H336.185L337.125 7.03739L336.685 6.8ZM342.665 6.42L342.289 6.74973L342.292 6.75301L342.665 6.42ZM343.665 16V16.5H344.165V16H343.665ZM340.825 16H340.325V16.5H340.825V16ZM337.465 8.34L337.83 8.6812L337.836 8.67514L337.465 8.34ZM336.905 16V16.5H337.405V16H336.905ZM334.065 16H333.565V16.5H334.065V16ZM334.065 5.52V5.02H333.565V5.52H334.065ZM336.185 5.52V6.8H337.185V5.52H336.185ZM337.125 7.03739C337.555 6.23952 338.385 5.78 339.805 5.78V4.78C338.158 4.78 336.908 5.33381 336.245 6.5626L337.125 7.03739ZM339.805 5.78C340.936 5.78 341.738 6.12199 342.289 6.74972L343.041 6.09028C342.258 5.19801 341.153 4.78 339.805 4.78V5.78ZM342.292 6.75301C342.856 7.38475 343.165 8.26755 343.165 9.46H344.165C344.165 8.09245 343.807 6.94858 343.038 6.08699L342.292 6.75301ZM343.165 9.46V16H344.165V9.46H343.165ZM343.665 15.5H340.825V16.5H343.665V15.5ZM341.325 16V9.78H340.325V16H341.325ZM341.325 9.78C341.325 9.03271 341.165 8.37889 340.758 7.90809C340.339 7.42332 339.736 7.22 339.045 7.22V8.22C339.541 8.22 339.827 8.36001 340.002 8.5619C340.188 8.77777 340.325 9.15396 340.325 9.78H341.325ZM339.045 7.22C338.257 7.22 337.582 7.46385 337.094 8.00486L337.836 8.67514C338.094 8.38948 338.472 8.22 339.045 8.22V7.22ZM337.099 7.99884C336.617 8.51599 336.405 9.20486 336.405 10H337.405C337.405 9.38181 337.566 8.964 337.83 8.68116L337.099 7.99884ZM336.405 10V16H337.405V10H336.405ZM336.905 15.5H334.065V16.5H336.905V15.5ZM334.565 16V5.52H333.565V16H334.565ZM334.065 6.02H336.685V5.02H334.065V6.02ZM355.234 11.58V12.08H355.711L355.734 11.6038L355.234 11.58ZM347.634 11.58V11.08H347.065L347.138 11.6443L347.634 11.58ZM348.434 13.24L348.104 13.6156L348.111 13.6213L348.434 13.24ZM351.394 13.52L351.624 13.9639L351.63 13.9607L351.394 13.52ZM352.194 12.66V12.16H351.865L351.735 12.463L352.194 12.66ZM355.054 12.66L355.535 12.7982L355.718 12.16H355.054V12.66ZM353.234 15.26L353.529 15.6636L353.53 15.6628L353.234 15.26ZM346.294 14.7L346.655 14.3535L346.655 14.3535L346.294 14.7ZM346.294 6.84L345.931 6.49587L345.931 6.49587L346.294 6.84ZM353.814 6.84L353.447 7.17917L353.451 7.184L353.814 6.84ZM355.274 10.74L355.774 10.7638L355.774 10.7519V10.74H355.274ZM348.474 8.1L348.796 8.48316L348.803 8.47704L348.474 8.1ZM347.674 9.54L347.184 9.44399L347.067 10.04H347.674V9.54ZM352.434 9.54V10.04H353.031L352.927 9.45248L352.434 9.54ZM351.654 8.1L351.326 8.47704L351.326 8.47704L351.654 8.1ZM355.234 11.08H347.634V12.08H355.234V11.08ZM347.138 11.6443C347.243 12.4548 347.553 13.1308 348.104 13.6156L348.764 12.8644C348.436 12.5759 348.212 12.1452 348.13 11.5157L347.138 11.6443ZM348.111 13.6213C348.662 14.0888 349.366 14.3 350.174 14.3V13.3C349.542 13.3 349.087 13.1379 348.758 12.8587L348.111 13.6213ZM350.174 14.3C350.698 14.3 351.185 14.1916 351.624 13.9639L351.164 13.0761C350.883 13.2217 350.557 13.3 350.174 13.3V14.3ZM351.63 13.9607C352.099 13.7096 352.447 13.3393 352.654 12.857L351.735 12.463C351.621 12.7274 351.436 12.9304 351.158 13.0793L351.63 13.9607ZM352.194 13.16H355.054V12.16H352.194V13.16ZM354.574 12.5218C354.298 13.4808 353.757 14.255 352.938 14.8572L353.53 15.6628C354.525 14.9317 355.197 13.9726 355.535 12.7982L354.574 12.5218ZM352.939 14.8564C352.139 15.4417 351.198 15.74 350.094 15.74V16.74C351.391 16.74 352.543 16.3849 353.529 15.6636L352.939 14.8564ZM350.094 15.74C348.671 15.74 347.538 15.2731 346.655 14.3535L345.934 15.0465C347.023 16.1802 348.425 16.74 350.094 16.74V15.74ZM346.655 14.3535C345.77 13.4326 345.314 12.2428 345.314 10.74H344.314C344.314 12.4639 344.845 13.9141 345.934 15.0465L346.655 14.3535ZM345.314 10.74C345.314 9.29571 345.767 8.12264 346.657 7.18413L345.931 6.49587C344.849 7.63735 344.314 9.06429 344.314 10.74H345.314ZM346.657 7.18413C347.542 6.25112 348.667 5.78 350.074 5.78V4.78C348.414 4.78 347.02 5.34888 345.931 6.49587L346.657 7.18413ZM350.074 5.78C351.481 5.78 352.59 6.25086 353.447 7.17914L354.182 6.50086C353.118 5.34914 351.734 4.78 350.074 4.78V5.78ZM353.451 7.184C354.326 8.10705 354.774 9.27907 354.774 10.74H355.774C355.774 9.05426 355.249 7.62628 354.177 6.496L353.451 7.184ZM354.775 10.7162L354.735 11.5562L355.734 11.6038L355.774 10.7638L354.775 10.7162ZM350.054 7.06C349.315 7.06 348.665 7.27067 348.146 7.72296L348.803 8.47704C349.11 8.20933 349.514 8.06 350.054 8.06V7.06ZM348.153 7.7169C347.638 8.14843 347.322 8.73708 347.184 9.44399L348.165 9.63601C348.267 9.11626 348.483 8.7449 348.796 8.4831L348.153 7.7169ZM347.674 10.04H352.434V9.04H347.674V10.04ZM352.927 9.45248C352.802 8.75344 352.492 8.16637 351.983 7.72296L351.326 8.47704C351.643 8.75363 351.853 9.12656 351.942 9.62752L352.927 9.45248ZM351.983 7.72296C351.461 7.26902 350.804 7.06 350.054 7.06V8.06C350.611 8.06 351.02 8.21098 351.326 8.47704L351.983 7.72296ZM363.073 5.52V5.02H362.573V5.52H363.073ZM365.913 5.52H366.413V5.02H365.913V5.52ZM365.913 16V16.5H366.413V16H365.913ZM363.293 16H362.793V16.5H363.293V16ZM363.293 14.72H363.793L362.853 14.4826L363.293 14.72ZM357.373 15.12L356.994 15.446L357 15.453L357.373 15.12ZM356.393 5.52V5.02H355.893V5.52H356.393ZM359.233 5.52H359.733V5.02H359.233V5.52ZM362.533 13.2L362.161 12.8655L362.155 12.8725L362.533 13.2ZM363.573 11.48V5.52H362.573V11.48H363.573ZM363.073 6.02H365.913V5.02H363.073V6.02ZM365.413 5.52V16H366.413V5.52H365.413ZM365.913 15.5H363.293V16.5H365.913V15.5ZM363.793 16V14.72H362.793V16H363.793ZM362.853 14.4826C362.421 15.2835 361.602 15.74 360.213 15.74V16.74C361.838 16.74 363.072 16.1832 363.733 14.9574L362.853 14.4826ZM360.213 15.74C359.094 15.74 358.297 15.404 357.746 14.787L357 15.453C357.782 16.3294 358.879 16.74 360.213 16.74V15.74ZM357.752 14.7941C357.196 14.1476 356.893 13.2544 356.893 12.06H355.893C355.893 13.4256 356.243 14.5724 356.994 15.4459L357.752 14.7941ZM356.893 12.06V5.52H355.893V12.06H356.893ZM356.393 6.02H359.233V5.02H356.393V6.02ZM358.733 5.52V11.74H359.733V5.52H358.733ZM358.733 11.74C358.733 12.4851 358.889 13.1371 359.286 13.6076C359.697 14.0944 360.292 14.3 360.973 14.3V13.3C360.494 13.3 360.219 13.1623 360.05 12.9624C359.867 12.7463 359.733 12.3683 359.733 11.74H358.733ZM360.973 14.3C361.763 14.3 362.442 14.0686 362.911 13.5275L362.155 12.8725C361.931 13.1314 361.569 13.3 360.973 13.3V14.3ZM362.905 13.5345C363.375 13.0124 363.573 12.3022 363.573 11.48H362.573C362.573 12.1511 362.411 12.5876 362.161 12.8655L362.905 13.5345ZM373.725 5.44H374.225V4.96855L373.754 4.94086L373.725 5.44ZM373.725 8.1L373.627 8.59029L374.225 8.7099V8.1H373.725ZM371.265 8.7L370.906 8.35188L370.9 8.35766L371.265 8.7ZM370.645 16V16.5H371.145V16H370.645ZM367.805 16H367.305V16.5H367.805V16ZM367.805 5.52V5.02H367.305V5.52H367.805ZM370.425 5.52H370.925V5.02H370.425V5.52ZM370.425 6.88H369.925V8.64395L370.85 7.14237L370.425 6.88ZM373.385 5.42L373.414 4.92086L373.399 4.92H373.385V5.42ZM373.225 5.44V8.1H374.225V5.44H373.225ZM373.823 7.60971C373.596 7.56435 373.376 7.54 373.165 7.54V8.54C373.3 8.54 373.453 8.55565 373.627 8.59029L373.823 7.60971ZM373.165 7.54C372.241 7.54 371.457 7.78318 370.906 8.35193L371.624 9.04807C371.925 8.73682 372.408 8.54 373.165 8.54V7.54ZM370.9 8.35766C370.362 8.93095 370.145 9.77562 370.145 10.78H371.145C371.145 9.89105 371.341 9.34905 371.629 9.04234L370.9 8.35766ZM370.145 10.78V16H371.145V10.78H370.145ZM370.645 15.5H367.805V16.5H370.645V15.5ZM368.305 16V5.52H367.305V16H368.305ZM367.805 6.02H370.425V5.02H367.805V6.02ZM369.925 5.52V6.88H370.925V5.52H369.925ZM370.85 7.14237C371.34 6.34833 372.144 5.92 373.385 5.92V4.92C371.879 4.92 370.71 5.46501 369.999 6.61763L370.85 7.14237ZM373.355 5.91914L373.695 5.93914L373.754 4.94086L373.414 4.92086L373.355 5.91914Z" fill="black"/>
</g>
<defs>
<filter id="filter0_d" x="0.339996" y="0.5" width="377.885" height="28.16" filterUnits="userSpaceOnUse" color-interpolation-filters="sRGB">
<feFlood flood-opacity="0" result="BackgroundImageFix"/>
<feColorMatrix in="SourceAlpha" type="matrix" values="0 0 0 0 0 0 0 0 0 0 0 0 0 0 0 0 0 0 127 0"/>
<feOffset dy="4"/>
<feGaussianBlur stdDeviation="2"/>
<feColorMatrix type="matrix" values="0 0 0 0 0 0 0 0 0 0 0 0 0 0 0 0 0 0 0.25 0"/>
<feBlend mode="normal" in2="BackgroundImageFix" result="effect1_dropShadow"/>
<feBlend mode="normal" in="SourceGraphic" in2="effect1_dropShadow" result="shape"/>
</filter>
</defs>
</svg>
