<svg width="80" height="80" viewBox="0 0 80 80" fill="none" xmlns="http://www.w3.org/2000/svg">
<rect width="79.2788" height="79.353" rx="4" fill="#007ACC"/>
<path fill-rule="evenodd" clip-rule="evenodd" d="M68.8558 37.9871C67.4506 36.5452 65.8848 35.6366 63.8373 35.1625L63.8774 35.123C62.4923 34.7675 59.1802 34.649 57.775 34.9255C53.439 35.7156 50.4079 38.4809 49.5447 42.4314C49.2637 43.5573 49.364 46.3621 49.6651 47.5078C50.0666 48.8312 50.9298 50.4311 51.8733 51.4583C53.5193 53.157 55.2858 54.2631 59.4411 56.0013C63.0544 57.5815 64.3391 58.2926 64.9815 59.1617C65.4432 59.853 65.5837 60.2678 65.5837 61.1764C65.5837 62.1641 65.2625 62.8752 64.5198 63.5467C62.7934 65.0874 59.3006 65.2652 56.691 63.9418C55.8278 63.4677 54.3424 62.0851 53.6799 61.0579L53.158 60.3666L50.8896 61.6703L47.8786 63.3887L47.1158 63.8628C47.0355 64.001 48.4607 66.1146 49.2034 66.9046C51.0904 68.9391 54.1617 70.5193 57.3735 71.1119C58.879 71.3687 62.0909 71.4082 63.496 71.1712C67.9725 70.4403 71.104 68.2083 72.3887 64.9097C73.533 61.8875 73.1516 57.858 71.4453 55.2902C69.9397 52.9989 67.4506 51.399 61.7095 48.9695C58.598 47.6263 57.5943 46.9745 57.0523 45.8881C56.8114 45.3745 56.691 45.019 56.691 44.3869C56.691 42.3129 58.2969 41.0685 60.7058 41.2265C62.3719 41.345 63.4358 41.9771 64.4797 43.4388C64.8008 43.9523 65.122 44.2881 65.2023 44.2289C67.3101 42.945 70.7828 40.6339 70.7828 40.5154C70.7025 40.1599 69.5985 38.7772 68.8558 37.9871ZM16.9247 41.6808V38.4612L16.9849 38.4809V35.2415L31.0366 35.1823C38.765 35.1823 45.1285 35.202 45.1285 35.2613C45.2087 35.3008 45.2087 36.7427 45.2087 38.5204V41.6808H34.7703V70.9144H27.3631V41.6808H16.9247Z" fill="white"/>
</svg>
