<svg width="13" height="14" viewBox="0 0 13 14" fill="none" xmlns="http://www.w3.org/2000/svg">
<path d="M5.99401 0.000122137C5.44249 0.00874321 5.00208 0.462262 5.00964 1.01379V9.59973L1.71667 6.30676C1.5284 6.11323 1.26987 6.00404 0.99987 6.00403C0.592947 6.00413 0.226661 6.25078 0.0735386 6.6278C-0.0795834 7.00481 0.0109928 7.43701 0.302604 7.72083L5.21471 12.6329C5.40335 12.8805 5.69648 13.0261 6.00769 13.0268C6.31891 13.0276 6.61275 12.8834 6.8026 12.6368C6.80391 12.6349 6.80522 12.6329 6.80651 12.631L11.7167 7.72083C11.9779 7.47001 12.0831 7.09756 11.9918 6.74712C11.9004 6.39667 11.6268 6.123 11.2763 6.03164C10.9259 5.94029 10.5534 6.04552 10.3026 6.30676L7.00964 9.59973V1.01379C7.01334 0.743494 6.90746 0.483207 6.71613 0.292242C6.52479 0.101277 6.2643 -0.00409959 5.99401 0.000122137Z" fill="#ABB1BD"/>
</svg>
